<svg version="1.1" id="Layer_1" xmlns="http://www.w3.org/2000/svg" x="0" y="0" width="213" height="242" xml:space="preserve"><path fill="#262525" d="M.053 16.203v71.395H71.11V16.203H.053zm34.205 60.409H15.705V28.806h18.938c8.16 0 13.934 1.963 17.321 5.889 3.387 3.926 5.081 9.584 5.081 16.975 0 16.628-7.596 24.942-22.787 24.942z"/><path fill="#262525" d="M33.719 41.354h-1.617v23.249h1.924c2.618 0 4.311-.897 5.081-2.694.77-1.796 1.155-4.785 1.155-8.969 0-4.182-.423-7.159-1.271-8.93-.845-1.771-2.604-2.656-5.272-2.656zm40.62 10.037c0-8.546 1.706-14.743 5.12-18.592 3.413-3.85 9.032-5.774 16.859-5.774 7.826 0 13.42 1.899 16.782 5.697 3.361 3.799 5.043 9.97 5.043 18.515s-1.732 14.871-5.197 18.977c-3.463 4.106-9.058 6.158-16.781 6.158-7.725 0-13.293-2.026-16.706-6.081s-5.12-10.355-5.12-18.9zm26.252-9.162c-.667-1.309-2.105-1.963-4.311-1.963-2.207 0-3.618.642-4.234 1.924-.616 1.283-.924 4.03-.924 8.237v3.388c0 4.311.333 7.108 1 8.391.667 1.284 2.129 1.925 4.388 1.925 2.258 0 3.669-.616 4.234-1.848.564-1.231.847-3.977.847-8.237v-3.541c.001-4.208-.334-6.967-1-8.276zm60.817 33.373h-15.705l-9.7-18.861h-.539v18.861h-14.626V27.795h16.243l9.084 19.477h.461V27.795h14.781l.001 47.807zm50.345-34.797h-10.162v34.797h-16.397V40.805h-10.701l.693-13.01h37.49l-.923 13.01zM44.907 134.77c0 10.705-6.647 16.057-19.939 16.057H0v-54.79h24.615c6.586 0 11.454 1.177 14.601 3.529 3.146 2.353 4.72 5.97 4.72 10.852 0 4.883-2.06 8.646-6.176 11.293v.354c4.765 2.175 7.147 6.412 7.147 12.705zm-21.13-16.941c.499-.706.75-1.926.75-3.662 0-1.733-.251-2.984-.75-3.749-.5-.764-1.31-1.147-2.426-1.147h-2.558v9.617h2.646c1.059 0 1.838-.354 2.338-1.059zm.75 21.042c.529-.676.794-2.104.794-4.279s-.28-3.72-.838-4.632c-.56-.911-1.604-1.367-3.132-1.367h-2.558v11.292h2.558c1.588 0 2.647-.337 3.176-1.014zm58.051 11.954H49.67V96.037h18.88v40.584h15.263l-1.235 14.204zm22.674 0H86.637V96.037h18.615v54.788zm54.081 0h-17.998l-11.116-21.615h-.617v21.615h-16.764V96.037h18.616l10.411 22.321h.529V96.037h16.938v54.788zm52.23 0H190.83l-5.559-18.175h-.971v18.175h-17.91V96.037h17.91v21.703h.971l6.97-21.703h20.204l-11.381 28.497 10.499 26.291zM31.536 210.409c1.288 0 3.004-.216 5.15-.644v-6.438h-5.365V188.52h25.321v38.306H40.441l-1.609-3.435h-.429c-3.72 3.006-8.119 4.508-13.197 4.508-16.738 0-25.107-11.303-25.107-33.905 0-11.302 2.27-19.938 6.813-25.912 4.542-5.972 12.213-8.959 23.015-8.959 8.01 0 15.593 1.11 22.747 3.326l-3.541 20.172c-8.012-2.218-13.752-3.326-17.221-3.326-3.47 0-5.758 1.146-6.867 3.433-1.11 2.291-1.663 6.188-1.663 11.695 0 5.51.518 9.551 1.556 12.125 1.035 2.573 3.235 3.861 6.598 3.861zm73.925 16.416H62.973v-66.63h43.991l-1.502 17.703H85.934v8.048h17.06v15.45h-17.06v9.119h21.03l-1.503 16.31zm46.781 0h-42.489v-66.63h43.991l-1.502 17.703h-19.528v8.048h17.06v15.45h-17.06v9.119h21.03l-1.502 16.31zm59.226 0h-25.214l-6.76-22.103h-1.18v22.103h-21.781v-66.63h21.781v26.395h1.18l8.477-26.395h24.57L198.7 194.852l12.768 31.973zm-48.07-195.689c0-1.211.384-2.116 1.15-2.714.766-.598 1.971-.897 3.611-.897s2.813.345 3.52 1.035c.704.69 1.057 1.848 1.057 3.473 0 1.626-.498 3.029-1.494 4.209-.997 1.181-2.385 2.308-4.163 3.381l-4.002-.598 3.174-4.278c-1.012-.214-1.741-.567-2.185-1.058-.444-.49-.668-1.341-.668-2.553z"/><path fill="none" stroke="#262525" stroke-width="5" stroke-miterlimit="10" d="M.053 239.5h212.588M.053 2.5h212.588"/></svg>