<svg xmlns="http://www.w3.org/2000/svg" width="356.8" height="360.01"><path d="M272.1 18.9a5.52 5.52 0 0 1 1.9-4.5 9.84 9.84 0 0 1 6-1.5 8.39 8.39 0 0 1 5.9 1.7 8.08 8.08 0 0 1 1.8 5.8 9.89 9.89 0 0 1-2.5 7 28.88 28.88 0 0 1-6.9 5.6l-6.6-1 5.3-7.1a6.42 6.42 0 0 1-3.7-1.8 6 6 0 0 1-1.2-4.2z" fill="#262525"/><path d="M58.6 330.4a49.89 49.89 0 0 0 8.7-1.1v-10.9h-9.1v-25.1h42.9v64.9H73.7l-2.7-5.8h-.7a34.19 34.19 0 0 1-22.4 7.6q-42.6 0-42.6-57.5c0-19.2 3.9-33.8 11.6-43.9s20.7-15.2 39-15.2a125.64 125.64 0 0 1 38.5 5.7l-6 34.2c-13.5-3.7-23.3-5.6-29.2-5.6s-9.8 1.9-11.7 5.8-2.8 10.5-2.8 19.8.9 16.2 2.7 20.6 5.5 6.5 11.2 6.5zM355 358.2h-42.7l-11.5-37.5h-2v37.5h-36.9V245.3h36.9V290h2l14.4-44.7h41.6L333.3 304zm-108.6-72.5c-11.5-3.9-18.7-5.9-21.6-5.9-4.2 0-6.4 2.1-6.4 6.4s1.8 6.4 5.4 6.4h13.9v22.3h-14c-4.9 0-7.3 2.3-7.3 6.9s2.1 6.9 6.2 6.9c3.1 0 10.4-1.8 21.8-5.3l7 24.5a124.41 124.41 0 0 1-17 5.3 73.3 73.3 0 0 1-15.5 1.4c-12.2 0-21.5-2.7-27.9-8s-9.6-12.9-9.6-22.6c0-11.2 4.4-18.8 13.1-22.6v-.6a22.3 22.3 0 0 1-8.9-8.3 24.11 24.11 0 0 1-2.7-12.1c0-8.8 3.1-15.7 9.2-20.5s15.1-7.3 26.9-7.3a79.63 79.63 0 0 1 34.6 8.1z"/><path d="M175.7 285.7c-11.5-3.9-18.7-5.9-21.6-5.9-4.2 0-6.4 2.1-6.4 6.4s1.8 6.4 5.4 6.4H167v22.3h-14.1c-4.9 0-7.3 2.3-7.3 6.9s2.1 6.9 6.2 6.9c3.1 0 10.4-1.8 21.8-5.3l7 24.5a124.41 124.41 0 0 1-17 5.3 73.3 73.3 0 0 1-15.5 1.4c-12.2 0-21.5-2.7-27.9-8s-9.6-12.9-9.5-22.6c0-11.2 4.4-18.8 13.1-22.6v-.6a22.3 22.3 0 0 1-8.9-8.3 24.11 24.11 0 0 1-2.7-12.1c0-8.8 3.1-15.7 9.2-20.5s15.1-7.3 26.9-7.3a79 79 0 0 1 34.7 8.1z"/><path d="M56.2 41.9h-2.7v38.7h3.2c4.3 0 7.2-1.5 8.5-4.5s1.9-8 1.9-15-.7-11.9-2.1-14.9-4.3-4.3-8.8-4.3z" fill="#007d9f"/><path d="M.2 0v118.8h118.2V0zm56.9 100.5H26.2V21h31.5c13.6 0 23.2 3.3 28.8 9.8S95 46.7 95 59.1c0 27.6-12.7 41.5-37.9 41.4z" fill="#007d9f"/><path d="M123.8 58.6c0-14.2 2.8-24.5 8.5-30.9s15.1-9.7 28.1-9.7 22.3 3.2 27.9 9.5 8.4 16.6 8.3 30.8-2.9 24.8-8.6 31.6-15.1 10.3-27.9 10.2S138 96.7 132.3 90s-8.5-17.2-8.5-31.4zm43.7-15.3q-1.65-3.3-7.2-3.3c-3.7 0-6 1.1-7 3.2s-1.5 6.7-1.5 13.7v5.6c0 7.2.6 11.8 1.7 14s3.5 3.2 7.3 3.2 6.1-1 7.1-3.1 1.4-6.7 1.4-13.7v-5.8q-.15-10.5-1.8-13.8zm101.2 55.6h-26.2l-16.1-31.4h-.9v31.4h-24.3V19.3h27l15.1 32.4h.8V19.3h24.6zm83.8-58h-16.9v57.9h-27.3V40.9h-17.8l1.2-21.6h62.4zM74.8 197.3c0 17.8-11.1 26.7-33.2 26.7H0v-91.2h41c11 0 19.1 2 24.3 5.9s7.9 10 7.9 18.1a20.92 20.92 0 0 1-10.3 18.8v.6c8 3.6 11.9 10.7 11.9 21.1zm-35.1-28.2A11.85 11.85 0 0 0 41 163a11.23 11.23 0 0 0-1.3-6.2 4.45 4.45 0 0 0-4-1.9h-4.3v16h4.4a4.1 4.1 0 0 0 3.9-1.8zm1.2 35c.9-1.1 1.3-3.5 1.3-7.1a15.71 15.71 0 0 0-1.4-7.7 5.83 5.83 0 0 0-5.2-2.3h-4.2v18.8h4.3c2.6 0 4.4-.5 5.2-1.7zm96.7 20H82.8v-91.2h31.4v67.6h25.4zm37.7 0h-31v-91.2h31zm90 0h-30l-18.5-36h-1v36h-27.9v-91.2h31l17.3 37.1h.9v-37.1h28.2zm86.9 0h-34.5l-9.3-30.2h-1.7v30.2H277v-91.2h29.8V169h1.7l11.7-36.1h33.6l-19 47.4z" fill="#262525"/><path d="M53.6 325.4a49.89 49.89 0 0 0 8.7-1.1v-10.9h-9.1v-25.1h42.9v64.9H68.7l-2.7-5.8h-.7a34.19 34.19 0 0 1-22.4 7.6Q.3 355 .3 297.6c0-19.1 3.9-33.8 11.6-43.9s20.7-15.2 39-15.2a128.47 128.47 0 0 1 38.5 5.6l-6 34.2c-13.5-3.7-23.3-5.6-29.2-5.6s-9.8 1.9-11.7 5.8-2.8 10.5-2.8 19.8.9 16.2 2.7 20.5 5.5 6.6 11.2 6.6zM350 353.2h-42.7l-11.5-37.5h-2v37.5h-36.9V240.3h36.9V285h2l14.4-44.7h41.6L328.3 299zm-108.6-72.5c-11.5-3.9-18.7-5.9-21.6-5.9-4.2 0-6.4 2.1-6.4 6.4s1.8 6.4 5.4 6.4h13.9v22.3h-14c-4.9 0-7.3 2.3-7.3 6.9s2.1 6.9 6.2 6.9c3.1 0 10.4-1.8 21.8-5.3l7 24.5a124.41 124.41 0 0 1-17 5.3 73.3 73.3 0 0 1-15.5 1.4c-12.2 0-21.5-2.7-27.9-8s-9.6-12.9-9.6-22.6c0-11.2 4.4-18.8 13.1-22.6v-.6a22.3 22.3 0 0 1-8.9-8.3 24.11 24.11 0 0 1-2.7-12.1c0-8.8 3.1-15.7 9.2-20.6s15.1-7.3 26.9-7.3a78.22 78.22 0 0 1 34.6 8.1zm-70.7 0c-11.5-3.9-18.7-5.9-21.6-5.9-4.2 0-6.4 2.1-6.4 6.4s1.8 6.4 5.4 6.4H162v22.3h-14.1c-4.9 0-7.3 2.3-7.3 6.9s2.1 6.9 6.2 6.9c3.1 0 10.4-1.8 21.8-5.3l7 24.5a124.41 124.41 0 0 1-17 5.3 73.3 73.3 0 0 1-15.5 1.4c-12.2 0-21.5-2.7-27.9-8s-9.6-12.9-9.5-22.6c0-11.2 4.4-18.8 13.1-22.6v-.6a22.3 22.3 0 0 1-8.9-8.3 24.11 24.11 0 0 1-2.7-12.1c0-8.8 3-15.7 9.1-20.6s15.1-7.3 26.9-7.3a78.22 78.22 0 0 1 34.6 8.1z" fill="#007d9f"/></svg>