<svg version="1.1" id="Layer_1" xmlns="http://www.w3.org/2000/svg" x="0" y="0" width="337.041" height="361.217" viewBox="-124.365 -60.113 337.041 361.217" xml:space="preserve"><path fill="#FFFDE8" d="M.053 16.203v71.395H71.11V16.203H.053zm34.205 60.409H15.705V28.806h18.938c8.16 0 13.934 1.963 17.321 5.889 3.387 3.926 5.081 9.584 5.081 16.975 0 16.628-7.596 24.942-22.787 24.942z"/><path fill="#FFFDE8" d="M33.719 41.354h-1.617v23.249h1.924c2.618 0 4.311-.897 5.081-2.694.77-1.796 1.155-4.785 1.155-8.969 0-4.182-.423-7.159-1.271-8.93-.845-1.771-2.604-2.656-5.272-2.656zm40.62 10.037c0-8.546 1.706-14.743 5.12-18.592 3.413-3.85 9.032-5.774 16.859-5.774 7.826 0 13.42 1.899 16.782 5.697 3.361 3.799 5.043 9.97 5.043 18.515s-1.729 14.871-5.197 18.977c-3.463 4.106-9.055 6.158-16.778 6.158-7.725 0-13.293-2.026-16.706-6.081s-5.123-10.355-5.123-18.9zm26.252-9.162c-.667-1.309-2.105-1.963-4.311-1.963-2.207 0-3.618.642-4.234 1.924-.616 1.283-.924 4.03-.924 8.237v3.388c0 4.311.333 7.108 1 8.391.667 1.284 2.129 1.925 4.388 1.925 2.258 0 3.669-.616 4.234-1.848.564-1.231.847-3.977.847-8.237v-3.541c.001-4.208-.334-6.967-1-8.276zm60.817 33.373h-15.705l-9.7-18.861h-.539v18.861h-14.626V27.795h16.243l9.084 19.477h.461V27.795h14.781l.001 47.807zm50.345-34.797h-10.162v34.797h-16.397V40.805h-10.698l.69-13.01h37.49l-.923 13.01zM44.907 134.77c0 10.705-6.647 16.06-19.939 16.06H0V96.04h24.615c6.586 0 11.454 1.177 14.601 3.529 3.146 2.353 4.72 5.97 4.72 10.852 0 4.883-2.06 8.646-6.176 11.293v.354c4.765 2.172 7.147 6.409 7.147 12.702zm-21.13-16.941c.499-.706.75-1.926.75-3.662 0-1.733-.251-2.984-.75-3.749-.5-.764-1.31-1.147-2.426-1.147h-2.558v9.617h2.646c1.059 0 1.838-.354 2.338-1.059zm.75 21.042c.529-.676.794-2.104.794-4.279s-.28-3.72-.838-4.632c-.56-.911-1.604-1.367-3.132-1.367h-2.558v11.292h2.558c1.588 0 2.647-.337 3.176-1.014zm58.051 11.954H49.67V96.037h18.88v40.584h15.263l-1.235 14.204zm22.674 0H86.637V96.037h18.615v54.788zm54.081 0h-17.998l-11.116-21.615h-.617v21.615h-16.764V96.037h18.616l10.411 22.321h.529V96.037h16.938l.001 54.788zm52.23 0H190.83l-5.559-18.175h-.971v18.175h-17.909V96.037H184.3v21.703h.972l6.972-21.703h20.202l-11.381 28.497 10.498 26.291zM31.536 210.409c1.288 0 3.004-.216 5.15-.644v-6.438h-5.365V188.52h25.321v38.309H40.441l-1.609-3.438h-.429c-3.72 3.006-8.119 4.508-13.197 4.508-16.738 0-25.107-11.303-25.107-33.902 0-11.305 2.27-19.938 6.813-25.912 4.542-5.975 12.213-8.959 23.015-8.959 8.01 0 15.593 1.107 22.747 3.326l-3.541 20.172c-8.012-2.221-13.752-3.326-17.221-3.326-3.47 0-5.758 1.146-6.867 3.436-1.11 2.291-1.663 6.188-1.663 11.692 0 5.513.518 9.554 1.556 12.125 1.035 2.57 3.235 3.858 6.598 3.858zm73.925 16.416H62.973v-66.63h43.991l-1.502 17.703H85.934v8.048h17.06v15.45h-17.06v9.119h21.03l-1.503 16.31zm46.781 0h-42.489v-66.63h43.991l-1.502 17.703h-19.528v8.048h17.06v15.45h-17.06v9.119h21.03l-1.502 16.31zm59.226 0h-25.214l-6.76-22.103h-1.18v22.103h-21.781v-66.63h21.781v26.395h1.18l8.477-26.395h24.57L198.7 194.852l12.768 31.973zm-48.07-195.689c0-1.211.384-2.116 1.147-2.714.769-.598 1.974-.897 3.611-.897s2.813.345 3.521 1.035c.702.69 1.057 1.848 1.057 3.473 0 1.626-.498 3.029-1.493 4.209-.997 1.181-2.386 2.308-4.163 3.381l-4.002-.598 3.174-4.278c-1.014-.214-1.741-.567-2.186-1.058-.442-.49-.666-1.341-.666-2.553z"/><path fill="none" stroke="#FFFDE8" stroke-width="5" stroke-miterlimit="10" d="M.053 239.5h212.588M.053 2.5h212.588"/><path fill="#FCCEA4" d="M-83.781-10.585c-.002-2.042-.069-4.009-.334-6.01a3.018 3.018 0 0 0-.277-.948c-.014-.169-.021-.337-.037-.506a2.551 2.551 0 0 0-.328-1.069c.047-.621-.116-1.307-.576-1.603-.826-.533-1.697-.739-2.545-.682-.073-.009-.148-.011-.223-.016a.687.687 0 0 0-.395-.029c-1.107-.002-2.188.366-3.053 1.482-1.247 1.608-1.404 4.333-.959 6.681.018.093.043.185.063.278.132 1.206.451 2.345.996 3.245.137.227.285.42.438.598 1.501 2.67 3.742 4.253 5.75 2.822.634-.159 1.179-.924 1.179-2.294 0-.191-.004-.38-.004-.57.179-.374.305-.822.305-1.379z"/><path fill="#754007" d="M-85.479-11.842c-.001-.802-.026-1.574-.132-2.36a1.218 1.218 0 0 0-.107-.372c-.007-.066-.01-.132-.016-.199a.965.965 0 0 0-.129-.42c.02-.243-.045-.513-.225-.629a1.63 1.63 0 0 0-1-.268c-.029-.004-.059-.004-.088-.007a.282.282 0 0 0-.154-.011 1.433 1.433 0 0 0-1.199.582c-.49.631-.552 1.701-.377 2.623.008.037.018.073.025.109.052.474.177.921.391 1.274.054.09.112.165.172.234.59 1.049 1.47 1.67 2.258 1.109.25-.063.463-.363.463-.901l-.002-.224c.07-.146.12-.321.12-.54z"/><path fill="#FCCEA4" d="M-40.587-8.274c.283-1.75.613-3.426 1.117-5.104.097-.325.227-.571.367-.773.036-.143.065-.286.104-.428.101-.392.256-.658.428-.872.046-.538.28-1.103.716-1.293a3.573 3.573 0 0 1 2.272-.232c.067.003.129.012.194.017a.602.602 0 0 1 .342.03c.949.152 1.822.616 2.408 1.692.849 1.55.604 3.906-.103 5.857-.024.077-.063.152-.091.229-.279 1.015-.711 1.946-1.301 2.642a3.732 3.732 0 0 1-.459.451c-1.654 2.08-3.795 3.126-5.316 1.623-.521-.224-.881-.955-.691-2.129.026-.164.055-.325.082-.488a2.703 2.703 0 0 1-.069-1.222z"/><path fill="#754007" d="M-38.019-9.528c.121-.744.26-1.458.475-2.171a1.12 1.12 0 0 1 .158-.329c.015-.061.025-.122.043-.183a.927.927 0 0 1 .183-.37c.019-.229.121-.469.304-.551a1.53 1.53 0 0 1 .967-.098c.028 0 .055.005.084.007a.268.268 0 0 1 .146.013c.403.064.774.261 1.022.72.36.659.258 1.661-.043 2.491-.011.032-.025.064-.039.098-.119.431-.302.828-.554 1.123a1.58 1.58 0 0 1-.194.191c-.705.885-1.613 1.331-2.262.691-.221-.095-.373-.406-.294-.905.011-.071.022-.139.035-.209a1.126 1.126 0 0 1-.031-.518z"/><path fill="#FFBE73" d="M-37.427-8.545c2.351-3.559 1.576-15.863 1.199-18.936-2.021-16.56-13.398-17.562-19.822-18.457-11.918-1.66-27.229 1.27-29.429 13.041-2.778 14.859-.433 28.065 3.701 44.207 3.377 13.186 11.073 13.639 17.966 15.023 7.093 1.424 19.884 1.79 21.802-3.795 3.54-10.303-1.042-22.561 4.583-31.083z"/><path fill="#FFC579" d="M-23.398 160.854c-.519-2.033-.021-6.02-1.535-7.459a4.082 4.082 0 0 0-1.183-.775c-.022-.031-.056-.059-.069-.098-1.373-3.82-.59-17.59.033-26.938.281-4.197-2.021-10.162-3.08-14.242-.714-2.75.693-8.012-2.941-8.43-4.41-.51-6.94 4.82-7.639 7.975-1.305 5.891-.676 6.023.131 14.191.642 6.504 9.115 21.996 5.119 28.275-.001.002-1.875 2.303-2.169 2.688-.479.631-.72 2.041-.756 3.66-.032 1.498 1.481 1.5 1.771 2.902.312 1.516-.021 4.621.599 4.93 2.108 1.049 2.049-.408 3.803-.564 3.449-.307 4.712.396 6.892-2.168 1.34-1.574 1.278-2.953 1.024-3.947z"/><path fill="#FFF" d="M-25.787 116.16c-.555-2.654-2.348-8.236-2.65-11.615-1.128-12.583-.937-25.099-1.558-37.733-.216-4.39-.755-8.752-1.045-13.135-.228-3.448-.409-6.887-1.978-10.033-.172-.342-.543-.296-.756-.085-.171-.029-.345.037-.438.252-1.09 2.55-.956 5.37-1.605 8.038-.943 3.878-2.215 7.667-3.13 11.555-1.752 7.435-2.323 14.97-2.547 22.585-.235 8.091-.036 16.192.221 24.281.112 3.543.448 7.146.296 10.689-.1 2.281-.572 4.826.575 6.914.778 1.412 2.767 1.365 4.108 1.143 2.896-.479 5.826-.939 8.604-1.92 1.004-.354 3.729-1.051 3.848-2.201.354-3.454-.808-3.284-1.945-8.735z"/><path fill="#D7DFF1" d="M-23.486 118.203s-.044 4.002-.063 5.561c-.012 1.074.086 3.234-.047 4.297-.086.688-1.615 1.404-9.828 1.861-7.555.42-7.866 1.301-9.896.08-3.152-1.895-4.768-9.9-2.052-11.879 2.082-1.518 8.872-.24 11.829-.322 2.517-.068 8.185-.996 10.057.402z"/><path fill="#9FB1D5" d="M-32.876 100.103c-.807.016-1.689.123-2.473.309-.692.166-1.733.622-1.972 1.364-.231.725.927 1.111 1.09.398.103-.449 1.029-.756 1.413-.986.618-.371 1.244-.721 1.952-.891.101-.025.109-.196-.01-.194zm1.225-2.669c-2.571.227-4.671-.418-7.176-.943-.162-.035-.306.082-.142.153 1.871.811 5.594 2.058 7.746 1.554.647-.151.321-.829-.428-.764zm-2.129-2.68c-1.864-.384-3.212-1.285-4.87-2.186-.105-.059-.232-.007-.132.079 1.149.969 3.517 2.638 5.144 2.738.488.03.402-.519-.142-.631zm-21.374-61.775c-.582-1.352-3.015-1.822-4.227-2.138-2.479-.647-5.006-1.293-7.551-1.584-2.678-.306-6.062-1.255-8.521.14-2.255-.068-.102 4.365 1.397 4.926 2.831 1.06 6.164.869 9.136 1.004 2.939.134 5.912.403 8.836-.078 1.188-.195 1.317-1.372.93-2.27z"/><path fill="#FFBE73" d="M-38.042 40.701c-5.57-1.765-9.205-1.903-15.421-4.473-5.25-2.375-4.721-10.456-4.224-17.666-2.169-3.149-14.507-.258-14.507-.258s1.735 13.256-5.908 16.312c-.203.082-.363.202-.537.257-3.972 1.261-8.613 1.02-13.482 1.643-12.453 1.593-9.078 1.858-6.605 21.505.408 3.243 4.703 19.247 6.883 33.597 1.555 10.239 1.078 31.636 1.076 34.987-.006 9.625 3.91 21.346 5.946 22.938 1.176.922 12.37-.912 22.829-.289 7.654.455 14.877 4.059 17.674 1.871 6.619-5.178 6.267-11.689 6.694-20.865.303-6.502 1.637-37.593 3.063-56.28.563-7.364 1.18-13.035 1.18-14.162-.001-15.952 2.786-16.756-4.661-19.117z"/><path fill="#36230A" d="M-38.708 9.585c-.098-2.379-.385-4.695-.98-6.999-.009-.037-.041-.051-.058-.083a47.28 47.28 0 0 0-.048-2.437c-.035-.742-1.036-.764-1.18-.1-.203.126-.393.241-.572.448-.313.364-.631.724-.94 1.088-.099.115-.204.225-.308.337-.24-.252-.614-.354-1.004-.138-.471.259-.795.578-1.096.947-.811-.264-1.947.095-2.68.518l-.08.048a1.257 1.257 0 0 0-.247-.389c-.769-.774-5.218 2.381-5.267 2.414-.835-.836-5.271-.521-5.924-.097-.686-.604-5.078-3.539-5.597-3.803-.269-.137-.642.027-.628.36.001.024.01.039.01.061-.475-.315-.964-.614-1.417-.906-.864-.561-2.264-1.326-3.247-.699-.088.057-.146.134-.209.208-.786-.336-1.505-.843-2.254-1.253-.528-.29-1.979-.7-2.295-.015-.039-.023-.076-.042-.115-.066-.448-.268-.828-.644-1.223-.98-.807-.688-1.906-1.591-3.031-1.23a.889.889 0 0 0-.541.493 14.24 14.24 0 0 0-1.333-.476c-1.274-.404-2.407-.828-3.497-1.636a.528.528 0 0 0-.318-.105c-.2-.263-.691-.2-.701.221-.029 1.172.186 2.301.478 3.433.018 1.025.19 2.079.323 2.996.238 1.644.143 4.506 1.51 5.613a.813.813 0 0 0 .285.146l.018.2c.105 1.161.096 2.689.518 3.908.004.155.007.315.008.468.017 2.15-.168 5.463 1.549 7.009a.87.87 0 0 0 .954.142c.12.49.231.956.317 1.38.198.982 1.108 1.224 1.858.963.239.656.562 1.248 1.027 1.673a.63.63 0 0 0 .534.152c.056.142.105.295.163.432.256.605.776.706 1.245.534.324.459.866.719 1.461.556a1.29 1.29 0 0 0 .224-.089c.03.117.058.24.089.353.283 1.028 1.301 1.238 2.056.902.39.761 1.104 1.27 2.021 1.017.367-.101.699-.357.938-.686.018.056.033.114.053.171.37 1.067 1.549.956 2.011.292.298.336.725.519 1.217.383.111-.031.212-.08.306-.139.314.625.912 1.04 1.654.835.378-.104.717-.403.906-.769.034.061.061.128.099.186.477.733 1.269.623 1.72.179l.015.041c.196.452.82.629 1.258.511.036-.01.056-.033.089-.045.017.042.023.083.041.125.258.685.896 1.147 1.652.938.319-.087.561-.273.726-.509.364.249.875.231 1.281.03.613.923 2.187.626 2.609-.316.498.505 1.49.541 1.997.018.571.635 1.82.599 2.319-.099.619.094 1.308-.165 1.58-.771.236.113.484.193.73.193.911 0 1.506-.663 1.659-1.487.746.069 1.548-.295 1.794-1.154.132-.465.15-.98.15-1.483.666.011 1.336-.35 1.492-1.096.168-.807.108-1.625.016-2.442a.907.907 0 0 0 .369-.626c.185-1.232-.012-2.535-.147-3.816.341-.148.556-.496.587-.891a3.2 3.2 0 0 0-.074-.91c.426-.245.726-.728.617-1.426-.082-.529-.107-1.104-.173-1.662l.033-.017c.368-.211.636-.646.618-1.077z"/><path fill="#754007" d="M-47.45 4.917c-1.121.081-2.173.498-3.248.803-1.604.453-3.127.535-4.771.631-.118.007-.133.16-.025.201 2.32.895 6.023-.201 8.146-1.263.173-.088.095-.386-.102-.372zm-.405 2.607c-2.744.43-5.18 2.492-8.117 1.395-.064-.023-.109.083-.047.11 2.457 1.05 6.231.45 8.283-1.303.102-.087-.011-.218-.119-.202zm6.09-3.935c-.742.182-1.435.763-2.115 1.114-.898.463-1.815.867-2.682 1.399-.162.101-.019.34.152.256.908-.449 1.857-.81 2.787-1.214.695-.303 1.633-.668 1.992-1.378.05-.094-.028-.203-.134-.177zm-.699 2.087c-1.198.616-2.651 1.014-3.733 1.82-.142.104-.063.376.13.306 1.271-.47 2.752-1 3.755-1.929.108-.101-.031-.259-.152-.197zm-1.051-2.713c-.809.049-1.488.694-2.029 1.238-.107.11.037.313.17.219.613-.444 1.404-.704 1.966-1.203.091-.085.02-.261-.107-.254zm3.041-1.989c-.541.319-1.078.896-1.268 1.5-.05.16.156.267.271.158.441-.424.984-.91 1.219-1.485.055-.129-.116-.235-.222-.173zm-17.742 5.368c-.441-.008-.82.18-1.271.197-.613.024-1.188-.236-1.717-.518-1.063-.568-1.741-1.459-2.44-2.397-.104-.135-.365-.062-.297.125.408 1.134 1.516 2.051 2.502 2.674.816.516 2.619 1.185 3.354.236.095-.124.046-.315-.131-.317zm.518 2.288c-.834-.487-1.826-.369-2.768-.425-1.775-.105-2.857-1.131-4.153-2.179-.066-.054-.175.014-.125.096 1.4 2.289 4.461 2.98 6.974 2.777.136-.012.202-.193.072-.269zm-7.348-5.519c-.189-.162-.407-.162-.646-.229-.395-.113-.758-.346-1.1-.573-.644-.428-1.109-.982-1.643-1.526-.119-.124-.293.031-.227.174.333.696 1.055 1.26 1.668 1.699.408.293 1.42.975 1.926.623.053-.038.078-.121.022-.168zm-1.12 3.671c-.455-.347-.993-.573-1.464-.902-.621-.433-1.154-.991-1.682-1.529-.939-.96-1.758-2.119-2.393-3.303-.07-.134-.261-.016-.199.117.644 1.384 1.516 2.603 2.513 3.752.726.836 1.974 2.09 3.156 2.116.148.003.165-.176.069-.251zm-6.677-4.604c-.681-.512-1.344-1.091-1.807-1.813-.1-.158-.328-.021-.248.145.352.724.848 1.29 1.457 1.807.469.395 1.096 1.073 1.711 1.155.086.012.164-.098.135-.176-.193-.508-.83-.802-1.248-1.118zm-3.16-1.654c-.289-.391-.693-.639-1.074-.937a5.39 5.39 0 0 1-1.174-1.247c-.133-.204-.416-.028-.32.188.403.917 1.418 1.967 2.43 2.18.094.02.21-.088.138-.184zm-3.372-1.349c-.595-.646-1.363-1.114-2.085-1.606-.781-.534-1.578-1.103-2.498-1.369-.075-.022-.148.085-.08.14.658.525 1.382.967 2.07 1.453.797.561 1.561 1.233 2.488 1.561.108.037.172-.105.105-.179zm-3.856.128c-.03-.084-.167-.077-.165.022.037 1.169.328 2.303.522 3.454.255 1.501.095 2.923.188 4.417.014.21.313.264.373.051.665-2.336-.122-5.719-.918-7.944zm3.811 15.587c-.03-1.374-.034-2.763-.165-4.131-.02-.209-.307-.209-.324 0-.127 1.369-.086 2.756-.082 4.131.002 1.207-.105 2.456.135 3.642.036.182.33.183.367 0 .234-1.19.094-2.434.069-3.642zm-1.427-5.458c.074-1.724.649-3.299.867-4.984.029-.222-.297-.274-.397-.108-1.644 2.715-1.47 7.19-.808 10.18.046.208.346.148.355-.049.088-1.677-.091-3.356-.017-5.039zm1.629-8.544c-.683-.432-1.244.424-1.49.951-.094.198.16.341.287.168.178-.236.383-.46.634-.619.167-.105.391-.118.569-.212.115-.06.1-.224 0-.288zm1.534 2.855c.037-.156-.168-.241-.255-.107-1.434 2.232-1.236 5.921-.104 8.252.079.163.329.078.329-.089 0-1.187-.305-2.348-.428-3.525-.162-1.548.107-3.031.458-4.531zm2.193 18.349c-1.356-1.91-1.846-3.75-2.27-6.023-.025-.127-.241-.131-.26 0-.324 2.134.451 4.968 2.256 6.296.16.118.387-.113.274-.273zm.523-4.382c-.676-1.442-1.16-2.505-1.271-4.144-.096-1.427-.086-2.863-.148-4.292a.019.019 0 0 0-.037 0c-.152 2.288-1.395 7.248 1.178 8.715.187.108.362-.101.278-.279zm.926-6.136c-.123-.575-.093-1.19-.286-1.747a.155.155 0 0 0-.296 0c-.322.914-.451 2.813.548 3.363a.239.239 0 0 0 .356-.204c.014-.489-.221-.939-.322-1.412zm3.422 12.851c-.538-.683-1.161-1.254-1.654-1.984-.533-.791-.939-1.689-1.273-2.58-.044-.119-.227-.106-.227.031-.014 1.041.387 2.015.871 2.917.416.773 1.152 1.816 2.086 1.958.207.031.327-.176.197-.342zm-1.366-7.467c-.316-.785-.433-1.659-.796-2.417-.062-.129-.252-.084-.288.038-.445 1.488.744 3.74 1.625 4.887.123.16.391.074.34-.144-.195-.835-.56-1.571-.881-2.364zm30.559-9.531c-.136-.061-.324.073-.224.222.492.735.548 1.663 1.035 2.378.077.112.271.11.306-.039.198-.868-.273-2.182-1.117-2.561zm-.451 3.912c-.11-.153-.381-.069-.322.136.563 1.917.119 3.997.738 5.867a.183.183 0 0 0 .349 0c.624-1.835.397-4.421-.765-6.003zm-2.989-1.645c-.079-.062-.204.041-.171.131.635 1.706.282 3.415.653 5.147.043.202.355.198.402 0 .37-1.589.579-4.151-.884-5.278zm1.516 8.242c-.023-.102-.187-.08-.183.025.044 1.271-.168 2.516-.397 3.763-.205 1.122-.729 2.293-.588 3.439.033.262.324.347.485.13.708-.954.784-2.303.933-3.457.168-1.324.051-2.608-.25-3.9zm-3.514-4.289c-.085-.178-.326-.044-.297.125.361 2.099.054 4.027.063 6.119.002.231.338.34.45.121.989-1.917.692-4.477-.216-6.365zm-1.769 6.648c-.032-.15-.274-.153-.306 0-.262 1.294-.159 2.616-.601 3.875-.305.866-1.074 1.882-.471 2.734.078.109.231.147.334.042.662-.675.853-2.057 1.14-2.956.367-1.153.158-2.538-.096-3.695zm-2.888-3.938c-.045-.154-.282-.165-.321 0-.207.854-.279 1.74-.47 2.6-.178.796-.487 1.521-.483 2.345 0 .118.169.212.255.105.931-1.193 1.446-3.578 1.019-5.05zm-.518 6.912c-.324.882-.918 1.684-1.502 2.413-.457.573-1.136 1.132-1.42 1.813-.051.122.095.236.205.206.813-.227 1.46-1.148 1.937-1.797.568-.775.95-1.637 1.055-2.597.018-.167-.224-.174-.275-.038zm-17.963-8.323c-.045-.186-.358-.149-.339.045.206 2.008.772 4.039 2.004 5.669.136.18.409.078.365-.153-.372-1.945-1.573-3.629-2.03-5.561zm2.806 10.425c-.371-.574-.703-1.176-1.082-1.749-.24-.363-.494-1.188-.902-1.375-.095-.043-.211-.029-.266.07-.248.441.283 1.139.493 1.504a6.445 6.445 0 0 0 1.48 1.764c.145.122.394-.035.277-.214zm3.315-.771c-.421-.689-1.018-1.201-1.388-1.953-.435-.883-.679-1.86-.972-2.795-.057-.183-.332-.107-.285.079.331 1.353.561 4.722 2.383 5.011.189.029.379-.15.262-.342zm8.898-3.72c-.672 1.614-2.084 2.918-2.578 4.588-.072.241.236.408.41.24 1.25-1.213 1.969-3.11 2.534-4.728.083-.235-.275-.32-.366-.1zm-3.781.171c-.719 1.605-1.943 2.938-2.549 4.576-.074.203.21.345.35.204 1.23-1.247 2.045-2.954 2.574-4.623.068-.218-.279-.37-.375-.157zm-3.612-.775c-.062-.244-.473-.198-.446.061.117 1.208.082 2.411.302 3.604.026.147.269.147.294 0 .226-1.233.157-2.446-.15-3.665z"/><path fill="#FFF" d="M-70.403-19.154c-6.919 0-6.919 4 0 4 6.92 0 6.92-4 0-4z"/><path fill="#335880" d="M-72.198-18.76c-2.579 0-2.579 4.001 0 4.001 2.582 0 2.582-4.001 0-4.001z"/><path fill="#45321D" d="M-70.095-17.267c9.707.261 2.261-2.358-.292-1.978-2.554.379-11.218 1.667.292 1.978z"/><path fill="#FFF" d="M-46.468-17.634c-6.732 0-6.732 4 0 4 6.733 0 6.733-4 0-4z"/><path fill="#335880" d="M-48.068-17.427c-2.58 0-2.58 4.001 0 4.001s2.58-4.001 0-4.001z"/><path fill="#45321D" d="M-45.978-16.022c9.704.262 2.26-2.359-.294-1.978-2.552.378-11.218 1.667.294 1.978z"/><path fill="#36230A" d="M-88.524-37.965c.15-1.155.378-2.5.818-3.711a27.4 27.4 0 0 1 .518-2.37c.592-2.261 2.034-6.635 4.596-7.693.067-.038.131-.077.198-.111.65-.815 1.431-1.512 2.099-1.945 1.363-.892 3.521-1.049 5.191-.404.421-1.076.597-2.314 1.204-3.247.076-.121.294-.158.357 0 .317.72.342 1.681.314 2.614 1.454-.93 3.01-1.637 4.65-2.024 1.09-.257 2.214-.378 3.352-.417 1.313-.285 2.608-.456 3.565-.654 2.867-.594 7.442-3.656 10.056-1.321.048.041.064.14.024.189-.93 1.228-2.169 2.194-3.522 2.979.259.051.53.102.78.152 2.337-.465 4.771-.556 7.116-.425 2.876.162 6.481.238 8.954 1.889 2.104.611 3.896 1.971 4.791 4.116.082.197-.119.373-.295.388-.953.071-1.6-.192-2.532-.416a22.963 22.963 0 0 0-2.614-.497c2.081 1.532 3.932 3.563 4.975 4.935 2.362 3.099 6.08 9.433 3.813 13.365-.226.397-.759.353-.997 0-.852-1.26-1.534-2.563-2.188-3.872.662 3.304.498 6.598-.885 10.043-.097.237-.402.245-.49 0-.938-2.573-1.299-5.293-1.873-7.978.555 5.002.076 10.179-1.836 14.766-.149.363-.746.474-.854 0-.585-2.668-.75-5.396-.922-8.132a12.002 12.002 0 0 1-.457 1.625c-.151.407-.743.455-.875 0-.89-3.208-1.757-6.423-2.833-9.572-.225-.314-.441-.625-.674-.916-1.379-1.696-3.061-3.216-4.729-4.661.137.656.324 2.438-.621 2.107-.903-.316-1.353-1.339-1.999-1.985-1.262-1.265-2.687-2.32-4.182-3.291-.299-.097-.598-.19-.899-.293-1.11-.38-2.198-.825-3.287-1.273-1.452-.08-2.926-.158-4.396-.188.664.332 1.264.698 1.753 1.092.057.043.032.133-.02.165-.079.048-.159.08-.235.124l.004.003c.096.057.033.202-.071.174-.066-.017-.131-.025-.203-.037a6.25 6.25 0 0 1-1.415.464c1.447.006 2.747.025 4.241.636a.223.223 0 0 1 .136.236c.405.083.298.617-.013.745-3.548 1.439-7.575 1.135-11.319.737-1.439-.153-3.092-.191-4.663-.439-.127.063-.255.128-.374.189-.15.078-.317.183-.488.295-1.503 1.858-2.691 4.008-3.621 6.243-.176 1.422-.542 2.867-.728 4.201-.422 3.056-.128 6.269-.8 9.256-.079.356-.567.311-.672 0-.996-3.037-1.213-6.489-1.601-9.673a11.516 11.516 0 0 1-.088-1.28c-.295 1.879-.586 3.76-1.058 5.614-.132.506-.882.497-1.018 0-.938-3.487-1.63-6.908-1.158-10.517z"/><path fill="#8E5F0C" d="M-83.511-49.952c.088-.142.33.006.251.152a23.071 23.071 0 0 0-2.305 5.897c-.451 1.853-.26 3.663-.388 5.537-.015.23-.378.261-.445.051-1.192-3.725.891-8.564 2.887-11.637zm-1.288 15.1c.028.217.29.258.374.054.702-1.791.755-3.819 1.354-5.666a24.904 24.904 0 0 1 2.419-5.275c.046-.083-.073-.152-.128-.078-2.047 2.894-4.459 7.295-4.019 10.965zm7.097-11.876c1.699 2.633 4.689 3.201 7.579 3.619.159.023.219-.186.066-.245-1.935-.731-4.403-1.021-5.897-2.58-.62-.648-1.526-1.595-1.193-2.6.263-.791 1.145-.773 1.705-1.249.115-.099.098-.348-.055-.409-.812-.349-1.948.061-2.422.844-.515.851-.308 1.81.217 2.62zm7.758-8.1c3.629-.144 7.734-1.037 11.125-2.313.199-.076.119-.391-.091-.323-3.589 1.134-7.728.693-11.147 2.205-.217.096-.102.44.113.431zm1.498 2.697c9.737.431 18.396-5.616 28.132-1.538.043.018.075-.059.035-.078-9.123-4.121-18.861.178-28.186 1.453-.1.012-.072.158.019.163zm5.84 1.41c10.089-.168 19.449-1.886 27.662 5.572.034.041.095-.023.06-.059-7.504-7.015-18.012-8.253-27.762-5.802-.164.043-.127.294.04.289zm13.216 3.328c2.465 1.387 4.98 2.313 7.058 4.349 2.428 2.382 3.887 5.218 4.104 8.643.012.214.338.22.338 0-.009-6.201-5.224-12.167-11.336-13.373-.231-.049-.387.263-.164.381z"/><path fill="#FFBE73" d="M-74.706 6.532c3.607 4.938 5.5 10.893 10.861 11.486 2.564.284 5.81 1.237 8.277 0 3.016-1.511 4.916-3.384 7.125-6.314.186-.245-6.458 2.437-12.553 1.282-7.058-1.336-13.745-6.501-13.71-6.454z"/><path fill="#45321D" d="M-46.546 10.02s-5.668 8.142-15.015 6.593C-70.91 15.065-75.375 5.325-76.289 3.839c-.918-1.486-.348-2.054.956-.891 5.745 5.126 19.101 9.071 27.12 6.727 3.549-1.033 1.667.345 1.667.345z"/><path fill="#FFF" d="M-50.546 10.535c-1.843.383-4.782.174-4.782.174-5.635-.36-12.041-2.327-16.645-4.957-.087.284.202 1.338.008 1.548-.253.269-1.294.129-1.616.217 2.271 3.127 6.34 6.855 12.143 7.816.512.085 1.014.142 1.5.173 5.077.323 8.921-1.943 10.128-2.752-.1-.141-1.128-.519-1.184-.682-.056-.162.46-1.363.448-1.537z"/><path fill="#36230A" d="M-37.105-21.504c-1.859-.29-4.52-.503-6.393-.697-1.105-.115-4.887-.049-7.043-1.994-1.421-1.283-2.632 1.515-.918 2.79 1.134.842 2.346 1.411 3.777 1.387.658-.011 8.398-.511 10.618-.742.45-.045.354-.683-.041-.744z"/><path fill="#8E5F0C" d="M-37.136-21.442c-2.373.303-5.013-.179-7.373-.461-2.516-.299-4.472-.72-6.543-2.269-.042-.032-.113.022-.081.07.753 1.151 2.367 2.131 3.732 2.359 3.441.574 6.85.517 10.295.814.37.034.355-.561-.03-.513z"/><path fill="#36230A" d="M-64.964-26.03c-4.189-1.825-12.534-2.598-15.219 1.788-1.109 1.813-.009 1.696 1.488.204 3.131-3.118 9.045-.614 12.583.638.582.207 2.226-.061 2.69-.876.419-.732-.537-1.317-1.542-1.754z"/><path fill="#8E5F0C" d="M-64.056-25.411c-4.483-1.77-13.903-3.645-16.27 1.784-.026.062.074.09.109.042 3.379-4.436 11.085-3.428 15.664-1.056.563.292 1.065-.545.497-.77z"/><path fill="#FFF" d="M22.741 291.854c1.316 2.775-2.561 4.172-3.978 4.873 0 0-3.112 2.041-11.104 2.041h-40.494c-.579 0-1.049-.367-1.049-.82l-.141-2.969c0-.451.609-.822 1.188-.822 0 0 28.007.305 40.334 0 3.718-.094 6.635-.645 6.635-.645.199.345 8.609-1.658 8.609-1.658z"/><path fill="#FF6A00" d="M-34.616 293.145s-.444-1.359-.728-3.211c-.355-2.34-.685-5.514.102-8.174 1.624-5.5-2.553-16.748-1.916-20.199.635-3.447-2.303-3.299 5.2-6.109 7.497-2.811 11.715-3.344 12.341 1.342.389 2.91-1.189 13.477 4.266 21.359 3.879 5.607 13.039 8.947 24.153 10.646 6.198-1.02 13.925 1.492 13.938 3.055-.826.689-3.64 2.775-7.898 3.457-2.16.348-4.348-1.154-7.344-1.154-19.604-.001-42.114-1.012-42.114-1.012z"/><path fill="#590600" d="M-19.679 256.635c-1.259-5.092-4.781-3.994-12.278-1.186-7.503 2.813-4.972 1.58-5.605 5.029-.636 3.449 5.744 16.682 2.321 21.281-.643.861-.25 1.762-.453 2.719-.42 1.979.051 4.002.359 5.619.338 1.768 1.281 5.443 1.281 5.443s21.521.313 41.125.313c2.654 0 5.771-.256 7.771-.543-.013-.041-1.489-5.572-6.04-6.512-11.163-1.707-20.766-5.371-24.639-11.008-5.403-7.866-3.141-18.313-3.842-21.155z"/><path fill="#FF6A00" d="M-34.613 263.283l1.497 1.526 2.452-.102-1.39 1.588.879 1.797-2.355-.547-1.912 1.209-.063-1.924-2.059-1.047 2.315-.644z"/><path fill="#FFF" d="M1.753 291.021c.196-.596-.263-1.203-1.024-1.359-.764-.152-1.537.205-1.738.803-.195.596.264 1.207 1.022 1.359.763.155 1.542-.205 1.74-.803z"/><path fill="#590600" d="M1.139 290.9c.105-.332-.145-.672-.57-.76-.422-.086-.854.115-.965.445-.109.332.145.672.567.758.424.087.857-.111.968-.443z"/><path fill="#FFF" d="M2.227 287.598c.113-.332-.144-.67-.566-.758-.422-.084-.854.113-.965.447l-.893 2.699c-.109.33.145.67.568.756.424.086.854-.113.964-.445l.892-2.699zm-6.691 1.898c.396-.535.162-1.219-.518-1.529-.681-.311-1.555-.127-1.949.404-.394.533-.164 1.219.516 1.529.68.311 1.552.129 1.951-.404z"/><path fill="#590600" d="M-5.013 289.246c.219-.297.09-.678-.287-.85-.379-.172-.864-.07-1.084.225-.221.297-.09.678.287.85.381.172.862.07 1.084-.225z"/><path fill="#FFF" d="M-2.829 286.297c.222-.297.092-.678-.286-.85-.379-.172-.861-.072-1.084.225l-1.786 2.412c-.22.297-.093.676.285.85.38.174.864.07 1.082-.225l1.789-2.412zm-7.6.496c.57-.426.594-1.133.049-1.58-.541-.447-1.444-.463-2.016-.039-.568.426-.591 1.135-.049 1.58.541.447 1.447.463 2.016.039z"/><path fill="#590600" d="M-10.866 286.434c.315-.234.329-.631.026-.877-.301-.248-.803-.258-1.118-.02-.316.236-.329.629-.026.877.301.246.801.256 1.118.02z"/><path fill="#FFF" d="M-7.712 284.084c.313-.238.326-.631.023-.879-.302-.25-.803-.26-1.119-.021l-2.576 1.926c-.315.234-.328.627-.027.877a.953.953 0 0 0 1.119.02l2.58-1.923z"/><path fill="#590600" d="M-13.552 281.174c.375-.178.494-.559.268-.852-.227-.295-.713-.389-1.086-.211-.375.176-.497.557-.27.854.227.293.713.385 1.088.209z"/><path fill="#FFF" d="M-16.908 276.344c.725-.24 1.063-.895.754-1.465-.307-.566-1.145-.832-1.867-.592s-1.062.896-.756 1.465c.307.568 1.143.832 1.869.592z"/><path fill="#590600" d="M-17.156 275.887c.4-.133.591-.498.419-.813s-.635-.463-1.037-.328c-.403.133-.59.498-.422.813.173.314.638.462 1.04.328z"/><path fill="#FFF" d="M-19.642 271.168c.762-.148 1.229-.756 1.035-1.354-.188-.6-.962-.963-1.729-.814-.762.148-1.227.756-1.035 1.354.19.597.963.964 1.729.814z"/><path fill="#590600" d="M-19.796 270.686c.426-.078.686-.42.576-.752-.106-.334-.533-.533-.959-.453-.424.086-.682.424-.576.756.105.329.535.533.959.449z"/><path fill="#FFF" d="M-21.16 265.426c.779-.074 1.336-.631 1.24-1.244-.094-.609-.805-1.049-1.586-.975-.78.076-1.338.633-1.243 1.244.095.615.806 1.049 1.589.975z"/><path fill="#590600" d="M-21.238 264.934c.434-.041.742-.352.689-.689-.055-.342-.447-.584-.883-.543-.433.043-.742.352-.688.691.052.339.449.582.882.541z"/><path fill="#D7DFF1" d="M-38.042 40.701c-5.57-1.765-9.205-1.903-15.421-4.473a6.181 6.181 0 0 1-2.469-2.026l-3.599 6.185v-.45h-7.396v.104l-7.831-8.018c-.843 1.113-1.933 2.027-3.345 2.592-.203.082-.363.202-.537.257-3.972 1.261-8.613 1.02-13.482 1.643-12.453 1.593-9.078 1.858-6.605 21.505.408 3.243 4.703 19.247 6.883 33.597 1.555 10.239 1.078 31.635 1.076 34.986-.006 9.625 3.91 21.348 5.946 22.939 1.176.922 12.37-.912 22.829-.289 5.612.334 10.984 2.352 14.559 2.547l3.012-.613c.033-.023.072-.037.104-.063 6.619-5.178 6.268-11.689 6.693-20.865.313-6.691 1.668-37.844 3.063-56.281.495-6.536 1.181-13.119 1.181-14.162-.001-15.95 2.786-16.754-4.661-19.115z"/><path fill="#9FB1D5" d="M-64.758 45.158a65.37 65.37 0 0 1-.193-1.579c.071.527.134 1.054.193 1.579z"/><path fill="#2E6666" d="M-37.456 127.402c-7.699.607-16.267 3.52-25.041 2.918-10.189-.701-19.777-2.211-28.267-4.309-.274 25.617 5.106 43.883 8.07 68.955.979 8.285 1.843 15.721 2.427 21.428.951 9.301 2.403 28.078 3.636 44.721.386 5.197-.394 15.178-.357 16.363.064 2.148 1.056 2.41 1.188 4.25.077 1.064-.881 2.516-.813 3.455.064.908 1.611 1.48 1.126 2.094-.506.641-3.25 2.826-1 4.861 1.964 1.775 12.758-.25 12.758-.25s10.358.691 11.964-1.314c.996-1.246-1.034-3.906-2.465-4.309-.763-.213 1.269-.633 1.118-1.537-.161-.977-1.382-3.334-1.563-4.438-.943-5.768-2.608-12.842-3.748-20.678-2.321-15.963-4.499-33.756-4.297-43.33.132-6.227-.968-12.086-1.396-21.564-.578-12.75-.894-26.34-.948-34.99-.012-1.977 1.369-4.666 4.152-6.25 2.05-1.168 4.158 6.795 4.902 8.916 4.876 13.908 11.383 43.189 13.618 58 1.998 13.236 5.151 46.209 6.69 62.83.122 1.318-1.138 2.947-1.036 4.043.124 1.359 1.455 1.994 1.402 2.83-.102 1.57.421 1.809 1.209 2.471 2.046 1.719 6.119-1.201 8.347-2.508 2.371-1.389 5.983-8.896 11.54-7.193 1.143.352 2.027-.998 1.252-3.014-.264-.682-2.234-.854-2.406-1.85-.145-.836.323-1.916.156-2.846-.24-1.342-1.127-2.584-1.408-4.096-3.18-17.094-8.712-44.088-10.853-57.668-3.297-20.913-10.434-54.965-9.957-85.991z"/><path fill="#2E6666" d="M-37.456 127.402c-7.699.607-16.267 3.52-25.041 2.918-10.189-.701-19.777-2.211-28.267-4.309-.274 25.617 5.106 43.883 8.07 68.955.979 8.285 1.843 15.721 2.427 21.428.951 9.301 2.403 28.078 3.636 44.721.386 5.197-.394 15.178-.357 16.363.064 2.148 1.056 2.41 1.188 4.25.077 1.064-.881 2.516-.813 3.455.064.908 1.611 1.48 1.126 2.094-.506.641-3.25 2.826-1 4.861 1.964 1.775 12.758-.25 12.758-.25s10.358.691 11.964-1.314c.996-1.246-1.034-3.906-2.465-4.309-.763-.213 1.269-.633 1.118-1.537-.161-.977-1.382-3.334-1.563-4.438-.943-5.768-2.608-12.842-3.748-20.678-2.321-15.963-4.499-33.756-4.297-43.33.132-6.227-.968-12.086-1.396-21.564-.578-12.75-.894-26.34-.948-34.99-.012-1.977 1.369-4.666 4.152-6.25 2.05-1.168 4.158 6.795 4.902 8.916 4.876 13.908 11.383 43.189 13.618 58 1.998 13.236 5.151 46.209 6.69 62.83.122 1.318-1.138 2.947-1.036 4.043.124 1.359 1.455 1.994 1.402 2.83-.102 1.57.421 1.809 1.209 2.471 2.046 1.719 6.119-1.201 8.347-2.508 2.371-1.389 5.983-8.896 11.54-7.193 1.143.352 2.027-.998 1.252-3.014-.264-.682-2.234-.854-2.406-1.85-.145-.836.323-1.916.156-2.846-.24-1.342-1.127-2.584-1.408-4.096-3.18-17.094-8.712-44.088-10.853-57.668-3.297-20.913-10.434-54.965-9.957-85.991z"/><path fill="#335880" d="M-37.456 127.402c-7.699.607-16.267 3.52-25.041 2.918-10.189-.701-19.777-2.211-28.267-4.309-.274 25.617 5.106 43.883 8.07 68.955.979 8.285 1.843 15.721 2.427 21.428.951 9.301 2.403 28.078 3.636 44.721.386 5.197-.394 15.178-.357 16.363.064 2.148 1.056 2.41 1.188 4.25.077 1.064-.881 2.516-.813 3.455.064.908 1.611 1.48 1.126 2.094-.506.641-3.25 2.826-1 4.861 1.964 1.775 12.758-.25 12.758-.25s10.358.691 11.964-1.314c.996-1.246-1.034-3.906-2.465-4.309-.763-.213 1.269-.633 1.118-1.537-.161-.977-1.382-3.334-1.563-4.438-.943-5.768-2.608-12.842-3.748-20.678-2.321-15.963-4.499-33.756-4.297-43.33.132-6.227-.968-12.086-1.396-21.564-.578-12.75-.894-26.34-.948-34.99-.012-1.977 1.369-4.666 4.152-6.25 2.05-1.168 4.158 6.795 4.902 8.916 4.876 13.908 11.383 43.189 13.618 58 1.998 13.236 5.151 46.209 6.69 62.83.122 1.318-1.138 2.947-1.036 4.043.124 1.359 1.455 1.994 1.402 2.83-.102 1.57.421 1.809 1.209 2.471 2.046 1.719 6.119-1.201 8.347-2.508 2.371-1.389 5.983-8.896 11.54-7.193 1.143.352 2.828-1.389 1.252-3.014-.674-.693-2.234-.854-2.406-1.85-.145-.836.323-1.916.156-2.846-.24-1.342-1.127-2.584-1.408-4.096-3.18-17.094-8.712-44.088-10.853-57.668-3.297-20.913-10.434-54.965-9.957-85.991z"/><path opacity=".5" fill="#253C54" d="M-14.106 282.906c1.144.352 2.694-1.332 1.117-3.053-.494-.537-2.235-.854-2.407-1.85-.144-.836.176-1.758.008-2.688-.24-1.342-.978-2.742-1.259-4.254-3.18-17.094-8.577-44.049-10.718-57.629-.625-3.967-1.389-8.408-2.213-13.209 1.02 5.961 2.184 17.543-1.9 16.043-2.563-.941-5.783-11.574-7.043-13.912-3.1-5.754-9.648-28.678-11.207-35.254-3.514-14.834-13.414-32.465-6.449-5.586.115.361.218.682.301.918 4.876 13.908 11.383 43.189 13.617 58 1.998 13.236 5.01 46.25 6.549 62.873.121 1.316-1.116 2.959-1.016 4.055.123 1.359 1.577 1.939 1.524 2.775-.101 1.57.046 1.596.835 2.258 2.045 1.717 6.494-.99 8.721-2.295 2.371-1.387 5.985-8.897 11.54-7.192zm-40.126 3.36c-.763-.213 1.269-.633 1.118-1.537-.161-.977-1.382-3.334-1.563-4.438-.943-5.768-2.608-12.842-3.748-20.678-2.321-15.963-4.499-33.756-4.297-43.33.132-6.227-.968-12.086-1.396-21.564-.542-11.949-.853-24.637-.935-33.305-1.041 2.486-1.479 5.516-1.69 7.377-.71 6.238-.079 12.506.38 18.74.428 5.824.566 11.65 1.076 17.467-.018.434-.033.867-.061 1.303-.238 3.865-.839 9.551-4.639 11.668-2.496 1.393-4.471-2.131-5.382-3.879-3.14-6.02-4.351-13.227-5.539-19.846a227.02 227.02 0 0 0-1.894-9.289c-.762-3.422-1.531-6.994-2.864-10.295 1.062 6.432 2.116 13.082 2.971 20.307.979 8.285 1.843 15.723 2.427 21.428.951 9.301 2.403 28.078 3.636 44.721.386 5.199-.394 15.178-.357 16.365.064 2.146 1.056 2.408 1.188 4.25.077 1.063-.881 2.514-.813 3.453.064.908 1.611 1.48 1.126 2.094-.506.641-3.25 2.828-1 4.861 1.964 1.775 12.758-.25 12.758-.25s10.358.691 11.964-1.314c.994-1.249-1.035-3.909-2.466-4.309z"/><path fill="#253C54" d="M-65.01 277.785c.13.002.159-.24.026-.279-3.287-.896-8.764-1.59-11.674 1.67.303.771.711 1.307.83 2.363 1.94-3.959 7.888-3.779 10.818-3.754zm6.886 1.016c1.523 1.086 3.482 2.406 4.516 4.443-.416-1.039-.952-2.25-1.067-2.953-.084-.514-.18-1.051-.274-1.584a14.341 14.341 0 0 0-1.643-.889c-2.283-1.053-4.604-2.043-6.976-2.654-.241-.063-.368.422-.135.557 1.846 1.05 3.797 1.81 5.579 3.08zm32.375 1.187c-.14.066-.056.258.088.219 3.226-.869 9.729-2.74 12.744-.113-.026-.08-.039-.156-.071-.238-.264-.682-2.234-.854-2.406-1.85a2.806 2.806 0 0 1-.006-.734c-3.552-.182-7.689 1.406-10.349 2.716zm-5.523-.265c1.901-1.301 4.046-2.191 6.044-3.316.25-.145.059-.535-.209-.451-2.635.828-5.178 1.963-7.671 3.145-.933.443-1.918 1-2.823 1.668l.229 2.457c.01.116 2.941-2.486 4.43-3.503zm6.503 3.558c-2.636.826-5.179 1.963-7.672 3.145-1.221.58-2.531 1.354-3.631 2.322.377.49.766.893.734 1.352-.036.586.326 1.066.326 1.471.926-1.949 2.722-3.369 4.405-4.52 1.901-1.301 4.046-2.193 6.043-3.32.254-.145.063-.534-.205-.45z"/><path fill="#FFC579" d="M-79.091 136.549c-2.102-1.861-4.291-4.738-7.332-5.385a4.103 4.103 0 0 0-1.414-.043c-.037-.016-.073-.029-.109-.047-5.589-2.512-7.998-15.73-12.354-24.023-1.957-3.725-6.727-8.666-9.765-11.589-2.046-1.972-5.613-5.084-8.931-3.54-4.025 1.872-3.396 7.738-2.34 10.791 1.969 5.704 3.73 4.755 7.532 12.03 2.083 3.986 18.148 18.505 19.069 23.286v.004a7.19 7.19 0 0 0-.361 1.557c-.232 2.307 2.416 6.07 3.273 7.768 1.196 2.371 2.394 3.502 4.227 4.357 1.923-1.359 3.837-2.557 5.251-3.607 2.779-2.064 4.751-4.822 7.298-7.02-1.079-1.766-2.501-3.172-4.044-4.539z"/><path fill="#FFF" d="M-100.394 38.52c-3.332 3.532-9.998 24.184-12.088 29.892-2.09 5.708-7.621 16.07-8.915 18.941-3.717 8.25-4.592 11.375 1.187 18.917 7.166 9.352 6.29 9.523 6.781 10.477.49.955 16-6.354 15.057-8.189-.609-1.184-3.607-5.672-5.703-8.984-.322-.509.582-2.692.314-3.129-.691-1.127-2.363-.26-2.406-.521-.068-.422 2.463-.855 2.69-1.652.198-.698-1.362-.984-.989-1.89.43-1.047 1.118.347 1.459-.962 1.906-7.335 7.012-16.942 8.083-18.535 3.201-4.762 2.159-14.366.792-21.482-2.904-15.111-6.262-12.883-6.262-12.883z"/><path fill="#D7DFF1" d="M-96.659 110.28c-.437-1.258-1.43-2.586-2.348-3.455-.668-1.381-1.168-2.85-2.139-4.051-.076-.31-.332-.612-.61-.824a.532.532 0 0 0-.378-.502c-1.243-.428-2.67.391-3.775.909-2.592 1.215-5.029 2.837-7.395 4.435-1.095.738-3.59 1.807-4.561 3.182-.354.322-.536.695-.574 1.098-.071.072-.108.182-.051.279l.055.084c.057.715.439 1.473.867 2.117 1.153 1.736 2.674 3.137 3.974 4.752.115.451.222.912.366 1.379.299.975 1.059 1.856 2.17 1.645 1.777-.34 3.268-1.53 4.719-2.544.193-.135.398-.26.605-.385.127-.076.255-.148.382-.223 1.128-.637 2.377-1.205 3.424-1.963.314-.172.624-.354.942-.52.7-.365 2.234-1.01 3.318-1.846a.548.548 0 0 0 .363-.07c1.523-.86 1.34-2.251.646-3.497z"/><path fill="#9FB1D5" d="M-108.482 113.36c-.664.604-1.404 1.131-2.016 1.793-.627.678-1.491 1.551-1.488 2.537 0 .211-.154.455-.375.492-.045.008-.092.02-.137.02-.364-.008-.538-.318-.492-.648.139-1.008.975-1.877 1.738-2.479.848-.668 1.718-1.322 2.65-1.867.097-.057.203.075.12.152zm8.78-6.729c-2.995-2.08-6.832 1.389-8.711 3.547-.061.07.029.154.1.1 1.766-1.373 5.523-4.412 7.773-2.561.775.639 1.659-.516.838-1.086zm-14.063 3.317c-.752.293-1.545.697-2.216 1.143-.593.393-1.413 1.18-1.38 1.957.031.762 1.253.727 1.16 0-.059-.457.706-1.064.986-1.412.453-.563.92-1.107 1.525-1.51.087-.059.034-.221-.075-.178zm8.645-18.525c-1.742-1.437-4.599-1.881-6.569-.53-.019.012-.019.045.007.05.809.152 1.65-.081 2.469-.105 1.324-.04 2.367.471 3.232 1.447.527.595 1.464-.365.861-.862zm-1.919 3.977c-.929-.703-2.7-.379-3.812-.386-1.46-.009-2.971.176-4.223.974-.08.051-.029.188.066.157 1.66-.541 3.283-.465 4.975-.086.932.208 2.119.686 2.993.165.336-.2.278-.614.001-.824zm-9.597 1.416c-1.872.447-3.383 2.075-4.559 3.499-.806.978 1.041 1.786 1.201.497.223-1.8 2.122-2.876 3.422-3.846.073-.054.032-.173-.064-.15zm11.746 1.958c-1.896.167-3.445-.309-5.293-.696-.119-.026-.225.06-.104.113 1.38.598 4.125 1.518 5.713 1.146.477-.111.237-.612-.316-.563z"/><path fill="#FFF" d="M-50.864 295.666c0-1.174-6.52-2.125-14.563-2.125s-14.563.951-14.563 2.125v2.125c0 1.828 6.52 3.313 14.563 3.313s14.563-1.482 14.563-3.313v-2.125z"/><path fill="#590600" d="M-79.714 295.416c-.003.012.005.02.004.029-.096.154-.069.393.145.436 4.013.814 8.268 1.336 12.366 1.031 4.448.281 16.255-.691 16.336-1.246.538-3.701 0-9.271-14.563-8.271-10.497.72-13.575 4.959-14.288 8.021z"/><path fill="#FF6A00" d="M-61.301 289.049c-8.53-1.105-14.288 1.885-16.476 7.17.029.045.312.055.374.066 3.713.811 7.415 1.02 11.207.715 2.798.191 8.728-.285 12.271-.729-.622-4.464-2.457-6.585-7.376-7.222z"/><path fill="#335880" d="M-87.437 163.906c-1.183-5.178-3.645-12.346-4.415-14.178-.77-1.834-.769-2 1.077-3 1.848-1 11.39-5.834 13.391-11.5.574-1.627 2.154.332 2.77 1 .615.667-2.406 23.018-12.823 27.678zm40.527-29.308c.924-1.035 1.385-.369 2.462 2.131 1.078 2.5 5.851 8.715 7.543 9.523 1.692.811 1.616 2.811 1 3.643-.614.834-.386 8.064-.08 10.689-4.151-1.355-12.687-15.527-12.618-22.689a25.341 25.341 0 0 1 1.693-3.297z"/><path fill="#4C7095" d="M-74.585 136.305c-.01-.027-.018-.063-.029-.076-.615-.668-2.195-2.627-2.77-1-2.001 5.666-11.543 10.5-13.391 11.5-1.846 1-1.847 1.166-1.077 3 .063.152.144.355.229.576 5.737-2.192 13.299-8.391 17.038-14zm37.679 9.947c-1.691-.811-6.465-7.023-7.543-9.523-1.077-2.5-1.538-3.166-2.462-2.131 0 0-.209.334-.507.875 2.218 5.166 7.002 11.598 11.387 14.68.031-.08.063-.141.092-.191.135-.668.275-1.162.408-1.344.01-.014.016-.031.023-.043.02-.86-.347-1.821-1.398-2.323zm-21.644-12.295c0 .98-.789 13.803-1.466 15.295-2.48 0-3.102-2.002-3.24-3.777-.167-2.143.761-9.74.985-11.926.226-2.182 3.721.408 3.721.408z"/><path fill="#335880" d="M-60.322 148.16c-.726-.213-1.353-.875-1.5-2.764-.131-1.684.484-7.23.816-10.209.067-.613.125-1.129.164-1.5.459.066 1.166.436 1.714.787-.1 2.454-.713 11.044-1.194 13.686z"/><path fill="#6B0700" d="M-34.613 72.888c.359-6.718-1.167-31.597-5.016-33.285-1.911-.838-3.604-1.174-5.273-1.387-2.004-.254-6.409-1.515-6.476-.776 0 10.75-7.956 25.122-9.067 25.122 0 0-9.584-8.946-15.645-19-1.365-2.265-3.141-5.886-4.322-8.313-.385-.92-3.068.282-5.594.222-2.353-.056-4.797-.168-7.084.132-1.508.198 1.234 8.063 1.762 12.265 1.889 15.027 1.601 22.546-3.406 28.32 1.023 4.912 2.051 10.276 2.813 15.429 1.515 10.239-.478 25.26-.479 28.612-.005 9.625 9.551 9.074 11.535 10.666 1.145.924 31.064 7 40.027.975 6.806-4.576 3.418-6.131 3.834-15.308.284-6.238 1.598-28.863 2.391-43.674z"/><path fill="#954E00" d="M-37.3 49.167c-1.768-3.261-3.127-8.163-6.972-9.522a.343.343 0 0 0-.391.159c-1.554 3.206-4.595 6.128-5.149 9.748a.296.296 0 0 0-.039.25c-.002.018-.007.035-.009.052-.017.139.08.215.19.231 1.908 2.151 3.074 4.669 4.535 7.124 1.348 2.264 1.84 4.908 3.24 7.131a.461.461 0 0 0 .153.152c.132.325.649.397.778-.027.74-2.434 1.361-4.909 2.06-7.356.713-2.502 1.661-5.14 1.745-7.755.006-.113-.061-.169-.141-.187zm-36.482 4.045a.088.088 0 0 1-.006-.01c.135-.333-.084-.63-.354-.714-2.65-5.4-5.876-10.647-9.094-15.709-.072-.115-.292-.082-.276.075.002.02.009.039.011.059-.027.02-.059.029-.078.065-1.274 2.278-2.299 4.67-3.746 6.86-.991 1.501-2.139 3.105-2.647 4.851-.019.063-.017.117-.016.172-.051.054-.078.131-.034.211 1.965 3.541 4.277 6.876 6.227 10.44.477.874 2.401 5.093 3.887 4.503.191-.076.262-.248.178-.436a2.2 2.2 0 0 0-.252-.41c1.99-2.94 4.168-5.985 5.799-9.167.305-.067.58-.414.401-.79zm23.441 29.42c-.407-.781-.926-1.522-1.299-2.329-.666-1.439-1.207-2.937-1.855-4.385-1.504-3.363-3.964-6.404-6.013-9.449-.158-.235-.604-.09-.486.205.018.042.039.082.057.124a.198.198 0 0 0-.107.074c-1.711 2.532-3.563 4.979-5.057 7.648-1.449 2.591-2.771 5.44-5.101 7.369-.376.311-.033.787.36.79.33 1.388 1.255 2.528 1.957 3.796a47.084 47.084 0 0 1 3.132 7.015c.604 1.715 1.302 6.97 3.458 7.447.134.029.23-.049.258-.16a.252.252 0 0 0 .188-.144c1.408-2.757 3.563-4.954 5.08-7.63 1.854-3.271 3.875-6.44 5.832-9.65.219-.363-.08-.692-.404-.721zm-23.688 32.785c-1.855-3.42-3.078-7.182-4.145-10.912-.42-1.469-.99-5.307-2.539-6.459.033-.083.076-.163.108-.245.099-.256-.274-.452-.45-.262-.072.077-.133.166-.203.245a.196.196 0 0 0-.174.209c-1.445 1.682-2.594 3.691-3.861 5.5a257.6 257.6 0 0 1-4.777 6.594c-.105.143-.119.283-.078.402a.336.336 0 0 0-.025.199c1.061 5.482 3.027 10.881 5.176 16.022.152.365.623.389.768 0 .981-2.635 3.697-4.988 5.954-6.594 1.698-1.208 3.507-2.156 4.557-4.031.172-.309-.048-.596-.311-.668zm36.725.318c-.281-1.334-2.568-12.678-4.639-14.275.008-.018.016-.035.021-.053.072-.188-.205-.337-.334-.193-.018.02-.031.043-.049.063a.554.554 0 0 0-.207-.002c-.043.008-.069.062-.058.102l.058.163c-1.756 2.157-2.537 5.265-3.629 7.761-1.463 3.35-3.738 6.381-5.89 9.313-.337.457.362.916.743.57 1.775 1.449 2.915 3.214 4.07 5.226.812 1.408 1.213 3.873 2.478 4.918.229.189.489.119.612-.064.005.271.045.535.142.783.082.211.438.271.49 0 .433-2.258 1.778-4.18 2.854-6.174.912-1.688 2.189-4.029 2.403-6.08.203-.492.392-.992.529-1.494.246-.041.467-.273.406-.564z"/><path fill="#694F4C" d="M-35.876 80.772c-.004-2.409-.807-4.828-1.568-7.08-.861-2.552-1.896-5.264-3.309-7.59l.006-.023a.394.394 0 0 0-.28-.455l-.008-.014c-.14-.217-.511-.082-.429.181l.013.032c-.009.02-.021.033-.026.055-.811 3.183-2.02 6.238-3.494 9.173-1.418 2.821-3.388 5.334-4.377 8.362-.057.169.098.29.246.298a.126.126 0 0 0 .004.083c1.307 3.094 2.588 6.254 3.68 9.431.779 2.268 1.242 5.223 2.912 7.054a.33.33 0 0 0 .041.05c.021.022.037.049.059.071.251.26.568.098.665-.165.47-.557.629-1.411.834-2.082a81.892 81.892 0 0 1 1.778-5.253c1.453-3.821 2.502-7.733 3.49-11.7.046-.193-.079-.359-.237-.428zm-16.909 36.863c-1.309-2.639-2.175-5.432-3.4-8.104-1.342-2.924-3.528-5.369-4.587-8.432-.107-.313-.559-.514-.808-.213-2.893 3.482-5.749 7.076-8.376 10.764-.635.893-2.562 2.783-2.764 4.135-.014-.021-.025-.045-.039-.066-.154-.248-.588-.088-.486.205 1.874 5.373 5.061 10.48 7.838 15.423.165.295.526.289.762.102 1.205-.977 2.037-2.283 3.127-3.373 1.138-1.141 2.577-2.008 3.753-3.123 1.905-1.811 3.823-3.733 5.213-5.981a.51.51 0 0 0 .175-.289c.064-.109.135-.215.196-.326.246-.445-.236-.845-.604-.722zm-21.134-43.084c-1.879-3.347-4.152-6.469-6.447-9.541-.221-.295-.666-.277-.787.103-1.043 3.239-2.975 6.112-4.595 9.082-1.009 1.851-2.644 3.439-2.689 5.658-.002.104.067.162.147.181.637 2.39 1.902 4.56 3.109 6.702 1.734 3.075 2.787 6.278 3.918 9.603a.418.418 0 0 0 .799 0c.859-2.612 2.801-4.442 4.414-6.586 1.852-2.463 2.857-5.438 4.773-7.858.281.084.662-.146.592-.534-.435-2.455-2.035-4.676-3.234-6.81z"/><path fill="#470500" d="M-36.888 90.257a274.779 274.779 0 0 0-4.357-9.781 98.62 98.62 0 0 1 1.59-3.687c1.07-2.33 2.146-4.594 2.538-7.152.024-.158-.185-.22-.24-.066-1.257 3.423-2.739 6.803-4.231 10.169a417.776 417.776 0 0 0-2.678-5.605c-1.546-3.169-3.334-6.215-5.14-9.251.077-.155.158-.307.233-.463 1.748-3.591 3.351-7.254 5.088-10.851.371-.766.758-1.541 1.145-2.322 1.674 2.853 3.189 5.932 5.122 8.602.146.202.543.086.437-.184-1.143-2.886-3.023-5.551-4.607-8.213-.193-.324-.378-.656-.566-.983 1.264-2.571 2.488-5.219 3.168-7.929.062-.246-.303-.418-.422-.177a286.171 286.171 0 0 0-3.357 7.045c-1.293-2.29-2.547-4.62-3.998-6.793-.135-.202-.516-.076-.414.174 1.049 2.601 2.583 5.028 4.033 7.438-2.117 4.59-4.187 9.212-6.36 13.764a.135.135 0 0 1-.015.026c-1.207-2.028-2.413-4.056-3.551-6.119-.087-.157-.352-.05-.293.124.827 2.455 2.038 4.745 3.348 6.988-2.809 5.688-6.167 10.989-9.698 16.22-.68-1.321-1.355-2.644-2.049-3.958-2.336-4.428-4.65-8.789-7.201-13.025.889-1.51 1.681-3.062 2.275-4.692.113-.308-.354-.481-.514-.217A238.784 238.784 0 0 1-70 63.207a103.2 103.2 0 0 0-4.693-7.027 458.809 458.809 0 0 0-5-6.661c.723-1.24 1.407-2.502 2.004-3.814.104-.228-.195-.409-.338-.197a104.203 104.203 0 0 0-2.148 3.38c-.556-.729-1.109-1.46-1.667-2.188-2.033-2.654-4.166-5.33-6.897-7.296-.222-.16-.464.183-.283.368 3.014 3.096 5.74 6.462 8.357 9.914-.817 1.344-1.624 2.695-2.453 4.031-1.443 2.328-3.385 4.552-3.904 7.31-.059.313.406.564.55.232 1.671-3.875 4.124-7.321 6.296-10.93 1.754 2.333 3.464 4.7 5.178 7.048 1.592 2.181 3.05 4.426 4.438 6.708-2.309 3.622-4.68 7.189-7.053 10.799a55.108 55.108 0 0 0-2.082 3.479c-2.025-4.223-4.242-8.337-6.867-12.178-.245-.358-.808-.042-.588.343 2.454 4.287 4.674 8.653 6.779 13.07a227.539 227.539 0 0 0-1.7 3.235c-1.372 2.65-3.132 5.362-4.06 8.197-.086.26.295.502.477.277 1.686-2.101 2.723-4.817 3.941-7.211.595-1.169 1.203-2.33 1.824-3.483 2.602 5.516 5.033 11.11 7.488 16.75.105.245.219.487.326.731-1.857 2.585-3.685 5.19-5.421 7.848-1.404 2.15-2.746 4.305-4.182 6.402-1.476-5.207-3.413-10.279-5.083-15.425-.092-.285-.501-.168-.443.122 1.079 5.509 3.303 10.756 4.854 16.141.01.033.018.066.027.1a49.544 49.544 0 0 1-2.242 2.953c-2.268 2.734-5.096 5.356-6.541 8.651-.222.504.516.947.748.439 1.564-3.438 4.599-6.214 6.986-9.093.475-.572.92-1.164 1.361-1.758 1.025 4.16 1.65 9.189 4.313 12.472.195.238.6-.02.51-.297-.731-2.258-1.787-4.373-2.457-6.668-.62-2.128-1.122-4.288-1.694-6.427 1.463-2.063 2.792-4.215 4.14-6.363 1.746-2.783 3.615-5.499 5.531-8.188 2.117 4.758 4.383 9.436 6.75 14.079.686 1.346 1.367 2.705 2.059 4.066a117.541 117.541 0 0 0-3.923 4.979c-1.524 2.053-3.51 3.537-5.033 5.533-.266.348.337.813.607.469 1.394-1.777 3.243-3.072 4.636-4.891a221.075 221.075 0 0 1 4.145-5.247c1.873 3.663 3.824 7.313 6.099 10.69.289.43.938.059.695-.404-1.979-3.775-3.997-7.515-5.99-11.263.331-.398.648-.805.986-1.199 3.763-4.387 6.841-9.119 9.696-14.136 2.308 5.021 4.567 10.04 7.058 14.954-.199.309-.383.627-.588.932-1.41 2.092-2.884 4.138-4.229 6.271-1.087 1.723-2.879 3.475-3.396 5.451-.062.236.242.43.418.242 1.225-1.297 2.231-2.957 3.165-4.477 1.491-2.422 3.111-4.747 4.717-7.094.112-.164.225-.334.336-.502a133.883 133.883 0 0 0 3.664 6.708c.24.41.851.047.635-.371a538.265 538.265 0 0 1-3.668-7.278c2.289-3.502 4.437-7.459 5.277-11.488.049-.236-.269-.314-.354-.098-1.479 3.703-3.255 7.314-5.354 10.715-2.437-4.932-4.82-9.885-7.203-14.838 2.689-4.823 5.027-9.824 7.072-14.953.569-1.428 1.131-2.863 1.707-4.292l.012.023c1.322 2.894 2.34 6.322 4.129 8.951.208.321.823.122.655-.278zm-34.715 6.633c-2.521-5.775-4.904-11.737-7.621-17.515a91.131 91.131 0 0 1 2.367-4.049c2.125-3.411 4.773-6.686 6.942-10.177 2.605 4.382 4.95 8.906 7.349 13.451.617 1.171 1.232 2.343 1.848 3.516a672.25 672.25 0 0 1-2.185 3.195c-2.767 4.02-5.687 7.949-8.55 11.913-.048-.113-.101-.222-.15-.334zm19.888 4.243c-2.941 5.266-6.194 10.164-10.112 14.752-.084.098-.162.197-.244.295-3.148-5.93-6.225-11.889-8.974-18.054 2.965-4.132 6.02-8.212 8.89-12.379.636-.922 1.266-1.844 1.893-2.767 3.055 5.825 6.052 11.679 8.821 17.646-.093.168-.18.339-.274.507zm7.581-15.588c-2.063 4.841-4.328 9.594-6.841 14.216-2.846-5.911-5.706-11.815-8.693-17.663 3.537-5.247 6.884-10.554 9.759-16.222 1.379 2.307 2.832 4.578 4.064 6.937 1.359 2.604 2.576 5.292 3.795 7.966a357.146 357.146 0 0 0-2.084 4.766z"/><path fill="#983831" d="M-49.13 37.74c-1.794 3.932-2.699 8.364-4.322 12.402-1.681 4.182-3.427 9.551-6.608 12.888-4.457-3.239-7.711-7.794-11.197-11.989-4.092-4.922-6.434-10.55-9.675-15.966-.19-.318-.603-.09-.558.235.837 5.888 5.262 11.357 8.811 15.92 3.588 4.614 7.308 9.513 12.086 12.955.283.205.555.109.727-.094.157.032.33.004.486-.131 3.251-2.823 4.783-7.72 6.418-11.573 1.857-4.377 4.319-9.671 4.409-14.492.005-.291-.446-.442-.577-.155zm-43.553-1.562c-.064-.214-.346-.154-.368.05-.36 3.372 1.087 6.805 1.801 10.06.796 3.63 1.132 7.383 1.368 11.088.205 3.219.137 6.462-.324 9.657-.216 1.493-.604 2.949-1.08 4.378-.205.612-1.369 3.845-2.246 4.595-.268-.044-.559.076-.639.402l-.041.171a.606.606 0 0 0 .578.759c1.658.032 3.086-4.319 3.563-5.593 1.258-3.354 1.525-7.085 1.506-10.634-.046-8.49-1.694-16.824-4.118-24.933z"/><path fill="#9FB1D5" d="M-71.286 48.282c-3.597-2.511-11.339-14.144-12.707-14.667 2.412-2.793 7.598-4.695 9.44-4.65-1.843 3.63 9.435 10.017 9.435 10.017l-.035.037c.054.003.106.042.11.12.124 2.775.823 5.556 1.173 8.313.281 2.207.469 4.425.686 6.64.203 2.073.395 4.151.638 6.221a7.22 7.22 0 0 0-1.116-1.037c-.119-1.727-.215-3.455-.318-5.184-.014-.22-.035-.439-.049-.66-.407-2.268-.6-4.588-1.018-6.857-.383-2.078-.007-1.416-1.6-.797-.637.245-4.853 1.425-4.639 2.504zm10.449-9.264s-.937 3.313.691 4.871c1.803 1.727 6.215 1.821 6.824 4.236 3.459-4.089 7.314-12.077 7.314-12.077s-7.433-4.334-9.822-3.766c.898 4.051-5.007 6.736-5.007 6.736zm.175 9.672a.865.865 0 0 0-.642.44c-.48.059-.592.863-.261 1.327.565.793 1.558.612 1.892-.289.283-.761-.244-1.603-.989-1.478zm1.1 10.836c-.633-.43-1.197.265-1.336.877-.072.327.094.646.391.744.051.016.096.018.143.028.187.128.424.18.633.211.199.03.395-.016.502-.221.3-.573.201-1.276-.333-1.639z"/><path fill="#FFF" d="M-65.118 38.981s-5.637 2.756-7.41 6.387c-2.705-2.555-10.097-11.269-11.465-11.753 2.412-2.586 7.058-5.02 9.44-4.653-1.843 3.362 9.435 10.019 9.435 10.019zm4.281.037s7.516 3.347 8.185 6.758c4.051-4.218 6.646-9.728 6.646-9.728s-7.433-4.292-9.822-3.77c.896 3.725-5.009 6.74-5.009 6.74z"/><path fill="#FFBE73" d="M-72.936 136.635c-.409.039-.849-.078-1.265-.09-.008.002-.846-.066-2.153-.32-1.186-.229-4.865-1.725-6.19-2.939-.074-.041-.141.342-.193.871.211.271.4.559.588.906.313.588.383 1.078.41 1.605.188.309.367.625.549.938 2.418 1.113 5.8 2.885 7.557 2.094.397-.178.756-.762.988-1.529.128-.431-.093-1.556-.291-1.536z"/><path fill="#253C54" d="M-53.325 285.313c-3.25-1.121-7.409-.943-10.216-.574-.155.02-.136.227.014.234 2.991.189 8.744.455 11.352 3.004-.562-.814-1.375-1.52-2.056-1.711-.576-.159.436-.44.906-.953zm-22.544 2.38c1.306-1.063 3.021-1.779 4.424-2.4 2.106-.932 4.377-1.42 6.546-2.162.273-.096.157-.516-.121-.48-2.742.332-5.449.986-8.116 1.693-1.082.289-2.251.699-3.335 1.256.379.678 1.39 1.164.983 1.678-.08.099-.218.242-.381.415z"/><path fill="#335880" d="M-59.468 44.697s.573 2.673 0 3.247c-.56.561-3.169 0-3.169 0s-2.543.546-3.089 0c-.589-.588 0-3.327 0-3.327s-.616-2.868 0-3.485c.573-.574 3.247 0 3.247 0s2.479-.532 3.011 0c.63.629 0 3.565 0 3.565zm9.192-5.466c-.532-.533-7.586 1.326-8.16 1.9-.615.617-.588 6.225 0 6.813.547.546 7.6 2.462 8.16 1.901.575-.574.629-9.985 0-10.614zm-24.636 10.614c.561.561 7.613-1.355 8.16-1.901.588-.588.615-6.195 0-6.813-.574-.574-7.627-2.434-8.16-1.9-.629.629-.574 10.04 0 10.614z"/><path fill="#6998CB" d="M-61.683 42.581c0 .871.706 1.578 1.579 1.578.281 0 .541-.08.77-.209.141-.905.289-2.364-.123-2.806a1.556 1.556 0 0 0-.646-.142 1.58 1.58 0 0 0-1.58 1.579z"/><circle fill="#6998CB" cx="-53.979" cy="42.581" r="1.579"/><path fill="#6998CB" d="M-50.916 39.66c.273 0 .527-.077.754-.199a.615.615 0 0 0-.113-.23c-.148-.147-.805-.107-1.677.033.277.243.637.396 1.036.396zm-4.547 7.796a1.579 1.579 0 0 0-3.157 0c0 .038.009.073.011.11.052.175.109.311.174.376.182.181 1.082.512 2.218.854.45-.278.754-.772.754-1.34zm-18.795-8.312c-.332-.016-.573.006-.654.086-.056.056-.104.203-.15.386.316-.072.593-.24.804-.472zm9.607 3.437c0-.681-.434-1.256-1.039-1.478-.011.01-.026.017-.036.026-.452.453-.241 2.115-.097 2.97a1.574 1.574 0 0 0 1.172-1.518zm6.125 0c0-.256-.066-.494-.175-.707a12.136 12.136 0 0 0-.165 1.675c.209-.269.34-.602.34-.968zm-9.187 4.875a1.579 1.579 0 0 0-3.157 0c0 .75.524 1.376 1.228 1.536a34.516 34.516 0 0 0 1.495-.454c.267-.283.434-.662.434-1.082zm5.986.641a1.58 1.58 0 0 0 .139-.642 1.579 1.579 0 0 0-3.157 0c0 .264.071.508.185.727.891-.02 1.924-.24 1.924-.24s.394.084.909.155zm-6.081-5.516c0 .846.667 1.53 1.503 1.57-.021-1.412-.166-2.739-.447-3.021-.007-.006-.024-.015-.033-.021a1.575 1.575 0 0 0-1.023 1.472zm17.952 3.715a1.561 1.561 0 0 0-1.061-.418 1.578 1.578 0 1 0 .901 2.871c.076-.642.132-1.504.16-2.453zm-23.982 1.16c0-.846-.668-1.531-1.506-1.57.031 1.251.102 2.383.207 3.12a1.577 1.577 0 0 0 1.299-1.55z"/><circle fill="#6998CB" cx="-72.354" cy="42.581" r="1.579"/><path fill="#B4481C" d="M-53.112-2.384c-1.43-4.278-2.075-6.54-3.406-10.943-1.117-3.7-1.546-8.715-2.294-6.563-.568 1.637-2.541 11.786-3.371 16.574-.219 1.26-.317 1.258-.332 1.522-.063 1.269.489 1.906 1.652 2.963 1.732 1.573 3.799 1.598 5.766.812 2.056-.822 2.921-1.568 1.985-4.365z"/><path fill="#FCCEA4" d="M-53.535-3.674c-1.352-3.968-1.766-6.081-3.024-10.165-1.056-3.432-1.461-8.083-2.167-6.088-.679 1.918-3.724 16.469-3.784 17.646-.06 1.175.41.87 1.496 1.199.502.152 5.483.745 6.483 1.008 2.528.667 1.878-1.006.996-3.6z"/></svg>