<svg xmlns="http://www.w3.org/2000/svg" width="180.016" height="65.964" viewBox="0.301 0.801 180.016 65.964"><g id="svg-bubble" xmlns:dc="http://purl.org/dc/elements/1.1/" xmlns:cc="http://creativecommons.org/ns#" xmlns:rdf="http://www.w3.org/1999/02/22-rdf-syntax-ns#" xmlns:svg="http://www.w3.org/2000/svg" xmlns:sodipodi="http://sodipodi.sourceforge.net/DTD/sodipodi-0.dtd" xmlns:inkscape="http://www.inkscape.org/namespaces/inkscape" sodipodi:docname="Comic FX f1 - Copy - Copy (2).svg" inkscape:version="0.92.1 r15371"><sodipodi:namedview id="base" inkscape:window-y="-8" inkscape:pageopacity="0" inkscape:window-height="705" inkscape:window-width="1368" inkscape:current-layer="layer1" inkscape:window-x="-8" inkscape:pageshadow="2" inkscape:document-units="mm" inkscape:cx="-452.964" inkscape:cy="120.444" pagecolor="#ffffff" showgrid="false" bordercolor="#666666" borderopacity="1" inkscape:zoom=".607" inkscape:window-maximized="1"/><path id="path5290" sodipodi:nodetypes="sscscccsscsscs" inkscape:connector-curvature="0" fill="#FFF" stroke="#000" stroke-width="2" stroke-linecap="round" stroke-linejoin="round" d="M16.788 1.801c-8.553 0-15.487 3.704-15.487 8.268v33.073c0 4.572 6.935 8.268 15.487 8.268L8.744 65.765 40.018 51.41h123.809c8.552 0 15.704-4.091 15.485-8.268V10.069c0-4.564-6.934-8.268-15.485-8.268H16.788z"/></g><path d="M12.922 27.015c.023-1.993.006-3.969-.053-5.927a28.474 28.474 0 0 0-.792-5.856c-.118-.445-.058-.814.176-1.108a1.65 1.65 0 0 1 .862-.581c.339-.093.674-.07 1.002.07.328.141.55.435.668.88.493 1.993.762 4.004.809 6.032s.059 4.075.035 6.138c.727.071 1.454.146 2.181.229.727.083 1.454.141 2.181.176.727.035 1.448.035 2.163 0s1.425-.146 2.128-.334c.187-.071.387-.082.598-.035a66.52 66.52 0 0 1 .281-3.113 33.79 33.79 0 0 0 .211-3.113 26.548 26.548 0 0 0-.071-3.342 172.776 172.776 0 0 0-.316-3.341c-.047-.375.083-.704.387-.985s.645-.422 1.02-.422c.398 0 .715.141.95.422.234.282.375.61.422.985.117 1.125.228 2.239.334 3.341a24.45 24.45 0 0 1 .088 3.342 42.024 42.024 0 0 1-.264 3.289 42.024 42.024 0 0 0-.264 3.289c-.118 1.829-.2 3.665-.247 5.505a61.202 61.202 0 0 0 .106 5.505c.023.469-.106.814-.387 1.036a1.485 1.485 0 0 1-.95.336 1.63 1.63 0 0 1-.985-.336c-.305-.222-.47-.567-.493-1.036a56.738 56.738 0 0 1-.123-4.257c.011-1.431.053-2.86.123-4.292-.75.188-1.501.299-2.251.334-.751.035-1.501.035-2.251 0a38.363 38.363 0 0 1-2.269-.176c-.762-.082-1.519-.158-2.269-.228.023 1.313.087 2.614.193 3.904.105 1.289.322 2.579.651 3.868.117.447.064.816-.158 1.108a1.564 1.564 0 0 1-.845.581c-.34.093-.681.07-1.02-.071-.34-.14-.557-.434-.651-.879a23.048 23.048 0 0 1-.738-4.52 97.344 97.344 0 0 1-.176-4.591 1.51 1.51 0 0 1-.281-.914c.004-.35.098-.655.285-.913zm19.733-1.653a7.742 7.742 0 0 1 1.601-1.618 8.117 8.117 0 0 1 1.988-1.108 6.34 6.34 0 0 1 2.181-.422 5.73 5.73 0 0 1 2.251.439 7.204 7.204 0 0 1 1.97 1.143c.585.481 1.042 1.097 1.372 1.847.258.563.41 1.172.457 1.829a2.616 2.616 0 0 1-.528 1.794 3.533 3.533 0 0 1-1.284 1.125 6.243 6.243 0 0 1-1.618.563 8.797 8.797 0 0 1-1.759.176c-.598 0-1.167-.012-1.706-.035a23.086 23.086 0 0 1-1.812-.141c-.598-.071-1.202-.141-1.812-.212.187 1.056.563 1.994 1.125 2.814.563.821 1.325 1.441 2.287 1.864.258.093.457.164.598.21.071.024.135.042.194.054a.892.892 0 0 0 .193.018c.188.023.346.041.476.053.128.012.251.006.369-.018.164-.022.275-.04.334-.053.058-.012.123-.029.193-.054.258-.069.486-.151.686-.246.199-.093.44-.245.721-.456.141-.117.328-.294.563-.528.234-.234.433-.445.598-.633.234-.328.521-.551.862-.668.339-.117.686-.07 1.038.141.304.188.521.475.651.861a1.14 1.14 0 0 1-.158 1.073 10.411 10.411 0 0 1-2.41 2.34c-.927.645-1.988.99-3.183 1.036a6.121 6.121 0 0 1-2.779-.51 7.872 7.872 0 0 1-2.356-1.564 9.375 9.375 0 0 1-2.005-2.85 8.79 8.79 0 0 1-.809-3.307 1.543 1.543 0 0 1-.475-.615 1.401 1.401 0 0 1-.106-.756c.035-.258.124-.498.264-.721a1 1 0 0 1 .633-.439 8.035 8.035 0 0 1 1.195-2.426zm8.442.844c-.258-.328-.656-.621-1.195-.88-.446-.187-.967-.281-1.565-.281s-1.108.106-1.53.317c-.54.258-1.02.615-1.442 1.073a5.81 5.81 0 0 0-1.02 1.53l1.688.211c.563.07 1.125.118 1.689.141h.914c.305 0 .61-.012.915-.035.094 0 .181-.005.264-.018.083-.012.17-.018.264-.018.21-.046.369-.076.475-.088s.217-.041.334-.088c.093-.023.21-.059.351-.105a.796.796 0 0 0 .211-.105.396.396 0 0 1 .105-.07l.106-.422a.812.812 0 0 1-.088-.264.55.55 0 0 0-.088-.229 1.837 1.837 0 0 0-.158-.316 3.84 3.84 0 0 0-.23-.353zm8.477-14.809c.422 0 .75.141.985.422.234.281.375.61.422.985.234 2.229.364 4.456.387 6.684.023 2.228-.006 4.456-.088 6.683a182.578 182.578 0 0 1-.369 6.684l-.492 6.647c-.047.398-.194.732-.44 1.002s-.569.405-.967.405c-.352 0-.681-.136-.985-.405a1.183 1.183 0 0 1-.422-1.002c.164-2.203.334-4.421.51-6.647.176-2.229.305-4.456.387-6.684.082-2.228.111-4.455.087-6.683s-.153-4.455-.386-6.684c-.048-.375.082-.704.386-.985.305-.281.633-.422.985-.422zm7.563 0c.422 0 .75.141.984.422.234.281.375.61.422.985a71.33 71.33 0 0 1 .387 6.684c.023 2.228-.006 4.456-.088 6.683a182.583 182.583 0 0 1-.37 6.684l-.492 6.647a1.757 1.757 0 0 1-.439 1.002c-.246.27-.569.405-.967.405-.352 0-.68-.136-.985-.405a1.185 1.185 0 0 1-.422-1.002c.164-2.203.334-4.421.51-6.647.176-2.229.304-4.456.387-6.684.082-2.228.111-4.455.088-6.683a71.33 71.33 0 0 0-.387-6.684c-.047-.375.082-.704.387-.985s.633-.422.985-.422zm13.964 11.397a14.21 14.21 0 0 1 2.356-.088 8.712 8.712 0 0 1 2.356.422 6.41 6.41 0 0 1 2.04 1.108c.61.493 1.079 1.138 1.408 1.935.233.563.357 1.132.369 1.706a4.863 4.863 0 0 1-.246 1.653 5.775 5.775 0 0 1-.774 1.512 7.878 7.878 0 0 1-1.179 1.319 15.685 15.685 0 0 1-3.166 2.216 16.534 16.534 0 0 1-3.623 1.407c-.54.141-1.097.264-1.671.369-.575.106-1.155.159-1.741.159s-1.161-.065-1.723-.194a5.167 5.167 0 0 1-1.583-.651c-.352-.21-.563-.491-.633-.844a12.728 12.728 0 0 0-.457-1.125 21.954 21.954 0 0 1-.475-1.091 8.205 8.205 0 0 1-.369-1.125 4.757 4.757 0 0 1-.141-1.161c0-.797.169-1.553.51-2.269a6.082 6.082 0 0 1 1.39-1.881 11.669 11.669 0 0 1 3.412-2.251 15.055 15.055 0 0 1 3.94-1.126zm3.975 3.025a5.842 5.842 0 0 0-2.04-.352c-.774-.023-1.548.053-2.322.229s-1.512.417-2.216.721a10.94 10.94 0 0 0-2.022 1.073c-.692.458-1.202 1.015-1.531 1.671a2.087 2.087 0 0 0-.263 1.073c.012.364.07.727.176 1.09s.247.727.422 1.091c.176.363.334.721.475 1.072.375.094.61.141.704.141a.394.394 0 0 0 .176.035h.176c.469.047.891.035 1.266-.035.258 0 .586-.047.985-.141a12.062 12.062 0 0 0 1.759-.475 13.482 13.482 0 0 0 1.547-.651 20.523 20.523 0 0 0 1.583-.844 7.45 7.45 0 0 0 1.301-.95c.234-.211.458-.433.668-.668.117-.117.199-.211.246-.281.117-.164.211-.287.281-.37.07-.082.129-.181.176-.299.094-.164.141-.293.141-.387a.634.634 0 0 0 .053-.176.6.6 0 0 1 .053-.176v-.387a.927.927 0 0 1-.035-.211.326.326 0 0 0-.035-.141 2.068 2.068 0 0 0-.194-.369 19.8 19.8 0 0 0-.193-.264 8.067 8.067 0 0 0-.246-.281l-.281-.282c-.118-.07-.247-.152-.387-.246s-.282-.163-.423-.21zm28.526.915c.446 0 .78.141 1.003.422s.334.598.334.95-.111.674-.334.967c-.223.293-.557.439-1.003.439-.563.023-1.119.018-1.67-.018a64.027 64.027 0 0 1-1.636-.123c.022 1.853-.007 3.706-.088 5.558a45.845 45.845 0 0 1-.581 5.521c-.047.398-.258.692-.633.881-.376.187-.739.222-1.091.104-.398-.118-.674-.334-.826-.65-.152-.317-.194-.674-.123-1.072.281-1.782.439-3.565.475-5.348.036-1.781.029-3.575-.018-5.382-.892-.141-1.794-.287-2.709-.439a80.032 80.032 0 0 0-2.708-.404c-.398-.047-.686-.264-.861-.651s-.217-.744-.123-1.073c.117-.398.339-.673.668-.827a1.9 1.9 0 0 1 1.055-.158c.774.118 1.549.241 2.322.37.774.129 1.56.252 2.356.369a2.954 2.954 0 0 1-.035-.527c0-2.111-.006-4.198-.018-6.261a59.432 59.432 0 0 1 .299-6.261 1.8 1.8 0 0 1 .44-.985c.246-.282.568-.422.967-.422.353 0 .686.141 1.002.422s.451.61.405.985a61.304 61.304 0 0 0-.335 6.701c.013 2.216.042 4.462.089 6.736.563.047 1.125.087 1.688.123a27.24 27.24 0 0 0 1.689.053zm3.835 11.572c-.328-.117-.604-.345-.826-.686-.224-.339-.264-.687-.124-1.038.398-1.102.669-2.216.81-3.341.141-1.126.234-2.274.281-3.448.022-.351.035-.697.035-1.037s.012-.686.036-1.038a1.184 1.184 0 0 1 .07-.809l.14-2.058a29.87 29.87 0 0 1 .211-2.058c.117-1.032.24-2.058.369-3.078s.217-2.058.264-3.113c.048-.961.1-1.917.159-2.867a7.16 7.16 0 0 1 .722-2.726c.21-.398.491-.626.844-.686.352-.058.68 0 .984.176.305.176.533.439.687.791.152.352.122.728-.088 1.126a4.708 4.708 0 0 0-.388 1.231 9.513 9.513 0 0 0-.122 1.301c-.013.445-.018.892-.018 1.336 0 .446-.013.88-.036 1.302-.117 1.055-.234 2.105-.352 3.148l-.352 3.148c.985-.493 2.076-.762 3.271-.809.937-.023 1.893.135 2.866.475.973.34 1.765.885 2.374 1.635.352.446.633.933.845 1.46.211.528.381 1.079.51 1.653.129.575.217 1.149.264 1.724.047.575.094 1.132.142 1.671.07 1.103.1 2.198.087 3.288a111.436 111.436 0 0 1-.087 3.324c0 .446-.153.779-.458 1.003a1.644 1.644 0 0 1-.985.334c-.352 0-.668-.112-.949-.334-.281-.224-.41-.557-.388-1.003l.071-2.813a37.73 37.73 0 0 0-.035-2.814 25.211 25.211 0 0 1-.105-1.441 10.488 10.488 0 0 0-.176-1.478 14.915 14.915 0 0 1-.123-.686 5.112 5.112 0 0 0-.159-.686 2.114 2.114 0 0 0-.175-.598c-.07-.211-.118-.329-.142-.352-.047-.07-.082-.134-.105-.193s-.059-.124-.104-.194c-.212-.234-.341-.364-.388-.387-.094-.07-.176-.123-.246-.158s-.141-.076-.212-.123a4.275 4.275 0 0 0-.879-.352 3.444 3.444 0 0 0-.949-.141 4.505 4.505 0 0 0-2.233.422c-.692.329-1.308.833-1.847 1.513a107.45 107.45 0 0 1-.246 4.801 17.487 17.487 0 0 1-1.021 4.696 1.598 1.598 0 0 1-.65.844c-.317.214-.675.261-1.074.143zm17.903-12.944a7.694 7.694 0 0 1 1.601-1.618 8.093 8.093 0 0 1 1.987-1.108 6.34 6.34 0 0 1 2.181-.422 5.73 5.73 0 0 1 2.251.439 7.19 7.19 0 0 1 1.97 1.143c.587.481 1.043 1.097 1.371 1.847.259.563.411 1.172.458 1.829a2.62 2.62 0 0 1-.527 1.794 3.55 3.55 0 0 1-1.284 1.125 6.262 6.262 0 0 1-1.617.563c-.576.117-1.162.176-1.76.176s-1.167-.012-1.705-.035a23.074 23.074 0 0 1-1.813-.141c-.598-.071-1.202-.141-1.812-.212.188 1.056.563 1.994 1.127 2.814.563.821 1.323 1.441 2.285 1.864.258.093.458.164.598.21.07.024.135.042.194.054a.886.886 0 0 0 .193.018c.188.023.345.041.475.053.129.012.251.006.37-.018.163-.022.274-.04.334-.053.058-.012.122-.029.193-.054a4.05 4.05 0 0 0 .686-.246c.199-.093.439-.245.721-.456.141-.117.329-.294.563-.528s.434-.445.598-.633c.234-.328.522-.551.861-.668.341-.117.687-.07 1.038.141.305.188.521.475.65.861.129.387.076.745-.158 1.073a10.427 10.427 0 0 1-2.409 2.34c-.927.645-1.987.99-3.184 1.036a6.117 6.117 0 0 1-2.778-.51 7.864 7.864 0 0 1-2.357-1.564 9.375 9.375 0 0 1-2.005-2.85 8.79 8.79 0 0 1-.809-3.307 1.545 1.545 0 0 1-.476-.615c-.104-.246-.14-.498-.104-.756.035-.258.122-.498.264-.721a.998.998 0 0 1 .633-.439 8.061 8.061 0 0 1 1.196-2.426zm8.442.844c-.259-.328-.657-.621-1.197-.88-.445-.187-.967-.281-1.564-.281-.599 0-1.108.106-1.53.317a4.68 4.68 0 0 0-1.441 1.073 5.764 5.764 0 0 0-1.021 1.53l1.688.211c.563.07 1.126.118 1.688.141h.915c.305 0 .609-.012.914-.035.094 0 .183-.005.265-.018.082-.012.169-.018.264-.018.211-.046.369-.076.475-.088s.216-.041.334-.088c.094-.023.212-.059.352-.105.117-.046.188-.082.211-.105s.059-.047.105-.07l.106-.422a.866.866 0 0 1-.089-.264.536.536 0 0 0-.088-.229 1.814 1.814 0 0 0-.157-.316 4.061 4.061 0 0 0-.23-.353zm6.789-1.513c.023-.445.188-.779.492-1.002.305-.222.634-.334.985-.334s.662.112.932.334c.269.223.393.558.37 1.002 0 .141-.007.288-.018.44a5.165 5.165 0 0 0-.018.439c.75-.375 1.541-.697 2.373-.967.832-.27 1.665-.439 2.498-.51a7.326 7.326 0 0 1 2.428.194c.785.199 1.506.58 2.162 1.143.328.305.475.633.44.985a1.437 1.437 0 0 1-.422.897 1.633 1.633 0 0 1-.933.457c-.376.059-.739-.052-1.091-.334-.258-.211-.545-.363-.861-.457s-.657-.135-1.021-.123a6.97 6.97 0 0 0-1.09.123c-.364.07-.71.153-1.038.246a16.183 16.183 0 0 0-3.481 1.583c.046 1.149.117 2.298.21 3.447.094.962.177 1.952.246 2.973.071 1.02.27 1.986.598 2.902.142.421.112.779-.087 1.072s-.47.486-.81.58-.691.07-1.055-.069c-.364-.142-.616-.423-.756-.846a8.056 8.056 0 0 1-.388-1.653l-.211-1.688c-.047-.54-.1-1.085-.158-1.636s-.111-1.096-.158-1.636a58.97 58.97 0 0 1-.229-3.781 37.97 37.97 0 0 1 .091-3.781zm15.301.669a7.718 7.718 0 0 1 1.601-1.618 8.093 8.093 0 0 1 1.987-1.108 6.34 6.34 0 0 1 2.181-.422 5.73 5.73 0 0 1 2.251.439 7.175 7.175 0 0 1 1.97 1.143c.587.481 1.043 1.097 1.372 1.847.258.563.41 1.172.457 1.829a2.62 2.62 0 0 1-.527 1.794 3.541 3.541 0 0 1-1.284 1.125 6.249 6.249 0 0 1-1.617.563 8.807 8.807 0 0 1-1.76.176c-.598 0-1.167-.012-1.705-.035a23.049 23.049 0 0 1-1.812-.141l-1.813-.212c.188 1.056.564 1.994 1.127 2.814.563.821 1.323 1.441 2.286 1.864.257.093.457.164.598.21.069.024.135.042.193.054a.892.892 0 0 0 .193.018c.188.023.346.041.475.053s.252.006.37-.018c.163-.022.274-.04.334-.053.058-.012.122-.029.193-.054.258-.069.486-.151.686-.246.199-.093.44-.245.722-.456.14-.117.328-.294.563-.528s.434-.445.598-.633c.234-.328.522-.551.861-.668.341-.117.687-.07 1.038.141.305.188.521.475.65.861s.076.745-.157 1.073a10.431 10.431 0 0 1-2.41 2.34c-.926.645-1.987.99-3.184 1.036a6.117 6.117 0 0 1-2.778-.51 7.864 7.864 0 0 1-2.357-1.564 9.355 9.355 0 0 1-2.004-2.85 8.773 8.773 0 0 1-.81-3.307 1.543 1.543 0 0 1-.475-.615 1.4 1.4 0 0 1-.105-.756c.035-.258.122-.498.264-.721a1 1 0 0 1 .633-.439 8.082 8.082 0 0 1 1.195-2.426zm8.443.844c-.259-.328-.657-.621-1.196-.88-.446-.187-.967-.281-1.564-.281-.6 0-1.109.106-1.531.317a4.69 4.69 0 0 0-1.441 1.073 5.788 5.788 0 0 0-1.021 1.53l1.688.211c.563.07 1.125.118 1.688.141h.916c.304 0 .608-.012.914-.035.093 0 .182-.005.264-.018.082-.012.17-.018.264-.018.211-.046.369-.076.476-.088.104-.012.215-.041.334-.088.093-.023.211-.059.351-.105a.828.828 0 0 0 .212-.105.388.388 0 0 1 .104-.07l.106-.422a.894.894 0 0 1-.089-.264.548.548 0 0 0-.087-.229 1.915 1.915 0 0 0-.158-.316 4.31 4.31 0 0 0-.23-.353zm8.195 10.342c.305.188.539.469.703.844s.188.727.071 1.056c-.142.398-.376.69-.704.879a1.231 1.231 0 0 1-.985.405c-.398-.013-.727-.147-.984-.405-.352-.281-.574-.516-.669-.703-.188-.328-.241-.657-.157-.985.082-.328.264-.609.545-.844a2.552 2.552 0 0 1 .387-.316c.211-.095.334-.142.37-.142.035 0 .169-.022.403-.07.188 0 .329.024.423.07.233.046.433.117.597.211z" id="svg-text"/></svg>