<svg version="1.1" id="Layer_1" xmlns="http://www.w3.org/2000/svg" x="0" y="0" width="255.122" height="51.609" viewBox="-22.617 0.801 255.122 51.609" xml:space="preserve"><g id="svg-bubble" xmlns:dc="http://purl.org/dc/elements/1.1/" xmlns:cc="http://creativecommons.org/ns#" xmlns:rdf="http://www.w3.org/1999/02/22-rdf-syntax-ns#" xmlns:svg="http://www.w3.org/2000/svg" xmlns:sodipodi="http://sodipodi.sourceforge.net/DTD/sodipodi-0.dtd" xmlns:inkscape="http://www.inkscape.org/namespaces/inkscape" sodipodi:docname="Comic FX f1 - Copy - Copy (2).svg" inkscape:version="0.92.1 r15371"><sodipodi:namedview id="base" inkscape:window-y="-8" inkscape:pageopacity="0" inkscape:window-height="705" inkscape:window-width="1368" inkscape:current-layer="layer1" inkscape:window-x="-8" inkscape:pageshadow="2" inkscape:document-units="mm" inkscape:cx="-452.964" inkscape:cy="120.444" pagecolor="#ffffff" showgrid="false" bordercolor="#666666" borderopacity="1" inkscape:zoom=".607" inkscape:window-maximized="1"/><path id="path5290" sodipodi:nodetypes="sscscccsscsscs" inkscape:connector-curvature="0" fill="#FFF" stroke="#000" stroke-width="2" stroke-linecap="round" stroke-linejoin="round" d="M16.788 1.801c-8.554 0-15.487 3.704-15.487 8.268v12.914l-22.918-2.75 22.918 16v6.91c0 4.572 6.935 8.268 15.487 8.268h199.227c8.552 0 15.703-4.091 15.484-8.268V10.069c0-4.564-6.934-8.268-15.484-8.268H16.788z"/></g><path d="M12.443 34.994c0 .397-.131.695-.393.895s-.549.298-.863.298-.602-.099-.863-.298c-.262-.199-.392-.497-.392-.895 0-3.347.042-6.679.125-9.996.083-3.316.282-6.638.596-9.964.042-.355.173-.638.393-.848.219-.209.46-.33.722-.361.261-.031.522.021.785.157.261.137.455.372.581.707a76.577 76.577 0 0 1 1.161 3.593c.355 1.204.706 2.412 1.051 3.625s.701 2.422 1.067 3.625a59.399 59.399 0 0 0 1.208 3.562 132.594 132.594 0 0 0 2.966-8.254 69.532 69.532 0 0 0 2.15-8.505c.063-.314.209-.544.439-.69.23-.146.486-.22.769-.22.282 0 .538.074.769.22.23.146.377.376.439.69.167.941.225 1.867.173 2.777-.053.91-.079 1.836-.079 2.778 0 1.004.057 1.988.172 2.95.115.962.214 1.935.298 2.918.167 1.967.293 3.934.376 5.9.083 1.967.157 3.934.22 5.9 0 .418-.125.727-.376.926a1.335 1.335 0 0 1-.847.298c-.314 0-.607-.1-.879-.298-.272-.199-.408-.508-.408-.926-.042-1.967-.11-3.934-.204-5.9a157.86 157.86 0 0 0-.393-5.9 30.951 30.951 0 0 1-.11-1.099 31.368 31.368 0 0 0-.11-1.098 108.73 108.73 0 0 1-1.961 5.618 241.19 241.19 0 0 1-2.181 5.523 1.765 1.765 0 0 1-.455.644 1.067 1.067 0 0 1-.738.267c-.209 0-.418-.058-.627-.173a1.162 1.162 0 0 1-.471-.455 46.704 46.704 0 0 1-2.134-5.617 376.696 376.696 0 0 1-1.726-5.775 203.399 203.399 0 0 0-.204 6.701 481.448 481.448 0 0 0-.046 6.7zm28.622-13.495c.292.168.491.419.596.753a1.02 1.02 0 0 1-.157.941 8.443 8.443 0 0 0-1.177 2.479c-.262.9-.56 1.778-.895 2.636-.356.921-.748 1.81-1.177 2.667a79.393 79.393 0 0 1-1.365 2.605 1.303 1.303 0 0 1-.141.267c-.053.074-.1.162-.141.267.083.335.036.634-.142.895a1.409 1.409 0 0 1-.706.55 356.398 356.398 0 0 1-2.589 4.347 341.789 341.789 0 0 0-2.589 4.347c-.209.355-.476.554-.8.596a1.392 1.392 0 0 1-1.491-.862c-.125-.304-.084-.634.125-.989a266.476 266.476 0 0 1 2.667-4.472 273.534 273.534 0 0 0 2.668-4.473 124.333 124.333 0 0 1-2.699-5.131 272.799 272.799 0 0 0-2.636-5.163c-.188-.355-.215-.685-.079-.989.136-.303.334-.533.596-.69.262-.157.554-.214.879-.172.324.042.581.241.769.596a600.084 600.084 0 0 1 2.291 4.504 199.883 199.883 0 0 0 2.322 4.472 38.305 38.305 0 0 0 2.071-4.488c.314-.857.612-1.731.895-2.621a8.697 8.697 0 0 1 1.208-2.432c.188-.292.439-.486.753-.581.316-.095.63-.047.944.141zm12.365 11.11c0-.899.063-1.81.188-2.73.146-1.109.293-2.213.439-3.311.146-1.099.209-2.213.188-3.343 0-.397.126-.701.377-.91.251-.208.533-.313.847-.313s.606.105.879.313c.271.209.408.513.408.91.816-.063 1.59-.094 2.323-.094.836.021 1.548.262 2.134.722.586.46 1.025 1.078 1.318 1.852.251.711.397 1.444.439 2.197.042.753.073 1.507.094 2.26.021 1.067.052 2.129.094 3.186a80.2 80.2 0 0 1 .063 3.186c0 .418-.131.727-.392.926-.262.198-.544.298-.848.298s-.586-.1-.847-.298c-.262-.199-.393-.508-.393-.926 0-1.004-.016-1.987-.047-2.95-.031-.962-.068-1.945-.11-2.95a17.453 17.453 0 0 1-.047-1.679 6.88 6.88 0 0 0-.142-1.585 12 12 0 0 0-.188-.769 1.86 1.86 0 0 0-.345-.644c-.042-.083-.131-.157-.267-.22a.875.875 0 0 0-.361-.094c-.314 0-.607.021-.879.063a7.075 7.075 0 0 0-.847.188 55.15 55.15 0 0 1-.376.125 1.726 1.726 0 0 0-.345.157 16.53 16.53 0 0 0-.455 2.15c-.094.68-.184 1.365-.267 2.056-.063.502-.099 1.01-.11 1.522s-.031 1.02-.063 1.521c-.031.503-.094 1.005-.188 1.507s-.256.983-.486 1.443c-.188.355-.439.56-.753.612-.313.052-.602 0-.863-.157a1.471 1.471 0 0 1-.596-.706c-.137-.313-.121-.648.047-1.004.188-.377.293-.785.314-1.225l.063-1.286zm15.096 2.165c-.711-.313-1.271-.747-1.679-1.302A4.995 4.995 0 0 1 66 31.636a6.583 6.583 0 0 1-.141-2.087 8.74 8.74 0 0 1 .439-2.087c.188-.523.402-1.067.643-1.632.24-.565.528-1.087.863-1.569a5.358 5.358 0 0 1 1.192-1.239 3.686 3.686 0 0 1 1.632-.675 9.453 9.453 0 0 1 1.961-.11c.659.031 1.313.1 1.961.204.293.042.575.109.847.204s.544.194.816.298c.021-.314.162-.575.423-.785.262-.209.539-.314.832-.314.355 0 .643.121.863.361.22.241.35.529.393.863.104.962.151 1.925.141 2.887a67.925 67.925 0 0 1-.094 2.888c-.053.962-.094 1.925-.125 2.887a38.1 38.1 0 0 0 .016 2.888c.021.397-.1.695-.361.895a1.4 1.4 0 0 1-1.726 0c-.262-.199-.403-.497-.424-.895-1.192.502-2.459.79-3.797.862a8.12 8.12 0 0 1-3.828-.706zm.22-6.81a12.44 12.44 0 0 0-.345 1.287c-.105.481-.136.941-.094 1.381s.178.843.408 1.208c.23.367.606.623 1.13.77a7.315 7.315 0 0 0 6.245-.848c.083-1.025.152-2.019.204-2.981.052-.962.068-1.935.047-2.919-.356-.23-.717-.434-1.083-.612a4.094 4.094 0 0 0-1.208-.361 17.68 17.68 0 0 0-1.397-.141 9.154 9.154 0 0 0-1.428.016c-.042 0-.152.026-.33.079-.178.052-.278.089-.298.11a1.587 1.587 0 0 0-.565.502 8.19 8.19 0 0 0-.722 1.208c-.209.427-.397.861-.564 1.301zm15.817 8.066c-.293.104-.612.073-.957-.095-.345-.167-.539-.418-.581-.753a46.6 46.6 0 0 1-.549-5.477c-.074-1.81-.11-3.635-.11-5.477 0-.314.083-.565.251-.753.167-.188.366-.314.596-.377.23-.063.471-.073.722-.031.251.042.46.146.627.314a9.46 9.46 0 0 1 1.538-1.036 5.352 5.352 0 0 1 1.648-.581 3.658 3.658 0 0 1 1.647.094c.544.157 1.057.487 1.539.989.397.419.742.863 1.035 1.334s.555.968.785 1.491a7.855 7.855 0 0 1 1.318-2.197 4.131 4.131 0 0 1 2.165-1.35c.648-.167 1.161-.13 1.538.11.377.241.732.612 1.067 1.114.355.523.685 1.057.988 1.601.303.544.591 1.098.863 1.663.271.565.533 1.13.784 1.695s.502 1.12.753 1.664c.293.607.55 1.208.77 1.804.22.597.36 1.229.424 1.898.041.356-.079.654-.361.895s-.58.361-.895.361c-.355 0-.644-.12-.863-.361a1.547 1.547 0 0 1-.392-.895c-.043-.502-.173-.988-.393-1.459s-.435-.937-.644-1.396c-.23-.481-.455-.973-.675-1.475s-.444-.994-.675-1.475c-.23-.481-.476-.962-.737-1.444a23.966 23.966 0 0 0-.832-1.412l-.125-.188-.126-.188c-.419.23-.722.45-.91.659s-.366.492-.533.847a6.223 6.223 0 0 0-.361.989c-.094.345-.172.696-.235 1.051-.125.67-.22 1.371-.282 2.103a8.627 8.627 0 0 0 .016 1.57 5.37 5.37 0 0 1-.078 1.568c-.063.335-.257.586-.581.754-.324.167-.644.209-.957.125-.293-.083-.508-.235-.644-.455s-.225-.476-.267-.769c-.084-.67-.178-1.36-.282-2.071a24.814 24.814 0 0 0-.408-2.119 14.933 14.933 0 0 0-.644-2.04 8.113 8.113 0 0 0-1.02-1.836c-.294-.376-.592-.627-.895-.753-.304-.125-.675-.073-1.114.157a9.597 9.597 0 0 0-1.413.91c-.46.356-.868.753-1.224 1.192.021 1.339.067 2.673.141 4.001a38.7 38.7 0 0 0 .424 3.97c.042.356-.005.675-.142.957s-.378.477-.734.583zm21.405-12.586a6.903 6.903 0 0 1 1.429-1.443 7.273 7.273 0 0 1 1.772-.989 5.645 5.645 0 0 1 1.946-.376 5.117 5.117 0 0 1 2.009.392 6.404 6.404 0 0 1 1.757 1.02c.523.429.931.979 1.225 1.648a4.71 4.71 0 0 1 .407 1.632 2.333 2.333 0 0 1-.471 1.601 3.164 3.164 0 0 1-1.146 1.004c-.45.23-.931.397-1.443.502a7.797 7.797 0 0 1-1.569.157c-.533 0-1.041-.01-1.521-.031a21.02 21.02 0 0 1-1.617-.125l-1.616-.188a6.353 6.353 0 0 0 1.005 2.511c.502.733 1.182 1.287 2.04 1.664.229.084.408.146.533.188.063.021.12.036.173.047a.835.835 0 0 0 .173.016c.167.021.308.037.423.047.115.011.225.006.33-.016.146-.021.245-.036.298-.047a1.58 1.58 0 0 0 .173-.047c.229-.063.434-.136.612-.22.177-.084.392-.22.643-.408.126-.104.293-.262.503-.471.209-.209.387-.397.533-.565.209-.293.466-.491.769-.596.304-.104.612-.063.926.125.272.167.466.424.581.769.114.345.067.664-.142.957a9.232 9.232 0 0 1-2.149 2.087c-.827.576-1.773.885-2.841.926a5.464 5.464 0 0 1-2.479-.455 7.05 7.05 0 0 1-2.104-1.396 8.317 8.317 0 0 1-1.788-2.542 7.846 7.846 0 0 1-.723-2.95 1.368 1.368 0 0 1-.423-.549c-.095-.22-.126-.444-.095-.675.031-.23.11-.444.235-.643a.896.896 0 0 1 .565-.393 7.206 7.206 0 0 1 1.067-2.168zm7.532.754c-.23-.293-.586-.554-1.066-.785-.398-.167-.863-.251-1.396-.251-.534 0-.989.094-1.365.282-.482.23-.91.549-1.287.958a5.15 5.15 0 0 0-.91 1.365l1.507.188c.502.063 1.004.105 1.506.125h.816c.271 0 .544-.01.815-.031.084 0 .162-.005.235-.016.073-.01.151-.016.235-.016.188-.042.33-.068.424-.079.095-.01.193-.036.298-.079.084-.021.188-.052.314-.094a.736.736 0 0 0 .188-.094.362.362 0 0 1 .094-.063l.095-.376a.757.757 0 0 1-.079-.235.51.51 0 0 0-.078-.204 3.303 3.303 0 0 0-.346-.595zm15.629 11.11c.168-1.005.361-1.993.581-2.966.22-.974.382-1.962.486-2.966.084-.983.1-1.951.047-2.903-.052-.952.005-1.919.173-2.903.042-.334.235-.585.581-.753.345-.167.664-.209.957-.125.355.105.601.303.737.596a1.7 1.7 0 0 1 .142.941 7.59 7.59 0 0 0-.11 1.475c.011.502.026 1.004.047 1.506 0 .963-.063 1.925-.188 2.888a37.797 37.797 0 0 1-.487 2.95 85.62 85.62 0 0 0-.549 2.919c-.063.334-.262.585-.597.753-.335.167-.648.209-.941.125-.355-.104-.606-.303-.753-.596a1.46 1.46 0 0 1-.126-.941zm1.507-14.437c-.146-.042-.293-.11-.439-.204s-.251-.214-.313-.361c-.063-.167-.115-.314-.157-.439s-.063-.271-.063-.439c0-.188.031-.376.094-.565.084-.376.251-.648.502-.816a.766.766 0 0 1 .346-.282c.229-.146.491-.225.784-.235s.555.068.785.235c.104.083.209.172.313.267s.188.215.251.361c.042.105.089.22.142.345a.683.683 0 0 1 .047.376c-.021.147-.042.283-.063.408a.747.747 0 0 1-.157.345 2.647 2.647 0 0 1-.251.314 2.816 2.816 0 0 1-.313.251.8.8 0 0 1-.377.188c-.441.251-.818.335-1.131.251zm6.842 7.783c-.544-.397-.931-.895-1.161-1.491s-.24-1.229-.031-1.899c.209-.606.534-1.15.973-1.632a5.384 5.384 0 0 1 1.507-1.161 9.511 9.511 0 0 1 4.174-1.099c.732-.021 1.46.047 2.182.204s1.407.403 2.056.737c.355.188.554.439.596.753s-.016.607-.172.879a1.376 1.376 0 0 1-.706.596c-.314.125-.649.094-1.005-.094a4.9 4.9 0 0 0-1.694-.534 7.773 7.773 0 0 0-1.898-.016 6.13 6.13 0 0 0-1.805.487 4.363 4.363 0 0 0-1.413.973 2.578 2.578 0 0 0-.203.22 1.633 1.633 0 0 0-.142.282l-.063.346c.063.188.114.303.156.345.419.272.853.444 1.303.518.449.074.904.121 1.365.141.648.042 1.313.079 1.993.11.68.032 1.339.121 1.977.267a5.832 5.832 0 0 1 1.773.722c.544.335 1.005.827 1.381 1.475.419.732.612 1.491.581 2.275-.031.785-.341 1.491-.926 2.119a4.653 4.653 0 0 1-2.04 1.302c-.774.24-1.56.413-2.354.519a13.03 13.03 0 0 1-2.212.063 10.026 10.026 0 0 1-2.197-.361 6.815 6.815 0 0 1-1.961-.91 4.96 4.96 0 0 1-1.507-1.616c-.188-.334-.22-.653-.094-.957.125-.303.318-.533.58-.69s.555-.214.879-.173c.324.042.591.23.8.565.293.481.701.847 1.225 1.099a6.048 6.048 0 0 0 1.71.518 7.98 7.98 0 0 0 1.867.063 13.96 13.96 0 0 0 1.695-.235c.271-.063.549-.151.832-.267.282-.115.522-.256.722-.424.198-.167.34-.361.424-.58.083-.22.072-.466-.032-.738a2.032 2.032 0 0 0-1.051-1.129 4.448 4.448 0 0 0-1.554-.408 21.613 21.613 0 0 0-1.663-.063c-.565 0-1.13-.026-1.695-.079a9.823 9.823 0 0 1-1.663-.298 4.576 4.576 0 0 1-1.509-.724zm28.151 8.129c-.67-.209-1.297-.508-1.883-.895s-1.136-.82-1.647-1.303c-.514-.48-.989-.998-1.429-1.553a17.067 17.067 0 0 1-1.192-1.711c-.209-.334-.251-.653-.125-.957a1.393 1.393 0 0 1 1.491-.863c.324.042.591.23.801.565.271.439.58.89.926 1.35.345.46.731.899 1.161 1.317.429.419.884.78 1.365 1.083.48.304.983.518 1.506.644.23.042.46.063.69.063s.472-.052.723-.156c.209-.063.376-.157.502-.283.376-.48.622-.931.737-1.35.115-.418.193-.826.235-1.224.126-1.15.157-2.301.095-3.452a63.9 63.9 0 0 0-.283-3.453 48.918 48.918 0 0 1-.282-3.892 24.004 24.004 0 0 0-.439-3.86 39.873 39.873 0 0 1-2.95.016 22.375 22.375 0 0 1-2.95-.298c-.335-.063-.586-.261-.753-.596-.168-.334-.209-.648-.126-.941.104-.355.304-.607.597-.753a1.53 1.53 0 0 1 .973-.125c1.109.188 2.218.277 3.327.267 1.108-.01 2.223-.036 3.343-.078 1.118-.042 2.232-.063 3.342-.063s2.218.094 3.327.283c.355.063.616.262.784.596.167.335.199.648.095.941-.105.356-.299.607-.581.753s-.602.188-.957.125a16.333 16.333 0 0 0-2.464-.251 33.023 33.023 0 0 0-2.495.032c.167.941.277 1.878.33 2.809.052.932.109 1.868.172 2.809.042.544.089 1.072.142 1.585.052.513.109 1.041.173 1.585.104 1.255.183 2.542.235 3.86.052 1.318-.1 2.595-.455 3.829a6.853 6.853 0 0 1-.659 1.632 4.145 4.145 0 0 1-1.161 1.317 4.674 4.674 0 0 1-2.04.785 4.894 4.894 0 0 1-2.201-.189zm18.329-15.63c.669-.083 1.37-.11 2.103-.078.732.031 1.433.157 2.103.376s1.276.549 1.82.989c.544.439.962 1.015 1.256 1.726.209.502.318 1.009.329 1.522s-.063 1.004-.22 1.475-.388.921-.69 1.35a7.018 7.018 0 0 1-1.052 1.177c-.857.774-1.799 1.434-2.824 1.978s-2.103.962-3.232 1.255c-.481.126-.979.235-1.491.33a8.593 8.593 0 0 1-1.553.141 6.868 6.868 0 0 1-1.538-.173 4.598 4.598 0 0 1-1.412-.58c-.314-.188-.503-.439-.565-.753-.125-.355-.262-.69-.408-1.005a20.913 20.913 0 0 1-.423-.973 7.222 7.222 0 0 1-.33-1.004 4.235 4.235 0 0 1-.125-1.036c0-.711.151-1.386.455-2.024a5.433 5.433 0 0 1 1.239-1.679c.879-.837 1.894-1.507 3.044-2.009s2.322-.837 3.514-1.005zm3.546 2.7a5.202 5.202 0 0 0-1.82-.314c-.69-.021-1.381.047-2.071.204s-1.35.372-1.977.644a9.726 9.726 0 0 0-1.805.957c-.618.408-1.073.905-1.365 1.491a1.869 1.869 0 0 0-.235.957c.01.325.063.649.156.973.095.325.22.649.377.973.157.325.298.644.424.958.334.084.544.125.628.125a.344.344 0 0 0 .156.031h.157c.418.042.795.031 1.13-.031.229 0 .522-.042.879-.125a10.735 10.735 0 0 0 1.569-.424c.502-.177.962-.371 1.381-.581.48-.23.951-.481 1.412-.753.46-.271.848-.554 1.161-.847.209-.188.408-.387.597-.596.104-.104.177-.188.22-.251.104-.146.188-.256.251-.33a.935.935 0 0 0 .156-.267c.084-.146.126-.261.126-.345.021-.042.036-.094.047-.157s.026-.115.047-.157v-.345a.838.838 0 0 1-.031-.188.288.288 0 0 0-.031-.125 1.92 1.92 0 0 0-.173-.33 9.018 9.018 0 0 0-.173-.235 4.972 4.972 0 0 0-.219-.251l-.252-.251a9.86 9.86 0 0 1-.345-.219 1.522 1.522 0 0 0-.377-.191zm6.434 11.141c-.293-.104-.539-.309-.737-.611-.199-.304-.235-.612-.109-.926.355-.983.596-1.978.722-2.982.125-1.004.209-2.029.251-3.076.021-.314.031-.622.031-.926 0-.303.01-.612.031-.926a1.067 1.067 0 0 1 .063-.722l.126-1.836c.042-.617.104-1.229.188-1.836.104-.92.214-1.836.329-2.746s.193-1.836.235-2.777c.042-.858.089-1.71.142-2.558a6.4 6.4 0 0 1 .644-2.432c.188-.355.439-.56.753-.612s.606 0 .879.157c.271.157.476.393.611.706.137.314.11.649-.078 1.004a4.174 4.174 0 0 0-.345 1.099c-.063.376-.1.764-.11 1.161s-.016.795-.016 1.192c0 .398-.011.785-.031 1.162l-.313 2.809c-.105.931-.21 1.868-.314 2.809.879-.439 1.852-.68 2.919-.722a7.183 7.183 0 0 1 2.558.424c.868.304 1.574.79 2.118 1.459.314.397.565.832.754 1.302s.34.963.455 1.475c.114.513.193 1.025.235 1.538.041.513.083 1.01.125 1.491.063.983.089 1.961.079 2.934a97.199 97.199 0 0 1-.079 2.966c0 .397-.136.695-.407.895a1.46 1.46 0 0 1-.879.298c-.314 0-.597-.099-.848-.298s-.366-.497-.346-.895l.063-2.511c.021-.836.01-1.673-.031-2.51-.043-.418-.074-.848-.095-1.287s-.073-.878-.157-1.318a14.19 14.19 0 0 1-.109-.612 4.473 4.473 0 0 0-.142-.612 1.939 1.939 0 0 0-.156-.534c-.063-.188-.105-.292-.126-.313a.976.976 0 0 1-.094-.173.948.948 0 0 0-.095-.172c-.188-.209-.304-.324-.345-.346a1.529 1.529 0 0 0-.22-.141 1.457 1.457 0 0 1-.188-.11 3.838 3.838 0 0 0-.784-.313 3.119 3.119 0 0 0-.848-.126c-.712-.042-1.376.084-1.993.377s-1.166.743-1.647 1.35c-.042 1.443-.115 2.872-.22 4.284s-.408 2.809-.91 4.189a1.426 1.426 0 0 1-.581.754c-.283.187-.603.229-.958.124zm15.253-2.385c0-.899.063-1.81.188-2.73.146-1.109.293-2.213.439-3.311.146-1.099.209-2.213.188-3.343 0-.397.125-.701.376-.91.251-.208.534-.313.848-.313s.606.105.879.313c.271.209.408.513.408.91.815-.063 1.59-.094 2.322-.094.837.021 1.548.262 2.134.722.586.46 1.025 1.078 1.318 1.852.251.711.397 1.444.439 2.197.042.753.073 1.507.094 2.26.021 1.067.053 2.129.095 3.186.041 1.057.063 2.118.063 3.186 0 .418-.131.727-.393.926a1.378 1.378 0 0 1-.847.298c-.304 0-.586-.1-.848-.298-.262-.199-.393-.508-.393-.926 0-1.004-.016-1.987-.047-2.95-.031-.962-.068-1.945-.11-2.95a17.453 17.453 0 0 1-.047-1.679 6.826 6.826 0 0 0-.141-1.585c-.063-.293-.126-.549-.188-.769s-.178-.434-.346-.644c-.042-.083-.131-.157-.267-.22a.875.875 0 0 0-.36-.094c-.314 0-.607.021-.879.063a7.09 7.09 0 0 0-.848.188l-.377.125c-.125.042-.24.094-.345.157-.21.753-.361 1.47-.455 2.15-.095.68-.184 1.365-.267 2.056-.063.502-.1 1.01-.11 1.522s-.031 1.02-.063 1.521a12.285 12.285 0 0 1-.188 1.507 5.494 5.494 0 0 1-.486 1.443c-.188.355-.439.56-.753.612-.314.052-.602 0-.863-.157a1.473 1.473 0 0 1-.597-.706c-.136-.313-.12-.648.047-1.004.188-.377.293-.785.314-1.225.024-.438.045-.867.066-1.286zm14.531.815c.271.168.48.419.627.754s.168.648.063.941c-.126.355-.335.617-.628.784-.23.251-.523.371-.879.361a1.25 1.25 0 0 1-.879-.361c-.313-.251-.513-.46-.596-.628-.168-.292-.215-.585-.142-.878s.235-.544.486-.754a2.522 2.522 0 0 1 .345-.283c.188-.083.298-.125.329-.125s.151-.021.361-.063a.87.87 0 0 1 .376.063c.212.044.389.106.537.189z"/></svg>