<svg version="1.1" id="Layer_1" xmlns="http://www.w3.org/2000/svg" x="0" y="0" viewBox="0 0 1420 481" xml:space="preserve"><style>.st0{fill:#1a3b54}.st1{fill:#00293c}.st2{fill:#6092b4}.st4{fill:#254969}.st5{fill:#0b7c9c}.st6{fill:#f8aa55}.st7{fill:#ed3551}.st8{fill:#16364d}.st12{fill:#244868}</style><path class="st0" d="M192 246v-11.7l-23-1v14.2z"/><path class="st1" d="M169 233.3l-39.2 3.2.2 12.2 39-1.2z"/><path class="st1" d="M117.4 392.3c.2-1-.2-145.1-.2-145.1l51.8-3.1v152.8l-51.6-4.6z"/><path class="st0" d="M168 244l35 3v146.9l-35 .5z"/><path class="st2" d="M117 254.1l-.7-.7c0-.3.7-.5.7-.6 2-.2 3.5-.3 8.2-.5l42.5-1.8 35.6 2.2v1.5l-35.4-2.2c-.4 0-49.2 1.9-49.9 2v-1h-1v1.1zm0 4.4l-.7-.7c0-.3.7-.5.7-.6 2-.2 3.5-.3 8.2-.5l42.5-1.8 35.6 2.2v1.5l-35.4-2.2c-.4 0-49.2 2.2-49.9 2.3v-.6h-1v.4zm0 4.4l-.7-.7c0-.3.7-.5.7-.6 2-.2 3.5-.2 8.2-.5l42.5-1.8 35.6 2.2v1.5l-35.4-2.2c-.4 0-49.2 2-49.9 2.1v-.9h-1v.9zm0 4.4l-.7-.7c0-.3.7-.5.7-.6 2-.2 3.5-.3 8.2-.5l42.5-1.8 35.6 2.2v1.5l-35.4-2.2c-.4 0-49.2 1.8-49.9 1.9v-1h-1v1.2zm0 4.4l-.7-.7c0-.3.7-.5.7-.6 2-.2 3.5-.3 8.2-.5l42.5-1.8 35.6 2.2v1.5l-35.4-2.2c-.4 0-49.2 1.6-49.9 1.7v-1.2h-1v1.6zm0 4.3l-.7-.7c0-.3.7-.5.7-.6 2-.2 3.5-.2 8.2-.5l42.5-1.8 35.6 2.2v1.5l-35.4-2.1c-.4 0-49.2 2.4-49.9 2.5v-.5h-1zm0 4.4l-.7-.7c0-.3.7-.5.7-.6 2-.2 3.5-.3 8.2-.5l42.5-1.8 35.6 2.2v1.5l-35.4-2.2c-.4 0-49.2 2.2-49.9 2.3v-.6h-1v.4zm0 4.4l-.7-.7c0-.3.7-.5.7-.6 2-.2 3.5-.3 8.2-.5l42.5-1.8 35.6 2.2v1.5l-35.4-2.2c-.4 0-49.2 2.1-49.9 2.1v-.8h-1v.8zm0 4.4l-.7-.7c0-.3.7-.5.7-.6 2-.2 3.5-.3 8.2-.5l42.5-1.8 35.6 2.2v1.5l-35.4-2.2c-.4 0-49.2 2.3-49.9 2.4v-.5h-1v.2zm0 4.4l-.7-.7c0-.3.7-.5.7-.6 2-.2 3.5-.3 8.2-.5l42.5-1.8 35.6 2.2v1.5l-35.4-2.2c-.4 0-49.2 2.2-49.9 2.2v-.7h-1v.6zm0 4.4l-.7-.7c0-.3.7-.5.7-.6 2-.2 3.5-.2 8.2-.5l42.5-1.8 35.6 2.2v1.5l-35.4-2.2c-.4 0-49.2 2-49.9 2v-.9h-1v1zm0 4.4l-.7-.7c0-.3.7-.5.7-.6 2-.2 3.5-.3 8.2-.5l42.5-1.8 35.6 2.2v1.5l-35.4-2.2c-.4 0-49.2 2.3-49.9 2.3v-.6h-1v.4zm0 4.4l-.7-.7c0-.3.7-.5.7-.6 2-.2 3.5-.3 8.2-.5l42.5-1.8 35.6 2.2v1.5l-35.4-2.2c-.4 0-49.2 2.1-49.9 2.1v-.8h-1v.8zm0 4.4l-.7-.7c0-.3.7-.5.7-.6 2-.2 3.5-.2 8.2-.5l42.5-1.8 35.6 2.2v1.5l-35.4-2.2c-.4 0-49.2 1.9-49.9 1.9v-1h-1v1.2zm0 4.4l-.7-.7c0-.3.7-.5.7-.6 2-.2 3.5-.3 8.2-.5l42.5-1.9 35.6 2.2v1.5l-35.4-2.2c-.4 0-49.2 2.2-49.9 2.2v-.7h-1v.7zm0 4.4l-.7-.7c0-.3.7-.5.7-.6 2-.2 3.5-.3 8.2-.5l42.5-1.8 35.6 2.2v1.5l-35.4-2.2c-.4 0-49.2 2-49.9 2v-.9h-1v1zm0 4.4l-.7-.7c0-.3.7-.5.7-.6 2-.2 3.5-.3 8.2-.5l42.5-1.8 35.6 2.2v1.5l-35.4-2.2c-.4 0-49.2 1.8-49.9 1.8V323h-1v1.4zm0 4.4l-.7-.7c0-.3.7-.5.7-.6 2-.2 3.5-.3 8.2-.5l42.5-1.8 35.6 2.2v1.5l-35.4-2.2c-.4 0-49.2 2.1-49.9 2.1v-.8h-1v.8zm0 4.3l-.7-.7c0-.3.7-.5.7-.6 2-.2 3.5-.3 8.2-.5l42.5-1.8 35.6 2.2v1.5l-35.4-2.2c-.4 0-49.2 2.4-49.9 2.4v-.5h-1v.2zm0 4.4l-.7-.7c0-.3.7-.5.7-.6 2-.2 3.5-.3 8.2-.5l42.5-1.8 35.6 2.2v1.5l-35.4-2.2c-.4 0-49.2 2.2-49.9 2.2v-.7h-1v.6zm0 4.4l-.7-.7c0-.3.7-.5.7-.6 2-.2 3.5-.3 8.2-.5l42.5-1.8 35.6 2.2v1.5l-35.4-2.2c-.4 0-49.2 2.5-49.9 2.5v-.4h-1zm0 4.4l-.7-.7c0-.3.7-.5.7-.6 2-.2 3.5-.2 8.2-.5l42.5-1.8 35.6 2.2v1.5l-35.4-2.2c-.4 0-49.2 2.3-49.9 2.4v-.6h-1v.3zm0 4.4l-.7-.7c0-.3.7-.5.7-.6 2-.2 3.5-.3 8.2-.5l42.5-1.8 35.6 2.2v1.5l-35.4-2.2c-.4 0-49.2 2.1-49.9 2.1v-.8h-1v.8zm0 4.4l-.7-.7c0-.3.7-.5.7-.6 2-.2 3.5-.3 8.2-.5l42.5-1.8 35.6 2.2v1.5l-35.4-2.2c-.4 0-49.2 2.4-49.9 2.5v-.5h-1v.1zm0 4.4l-.7-.7c0-.3.7-.5.7-.6 2-.2 3.5-.3 8.2-.5l42.5-1.8 35.6 2.2v1.5l-35.4-2.2c-.4 0-49.2 2.2-49.9 2.3v-.7h-1v.5zm0 4.4l-.7-.7c0-.3.7-.5.7-.6 2-.2 3.5-.3 8.2-.5l42.5-1.8 35.6 2.2v1.5l-35.4-2.2c-.4 0-49.2 2-49.9 2.1v-.8h-1v.8zm0 4.4l-.7-.7c0-.3.7-.5.7-.6 2-.2 3.5-.3 8.2-.5l42.5-1.8 35.6 2.2v1.5l-35.4-2.2c-.4 0-49.2 2.3-49.9 2.4v-.5h-1v.2zm0 4.4l-.7-.7c0-.3.7-.5.7-.6 2-.2 3.5-.2 8.2-.5l42.5-1.8 35.6 2.2v1.5l-35.4-2.2c-.4 0-49.2 2.1-49.9 2.2v-.7h-1v.6zm0 4.4l-.7-.7c0-.3.7-.5.7-.6 2-.2 3.5-.3 8.2-.5l42.5-1.8 35.6 2.2v1.5l-35.4-2.2c-.4 0-49.2 1.9-49.9 2v-.9h-1v1zm0 4.3l-.7-.7c0-.3.7-.5.7-.6 2-.2 3.5-.3 8.2-.5l42.5-1.8 35.6 2.2v1.5l-35.4-2.2c-.4 0-49.2 2.2-49.9 2.3v-.6h-1v.4zm0 4.4l-.7-.7c0-.3.7-.5.7-.6 2-.2 3.5-.2 8.2-.5l42.5-1.8 35.6 2.2v1.5l-35.4-2.2c-.4 0-49.2 2-49.9 2.1v-.8h-1v.8zm0 4.4l-.7-.7c0-.3.7-.5.7-.6 2-.2 3.5-.3 8.2-.5l42.5-1.8 35.6 2.2v1.5l-35.4-2.2c-.4 0-49.2 1.8-49.9 1.9v-1h-1v1.2zm0 4.4l-.7-.7c0-.3.7-.5.7-.6 2-.2 3.5-.3 8.2-.5l42.5-1.8 35.6 2.2v1.5l-35.4-2.2c-.4 0-49.2 2.1-49.9 2.2v-.7h-1v.6z"/><path opacity=".53" fill="#fff" d="M168.2 391.8h35.5l-.3-139.1-35-2.2z"/><path class="st4" d="M417 415.9h865.2v55.6H417z"/><path class="st5" d="M661.9 117.4l5.3 2 9.6 6.6 19.7 73.9-2.9 114.6-5.1 150.4h-93.4V344.5l4-.4V332l4-1.1V320l5 3.6v-17.5l4 1.4v-55.6l3 1.4v-14.6l4 1.5V227l3 2.9v-16.4l3 1.8V203h4v-13.3l5.1-8 7.9 4.3v-12.8l4 1.1V163h4v-15l3 2.9v-15.8l3 1.1v-12.4l2.6-.8z"/><path class="st4" d="M653.5 257.5h1.8V344h-1.8zm-34.9-12.6h1.8v212.9h-1.8zm-3.1 14.4h1.4v198.4h-1.4zm-4.1 52.2h1.4v146.2h-1.4zm-4.6 18.3h1.4v127.9h-1.4zm-4.2 4.6h1.4v127.9h-1.4zm-4.2 12.6h1.4v127.9h-1.4zM648 240.5h1.8V344H648zm-25.4-5h1.8v222.3h-1.8zm19.7-17h1.8v125.6h-1.8zm-4.1 125.2h-1.8V204.6l1.8-.6zM633 457.4h-1.8l-.2-252.1 2-.7zm2.6-109.1h1.8v109.6h-1.8zm-9.1-129.4h1.8v238.5h-1.8zm52.2-28.5h1.7v61.9h-1.7zm-3.5-11.8h1.7v61.9h-1.7zm-3.9-15.6h1.7v61.9h-1.7zm-22.1 2.2h1.7v17.1h-1.7zm-4.4 11.8h1.7v5h-1.7zm8.3-23.1h1.7v29.7h-1.7zm14.7-1.9h1.7v61.9h-1.7zm-11-10.5h1.7v41.9h-1.7zm7.6-.4h1.7V214h-1.7zm-3.5-15.7h1.7v61.9h-1.7z"/><path class="st6" d="M659.1 252.9h-7v-15.7l-3-.1v-11.6l-3 .2v-11.9h-4v-13.2l-3 .8v-12.6l-4-2.4v-4.9l24 2.2v6.2l4.8.5.3 11.8 2.7.4.4 12 3.8.3V227l3.2.5.2 12.1 2.9.5-.8 13.9 5.6.2v-69.5l-3 .2V173l-4 .5v-15.1l-3 1.3v-13l-3 1.1V135l-3.2 1.9 1.1-12.9-4.5-2.6-.8-3.7 30.2 3.8.3 5.4 4 .4.1 11.8 4.4.6-.2 11.1 4 .8s-.4 11 .4 11c1 .1 2 .3 3 .5V176l4 .6v11.1l3-.1V462h-75.1V346h-2v-14.2l-3 .9v-14.1l-4 1v-12.2l-5 .8v-12.9l-2 .1v-14.1l-3-.4V277h14v4.2l4-.2v14.9h1v13h3v10h5v14h4v12l6.6.3c.3 0 1.3-93.3.6-92.3z"/><path class="st7" d="M704.2 152.1l-31.2-5.4c-.4-.1-.7-.5-.6-.8.1-.4.4-.7.8-.6l31.1 5.4c.4.1.7.5.6.8 0 .3-.3.6-.7.6zm-3.6-11.4h-.1l-30.5-5.2c-.4-.1-.7-.4-.6-.8.1-.4.4-.7.8-.6l30.5 5.2c.4.1.7.4.6.8 0 .4-.3.6-.7.6zm6.5 23.5h-.1l-31-5.3c-.4-.1-.6-.4-.6-.8.1-.4.4-.7.8-.6l31 5.3c.4.1.6.4.6.8-.1.4-.4.6-.7.6zM695.8 128h-.1l-27.9-4c-.4-.1-.7-.4-.6-.8.1-.4.4-.7.8-.6l27.9 4c.4.1.7.4.6.8-.1.4-.4.6-.7.6zm18.5 60.2l-31-2.9c-.4 0-.7-.4-.7-.8s.4-.7.8-.7l31 2.9c.4 0 .7.4.7.8-.1.4-.4.7-.8.7zm-2.6-11.1l-31.3-3.5c-.4-.1-.7-.4-.6-.8.1-.4.4-.6.8-.6l31.2 3.5c.4 0 .7.4.6.8-.1.3-.4.6-.7.6zm-47.9 15.4l-24.8-2c-.4-.1-.7-.4-.7-.8s.4-.8.8-.7l24.7 1.9c.4.1.7.5.6.9 0 .3-.3.7-.6.7zm2.6 10.6l-24.5-1.8c-.4 0-.7-.3-.7-.7v-.1c.1-.4.4-.7.9-.7l24.4 1.8c.4 0 .7.3.7.7v.1c-.1.5-.4.7-.8.7zm4.6 12.8l-24.3-1.4c-.4 0-.7-.4-.7-.8s.3-.7.7-.7l24.3 1.3c.4 0 .8.3.8.8.1.5-.3.8-.8.8zm2.7 12.2l-24.7-1.6c-.4-.1-.7-.4-.6-.8.1-.3.4-.6.7-.6l24.6 1.6c.4 0 .7.3.7.7s-.3.7-.7.7zm3.1 12.6l-24.9-2.2c-.4-.1-.7-.4-.6-.8.1-.4.4-.6.7-.6l24.8 2.2c.4 0 .7.4.7.8 0 .3-.3.6-.7.6zm6.6 14.1l-24.2-1.5c-.4 0-.7-.4-.7-.8s.3-.7.7-.7l24.2 1.5c.4 0 .7.4.7.8s-.4.7-.7.7zm-39.6-57.7l-1.5-.2v-3.3l1.5.1zm2.5.2l-1.5-.2v-3.3l1.5.1zm2.5.2l-1.5-.1V194l1.5.2z"/><path class="st4" d="M651.4 197.8l-1.6-.2v-3.3l1.6.1zm2.5.2l-1.6-.2v-3.3l1.6.1z"/><path class="st7" d="M656.4 198.2l-1.5-.1v-3.4l1.5.2zm2.5.3l-1.5-.2V195l1.5.1z"/><path class="st4" d="M661.2 198.6l-1.5-.1v-3.4l1.5.1z"/><path class="st7" d="M647 209.3l-1.5-.2v-3.3l1.5.1zm2.5.2l-1.5-.2V206l1.5.1z"/><path class="st4" d="M652 209.7l-1.5-.1v-3.4l1.5.2z"/><path class="st7" d="M654.5 210l-1.5-.2v-3.3l1.5.1zm2.5.2l-1.5-.2v-3.3l1.5.1zm2.5.2l-1.5-.1v-3.4l1.5.2zm2.6.3l-1.5-.2v-3.4l1.5.2z"/><path class="st4" d="M664.4 210.8l-1.5-.2v-3.3l1.5.1z"/><path class="st7" d="M685 181l-1.5-.2v-3.3l1.5.1zm2.6.2l-1.6-.2v-3.3l1.6.1z"/><path class="st4" d="M690.1 181.4l-1.6-.1v-3.4l1.6.2z"/><path class="st7" d="M692.6 181.7l-1.5-.2v-3.4l1.5.2zm2.5.2l-1.5-.2v-3.3l1.5.1z"/><path class="st4" d="M697.6 182.1l-1.5-.1v-3.4l1.5.2zm2.5.3l-1.5-.2v-3.4l1.5.2z"/><path class="st7" d="M702.5 182.5l-1.6-.2V179l1.6.1zm2.3.3l-1.5-.2v-3.3l1.5.1zm2.6.2l-1.5-.1v-3.4l1.5.2zm2.4.3l-1.5-.2v-3.4l1.5.2z"/><path class="st4" d="M681.2 168.3l-1.6-.2v-3.4l1.6.2z"/><path class="st7" d="M683.7 168.6l-1.5-.2v-3.3l1.5.2zm2.5.4l-1.5-.2v-3.4l1.5.2zm2.5.4l-1.5-.3v-3.3l1.5.2zm2.6.3l-1.6-.2v-3.4l1.6.3z"/><path class="st4" d="M693.8 170.1l-1.5-.3v-3.3l1.5.2z"/><path class="st7" d="M696.3 170.4l-1.5-.2v-3.4l1.5.3z"/><path class="st4" d="M698.7 170.7l-1.6-.3v-3.3l1.6.2z"/><path class="st7" d="M701 171.1l-1.5-.3v-3.3l1.5.2zm2.6.3l-1.5-.2v-3.3l1.5.2zm2.4.4l-1.5-.2v-3.4l1.5.2z"/><path class="st4" d="M677.9 154.6l-1.5-.3V151l1.5.3z"/><path class="st7" d="M680.4 155.1l-1.5-.3v-3.4l1.5.3zm2.5.4l-1.5-.3v-3.3l1.5.3zm2.5.5l-1.5-.3v-3.4l1.5.3z"/><path class="st4" d="M688 156.4l-1.6-.3v-3.3l1.6.2zm2.5.4l-1.5-.2v-3.4l1.5.3z"/><path class="st7" d="M693 157.3l-1.5-.3v-3.4l1.5.3zm2.4.3l-1.6-.3V154l1.6.3zm2.3.5l-1.5-.3v-3.3l1.5.2z"/><path class="st4" d="M700.3 158.6l-1.5-.3v-3.4l1.5.3z"/><path class="st7" d="M702.7 159l-1.5-.3v-3.3l1.5.2zM674 142.4l-1.6-.3v-3.3l1.6.2zm2.5.4l-1.5-.2v-3.4l1.5.3z"/><path class="st4" d="M679 143.3l-1.5-.3v-3.4l1.5.3z"/><path class="st7" d="M681.5 143.7l-1.5-.3v-3.3l1.5.3zm2.5.5l-1.5-.3v-3.4l1.5.3z"/><path class="st4" d="M686.6 144.6l-1.6-.3V141l1.6.3z"/><path class="st7" d="M689.1 145.1l-1.5-.3v-3.4l1.5.3zm2.4.3l-1.6-.3v-3.3l1.6.2zm2.3.5l-1.5-.3v-3.4l1.5.3z"/><path class="st4" d="M696.4 146.3l-1.5-.3v-3.3l1.5.3z"/><path class="st7" d="M698.8 146.8l-1.5-.3v-3.4l1.5.3zm-28.4-15.3l-1.4-.2v-3.2l1.4.2zm2.4.4l-1.4-.2v-3.2l1.4.2z"/><path class="st4" d="M675.3 132.2l-1.5-.2v-3.2l1.5.2z"/><path class="st7" d="M677.7 132.5l-1.5-.2v-3.2l1.5.2zm2.4.3l-1.5-.2v-3.2l1.5.2zm2.4.4l-1.5-.3v-3.2l1.5.3zm2.4.3l-1.4-.2v-3.2l1.4.2zm2.3.2l-1.5-.2v-3.2l1.5.2z"/><path class="st4" d="M689.5 134.1l-1.5-.2v-3.2l1.5.2z"/><path class="st7" d="M692 134.4l-1.5-.2V131l1.5.2zm2.3.3l-1.5-.2v-3.2l1.5.2z"/><path class="st4" d="M651.1 221.8l-1.5-.1v-3.4l1.5.1z"/><path class="st7" d="M653.6 222l-1.5-.2v-3.3l1.5.1zm2.6.2l-1.6-.2v-3.3l1.6.1zm2.5.1l-1.5-.1v-3.3l1.5.1zm2.5.2l-1.5-.1V219l1.5.2z"/><path class="st4" d="M663.7 222.7l-1.5-.1v-3.4l1.5.2z"/><path class="st7" d="M666.2 222.9l-1.5-.1v-3.4l1.5.1z"/><path class="st4" d="M668.6 223l-1.6-.1v-3.4l1.6.1z"/><path class="st7" d="M654.6 233.9l-1.6-.2v-3.3l1.6.1z"/><path class="st4" d="M657.1 234l-1.6-.1v-3.3l1.6.1z"/><path class="st7" d="M659.6 234.2l-1.5-.1v-3.4l1.5.2zm2.5.2l-1.5-.1v-3.4l1.5.2zm2.5.2l-1.5-.1v-3.4l1.5.1zm2.5.2l-1.5-.1v-3.4l1.5.1z"/><path class="st4" d="M669.6 235l-1.5-.2v-3.3l1.5.1z"/><path class="st7" d="M672 235.1l-1.5-.2v-3.3l1.5.1zm-14.8 9.9l-1.5-.2v-3.3l1.5.1zm2.6.2l-1.6-.2v-3.3l1.6.1z"/><path class="st4" d="M662.3 245.3l-1.6-.1v-3.3l1.6.1z"/><path class="st7" d="M664.8 245.5l-1.5-.1V242l1.5.2zm2.5.2l-1.5-.1v-3.4l1.5.1zm2.5.2l-1.5-.1v-3.4l1.5.1z"/><path class="st4" d="M672.3 246.1l-1.5-.2v-3.3l1.5.1zm2.4.1l-1.6-.2v-3.3l1.6.1z"/><path class="st7" d="M657.1 250.2l-1.5-.1v-3.4l1.5.2zm2.5.2l-1.5-.1v-3.4l1.5.1zm2.5.2l-1.5-.1v-3.4l1.5.1z"/><path class="st4" d="M664.7 250.8l-1.6-.2v-3.3l1.6.1z"/><path class="st7" d="M667.2 250.9l-1.6-.1v-3.3l1.6.1z"/><path class="st4" d="M669.7 251.1l-1.5-.1v-3.3l1.5.1z"/><path class="st7" d="M672.2 251.3l-1.5-.1v-3.4l1.5.2zm2.3.1l-1.5-.1v-3.4l1.5.2zm12.4-62.4v2.7l26.4 2v-2.5z"/><path class="st4" d="M686.7 194.9v2.8l26.4 1.9v-2.4z"/><path class="st7" d="M686.9 201.4v2.8l26.4 1.9v-2.5z"/><path class="st4" d="M686.7 207.4v2.7l26.4 2v-2.5zm.4 6.3v2.7l26.4 2v-2.5z"/><path class="st7" d="M686.9 219.6v2.8l26.4 1.9v-2.4zm.2 6.5v2.8l26.4 1.9v-2.5z"/><path class="st4" d="M686.9 232.1v2.7l26.4 2v-2.5zm-.2 6.5v2.7l26.4 2v-2.5z"/><path class="st7" d="M686.5 244.5v2.8l26.5 1.9v-2.4zm.2 6.5v2.8l26.4 1.9v-2.5zm-25 4.7l.1 2.8 51.9 3.5v-2.5z"/><path class="st4" d="M661.8 262.3v2.8l51.9 3.2v-2.4z"/><path class="st7" d="M661.8 268.8l.1 2.9 51.8 3v-2.5z"/><path class="st4" d="M661.9 275.4v2.8l51.8 2.8v-2.4z"/><path class="st7" d="M661.9 281.9v2.8l51.8 2.6v-2.4z"/><path class="st4" d="M662 288.5v2.8l51.7 2.3v-2.4zm0 6.5v2.8l51.7 2.1v-2.4z"/><path class="st7" d="M662 301.3l.1 2.8 51.6 1.9v-2.4zm.1 5.7v2.8l51.6 1.8v-2.4zm0 6.5v2.8l51.6 1.5v-2.4z"/><path class="st4" d="M662.2 319.8v2.8l51.5 1.3v-2.4z"/><path class="st7" d="M662.2 325.9v2.8l51.5 1.1v-2.4zm0 6.3l.1 2.8 51.4.9v-2.4z"/><path class="st4" d="M662.3 338.5v2.7l51.4.7v-2.4z"/><path class="st7" d="M662.3 344.7v2.8l51.4.6v-2.3zm-17 5.2v2.8l68.4 1.5v-2.4zm0 6.4v2.8l68.4 1.5v-2.4zm0 6.5v2.7l68.4 1.5v-2.4z"/><path class="st4" d="M645.3 369.2v2.7l68.4 1.5V371zm0 6.4v2.7l68.4 1.5v-2.4z"/><path class="st7" d="M645.3 382v2.7l68.4 1.5v-2.4zm0 6.4v2.7l68.4 1.5v-2.4z"/><path class="st4" d="M645.3 394.8v2.8l68.4 1.4v-2.4zm0 6.4v2.8l68.4 1.4V403z"/><path class="st7" d="M645.3 407.6v2.8l68.4 1.4v-2.4z"/><path class="st4" d="M645.3 414v2.8l68.4 1.4v-2.4zm0 6.4v2.8l68.4 1.4v-2.4z"/><path class="st7" d="M645.3 426.8v2.8l68.4 1.4v-2.3zm0 6.4v2.8l68.4 1.4v-2.3zm0 6.4v2.8l68.4 1.5v-2.4zm0 6.4v2.8l68.4 1.5v-2.4z"/><path class="st5" d="M629 289.1h-1.5v-3.4h1.5z"/><path class="st7" d="M631.4 289.1h-1.5v-3.4h1.5z"/><path class="st5" d="M634 289.1h-1.5v-3.4l1.5.1zm2.5 0H635v-3.3h1.5zm-2.2 25.8h-1.6v-3.4h1.6z"/><path class="st7" d="M636.7 314.9h-1.6v-3.4l1.6.1z"/><path class="st5" d="M639.3 314.9h-1.5v-3.4l1.5.1zm2.5 0h-1.5v-3.3h1.5zm-3.1 12.6h-1.5v-3.4h1.5z"/><path class="st7" d="M641.2 327.5h-1.5v-3.4h1.5z"/><path class="st5" d="M643.7 327.5h-1.5v-3.4l1.5.1zm2.6 0h-1.6v-3.3h1.6zm-3.7 12.2H641v-3.3h1.6zm2.5 0h-1.5v-3.3h1.5z"/><path class="st7" d="M647.6 339.8l-1.5-.1v-3.3h1.5z"/><path class="st5" d="M650.1 339.8h-1.5v-3.4h1.5zm-18.6-37h-1.6v-3.4l1.6.1zm2.5 0h-1.5v-3.3h1.5z"/><path class="st7" d="M636.4 302.9l-1.6-.1v-3.3h1.6z"/><path class="st5" d="M639 302.9l-1.5-.1v-3.3h1.5zm-10-7.5h-1.5v-2.7h1.5zm2.5 0H630v-2.7h1.5zm2.5 0h-1.5v-2.7h1.5zm2.5.1l-1.5-.1v-2.7h1.5zm-5.2 11.5h-1.5v-2.7h1.5zm2.5 0h-1.5v-2.7h1.5zm2.5.1l-1.5-.1v-2.7h1.5zm2.5 0h-1.5v-2.8h1.5z"/><path class="st7" d="M642.8 345.2h-1.5v-2.8l1.5.1z"/><path class="st5" d="M645.3 345.2h-1.5v-2.8l1.5.1zm2.6 0h-1.6v-2.7h1.6z"/><path class="st7" d="M650.4 345.2h-1.6v-2.7h1.6z"/><path class="st5" d="M648.1 332.9c-3.7 0-9.7-.4-10.3-.4-.4.1-.8-.2-.9-.6-.1-.4.1-.8.5-1 .2 0 .6-.2 10.7 0 .4 0 .7.6.7 1s-.3 1-.7 1zm-3.8-13.6h-.2c-.6-.1-5-.2-9-.2-.4 0-.8-.2-.8-.6 0-.4.2-.8.6-.8h.2c2 0 8.6 0 9.5.3.4.1.6.5.5.9-.2.2-.4.4-.8.4zm-4.5-12.4h-9c-.4 0-.8-.1-.8-.5s.3-.5.8-.5h9c.4 0 .8.1.8.5s-.4.5-.8.5zm0-11h-13.5c-.4 0-.8-.1-.8-.5s.3-.5.8-.5h13.5c.4 0 .8.1.8.5s-.4.5-.8.5zm-1.5-13h-13.5c-.4 0-.8-.1-.8-.5s.3-.5.8-.5h13.5c.4 0 .8.1.8.5s-.4.5-.8.5z"/><path class="st8" d="M1282 208h74.6l7.5 250.7h-91.3z"/><path class="st0" d="M476.8 243.1l-35.5 51.6 86.7-1-2.5-52.9z"/><path class="st2" d="M525.3 240.7l44.4 3.6 31.5 50.5-74-1.2z"/><path class="st4" d="M441.7 294.5v165.9l86.7.8-.3-168z"/><path class="st5" d="M601.1 294.8l-1.2 168.1h-72.6l-.5-169.7z"/><path class="st6" d="M600.2 299.9l-157.2-.2c-.4 0-.7 0-.7-.4s.3-.4.7-.4l157.2.6c.4 0 .7-.2.7.2s-.3.2-.7.2zm0 6l-157.2-.3c-.4 0-.7-.1-.7-.5 0-.3.3-.6.6-.6h.1l157.2.7c.4 0 .7 0 .7.3 0 .4-.3.4-.7.4zm0 6l-157.2-.4c-.4 0-.7-.2-.7-.6 0-.4.3-.6.7-.6h.1l157.2.7c.4 0 .7 0 .7.4-.1.5-.4.5-.8.5zm0 6l-157.2-.4c-.4 0-.7-.2-.7-.6 0-.4.3-.7.7-.7h.1l157.2.7c.4 0 .7.1.7.5-.1.4-.4.5-.8.5zm0 5H443c-.4 0-.7 0-.7-.4s.4-.6.7-.6l157.2.8c.4 0 .7-.3.7.1s-.3.1-.7.1zm0 6H443c-.4 0-.7 0-.7-.4 0-.3.3-.6.7-.6h.1l157.2.7c.4 0 .7-.2.7.1s-.4.2-.8.2zm0 7l-157.2-.7c-.4 0-.7-.3-.7-.7 0-.4.3-.7.7-.7l157.2.7c.4 0 .7.2.8.6 0 .4-.2.7-.6.8h-.2zm0 6l-157.2-.7c-.4 0-.7-.3-.7-.7 0-.4.3-.7.7-.7l157.2.7c.4 0 .8.3.8.7 0 .3-.4.7-.8.7zm0 5l-157.2-.3c-.4 0-.7-.1-.7-.5s.4-.6.7-.6l157.2.7c.4 0 .7 0 .7.3 0 .4-.3.4-.7.4zm0 6l-157.2-.4c-.4 0-.7-.2-.7-.6 0-.4.4-.7.7-.6l157.2.7c.4 0 .7 0 .7.4 0 .5-.3.5-.7.5zm0 6l-157.2-.5c-.4 0-.7-.2-.7-.6 0-.4.3-.7.7-.7l157.2.7c.4 0 .7.1.7.5s-.3.6-.7.6zm0 6l-157.2-.5c-.4 0-.7-.2-.7-.6v-.1c0-.4.4-.7.7-.7l157.2.7c.4 0 .7.1.7.5 0 .5-.3.7-.7.7zm0 5H443c-.4 0-.7 0-.7-.4s.4-.5.7-.6l157.2.8c.4 0 .7-.3.7.1s-.3.1-.7.1zm0 6l-157.2-.2c-.4 0-.7 0-.7-.4s.3-.4.7-.4l157.2.7c.4 0 .7-.2.7.2s-.3.1-.7.1zm0 5.9l-157.2-.1c-.4 0-.7 0-.7-.4s.3-.4.7-.4l157.2.6c.4 0 .7-.2.7.2s-.3.1-.7.1zm0 6l-157.2-.2c-.4-.1-.7-.4-.7-.9 0-.4.3-.8.7-.9l157.2 1c.4 0 .7.1.7.5s-.3.5-.7.5zm0 6l-157.2-.3c-.4 0-.7.1-.7-.3s.3-.3.7-.3l157.2.4c.4 0 .7-.1.7.3s-.3.2-.7.2zm0 6l-157.2-.4c-.4 0-.7.1-.7-.3s.3-.3.7-.3l157.2.4c.4 0 .7-.1.7.3s-.3.3-.7.3zm0 6l-157.2-.4c-.4 0-.7.1-.7-.3s.3-.3.7-.3l157.2.3c.4 0 .7 0 .7.3 0 .4-.3.4-.7.4zm0 6l-157.2-.5c-.4 0-.8-.2-.8-.6 0-.4.2-.8.6-.8h.2l157.2.7c.4 0 .7.2.7.6 0 .4-.3.7-.7.6zm0 6l-157.2-.6c-.4 0-.7-.3-.7-.7 0-.4.3-.7.7-.7l157.2.7c.4 0 .7.3.7.6 0 .4-.3.7-.7.7zm0 5l-157.2-.2c-.4 0-.7-.1-.7-.5 0-.3.3-.6.6-.6h.1l157.2.7c.4 0 .7-.1.7.3 0 .5-.3.3-.7.3zm0 6l-157.2-.2c-.4 0-.7-.1-.7-.5s.3-.6.7-.6h.1l157.2.7c.4 0 .7-.1.7.3-.1.4-.4.3-.8.3zm0 6l-157.2-.3c-.4 0-.7-.2-.7-.6 0-.4.3-.7.7-.7l157.2.7c.4 0 .7 0 .7.4s-.3.5-.7.5zm0 6l-157.2-.4c-.4 0-.7-.2-.7-.6 0-.4.3-.7.7-.7l157.2.7c.4 0 .7.1.7.5s-.3.5-.7.5zm0 5H443c-.4 0-.7 0-.7-.4s.4-.6.7-.5l157.2.8c.4 0 .7-.3.7.1 0 .3-.3 0-.7 0zm0 7l-157.2-.5c-.4 0-.7-.3-.7-.6 0-.4.3-.7.7-.7l157.2.7c.4 0 .7.2.7.6 0 .3-.3.5-.7.5zm0 6l-157.2-.6c-.4 0-.7-.3-.7-.7 0-.4.3-.7.7-.7l157.2.7c.4 0 .7.2.8.6 0 .4-.2.7-.6.8-.1-.1-.1-.1-.2-.1z"/><path class="st0" d="M244.6 416l.2-416L199 5.8v460.1h47.3z"/><path class="st0" d="M244.8 0l36.9 7-1.2 464-37.5 2.2z"/><path class="st2" d="M241.7 6.7l-38.8 5V8.8l38.8-5zm0 5.7l-38.8 5v-3l38.8-4.9zm0 5.7L202.9 23v-2.9l38.8-4.9z"/><path class="st6" d="M241.7 23.8l-38.8 4.9v-2.9l38.8-4.9z"/><path class="st2" d="M241.7 29.5l-38.8 4.8v-2.9l38.8-4.8z"/><path class="st6" d="M241.7 35.2L202.9 40v-2.9l38.8-4.8zm0 5.7l-38.8 4.8v-3l38.8-4.7z"/><path class="st2" d="M241.7 46.6l-38.8 4.7v-2.9l38.8-4.7zm0 5.7L202.9 57v-3l38.8-4.6zm0 5.7l-38.8 4.6v-2.9l38.8-4.7zm0 5.7l-38.8 4.6v-2.9l38.8-4.7zm0 5.7l-38.8 4.5V71l38.8-4.6zm0 5.7l-38.8 4.5v-2.9l38.8-4.6zm0 5.7l-38.8 4.5v-3l38.8-4.5zm0 5.6l-38.8 4.5V88l38.8-4.5zm0 5.7l-38.8 4.5v-2.9l38.8-4.5zm0 5.7l-38.8 4.4v-2.9l38.8-4.4z"/><path class="st6" d="M241.7 103.5l-38.8 4.4V105l38.8-4.4zm0 5.7l-38.8 4.3v-2.9l38.8-4.3z"/><path class="st2" d="M241.7 114.9l-38.8 4.3v-2.9l38.8-4.3zm0 5.7l-38.8 4.3v-3l38.8-4.2z"/><path class="st6" d="M241.7 126.3l-38.8 4.2v-2.9l38.8-4.2zm0 5.7l-38.8 4.2v-2.9l38.8-4.2z"/><path class="st2" d="M241.7 137.7l-38.8 4.1v-2.9l38.8-4.1zm0 5.7l-38.8 4.1v-2.9l38.8-4.1zm0 5.7l-38.8 4v-2.9l38.8-4.1z"/><path class="st6" d="M241.7 154.8l-38.8 4v-2.9l38.8-4.1z"/><path class="st2" d="M241.7 160.5l-38.8 4v-3l38.8-4zm0 5.7l-38.8 3.9v-2.9l38.8-4z"/><path class="st6" d="M241.7 171.9l-38.8 3.9v-2.9l38.8-4zm0 5.6l-38.8 3.9v-2.9l38.8-3.9z"/><path class="st2" d="M241.7 183.2l-38.8 3.9v-2.9l38.8-3.9zm0 5.7l-38.8 3.9v-3l38.8-3.8z"/><path class="st6" d="M241.7 194.6l-38.8 3.8v-2.9l38.8-3.8z"/><path class="st2" d="M241.7 200.3l-38.8 3.8v-2.9l38.8-3.8zm0 5.7l-38.8 3.7v-2.9l38.8-3.7z"/><path class="st6" d="M241.7 211.7l-38.8 3.7v-2.9l38.8-3.7zm0 5.7l-38.8 3.6v-2.9l38.8-3.6z"/><path class="st2" d="M241.7 223.1l-38.8 3.6v-2.9l38.8-3.6zm0 5.7l-38.8 3.6v-3l38.8-3.5zm0 5.7l-38.8 3.5v-2.9l38.8-3.6zm0 5.7l-38.8 3.5v-2.9l38.8-3.6zm0 5.7l-38.8 3.4v-2.9l38.8-3.5z"/><path class="st6" d="M241.7 251.6l-38.8 3.4v-2.9l38.8-3.5zm0 5.7l-38.8 3.3v-2.9l38.8-3.4z"/><path class="st2" d="M241.7 262.9l-38.8 3.4v-2.9l38.8-3.4zm0 5.7l-38.8 3.4v-2.9l38.8-3.4z"/><path class="st6" d="M241.7 274.3l-38.8 3.3v-2.9l38.8-3.3z"/><path class="st2" d="M241.7 280l-38.8 3.3v-2.9l38.8-3.3zm0 5.7l-38.8 3.2V286l38.8-3.2zm0 5.7l-38.8 3.2v-2.9l38.8-3.2zm0 5.7l-38.8 3.2v-3l38.8-3.1zm0 5.7l-38.8 3.1V303l38.8-3.1zm0 5.7l-38.8 3.1v-2.9l38.8-3.1z"/><path class="st6" d="M241.7 314.2l-38.8 3v-2.9l38.8-3z"/><path class="st2" d="M241.7 319.9l-38.8 3V320l38.8-3z"/><path class="st6" d="M241.7 325.6l-38.8 3v-3l38.8-3z"/><path class="st2" d="M241.7 331.3l-38.8 2.9v-2.9l38.8-3zm0 5.7l-38.8 2.9v-3l38.8-2.9zm0 5.7l-38.8 2.8v-2.9l38.8-2.9zm0 5.7l-38.8 2.8v-2.9l38.8-2.9zm0 5.7l-38.8 2.7v-2.9l38.8-2.8zm0 5.6l-38.8 2.8v-2.9l38.8-2.8zm0 5.7l-38.8 2.8v-3l38.8-2.7zm0 5.7l-38.8 2.7v-2.9l38.8-2.7zm0 5.7l-38.8 2.7v-2.9l38.8-2.7zm0 5.7l-38.8 2.6v-2.9l38.8-2.6zm0 5.7l-38.8 2.6v-2.9l38.8-2.6zm0 5.7l-38.8 2.5v-2.9l38.8-2.5zm0 5.7l-38.8 2.5v-2.9l38.8-2.5zm0 5.7l-38.8 2.5v-3l38.8-2.4zm0 5.7l-38.8 2.4v-2.9l38.8-2.5zm0 5.7l-38.8 2.4v-2.9l38.8-2.5zm0 5.7l-38.8 2.3v-2.9l38.8-2.4zm0 5.7l-38.8 2.3v-2.9l38.8-2.4zm0 5.7l-38.8 2.2v-2.9l38.8-2.3zm0 5.7l-38.8 2.2v-2.9l38.8-2.3zm0 5.6l-38.8 2.3v-2.9l38.8-2.3zm0 5.7l-38.8 2.2v-2.9l38.8-2.2zm0 5.7l-38.8 2.2v-2.9l38.8-2.2zm0 5.7l-38.8 2.1v-2.9l38.8-2.1z"/><path class="st6" d="M249.8 9.8l25.5 4.9v-2.9l-25.5-4.9zm0 5.6l25.5 4.9v-2.9l-25.5-4.9zm0 5.7l25.5 4.9v-2.9l-25.5-4.9zm0 5.7l25.5 4.8v-2.9l-25.5-4.9zm0 5.6l25.5 4.8v-2.9l-25.5-4.8zm0 5.7l25.5 4.7v-2.9l-25.5-4.7zm0 5.6l25.5 4.7v-2.9l-25.5-4.7z"/><path class="st7" d="M249.8 49.4l25.5 4.7v-2.9l-25.5-4.7z"/><path class="st6" d="M249.8 55l25.5 4.7v-2.9l-25.5-4.7zm0 5.7l25.5 4.6v-2.9l-25.5-4.6zm0 5.6l25.5 4.6V68l-25.5-4.6z"/><path class="st7" d="M249.8 72l25.5 4.5v-2.9l-25.5-4.5z"/><path class="st6" d="M249.8 77.7l25.5 4.5v-2.9l-25.5-4.6z"/><path class="st7" d="M249.8 83.3l25.5 4.5v-2.9l-25.5-4.5zm0 5.7l25.5 4.4v-2.9l-25.5-4.4z"/><path class="st6" d="M249.8 94.6l25.5 4.4v-2.9l-25.5-4.4zm0 5.7l25.5 4.3v-2.9l-25.5-4.3zm0 5.6l25.5 4.4v-2.9l-25.5-4.4zm0 5.7l25.5 4.3V113l-25.5-4.3zm0 5.6l25.5 4.3v-2.9l-25.5-4.3zm0 5.7l25.5 4.2v-2.9l-25.5-4.2z"/><path class="st7" d="M249.8 128.6l25.5 4.1v-2.9l-25.5-4.2z"/><path class="st6" d="M249.8 134.2l25.5 4.2v-2.9l-25.5-4.2zm0 5.7l25.5 4.1v-2.9l-25.5-4.1zm0 5.6l25.5 4.1v-2.9l-25.5-4.1z"/><path class="st7" d="M249.8 151.2l25.5 4v-2.9l-25.5-4z"/><path class="st6" d="M249.8 156.8l25.5 4v-2.9l-25.5-4zm0 5.7l25.5 4v-2.9l-25.5-4z"/><path class="st7" d="M249.8 168.2l25.5 3.9v-2.9l-25.5-4z"/><path class="st6" d="M249.8 173.8l25.5 3.9v-2.9l-25.5-3.9z"/><path class="st7" d="M249.8 179.5l25.5 3.8v-2.9l-25.5-3.8zm0 5.6l25.5 3.8V186l-25.5-3.8z"/><path class="st6" d="M249.8 190.8l25.5 3.8v-2.9l-25.5-3.8zm0 5.6l25.5 3.8v-2.9l-25.5-3.8zm0 5.7l25.5 3.7v-2.9l-25.5-3.7zm0 5.6l25.5 3.7v-2.9l-25.5-3.7zm0 5.7l25.5 3.6v-2.8l-25.5-3.7zm0 5.6l25.5 3.7v-2.9l-25.5-3.7zm0 5.7l25.5 3.6v-2.9l-25.5-3.6zm0 5.7l25.5 3.5V231l-25.5-3.5zm0 5.6l25.5 3.5v-2.9l-25.5-3.5zm0 5.7l25.5 3.5v-2.9l-25.5-3.5zm0 5.6l25.5 3.5v-2.9l-25.5-3.5z"/><path class="st7" d="M249.8 253l25.5 3.4v-2.9l-25.5-3.4zm0 5.6l25.5 3.4v-2.9l-25.5-3.4z"/><path class="st6" d="M249.8 264.3l25.5 3.3v-2.9l-25.5-3.3zm0 5.7l25.5 3.3v-2.9l-25.5-3.4z"/><path class="st7" d="M249.8 275.6l25.5 3.3V276l-25.5-3.3z"/><path class="st6" d="M249.8 281.3l25.5 3.2v-2.9l-25.5-3.2z"/><path class="st7" d="M249.8 286.9l25.5 3.2v-2.9l-25.5-3.2z"/><path class="st6" d="M249.8 292.6l25.5 3.1v-2.9l-25.5-3.1zm0 5.6l25.5 3.2v-2.9l-25.5-3.2zm0 5.7l25.5 3.1v-2.9l-25.5-3.1zm0 5.6l25.5 3.1v-2.9l-25.5-3.1zm0 5.7l25.5 3v-2.9l-25.5-3zm0 5.7l25.5 2.9v-2.9l-25.5-3zm0 5.6l25.5 2.9v-2.8l-25.5-3z"/><path class="st7" d="M249.8 332.2l25.5 2.9v-2.9l-25.5-3z"/><path class="st6" d="M249.8 337.8l25.5 2.9v-2.9l-25.5-2.9zm0 5.7l25.5 2.8v-2.9l-25.5-2.8z"/><path class="st7" d="M249.8 349.1l25.5 2.8V349l-25.5-2.8z"/><path class="st6" d="M249.8 354.8l25.5 2.8v-2.9l-25.5-2.8zm0 5.6l25.5 2.8v-2.9l-25.5-2.8zm0 5.7l25.5 2.7v-2.9l-25.5-2.7zm0 5.7l25.5 2.6v-2.9l-25.5-2.7zm0 5.6l25.5 2.6v-2.9l-25.5-2.6zm0 5.7l25.5 2.6v-2.9l-25.5-2.7zm0 5.6l25.5 2.6v-2.9l-25.5-2.6zm0 5.7l25.5 2.5V394l-25.5-2.5zm0 5.6l25.5 2.5v-2.9l-25.5-2.5zm0 5.7l25.5 2.4v-2.9l-25.5-2.4zm0 5.6l25.5 2.5v-2.9l-25.5-2.5zm0 5.7l25.5 2.4v-2.9l-25.5-2.4zm0 5.7l25.5 2.3v-2.9l-25.5-2.4zm0 5.6l25.5 2.3v-2.9l-25.5-2.3zm0 5.7l25.5 2.2v-2.9l-25.5-2.3zm0 5.6l25.5 2.3V439l-25.5-2.3zm0 5.7l25.5 2.2v-2.9l-25.5-2.2zm0 5.6l25.5 2.2v-2.9l-25.5-2.2zm0 5.7l25.5 2.1v-2.9l-25.5-2.1zm0 5.6l25.5 2.1v-2.9l-25.5-2.1z"/><path class="st7" d="M332.9 262.9l47.9-9.9-1.4 197.8-5.1 18.7-21.6 1.3-19.1-9.1c0-.1-1.1-199.2-.7-198.8z"/><path class="st6" d="M379.7 253.1l49.4 5.6v200.2s-54 4.2-52.1 2.2c2-1.9 2.7-208 2.7-208z"/><path class="st0" d="M389.8 277.9l-2.7-.2v-2.6l2.7.2zm6 .4l-2.7-.2v-2.5l2.7.1zm6 .4l-2.7-.2V276l2.7.1zm6 .4l-2.8-.2v-2.5l2.8.1zm6 .4l-2.8-.2v-2.5l2.8.2z"/><path class="st7" d="M419.8 279.9l-2.8-.2v-2.5l2.8.2zm5.9.4l-2.7-.1v-2.6l2.7.2z"/><path class="st0" d="M389.8 284.5l-2.7-.2v-2.6l2.7.2zm6 .4l-2.7-.2v-2.6l2.7.2zm6 .4l-2.7-.2v-2.6l2.7.2z"/><path class="st7" d="M407.8 285.7l-2.8-.2v-2.6l2.8.2z"/><path class="st0" d="M413.8 286.1l-2.8-.2v-2.6l2.8.2zm6 .4l-2.8-.2v-2.6l2.8.2zm5.9.4l-2.7-.2v-2.6l2.7.2zm-35.9 4.1l-2.7-.2v-2.6l2.7.2zm6 .4l-2.7-.2v-2.5l2.7.1z"/><path class="st7" d="M401.8 291.8l-2.7-.2v-2.5l2.7.1z"/><path class="st0" d="M407.8 292.2l-2.8-.2v-2.5l2.8.1zm6 .4l-2.8-.1v-2.6l2.8.2zm6 .4l-2.8-.1v-2.6l2.8.2zm5.9.4l-2.7-.1v-2.6l2.7.2zm-35.9 4.2l-2.7-.2v-2.6l2.7.2zm6 .4l-2.7-.2v-2.6l2.7.2zm6 .4l-2.7-.2v-2.6l2.7.2z"/><path class="st7" d="M407.8 298.8l-2.8-.2V296l2.8.2z"/><path class="st0" d="M413.8 299.2l-2.8-.2v-2.6l2.8.2zm6 .4l-2.8-.2v-2.6l2.8.2zm5.9.4l-2.7-.2v-2.6l2.7.2zm-35.9 4.1l-2.7-.2v-2.5l2.7.1zm6 .4l-2.7-.2v-2.5l2.7.1zm6 .4l-2.7-.2v-2.5l2.7.2zm6 .4l-2.8-.2v-2.5l2.8.2zm6 .4l-2.8-.1V303l2.8.2zm6 .4l-2.8-.1v-2.6l2.8.2zm5.9.4l-2.7-.1v-2.6l2.7.2z"/><path class="st7" d="M389.8 310.7l-2.7-.2v-2.6l2.7.2z"/><path class="st0" d="M395.8 311.1l-2.7-.2v-2.6l2.7.2zm6 .4l-2.7-.2v-2.6l2.7.2zm6 .4l-2.8-.2v-2.6l2.8.2zm6 .4l-2.8-.2v-2.6l2.8.2z"/><path class="st7" d="M419.8 312.7l-2.8-.2v-2.6l2.8.2zm5.9.4l-2.7-.2v-2.6l2.7.2zm-35.9 4.1l-2.7-.2v-2.5l2.7.1zm6 .4l-2.7-.2v-2.5l2.7.1z"/><path class="st0" d="M401.8 318l-2.7-.2v-2.5l2.7.2zm6 .4l-2.8-.1v-2.6l2.8.2zm6 .4l-2.8-.1v-2.6l2.8.2zm6 .5l-2.8-.2v-2.6l2.8.2zm5.9.4l-2.7-.2v-2.6l2.7.2zm-35.9 4.1l-2.7-.2V321l2.7.2zm6 .4l-2.7-.2v-2.6l2.7.2zm6 .4l-2.7-.2v-2.6l2.7.2zm6 .4l-2.8-.2v-2.6l2.8.2zm6 .4l-2.8-.2v-2.6l2.8.2zm6 .4l-2.8-.2V323l2.8.2zm5.9.4l-2.7-.2v-2.5l2.7.1zm-35.9 4.1l-2.7-.2v-2.5l2.7.2zm6 .4l-2.7-.2V328l2.7.2z"/><path class="st7" d="M401.8 331.1l-2.7-.2v-2.5l2.7.2z"/><path class="st0" d="M407.8 331.5l-2.8-.1v-2.6l2.8.2zm6 .4l-2.8-.1v-2.6l2.8.2zm6 .5l-2.8-.2v-2.6l2.8.2z"/><path class="st7" d="M425.7 332.8l-2.7-.2V330l2.7.2z"/><path class="st0" d="M389.8 336.9l-2.7-.2v-2.6l2.7.2zm6 .4l-2.7-.2v-2.6l2.7.2zm6 .4l-2.7-.2v-2.6l2.7.2zm6 .4l-2.8-.2v-2.6l2.8.2zm6 .4l-2.8-.2v-2.6l2.8.2zm6 .4l-2.8-.2v-2.6l2.8.2zm5.9.4l-2.7-.2v-2.5l2.7.1zm-35.9 4.1l-2.7-.2v-2.5l2.7.2zm6 .4l-2.7-.1v-2.6l2.7.2zm6 .4l-2.7-.1v-2.6l2.7.2zm6 .5l-2.8-.2v-2.6l2.8.2z"/><path class="st7" d="M413.8 345.1l-2.8-.2v-2.6l2.8.2z"/><path class="st0" d="M419.8 345.5l-2.8-.2v-2.6l2.8.2zm5.9.4l-2.7-.2v-2.6l2.7.2zm-35.9 4.1l-2.7-.2v-2.6l2.7.2zm6 .4l-2.7-.2v-2.6l2.7.2zm6 .4l-2.7-.2V348l2.7.2zm6 .4l-2.8-.2v-2.6l2.8.2zm6 .4l-2.8-.2v-2.6l2.8.2zm6 .4l-2.8-.2v-2.5l2.8.1zm5.9.4l-2.7-.2v-2.5l2.7.1zm-35.9 4.1l-2.7-.2v-2.5l2.7.2zm6 .4l-2.7-.1v-2.6l2.7.2zm6 .4l-2.7-.1v-2.6l2.7.2zm6 .5l-2.8-.2V355l2.8.2zm6 .4l-2.8-.2v-2.6l2.8.2zm6 .4l-2.8-.2v-2.6l2.8.2zm5.9.4l-2.7-.2v-2.6l2.7.2zm-35.9 4.1l-2.7-.2v-2.6l2.7.2zm6 .4l-2.7-.2v-2.6l2.7.2zm6 .4l-2.7-.2v-2.6l2.7.2zm6 .4l-2.8-.2v-2.6l2.8.2zm6 .4l-2.8-.2v-2.6l2.8.2zm6 .4l-2.8-.2v-2.5l2.8.1zm5.9.4l-2.7-.2v-2.5l2.7.1zm-35.9 4.1l-2.7-.1v-2.6l2.7.2zm6 .4l-2.7-.1v-2.6l2.7.2zm6 .5l-2.7-.2v-2.6l2.7.2zm6 .4l-2.8-.2v-2.6l2.8.2zm6 .4l-2.8-.2v-2.6l2.8.2zm6 .4l-2.8-.2v-2.6l2.8.2zm5.9.4l-2.7-.2v-2.6l2.7.2zm-35.9 4.1l-2.7-.2v-2.6l2.7.2zm6 .4l-2.7-.2v-2.6l2.7.2zm6 .4l-2.7-.2v-2.6l2.7.2zm6 .4l-2.8-.2v-2.5l2.8.1zm6 .4l-2.8-.2v-2.5l2.8.1zm6 .4l-2.8-.2v-2.5l2.8.2zm5.9.4l-2.7-.1v-2.6l2.7.2zm-35.9 4.1l-2.7-.1V380l2.7.2zm6 .5l-2.7-.2v-2.6l2.7.2z"/><path class="st7" d="M401.8 383.6l-2.7-.2v-2.6l2.7.2z"/><path class="st0" d="M407.8 384l-2.8-.2v-2.6l2.8.2zm6 .4l-2.8-.2v-2.6l2.8.2z"/><path class="st7" d="M419.8 384.8l-2.8-.2V382l2.8.2z"/><path class="st0" d="M425.7 385.2l-2.7-.2v-2.6l2.7.2zm-35.9 4.1l-2.7-.2v-2.6l2.7.2zm6 .4l-2.7-.2v-2.6l2.7.2zm6 .4l-2.7-.2v-2.6l2.7.2zm6 .4l-2.8-.2v-2.5l2.8.1zm6 .4l-2.8-.2v-2.5l2.8.1zm6 .4l-2.8-.2v-2.5l2.8.2zm5.9.4l-2.7-.1V389l2.7.2zm-35.9 4.2l-2.7-.2v-2.6l2.7.2zm6 .4l-2.7-.2v-2.6l2.7.2zm6 .4l-2.7-.2v-2.6l2.7.2zm6 .4l-2.8-.2v-2.6l2.8.2zm6 .4l-2.8-.2v-2.6l2.8.2zm6 .4l-2.8-.2v-2.6l2.8.2zm5.9.4l-2.7-.2v-2.6l2.7.2zm-35.9 4.1l-2.7-.2v-2.6l2.7.2z"/><path class="st7" d="M395.8 402.8l-2.7-.2v-2.5l2.7.1z"/><path class="st0" d="M401.8 403.2l-2.7-.2v-2.5l2.7.1z"/><path class="st7" d="M407.8 403.6l-2.8-.2v-2.5l2.8.1zm6 .4l-2.8-.1v-2.6l2.8.2z"/><path class="st0" d="M419.8 404.4l-2.8-.1v-2.6l2.8.2zm5.9.4l-2.7-.1v-2.6l2.7.2z"/><path class="st7" d="M389.8 409l-2.7-.2v-2.6l2.7.2z"/><path class="st0" d="M395.8 409.4l-2.7-.2v-2.6l2.7.2zm6 .4l-2.7-.2V407l2.7.2zm6 .4l-2.8-.2v-2.6l2.8.2zm6 .4l-2.8-.2v-2.6l2.8.2zm6 .4l-2.8-.2v-2.6l2.8.2zm5.9.4l-2.7-.2v-2.6l2.7.2zm-35.9 4.1l-2.7-.2v-2.6l2.7.2zm6 .4l-2.7-.2v-2.5l2.7.1zm6 .4l-2.7-.2v-2.5l2.7.1zm6 .4l-2.8-.2V414l2.8.1zm6 .4l-2.8-.1v-2.6l2.8.2zm6 .4l-2.8-.1v-2.6l2.8.2zm5.9.5l-2.7-.2v-2.6l2.7.2zm-35.9 4.1l-2.7-.2v-2.6l2.7.2zm6 .4l-2.7-.2v-2.6l2.7.2zm6 .4l-2.7-.2v-2.6l2.7.2zm6 .4l-2.8-.2v-2.6l2.8.2z"/><path class="st7" d="M413.8 423.7l-2.8-.2v-2.6l2.8.2zm6 .4l-2.8-.2v-2.6l2.8.2z"/><path class="st0" d="M425.7 424.5l-2.7-.2v-2.6l2.7.2z"/><path class="st7" d="M389.8 428.6l-2.7-.2v-2.5l2.7.1z"/><path class="st0" d="M395.8 429l-2.7-.2v-2.5l2.7.1z"/><path class="st7" d="M401.8 429.4l-2.7-.2v-2.5l2.7.2z"/><path class="st0" d="M407.8 429.8l-2.8-.1v-2.6l2.8.2zm6 .4l-2.8-.1v-2.6l2.8.2zm6 .4l-2.8-.1v-2.6l2.8.2zm5.9.5l-2.7-.2v-2.6l2.7.2z"/><path class="st7" d="M389.8 435.2l-2.7-.2v-2.6l2.7.2z"/><path class="st0" d="M395.8 435.6l-2.7-.2v-2.6l2.7.2zm6 .4l-2.7-.2v-2.6l2.7.2zm6 .4l-2.8-.2v-2.6l2.8.2zm6 .4l-2.8-.2V434l2.8.2zm6 .4l-2.8-.2v-2.6l2.8.2zm5.9.4l-2.7-.2v-2.6l2.7.2zm-35.9 4.1l-2.7-.2V439l2.7.1zm6 .4l-2.7-.2v-2.5l2.7.1zm6 .4l-2.7-.2v-2.5l2.7.2zm6 .4l-2.8-.1v-2.6l2.8.2zm6 .4l-2.8-.1v-2.6l2.8.2zm6 .5l-2.8-.2V441l2.8.2zm5.9.4l-2.7-.2v-2.6l2.7.2zm-35.9 4.1l-2.7-.2v-2.6l2.7.2zm6 .4l-2.7-.2v-2.6l2.7.2zm6 .4l-2.7-.2v-2.6l2.7.2zm6 .4l-2.8-.2v-2.6l2.8.2zm6 .4l-2.8-.2v-2.6l2.8.2zm6 .4l-2.8-.2v-2.6l2.8.2zm5.9.4l-2.7-.2V448l2.7.1z"/><path class="st6" d="M374.1 278.1l2.7-.4v-2.6l-2.7.4zm-6 .8l2.7-.4V276l-2.7.3zm-6 .8l2.7-.3v-2.6l-2.7.4zm-6 .9l2.7-.4v-2.6l-2.7.4z"/><path class="st0" d="M350.1 281.4l2.7-.4v-2.5l-2.7.3zm-6 .8l2.7-.4v-2.5l-2.7.3z"/><path class="st6" d="M338.1 283.1l2.7-.4v-2.6l-2.7.4zm36 1.5l2.7-.3v-2.6l-2.7.4zm-6 .9l2.7-.4v-2.6l-2.7.4zm-6 .8l2.7-.4v-2.6l-2.7.4zm-6 .8l2.7-.3v-2.6l-2.7.3zm-6 .9l2.7-.4V285l-2.7.4zm-6 .8l2.7-.4v-2.6l-2.7.4zm-6 .8l2.7-.4v-2.5l-2.7.3zm36 1.6l2.7-.4v-2.6l-2.7.4zm-6 .8l2.7-.3v-2.6l-2.7.3zm-6 .9l2.7-.4v-2.6l-2.7.4z"/><path class="st0" d="M356.1 293.7l2.7-.4v-2.6l-2.7.4zm-6 .8l2.7-.4v-2.5l-2.7.3z"/><path class="st6" d="M344.1 295.3l2.7-.3v-2.6l-2.7.4zm-6 .9l2.7-.4v-2.6l-2.7.4zm36 1.6l2.7-.4v-2.6l-2.7.4zm-6 .8l2.7-.4v-2.6l-2.7.4zm-6 .8l2.7-.4v-2.5l-2.7.3z"/><path class="st0" d="M356.1 300.2l2.7-.3v-2.6l-2.7.4zm-6 .9l2.7-.4v-2.6l-2.7.4z"/><path class="st6" d="M344.1 301.9l2.7-.4v-2.6l-2.7.4zm-6 .8l2.7-.4v-2.5l-2.7.3zm36 1.6l2.7-.4v-2.5l-2.7.3zm-6 .8l2.7-.3v-2.6l-2.7.4zm-6 .9l2.7-.4V303l-2.7.4zm-6 .8l2.7-.4v-2.6l-2.7.4zm-6 .8l2.7-.4v-2.5l-2.7.3zm-6 .8l2.7-.3v-2.6l-2.7.4zm-6 .9l2.7-.4v-2.6l-2.7.4zm36 1.6l2.7-.4v-2.6l-2.7.4zm-6 .8l2.7-.4v-2.6l-2.7.4zm-6 .8l2.7-.4v-2.5l-2.7.3z"/><path class="st0" d="M356.1 313.3l2.7-.3v-2.6l-2.7.4z"/><path class="st6" d="M350.1 314.2l2.7-.4v-2.6l-2.7.4zm-6 .8l2.7-.4V312l-2.7.4zm-6 .8l2.7-.4v-2.5l-2.7.3zm36 1.6l2.7-.4v-2.5l-2.7.3zm-6 .8l2.7-.3v-2.6l-2.7.4zm-6 .9l2.7-.4v-2.6l-2.7.4z"/><path class="st0" d="M356.1 319.9l2.7-.4v-2.6l-2.7.4z"/><path class="st6" d="M350.1 320.7l2.7-.4v-2.5l-2.7.3zm-6 .8l2.7-.3v-2.6l-2.7.4zm-6 .9l2.7-.4v-2.6l-2.7.4zm36 1.6l2.7-.4V321l-2.7.4zm-6 .8l2.7-.4v-2.6l-2.7.4zm-6 .8l2.7-.4v-2.5l-2.7.3z"/><path class="st0" d="M356.1 326.4l2.7-.3v-2.6l-2.7.4z"/><path class="st6" d="M350.1 327.3l2.7-.4v-2.6l-2.7.4zm-6 .8l2.7-.4v-2.6l-2.7.4zm-6 .8l2.7-.3V326l-2.7.4z"/><path class="st0" d="M374.1 330.5l2.7-.4v-2.5l-2.7.3zm-6 .8l2.7-.3v-2.6l-2.7.4z"/><path class="st6" d="M362.1 332.2l2.7-.4v-2.6l-2.7.4zm-6 .8l2.7-.4V330l-2.7.4zm-6 .8l2.7-.4v-2.5l-2.7.3zm-6 .8l2.7-.3v-2.6l-2.7.4zm-6 .9l2.7-.4v-2.6l-2.7.4zm36 1.6l2.7-.4v-2.6l-2.7.4zm-6 .8l2.7-.4v-2.6l-2.7.4zm-6 .8l2.7-.4v-2.5l-2.7.3zm-6 .8l2.7-.3v-2.6l-2.7.4zm-6 .9l2.7-.4v-2.6l-2.7.4z"/><path class="st0" d="M344.1 341.2l2.7-.4v-2.6l-2.7.4z"/><path class="st6" d="M338.1 342l2.7-.3v-2.6l-2.7.3z"/><path class="st0" d="M374.1 343.6l2.7-.4v-2.5l-2.7.3z"/><path class="st6" d="M368.1 344.4l2.7-.3v-2.6l-2.7.4zm-6 .9l2.7-.4v-2.6l-2.7.4zm-6 .8l2.7-.4v-2.6l-2.7.4z"/><path class="st0" d="M350.1 346.9l2.7-.3V344l-2.7.4z"/><path class="st6" d="M344.1 347.8l2.7-.4v-2.6l-2.7.4zm-6 .8l2.7-.4v-2.6l-2.7.4z"/><path class="st0" d="M374.1 350.2l2.7-.4v-2.6l-2.7.4z"/><path class="st6" d="M368.1 351l2.7-.4V348l-2.7.4zm-6 .8l2.7-.3v-2.6l-2.7.4zm-6 .9l2.7-.4v-2.6l-2.7.4zm-6 .8l2.7-.4v-2.6l-2.7.4z"/><path class="st0" d="M344.1 354.3l2.7-.4v-2.5l-2.7.3z"/><path class="st6" d="M338.1 355.1l2.7-.3v-2.6l-2.7.4z"/><path class="st0" d="M374.1 356.7l2.7-.4v-2.5l-2.7.4z"/><path class="st6" d="M368.1 357.6l2.7-.4v-2.6l-2.7.4zm-6 .8l2.7-.4v-2.6l-2.7.4zm-6 .8l2.7-.4v-2.6l-2.7.4zm-6 .8l2.7-.3v-2.6l-2.7.4zm-6 .9l2.7-.4v-2.6l-2.7.4z"/><path class="st0" d="M338.1 361.7l2.7-.4v-2.6l-2.7.4z"/><path class="st6" d="M374.1 363.3l2.7-.4v-2.6l-2.7.4zm-6 .8l2.7-.4v-2.6l-2.7.4zm-6 .8l2.7-.3V362l-2.7.4zm-6 .9l2.7-.4v-2.6l-2.7.4zm-6 .8l2.7-.4v-2.6l-2.7.4z"/><path class="st0" d="M344.1 367.4l2.7-.4v-2.5l-2.7.3zm-6 .8l2.7-.3v-2.6l-2.7.4z"/><path class="st6" d="M374.1 369.8l2.7-.3v-2.6l-2.7.4zm-6 .9l2.7-.4v-2.6l-2.7.4zm-6 .8l2.7-.4v-2.6l-2.7.4zm-6 .8l2.7-.4v-2.5l-2.7.3z"/><path class="st0" d="M350.1 373.1l2.7-.3v-2.6l-2.7.4z"/><path class="st6" d="M344.1 374l2.7-.4V371l-2.7.4zm-6 .8l2.7-.4v-2.6l-2.7.4zm36 1.6l2.7-.4v-2.6l-2.7.4zm-6 .8l2.7-.4v-2.5l-2.7.3zm-6 .8l2.7-.3v-2.6l-2.7.4zm-6 .9l2.7-.4v-2.6l-2.7.4zm-6 .8l2.7-.4v-2.6l-2.7.4zm-6 .8l2.7-.4v-2.5l-2.7.3zm-6 .8l2.7-.3v-2.6l-2.7.4zm36 1.6l2.7-.3V380l-2.7.4zm-6 .9l2.7-.4v-2.6l-2.7.4zm-6 .8l2.7-.4v-2.6l-2.7.4zm-6 .8l2.7-.4v-2.5l-2.7.3z"/><path class="st0" d="M350.1 386.2l2.7-.3v-2.6l-2.7.4z"/><path class="st6" d="M344.1 387.1l2.7-.4v-2.6l-2.7.4zm-6 .8l2.7-.4v-2.6l-2.7.4zm36 1.6l2.7-.4v-2.6l-2.7.4zm-6 .8l2.7-.4v-2.5l-2.7.3zm-6 .8l2.7-.3v-2.6l-2.7.4zm-6 .9l2.7-.4V389l-2.7.4zm-6 .8l2.7-.4v-2.6l-2.7.4zm-6 .8l2.7-.4v-2.5l-2.7.3zm-6 .9l2.7-.4v-2.6l-2.7.4zm36 1.5l2.7-.3v-2.6l-2.7.4zm-6 .9l2.7-.4v-2.6l-2.7.4z"/><path class="st0" d="M362.1 397.7l2.7-.4v-2.6l-2.7.4z"/><path class="st6" d="M356.1 398.5l2.7-.3v-2.6l-2.7.3zm-6 .9l2.7-.4v-2.6l-2.7.4zm-6 .8l2.7-.4v-2.6l-2.7.4zm-6 .8l2.7-.4v-2.5l-2.7.3zm36 1.6l2.7-.4v-2.6l-2.7.4zm-6 .8l2.7-.3v-2.6l-2.7.3z"/><path class="st0" d="M362.1 404.3l2.7-.4v-2.6l-2.7.4z"/><path class="st6" d="M356.1 405.1l2.7-.4v-2.6l-2.7.4zm-6 .8l2.7-.4V403l-2.7.3zm-6 .8l2.7-.4v-2.5l-2.7.4zm-6 .9l2.7-.4v-2.6l-2.7.4zm36 1.5l2.7-.3v-2.6l-2.7.4zm-6 .9l2.7-.4V407l-2.7.4zm-6 .8l2.7-.4v-2.6l-2.7.4zm-6 .8l2.7-.3v-2.6l-2.7.3zm-6 .9l2.7-.4v-2.6l-2.7.4zm-6 .8l2.7-.4v-2.6l-2.7.4zm-6 .8l2.7-.4v-2.5l-2.7.3zm36 1.6l2.7-.4v-2.6l-2.7.4zm-6 .8l2.7-.3v-2.6l-2.7.3zm-6 .9l2.7-.4v-2.6l-2.7.4zm-6 .8l2.7-.4v-2.6l-2.7.4z"/><path class="st0" d="M350.1 419l2.7-.4v-2.5l-2.7.3zm-6 .8l2.7-.3v-2.6l-2.7.4z"/><path class="st6" d="M338.1 420.7l2.7-.4v-2.6l-2.7.4zm36 1.6l2.7-.4v-2.6l-2.7.4zm-6 .8l2.7-.4v-2.6l-2.7.4zm-6 .8l2.7-.4V421l-2.7.3z"/><path class="st0" d="M356.1 424.7l2.7-.3v-2.6l-2.7.4zm-6 .9l2.7-.4v-2.6l-2.7.4z"/><path class="st6" d="M344.1 426.4l2.7-.4v-2.6l-2.7.4zm-6 .8l2.7-.4v-2.5l-2.7.3zm36 1.6l2.7-.4v-2.5l-2.7.3zm-6 .8l2.7-.3v-2.6l-2.7.4zm-6 .9l2.7-.4v-2.6l-2.7.4zm-6 .8l2.7-.4v-2.6l-2.7.4zm-6 .8l2.7-.4v-2.5l-2.7.3zm-6 .8l2.7-.3V430l-2.7.4zm-6 .9l2.7-.4v-2.6l-2.7.4zm36 1.6l2.7-.4v-2.6l-2.7.4zm-6 .8l2.7-.4v-2.6l-2.7.4zm-6 .8l2.7-.4v-2.5l-2.7.3zm-6 .8l2.7-.3v-2.6l-2.7.4zm-6 .9l2.7-.4v-2.6l-2.7.4zm-6 .8l2.7-.4v-2.6l-2.7.4zm-6 .8l2.7-.4v-2.5l-2.7.3zm36 1.6l2.7-.4V439l-2.7.3zm-6 .8l2.7-.3v-2.6l-2.7.4zm-6 .9l2.7-.4v-2.6l-2.7.4zm-6 .8l2.7-.4v-2.6l-2.7.4zm-6 .8l2.7-.4v-2.5l-2.7.3zm-6 .8l2.7-.3v-2.6l-2.7.4zm-6 .9l2.7-.4v-2.6l-2.7.4zm36 1.6l2.7-.4v-2.6l-2.7.4zm-6 .8l2.7-.4v-2.6l-2.7.4zm-6 .8l2.7-.4v-2.5l-2.7.3zm-6 .9l2.7-.4V448l-2.7.4zm-6 .8l2.7-.4v-2.6l-2.7.4zm-6 .8l2.7-.4v-2.6l-2.7.4zm-6 .8l2.7-.3v-2.6l-2.7.4z"/><path class="st5" d="M990.8 265.9h32.4v14h19v12h19v163.9h44V299.9h20v-10h23.7l29.3 111.2s-3.4 49.1-7.3 49.1-14.7 14.6-14.7 14.6l-210.9.9 22.5-67.8 23-132z"/><path class="st4" d="M1145.3 460.8c-.3 1.1 1.2-181.8 1.2-181.8h1.8v-67.3h1.5v-4.4h2.9v-5.9h2.9v-7.3h2.2l13.5-20.2-1.1-8.7 44-.4.6 27.7-12.1 82.4-9.1 185.2c-.1 0-48.2.3-48.3.7z"/><path class="st5" d="M1243.5 458.7V225.5c-1 .2-1.9.2-2.9.2v-6.1l-2.7-1.1v-4l-1.7-.4v-17.9l-7.7-5.5-3.3-4.4-3.7-13.2v-6.3l-7.3-2.2v9.5l-5.5 10.2-6.2-13.5 1.4-5.3-3.1.2-1.2 4.8 7 15.4.4 5.1-8.1-13.2h-5.9l5.1 12.8V210h-2.2l-.3 4.4h-3.4v3.7l-1.5 1.5v239h52.8z"/><path class="st6" d="M1213.4 235.8h1.5V458h-1.5zm-7.3-35.1h1.5V461h-1.5zm-8.8 10.2h1.5v248.6h-1.5z"/><path fill="none" stroke="#f8aa55" stroke-width="1.46" stroke-miterlimit="10" d="M1220 190.4v43.9"/><path class="st5" d="M1190 220.4h-12.4v-3.7l3.9-2.2 2-5.2v-7.2l-1.5.6v7.4h-4.4v3.7l-3.5.7h-9l2.2-4.2v-6h-2.9v5.9h-2.2l-.8 1.5 4.2 7.3s20.7 38.9 25 71.8c.1-63.5-.6-70.4-.6-70.4z"/><path class="st6" d="M1198.9 201.8l8 1.3-.1-2.9-8-1.5-.1-3.2 37.3 5.9.1-5.1-7.6-5.5-2.9-4-4.1-13.6V167l-6.9-2-.4 9.3-5.6 9.6-6.1-12.6 1.4-6.5h-2.2l-2.1 5.8 7.3 16v3.8l-8.1-12.4h-5.9l5.2 12.8-.1 10.7zm8.4 2.7l21.7 3.5.2 2.9-22.2-3.5zm21.6-1.8l-.1 2.7 6.9 1.1.3-2.5zm5.9 11.9l-.3 2.9-1.9-.4v-2.5zm-3.9 6h3.4v1.6h-3.4zm-4.2 4.8h4.6v1.7h-4.6zm-3.3 4.9h4.5v2.6h-4.5zm-9.9 5.7h10.5v1h-10.5zm1.7 5.3h6.8v1.6h-6.8zm-6.6-12.1h3.9v1.8h-3.9zm-4-7.3h6.7v2.9h-6.7zm-3.3-6.1h3.4v2.5h-3.4zm-2-5.3h3.1v2h-3.1z"/><path class="st5" d="M1208 191.1l19.9 3.1-.2 2.1-19.9-2.8z"/><path class="st4" d="M1363.6 255.5h34.4v44h22l-.2 160.3-58.4-1.1z"/><path class="st5" d="M1379.5 267.9h1.1v2h-1.1zm-10.8 0h1.1v2h-1.1zm2.7 0h1.1v2h-1.1zm2.7 0h1.1v2h-1.1zm2.7 0h1.1v2h-1.1zm5.4 0h1.1v2h-1.1zm2.7 0h1.1v2h-1.1zm2.7 0h1.1v2h-1.1zm2.7 0h1.1v2h-1.1zm2.7 0h1.1v2h-1.1zm-13.5-7h1.1v2h-1.1zm-10.8 0h1.1v2h-1.1zm2.7 0h1.1v2h-1.1zm2.7 0h1.1v2h-1.1zm2.7 0h1.1v2h-1.1zm5.4 0h1.1v2h-1.1zm2.7 0h1.1v2h-1.1zm2.7 0h1.1v2h-1.1zm2.7 0h1.1v2h-1.1zm2.7 0h1.1v2h-1.1zm-13.5 13.2h1.1v2h-1.1zm-10.8 0h1.1v2h-1.1zm2.7 0h1.1v2h-1.1zm2.7 0h1.1v2h-1.1zm2.7 0h1.1v2h-1.1zm5.4 0h1.1v2h-1.1zm2.7 0h1.1v2h-1.1zm2.7 0h1.1v2h-1.1zm2.7 0h1.1v2h-1.1zm2.7 0h1.1v2h-1.1zm-13.5 7h1.1v2h-1.1zm-10.8 0h1.1v2h-1.1zm2.7 0h1.1v2h-1.1zm2.7 0h1.1v2h-1.1zm2.7 0h1.1v2h-1.1zm5.4 0h1.1v2h-1.1zm2.7 0h1.1v2h-1.1zm2.7 0h1.1v2h-1.1zm2.7 0h1.1v2h-1.1zm2.7 0h1.1v2h-1.1zm-13.5 6.5h1.1v2h-1.1zm-10.8 0h1.1v2h-1.1zm2.7 0h1.1v2h-1.1zm2.7 0h1.1v2h-1.1zm2.7 0h1.1v2h-1.1zm5.4 0h1.1v2h-1.1zm2.7 0h1.1v2h-1.1zm2.7 0h1.1v2h-1.1zm2.7 0h1.1v2h-1.1zm2.7 0h1.1v2h-1.1zm-13.5 7.1h1.1v2h-1.1zm-10.8 0h1.1v2h-1.1zm2.7 0h1.1v2h-1.1zm2.7 0h1.1v2h-1.1zm2.7 0h1.1v2h-1.1zm5.4 0h1.1v2h-1.1zm2.7 0h1.1v2h-1.1zm2.7 0h1.1v2h-1.1zm2.7 0h1.1v2h-1.1zm2.7 0h1.1v2h-1.1zm-13.5 14.8h1.1v2h-1.1zm-10.8 0h1.1v2h-1.1zm2.7 0h1.1v2h-1.1zm2.7 0h1.1v2h-1.1zm2.7 0h1.1v2h-1.1zm5.4 0h1.1v2h-1.1zm2.7 0h1.1v2h-1.1zm2.7 0h1.1v2h-1.1zm2.7 0h1.1v2h-1.1zm2.7 0h1.1v2h-1.1zm-13.5-7h1.1v2h-1.1zm-10.8 0h1.1v2h-1.1zm2.7 0h1.1v2h-1.1zm2.7 0h1.1v2h-1.1zm2.7 0h1.1v2h-1.1zm5.4 0h1.1v2h-1.1zm2.7 0h1.1v2h-1.1zm2.7 0h1.1v2h-1.1zm2.7 0h1.1v2h-1.1zm2.7 0h1.1v2h-1.1zm-13.5 13.3h1.1v2h-1.1zm-10.8 0h1.1v2h-1.1zm2.7 0h1.1v2h-1.1zm2.7 0h1.1v2h-1.1zm2.7 0h1.1v2h-1.1zm5.4 0h1.1v2h-1.1zm2.7 0h1.1v2h-1.1zm2.7 0h1.1v2h-1.1zm2.7 0h1.1v2h-1.1zm2.7 0h1.1v2h-1.1zm-13.5 6.9h1.1v2h-1.1zm-10.8 0h1.1v2h-1.1zm2.7 0h1.1v2h-1.1zm2.7 0h1.1v2h-1.1zm2.7 0h1.1v2h-1.1zm5.4 0h1.1v2h-1.1zm2.7 0h1.1v2h-1.1zm2.7 0h1.1v2h-1.1zm2.7 0h1.1v2h-1.1zm2.7 0h1.1v2h-1.1zm-13.5 6.5h1.1v2h-1.1zm-10.8 0h1.1v2h-1.1zm2.7 0h1.1v2h-1.1zm2.7 0h1.1v2h-1.1zm2.7 0h1.1v2h-1.1zm5.4 0h1.1v2h-1.1zm2.7 0h1.1v2h-1.1zm2.7 0h1.1v2h-1.1zm2.7 0h1.1v2h-1.1zm2.7 0h1.1v2h-1.1zm-13.5 7.1h1.1v2h-1.1zm-10.8 0h1.1v2h-1.1zm2.7 0h1.1v2h-1.1zm2.7 0h1.1v2h-1.1zm2.7 0h1.1v2h-1.1zm5.4 0h1.1v2h-1.1zm2.7 0h1.1v2h-1.1zm2.7 0h1.1v2h-1.1zm2.7 0h1.1v2h-1.1zm2.7 0h1.1v2h-1.1zm-13.5 14.5h1.1v2h-1.1zm-10.8 0h1.1v2h-1.1zm2.7 0h1.1v2h-1.1zm2.7 0h1.1v2h-1.1zm2.7 0h1.1v2h-1.1zm5.4 0h1.1v2h-1.1zm2.7 0h1.1v2h-1.1zm2.7 0h1.1v2h-1.1zm2.7 0h1.1v2h-1.1zm2.7 0h1.1v2h-1.1zm-13.5-7h1.1v2h-1.1zm-10.8 0h1.1v2h-1.1zm2.7 0h1.1v2h-1.1zm2.7 0h1.1v2h-1.1zm2.7 0h1.1v2h-1.1zm5.4 0h1.1v2h-1.1zm2.7 0h1.1v2h-1.1zm2.7 0h1.1v2h-1.1zm2.7 0h1.1v2h-1.1zm2.7 0h1.1v2h-1.1zm-13.5 13.3h1.1v2h-1.1zm-10.8 0h1.1v2h-1.1zm2.7 0h1.1v2h-1.1zm2.7 0h1.1v2h-1.1zm2.7 0h1.1v2h-1.1zm5.4 0h1.1v2h-1.1zm2.7 0h1.1v2h-1.1zm2.7 0h1.1v2h-1.1zm2.7 0h1.1v2h-1.1zm2.7 0h1.1v2h-1.1zm-13.5 7h1.1v2h-1.1zm-10.8 0h1.1v2h-1.1zm2.7 0h1.1v2h-1.1zm2.7 0h1.1v2h-1.1zm2.7 0h1.1v2h-1.1zm5.4 0h1.1v2h-1.1zm2.7 0h1.1v2h-1.1zm2.7 0h1.1v2h-1.1zm2.7 0h1.1v2h-1.1zm2.7 0h1.1v2h-1.1zm-13.5 6.5h1.1v2h-1.1zm-10.8 0h1.1v2h-1.1zm2.7 0h1.1v2h-1.1zm2.7 0h1.1v2h-1.1zm2.7 0h1.1v2h-1.1zm5.4 0h1.1v2h-1.1zm2.7 0h1.1v2h-1.1zm2.7 0h1.1v2h-1.1zm2.7 0h1.1v2h-1.1zm2.7 0h1.1v2h-1.1zm-13.5 7h1.1v2h-1.1zm-10.8 0h1.1v2h-1.1zm2.7 0h1.1v2h-1.1zm2.7 0h1.1v2h-1.1zm2.7 0h1.1v2h-1.1zm5.4 0h1.1v2h-1.1zm2.7 0h1.1v2h-1.1zm2.7 0h1.1v2h-1.1zm2.7 0h1.1v2h-1.1zm2.7 0h1.1v2h-1.1zm-13.5 14.9h1.1v2h-1.1zm-10.8 0h1.1v2h-1.1zm2.7 0h1.1v2h-1.1zm2.7 0h1.1v2h-1.1zm2.7 0h1.1v2h-1.1zm5.4 0h1.1v2h-1.1zm2.7 0h1.1v2h-1.1zm2.7 0h1.1v2h-1.1zm2.7 0h1.1v2h-1.1zm2.7 0h1.1v2h-1.1zm-13.5-7h1.1v2h-1.1zm-10.8 0h1.1v2h-1.1zm2.7 0h1.1v2h-1.1zm2.7 0h1.1v2h-1.1zm2.7 0h1.1v2h-1.1zm5.4 0h1.1v2h-1.1zm2.7 0h1.1v2h-1.1zm2.7 0h1.1v2h-1.1zm2.7 0h1.1v2h-1.1zm2.7 0h1.1v2h-1.1zm-13.5 13.2h1.1v2h-1.1zm-10.8 0h1.1v2h-1.1zm2.7 0h1.1v2h-1.1zm2.7 0h1.1v2h-1.1zm2.7 0h1.1v2h-1.1zm5.4 0h1.1v2h-1.1zm2.7 0h1.1v2h-1.1zm2.7 0h1.1v2h-1.1zm2.7 0h1.1v2h-1.1zm2.7 0h1.1v2h-1.1zm-13.5 7h1.1v2h-1.1zm-10.8 0h1.1v2h-1.1zm2.7 0h1.1v2h-1.1zm2.7 0h1.1v2h-1.1zm2.7 0h1.1v2h-1.1zm5.4 0h1.1v2h-1.1zm2.7 0h1.1v2h-1.1zm2.7 0h1.1v2h-1.1zm2.7 0h1.1v2h-1.1zm2.7 0h1.1v2h-1.1zm-13.5 6.5h1.1v2h-1.1zm-10.8 0h1.1v2h-1.1zm2.7 0h1.1v2h-1.1zm2.7 0h1.1v2h-1.1zm2.7 0h1.1v2h-1.1zm5.4 0h1.1v2h-1.1zm2.7 0h1.1v2h-1.1zm2.7 0h1.1v2h-1.1zm2.7 0h1.1v2h-1.1zm2.7 0h1.1v2h-1.1zm-13.5 7.1h1.1v2h-1.1zm-10.8 0h1.1v2h-1.1zm2.7 0h1.1v2h-1.1zm2.7 0h1.1v2h-1.1zm2.7 0h1.1v2h-1.1zm5.4 0h1.1v2h-1.1zm2.7 0h1.1v2h-1.1zm2.7 0h1.1v2h-1.1zm2.7 0h1.1v2h-1.1zm2.7 0h1.1v2h-1.1zm-13.5 13.7h1.1v2h-1.1zm-10.8 0h1.1v2h-1.1zm2.7 0h1.1v2h-1.1zm2.7 0h1.1v2h-1.1zm2.7 0h1.1v2h-1.1zm5.4 0h1.1v2h-1.1zm2.7 0h1.1v2h-1.1zm2.7 0h1.1v2h-1.1zm2.7 0h1.1v2h-1.1zm2.7 0h1.1v2h-1.1zm-13.5-6.9h1.1v2h-1.1zm-10.8 0h1.1v2h-1.1zm2.7 0h1.1v2h-1.1zm2.7 0h1.1v2h-1.1zm2.7 0h1.1v2h-1.1zm5.4 0h1.1v2h-1.1zm2.7 0h1.1v2h-1.1zm2.7 0h1.1v2h-1.1zm2.7 0h1.1v2h-1.1zm2.7 0h1.1v2h-1.1zm-13.5 13.2h1.1v2h-1.1zm-10.8 0h1.1v2h-1.1zm2.7 0h1.1v2h-1.1zm2.7 0h1.1v2h-1.1zm2.7 0h1.1v2h-1.1zm5.4 0h1.1v2h-1.1zm2.7 0h1.1v2h-1.1zm2.7 0h1.1v2h-1.1zm2.7 0h1.1v2h-1.1zm2.7 0h1.1v2h-1.1zm-13.5 7h1.1v2h-1.1zm-10.8 0h1.1v2h-1.1zm2.7 0h1.1v2h-1.1zm2.7 0h1.1v2h-1.1zm2.7 0h1.1v2h-1.1zm5.4 0h1.1v2h-1.1zm2.7 0h1.1v2h-1.1zm2.7 0h1.1v2h-1.1zm2.7 0h1.1v2h-1.1zm2.7 0h1.1v2h-1.1zm-13.5 6.5h1.1v2h-1.1zm-10.8 0h1.1v2h-1.1zm2.7 0h1.1v2h-1.1zm2.7 0h1.1v2h-1.1zm2.7 0h1.1v2h-1.1zm5.4 0h1.1v2h-1.1zm2.7 0h1.1v2h-1.1zm2.7 0h1.1v2h-1.1zm2.7 0h1.1v2h-1.1zm2.7 0h1.1v2h-1.1zm-77.7-255.1V211h30v-12.9z"/><path class="st8" d="M1316 197.7l-20.1 3.3.1 8.4 20.4 2.2zm-41.7 246V212.4l7.7-4.4 1.1 241.5z"/><path class="st4" d="M1282.3 208h28v251.9h-28z"/><path class="st5" d="M1310.9 207.9h45.4v252.5l-45 4s-.8-256.5-.4-256.5z"/><path fill="#6492b7" d="M1356.6 208l11.7 3.2V463l-12 4.4z"/><path class="st6" d="M1295.4 218.3h.9v1.6h-.9zm-8.6 0h.9v1.6h-.9zm2.1 0h.9v1.6h-.9zm2.2 0h.9v1.6h-.9zm2.2 0h.9v1.6h-.9zm4.3 0h.9v1.6h-.9zm2.2 0h.9v1.6h-.9zm2.1 0h.9v1.6h-.9zm2.2 0h.9v1.6h-.9zm2.2 0h.9v1.6h-.9zm-10.9-5.6h.9v1.6h-.9zm-8.6 0h.9v1.6h-.9zm2.1 0h.9v1.6h-.9zm2.2 0h.9v1.6h-.9zm2.2 0h.9v1.6h-.9zm4.3 0h.9v1.6h-.9zm2.2 0h.9v1.6h-.9zm2.1 0h.9v1.6h-.9zm2.2 0h.9v1.6h-.9zm2.2 0h.9v1.6h-.9zm-10.9 10.6h.9v1.6h-.9zm-8.6 0h.9v1.6h-.9zm2.1 0h.9v1.6h-.9zm2.2 0h.9v1.6h-.9zm2.2 0h.9v1.6h-.9zm4.3 0h.9v1.6h-.9zm2.2 0h.9v1.6h-.9zm2.1 0h.9v1.6h-.9zm2.2 0h.9v1.6h-.9zm2.2 0h.9v1.6h-.9zm-10.9 5.6h.9v1.6h-.9zm-8.6 0h.9v1.6h-.9zm2.1 0h.9v1.6h-.9zm2.2 0h.9v1.6h-.9zm2.2 0h.9v1.6h-.9zm4.3 0h.9v1.6h-.9zm2.2 0h.9v1.6h-.9zm2.1 0h.9v1.6h-.9zm2.2 0h.9v1.6h-.9zm2.2 0h.9v1.6h-.9zm-10.9 5.2h.9v1.6h-.9zm-8.6 0h.9v1.6h-.9zm2.1 0h.9v1.6h-.9zm2.2 0h.9v1.6h-.9zm2.2 0h.9v1.6h-.9zm4.3 0h.9v1.6h-.9zm2.2 0h.9v1.6h-.9zm2.1 0h.9v1.6h-.9zm2.2 0h.9v1.6h-.9zm2.2 0h.9v1.6h-.9zm-10.9 5.7h.9v1.6h-.9zm-8.6 0h.9v1.6h-.9zm2.1 0h.9v1.6h-.9zm2.2 0h.9v1.6h-.9zm2.2 0h.9v1.6h-.9zm4.3 0h.9v1.6h-.9zm2.2 0h.9v1.6h-.9zm2.1 0h.9v1.6h-.9zm2.2 0h.9v1.6h-.9zm2.2 0h.9v1.6h-.9zm-10.9 11h.9v1.6h-.9zm-8.6 0h.9v1.6h-.9zm2.1 0h.9v1.6h-.9zm2.2 0h.9v1.6h-.9zm2.2 0h.9v1.6h-.9zm4.3 0h.9v1.6h-.9zm2.2 0h.9v1.6h-.9zm2.1 0h.9v1.6h-.9zm2.2 0h.9v1.6h-.9zm2.2 0h.9v1.6h-.9zm-10.9-5.5h.9v1.6h-.9zm-8.6 0h.9v1.6h-.9zm2.1 0h.9v1.6h-.9zm2.2 0h.9v1.6h-.9zm2.2 0h.9v1.6h-.9zm4.3 0h.9v1.6h-.9zm2.2 0h.9v1.6h-.9zm2.1 0h.9v1.6h-.9zm2.2 0h.9v1.6h-.9zm2.2 0h.9v1.6h-.9zm-10.9 10.6h.9v1.6h-.9zm-8.6 0h.9v1.6h-.9zm2.1 0h.9v1.6h-.9zm2.2 0h.9v1.6h-.9zm2.2 0h.9v1.6h-.9zm4.3 0h.9v1.6h-.9zm2.2 0h.9v1.6h-.9zm2.1 0h.9v1.6h-.9zm2.2 0h.9v1.6h-.9zm2.2 0h.9v1.6h-.9zm-10.9 5.6h.9v1.6h-.9zm-8.6 0h.9v1.6h-.9zm2.1 0h.9v1.6h-.9zm2.2 0h.9v1.6h-.9zm2.2 0h.9v1.6h-.9zm4.3 0h.9v1.6h-.9zm2.2 0h.9v1.6h-.9zm2.1 0h.9v1.6h-.9zm2.2 0h.9v1.6h-.9zm2.2 0h.9v1.6h-.9zm-10.9 5.2h.9v1.6h-.9zm-8.6 0h.9v1.6h-.9zm2.1 0h.9v1.6h-.9zm2.2 0h.9v1.6h-.9zm2.2 0h.9v1.6h-.9zm4.3 0h.9v1.6h-.9zm2.2 0h.9v1.6h-.9zm2.1 0h.9v1.6h-.9zm2.2 0h.9v1.6h-.9zm2.2 0h.9v1.6h-.9zm-10.9 5.6h.9v1.6h-.9zm-8.6 0h.9v1.6h-.9zm2.1 0h.9v1.6h-.9zm2.2 0h.9v1.6h-.9zm2.2 0h.9v1.6h-.9zm4.3 0h.9v1.6h-.9zm2.2 0h.9v1.6h-.9zm2.1 0h.9v1.6h-.9zm2.2 0h.9v1.6h-.9zm2.2 0h.9v1.6h-.9zm-10.9 11.1h.9v1.6h-.9zm-8.6 0h.9v1.6h-.9zm2.1 0h.9v1.6h-.9zm2.2 0h.9v1.6h-.9zm2.2 0h.9v1.6h-.9zm4.3 0h.9v1.6h-.9zm2.2 0h.9v1.6h-.9zm2.1 0h.9v1.6h-.9zm2.2 0h.9v1.6h-.9zm2.2 0h.9v1.6h-.9zm-10.9-5.6h.9v1.6h-.9zm-8.6 0h.9v1.6h-.9zm2.1 0h.9v1.6h-.9zm2.2 0h.9v1.6h-.9zm2.2 0h.9v1.6h-.9zm4.3 0h.9v1.6h-.9zm2.2 0h.9v1.6h-.9zm2.1 0h.9v1.6h-.9zm2.2 0h.9v1.6h-.9zm2.2 0h.9v1.6h-.9zm-10.9 10.6h.9v1.6h-.9zm-8.6 0h.9v1.6h-.9zm2.1 0h.9v1.6h-.9zm2.2 0h.9v1.6h-.9zm2.2 0h.9v1.6h-.9zm4.3 0h.9v1.6h-.9zm2.2 0h.9v1.6h-.9zm2.1 0h.9v1.6h-.9zm2.2 0h.9v1.6h-.9zm2.2 0h.9v1.6h-.9zm-10.9 5.6h.9v1.6h-.9zm-8.6 0h.9v1.6h-.9zm2.1 0h.9v1.6h-.9zm2.2 0h.9v1.6h-.9zm2.2 0h.9v1.6h-.9zm4.3 0h.9v1.6h-.9zm2.2 0h.9v1.6h-.9zm2.1 0h.9v1.6h-.9zm2.2 0h.9v1.6h-.9zm2.2 0h.9v1.6h-.9zm-10.9 5.2h.9v1.6h-.9zm-8.6 0h.9v1.6h-.9zm2.1 0h.9v1.6h-.9zm2.2 0h.9v1.6h-.9zm2.2 0h.9v1.6h-.9zm4.3 0h.9v1.6h-.9zm2.2 0h.9v1.6h-.9zm2.1 0h.9v1.6h-.9zm2.2 0h.9v1.6h-.9zm2.2 0h.9v1.6h-.9zm-10.9 5.6h.9v1.6h-.9zm-8.6 0h.9v1.6h-.9zm2.1 0h.9v1.6h-.9zm2.2 0h.9v1.6h-.9zm2.2 0h.9v1.6h-.9zm4.3 0h.9v1.6h-.9zm2.2 0h.9v1.6h-.9zm2.1 0h.9v1.6h-.9zm2.2 0h.9v1.6h-.9zm2.2 0h.9v1.6h-.9zm-10.9 11.1h.9v1.6h-.9zm-8.6 0h.9v1.6h-.9zm2.1 0h.9v1.6h-.9zm2.2 0h.9v1.6h-.9zm2.2 0h.9v1.6h-.9zm4.3 0h.9v1.6h-.9zm2.2 0h.9v1.6h-.9zm2.1 0h.9v1.6h-.9zm2.2 0h.9v1.6h-.9zm2.2 0h.9v1.6h-.9zm-10.9-5.6h.9v1.6h-.9zm-8.6 0h.9v1.6h-.9zm2.1 0h.9v1.6h-.9zm2.2 0h.9v1.6h-.9zm2.2 0h.9v1.6h-.9zm4.3 0h.9v1.6h-.9zm2.2 0h.9v1.6h-.9zm2.1 0h.9v1.6h-.9zm2.2 0h.9v1.6h-.9zm2.2 0h.9v1.6h-.9zm-10.9 10.6h.9v1.6h-.9zm-8.6 0h.9v1.6h-.9zm2.1 0h.9v1.6h-.9zm2.2 0h.9v1.6h-.9zm2.2 0h.9v1.6h-.9zm4.3 0h.9v1.6h-.9zm2.2 0h.9v1.6h-.9zm2.1 0h.9v1.6h-.9zm2.2 0h.9v1.6h-.9zm2.2 0h.9v1.6h-.9zm-10.9 5.6h.9v1.6h-.9zm-8.6 0h.9v1.6h-.9zm2.1 0h.9v1.6h-.9zm2.2 0h.9v1.6h-.9zm2.2 0h.9v1.6h-.9zm4.3 0h.9v1.6h-.9zm2.2 0h.9v1.6h-.9zm2.1 0h.9v1.6h-.9zm2.2 0h.9v1.6h-.9zm2.2 0h.9v1.6h-.9zm-10.9 5.2h.9v1.6h-.9zm-8.6 0h.9v1.6h-.9zm2.1 0h.9v1.6h-.9zm2.2 0h.9v1.6h-.9zm2.2 0h.9v1.6h-.9zm4.3 0h.9v1.6h-.9zm2.2 0h.9v1.6h-.9zm2.1 0h.9v1.6h-.9zm2.2 0h.9v1.6h-.9zm2.2 0h.9v1.6h-.9zm-10.9 5.7h.9v1.6h-.9zm-8.6 0h.9v1.6h-.9zm2.1 0h.9v1.6h-.9zm2.2 0h.9v1.6h-.9zm2.2 0h.9v1.6h-.9zm4.3 0h.9v1.6h-.9zm2.2 0h.9v1.6h-.9zm2.1 0h.9v1.6h-.9zm2.2 0h.9v1.6h-.9zm2.2 0h.9v1.6h-.9zm-10.9 11h.9v1.6h-.9zm-8.6 0h.9v1.6h-.9zm2.1 0h.9v1.6h-.9zm2.2 0h.9v1.6h-.9zm2.2 0h.9v1.6h-.9zm4.3 0h.9v1.6h-.9zm2.2 0h.9v1.6h-.9zm2.1 0h.9v1.6h-.9zm2.2 0h.9v1.6h-.9zm2.2 0h.9v1.6h-.9zm-10.9-5.6h.9v1.6h-.9zm-8.6 0h.9v1.6h-.9zm2.1 0h.9v1.6h-.9zm2.2 0h.9v1.6h-.9zm2.2 0h.9v1.6h-.9zm4.3 0h.9v1.6h-.9zm2.2 0h.9v1.6h-.9zm2.1 0h.9v1.6h-.9zm2.2 0h.9v1.6h-.9zm2.2 0h.9v1.6h-.9zm-10.9 10.6h.9v1.6h-.9zm-8.6 0h.9v1.6h-.9zm2.1 0h.9v1.6h-.9zm2.2 0h.9v1.6h-.9zm2.2 0h.9v1.6h-.9zm4.3 0h.9v1.6h-.9zm2.2 0h.9v1.6h-.9zm2.1 0h.9v1.6h-.9zm2.2 0h.9v1.6h-.9zm2.2 0h.9v1.6h-.9zm-10.9 5.6h.9v1.6h-.9zm-8.6 0h.9v1.6h-.9zm2.1 0h.9v1.6h-.9zm2.2 0h.9v1.6h-.9zm2.2 0h.9v1.6h-.9zm4.3 0h.9v1.6h-.9zm2.2 0h.9v1.6h-.9zm2.1 0h.9v1.6h-.9zm2.2 0h.9v1.6h-.9zm2.2 0h.9v1.6h-.9zm-10.9 5.2h.9v1.6h-.9zm-8.6 0h.9v1.6h-.9zm2.1 0h.9v1.6h-.9zm2.2 0h.9v1.6h-.9zm2.2 0h.9v1.6h-.9zm4.3 0h.9v1.6h-.9zm2.2 0h.9v1.6h-.9zm2.1 0h.9v1.6h-.9zm2.2 0h.9v1.6h-.9zm2.2 0h.9v1.6h-.9zm-10.9 5.7h.9v1.6h-.9zm-8.6 0h.9v1.6h-.9zm2.1 0h.9v1.6h-.9zm2.2 0h.9v1.6h-.9zm2.2 0h.9v1.6h-.9zm4.3 0h.9v1.6h-.9zm2.2 0h.9v1.6h-.9zm2.1 0h.9v1.6h-.9zm2.2 0h.9v1.6h-.9zm2.2 0h.9v1.6h-.9zm-10.9 11h.9v1.6h-.9zm-8.6 0h.9v1.6h-.9zm2.1 0h.9v1.6h-.9zm2.2 0h.9v1.6h-.9zm2.2 0h.9v1.6h-.9zm4.3 0h.9v1.6h-.9zm2.2 0h.9v1.6h-.9zm2.1 0h.9v1.6h-.9zm2.2 0h.9v1.6h-.9zm2.2 0h.9v1.6h-.9zm-10.9-5.6h.9v1.6h-.9zm-8.6 0h.9v1.6h-.9zm2.1 0h.9v1.6h-.9zm2.2 0h.9v1.6h-.9zm2.2 0h.9v1.6h-.9zm4.3 0h.9v1.6h-.9zm2.2 0h.9v1.6h-.9zm2.1 0h.9v1.6h-.9zm2.2 0h.9v1.6h-.9zm2.2 0h.9v1.6h-.9zm-10.9 10.6h.9v1.6h-.9zm-8.6 0h.9v1.6h-.9zm2.1 0h.9v1.6h-.9zm2.2 0h.9v1.6h-.9zm2.2 0h.9v1.6h-.9zm4.3 0h.9v1.6h-.9zm2.2 0h.9v1.6h-.9zm2.1 0h.9v1.6h-.9zm2.2 0h.9v1.6h-.9zm2.2 0h.9v1.6h-.9zm-10.9 5.6h.9v1.6h-.9zm-8.6 0h.9v1.6h-.9zm2.1 0h.9v1.6h-.9zm2.2 0h.9v1.6h-.9zm2.2 0h.9v1.6h-.9zm4.3 0h.9v1.6h-.9zm2.2 0h.9v1.6h-.9zm2.1 0h.9v1.6h-.9zm2.2 0h.9v1.6h-.9zm2.2 0h.9v1.6h-.9zm-10.9 5.2h.9v1.6h-.9zm-8.6 0h.9v1.6h-.9zm2.1 0h.9v1.6h-.9zm2.2 0h.9v1.6h-.9zm2.2 0h.9v1.6h-.9zm4.3 0h.9v1.6h-.9zm2.2 0h.9v1.6h-.9zm2.1 0h.9v1.6h-.9zm2.2 0h.9v1.6h-.9zm2.2 0h.9v1.6h-.9zm-10.9 5.7h.9v1.6h-.9zm-8.6 0h.9v1.6h-.9zm2.1 0h.9v1.6h-.9zm2.2 0h.9v1.6h-.9zm2.2 0h.9v1.6h-.9zm4.3 0h.9v1.6h-.9zm2.2 0h.9v1.6h-.9zm2.1 0h.9v1.6h-.9zm2.2 0h.9v1.6h-.9zm2.2 0h.9v1.6h-.9zm-10.9 11h.9v1.6h-.9zm-8.6 0h.9v1.6h-.9zm2.1 0h.9v1.6h-.9zm2.2 0h.9v1.6h-.9zm2.2 0h.9v1.6h-.9zm4.3 0h.9v1.6h-.9zm2.2 0h.9v1.6h-.9zm2.1 0h.9v1.6h-.9zm2.2 0h.9v1.6h-.9zm2.2 0h.9v1.6h-.9zm-10.9-5.6h.9v1.6h-.9zm-8.6 0h.9v1.6h-.9zm2.1 0h.9v1.6h-.9zm2.2 0h.9v1.6h-.9zm2.2 0h.9v1.6h-.9zm4.3 0h.9v1.6h-.9zm2.2 0h.9v1.6h-.9zm2.1 0h.9v1.6h-.9zm2.2 0h.9v1.6h-.9zm2.2 0h.9v1.6h-.9zm-10.9 10.7h.9v1.6h-.9zm-8.6 0h.9v1.6h-.9zm2.1 0h.9v1.6h-.9zm2.2 0h.9v1.6h-.9zm2.2 0h.9v1.6h-.9zm4.3 0h.9v1.6h-.9zm2.2 0h.9v1.6h-.9zm2.1 0h.9v1.6h-.9zm2.2 0h.9v1.6h-.9zm2.2 0h.9v1.6h-.9zm-10.9 5.6h.9v1.6h-.9zm-8.6 0h.9v1.6h-.9zm2.1 0h.9v1.6h-.9zm2.2 0h.9v1.6h-.9zm2.2 0h.9v1.6h-.9zm4.3 0h.9v1.6h-.9zm2.2 0h.9v1.6h-.9zm2.1 0h.9v1.6h-.9zm2.2 0h.9v1.6h-.9zm2.2 0h.9v1.6h-.9zm-10.9 5.2h.9v1.6h-.9zm-8.6 0h.9v1.6h-.9zm2.1 0h.9v1.6h-.9zm2.2 0h.9v1.6h-.9zm2.2 0h.9v1.6h-.9zm4.3 0h.9v1.6h-.9zm2.2 0h.9v1.6h-.9zm2.1 0h.9v1.6h-.9zm2.2 0h.9v1.6h-.9zm2.2 0h.9v1.6h-.9zm-10.9 5.6h.9v1.6h-.9zm-8.6 0h.9v1.6h-.9zm2.1 0h.9v1.6h-.9zm2.2 0h.9v1.6h-.9zm2.2 0h.9v1.6h-.9zm4.3 0h.9v1.6h-.9zm2.2 0h.9v1.6h-.9zm2.1 0h.9v1.6h-.9zm2.2 0h.9v1.6h-.9zm2.2 0h.9v1.6h-.9zm25.3-216.6h1.6v1.6h-1.6zm-15.4 0h1.6v1.6h-1.6zm3.8 0h1.6v1.6h-1.6zm3.9 0h1.6v1.6h-1.6zm3.9 0h1.6v1.6h-1.6z"/><path class="st4" d="M1335.5 218.3h1.6v1.6h-1.6zm3.9 0h1.6v1.6h-1.6z"/><path class="st6" d="M1343.3 218.3h1.6v1.6h-1.6zm3.8 0h1.6v1.6h-1.6zm3.9 0h1.6v1.6h-1.6zm-19.4-5.6h1.6v1.6h-1.6zm-15.4 0h1.6v1.6h-1.6zm3.8 0h1.6v1.6h-1.6zm3.9 0h1.6v1.6h-1.6zm3.9 0h1.6v1.6h-1.6zm7.7 0h1.6v1.6h-1.6zm3.9 0h1.6v1.6h-1.6zm3.9 0h1.6v1.6h-1.6zm3.8 0h1.6v1.6h-1.6zm3.9 0h1.6v1.6h-1.6zm-19.4 10.6h1.6v1.6h-1.6zm-15.4 0h1.6v1.6h-1.6zm3.8 0h1.6v1.6h-1.6zm3.9 0h1.6v1.6h-1.6zm3.9 0h1.6v1.6h-1.6z"/><path class="st4" d="M1335.5 223.3h1.6v1.6h-1.6z"/><path class="st6" d="M1339.4 223.3h1.6v1.6h-1.6zm3.9 0h1.6v1.6h-1.6zm3.8 0h1.6v1.6h-1.6zm3.9 0h1.6v1.6h-1.6zm-19.4 5.6h1.6v1.6h-1.6zm-15.4 0h1.6v1.6h-1.6zm3.8 0h1.6v1.6h-1.6zm3.9 0h1.6v1.6h-1.6zm3.9 0h1.6v1.6h-1.6zm7.7 0h1.6v1.6h-1.6zm3.9 0h1.6v1.6h-1.6zm3.9 0h1.6v1.6h-1.6zm3.8 0h1.6v1.6h-1.6z"/><path class="st4" d="M1351 228.9h1.6v1.6h-1.6z"/><path class="st6" d="M1331.6 234.1h1.6v1.6h-1.6zm-15.4 0h1.6v1.6h-1.6zm3.8 0h1.6v1.6h-1.6zm3.9 0h1.6v1.6h-1.6zm3.9 0h1.6v1.6h-1.6zm7.7 0h1.6v1.6h-1.6zm3.9 0h1.6v1.6h-1.6zm3.9 0h1.6v1.6h-1.6zm3.8 0h1.6v1.6h-1.6zm3.9 0h1.6v1.6h-1.6zm-19.4 5.7h1.6v1.6h-1.6zm-15.4 0h1.6v1.6h-1.6zm3.8 0h1.6v1.6h-1.6z"/><path class="st4" d="M1323.9 239.8h1.6v1.6h-1.6z"/><path class="st6" d="M1327.8 239.8h1.6v1.6h-1.6zm7.7 0h1.6v1.6h-1.6zm3.9 0h1.6v1.6h-1.6zm3.9 0h1.6v1.6h-1.6zm3.8 0h1.6v1.6h-1.6zm3.9 0h1.6v1.6h-1.6z"/><path class="st4" d="M1331.6 250.4h1.6v1.6h-1.6z"/><path class="st6" d="M1316.2 250.4h1.6v1.6h-1.6zm3.8 0h1.6v1.6h-1.6zm3.9 0h1.6v1.6h-1.6z"/><path class="st4" d="M1327.8 250.4h1.6v1.6h-1.6z"/><path class="st6" d="M1335.5 250.4h1.6v1.6h-1.6zm3.9 0h1.6v1.6h-1.6zm3.9 0h1.6v1.6h-1.6zm3.8 0h1.6v1.6h-1.6zm3.9 0h1.6v1.6h-1.6z"/><path class="st4" d="M1331.6 244.8h1.6v1.6h-1.6z"/><path class="st6" d="M1316.2 244.8h1.6v1.6h-1.6zm3.8 0h1.6v1.6h-1.6zm3.9 0h1.6v1.6h-1.6zm3.9 0h1.6v1.6h-1.6zm7.7 0h1.6v1.6h-1.6zm3.9 0h1.6v1.6h-1.6zm3.9 0h1.6v1.6h-1.6zm3.8 0h1.6v1.6h-1.6zm3.9 0h1.6v1.6h-1.6zm-19.4 10.6h1.6v1.6h-1.6zm-15.4 0h1.6v1.6h-1.6zm3.8 0h1.6v1.6h-1.6zm3.9 0h1.6v1.6h-1.6zm3.9 0h1.6v1.6h-1.6zm7.7 0h1.6v1.6h-1.6zm3.9 0h1.6v1.6h-1.6zm3.9 0h1.6v1.6h-1.6zm3.8 0h1.6v1.6h-1.6zm3.9 0h1.6v1.6h-1.6zm-19.4 5.6h1.6v1.6h-1.6zm-15.4 0h1.6v1.6h-1.6zm3.8 0h1.6v1.6h-1.6zm3.9 0h1.6v1.6h-1.6zm3.9 0h1.6v1.6h-1.6zm7.7 0h1.6v1.6h-1.6zm3.9 0h1.6v1.6h-1.6zm3.9 0h1.6v1.6h-1.6zm3.8 0h1.6v1.6h-1.6zm3.9 0h1.6v1.6h-1.6zm-19.4 5.2h1.6v1.6h-1.6zm-15.4 0h1.6v1.6h-1.6zm3.8 0h1.6v1.6h-1.6zm3.9 0h1.6v1.6h-1.6zm3.9 0h1.6v1.6h-1.6zm7.7 0h1.6v1.6h-1.6zm3.9 0h1.6v1.6h-1.6z"/><path class="st4" d="M1343.3 266.2h1.6v1.6h-1.6zm3.8 0h1.6v1.6h-1.6z"/><path class="st6" d="M1351 266.2h1.6v1.6h-1.6zm-19.4 5.7h1.6v1.6h-1.6zm-15.4 0h1.6v1.6h-1.6zm3.8 0h1.6v1.6h-1.6zm3.9 0h1.6v1.6h-1.6zm3.9 0h1.6v1.6h-1.6zm7.7 0h1.6v1.6h-1.6zm3.9 0h1.6v1.6h-1.6z"/><path class="st4" d="M1343.3 271.9h1.6v1.6h-1.6z"/><path class="st6" d="M1347.1 271.9h1.6v1.6h-1.6zm3.9 0h1.6v1.6h-1.6zm-19.4 10.6h1.6v1.6h-1.6zm-15.4 0h1.6v1.6h-1.6zm3.8 0h1.6v1.6h-1.6z"/><path class="st4" d="M1323.9 282.5h1.6v1.6h-1.6z"/><path class="st6" d="M1327.8 282.5h1.6v1.6h-1.6zm7.7 0h1.6v1.6h-1.6zm3.9 0h1.6v1.6h-1.6zm3.9 0h1.6v1.6h-1.6zm3.8 0h1.6v1.6h-1.6zm3.9 0h1.6v1.6h-1.6zm-19.4-5.6h1.6v1.6h-1.6zm-15.4 0h1.6v1.6h-1.6zm3.8 0h1.6v1.6h-1.6zm3.9 0h1.6v1.6h-1.6zm3.9 0h1.6v1.6h-1.6zm7.7 0h1.6v1.6h-1.6zm3.9 0h1.6v1.6h-1.6zm3.9 0h1.6v1.6h-1.6zm3.8 0h1.6v1.6h-1.6zm3.9 0h1.6v1.6h-1.6zm-19.4 10.6h1.6v1.6h-1.6zm-15.4 0h1.6v1.6h-1.6z"/><path class="st4" d="M1320 287.5h1.6v1.6h-1.6z"/><path class="st6" d="M1323.9 287.5h1.6v1.6h-1.6zm3.9 0h1.6v1.6h-1.6zm7.7 0h1.6v1.6h-1.6zm3.9 0h1.6v1.6h-1.6zm3.9 0h1.6v1.6h-1.6z"/><path class="st4" d="M1347.1 287.5h1.6v1.6h-1.6zm3.9 0h1.6v1.6h-1.6z"/><path class="st6" d="M1331.6 293.1h1.6v1.6h-1.6zm-15.4 0h1.6v1.6h-1.6zm3.8 0h1.6v1.6h-1.6zm3.9 0h1.6v1.6h-1.6zm3.9 0h1.6v1.6h-1.6zm7.7 0h1.6v1.6h-1.6zm3.9 0h1.6v1.6h-1.6zm3.9 0h1.6v1.6h-1.6zm3.8 0h1.6v1.6h-1.6zm3.9 0h1.6v1.6h-1.6zm-19.4 5.2h1.6v1.6h-1.6zm-15.4 0h1.6v1.6h-1.6zm3.8 0h1.6v1.6h-1.6zm3.9 0h1.6v1.6h-1.6zm3.9 0h1.6v1.6h-1.6zm7.7 0h1.6v1.6h-1.6zm3.9 0h1.6v1.6h-1.6zm3.9 0h1.6v1.6h-1.6zm3.8 0h1.6v1.6h-1.6zm3.9 0h1.6v1.6h-1.6zm-19.4 5.7h1.6v1.6h-1.6zm-15.4 0h1.6v1.6h-1.6zm3.8 0h1.6v1.6h-1.6zm3.9 0h1.6v1.6h-1.6zm3.9 0h1.6v1.6h-1.6zm7.7 0h1.6v1.6h-1.6z"/><path class="st4" d="M1339.4 304h1.6v1.6h-1.6zm3.9 0h1.6v1.6h-1.6zm3.8 0h1.6v1.6h-1.6z"/><path class="st6" d="M1351 304h1.6v1.6h-1.6zm-19.4 10.6h1.6v1.6h-1.6zm-15.4 0h1.6v1.6h-1.6zm3.8 0h1.6v1.6h-1.6zm3.9 0h1.6v1.6h-1.6zm3.9 0h1.6v1.6h-1.6zm7.7 0h1.6v1.6h-1.6z"/><path class="st4" d="M1339.4 314.6h1.6v1.6h-1.6zm3.9 0h1.6v1.6h-1.6z"/><path class="st6" d="M1347.1 314.6h1.6v1.6h-1.6zm3.9 0h1.6v1.6h-1.6zm-19.4-5.6h1.6v1.6h-1.6zm-15.4 0h1.6v1.6h-1.6zm3.8 0h1.6v1.6h-1.6zm3.9 0h1.6v1.6h-1.6zm3.9 0h1.6v1.6h-1.6zm7.7 0h1.6v1.6h-1.6z"/><path class="st4" d="M1339.4 309h1.6v1.6h-1.6z"/><path class="st6" d="M1343.3 309h1.6v1.6h-1.6z"/><path class="st4" d="M1347.1 309h1.6v1.6h-1.6z"/><path class="st6" d="M1351 309h1.6v1.6h-1.6zm-19.4 10.6h1.6v1.6h-1.6zm-15.4 0h1.6v1.6h-1.6zm3.8 0h1.6v1.6h-1.6z"/><path class="st4" d="M1323.9 319.6h1.6v1.6h-1.6z"/><path class="st6" d="M1327.8 319.6h1.6v1.6h-1.6zm7.7 0h1.6v1.6h-1.6z"/><path class="st4" d="M1339.4 319.6h1.6v1.6h-1.6z"/><path class="st6" d="M1343.3 319.6h1.6v1.6h-1.6zm3.8 0h1.6v1.6h-1.6zm3.9 0h1.6v1.6h-1.6zm-19.4 5.6h1.6v1.6h-1.6zm-15.4 0h1.6v1.6h-1.6zm3.8 0h1.6v1.6h-1.6zm3.9 0h1.6v1.6h-1.6zm3.9 0h1.6v1.6h-1.6zm7.7 0h1.6v1.6h-1.6zm3.9 0h1.6v1.6h-1.6zm3.9 0h1.6v1.6h-1.6zm3.8 0h1.6v1.6h-1.6zm3.9 0h1.6v1.6h-1.6z"/><path class="st4" d="M1331.6 330.4h1.6v1.6h-1.6z"/><path class="st6" d="M1316.2 330.4h1.6v1.6h-1.6zm3.8 0h1.6v1.6h-1.6zm3.9 0h1.6v1.6h-1.6zm3.9 0h1.6v1.6h-1.6zm7.7 0h1.6v1.6h-1.6zm3.9 0h1.6v1.6h-1.6zm3.9 0h1.6v1.6h-1.6zm3.8 0h1.6v1.6h-1.6z"/><path class="st4" d="M1351 330.4h1.6v1.6h-1.6z"/><path class="st6" d="M1331.6 336h1.6v1.6h-1.6zm-15.4 0h1.6v1.6h-1.6zm3.8 0h1.6v1.6h-1.6zm3.9 0h1.6v1.6h-1.6zm3.9 0h1.6v1.6h-1.6z"/><path class="st4" d="M1335.5 336h1.6v1.6h-1.6z"/><path class="st6" d="M1339.4 336h1.6v1.6h-1.6zm3.9 0h1.6v1.6h-1.6z"/><path class="st4" d="M1347.1 336h1.6v1.6h-1.6z"/><path class="st6" d="M1351 336h1.6v1.6h-1.6z"/><path class="st4" d="M1331.6 346.6h1.6v1.6h-1.6z"/><path class="st6" d="M1316.2 346.6h1.6v1.6h-1.6zm3.8 0h1.6v1.6h-1.6zm3.9 0h1.6v1.6h-1.6zm3.9 0h1.6v1.6h-1.6zm7.7 0h1.6v1.6h-1.6zm3.9 0h1.6v1.6h-1.6zm3.9 0h1.6v1.6h-1.6zm3.8 0h1.6v1.6h-1.6zm3.9 0h1.6v1.6h-1.6zm-19.4-5.6h1.6v1.6h-1.6zm-15.4 0h1.6v1.6h-1.6z"/><path class="st4" d="M1320 341h1.6v1.6h-1.6zm3.9 0h1.6v1.6h-1.6z"/><path class="st6" d="M1327.8 341h1.6v1.6h-1.6z"/><path class="st4" d="M1335.5 341h1.6v1.6h-1.6z"/><path class="st6" d="M1339.4 341h1.6v1.6h-1.6zm3.9 0h1.6v1.6h-1.6zm3.8 0h1.6v1.6h-1.6zm3.9 0h1.6v1.6h-1.6zm-19.4 10.7h1.6v1.6h-1.6zm-15.4 0h1.6v1.6h-1.6zm3.8 0h1.6v1.6h-1.6zm3.9 0h1.6v1.6h-1.6zm3.9 0h1.6v1.6h-1.6z"/><path class="st4" d="M1335.5 351.7h1.6v1.6h-1.6zm3.9 0h1.6v1.6h-1.6z"/><path class="st6" d="M1343.3 351.7h1.6v1.6h-1.6zm3.8 0h1.6v1.6h-1.6zm3.9 0h1.6v1.6h-1.6zm-19.4 5.6h1.6v1.6h-1.6zm-15.4 0h1.6v1.6h-1.6zm3.8 0h1.6v1.6h-1.6zm3.9 0h1.6v1.6h-1.6zm3.9 0h1.6v1.6h-1.6z"/><path class="st4" d="M1335.5 357.3h1.6v1.6h-1.6zm3.9 0h1.6v1.6h-1.6z"/><path class="st6" d="M1343.3 357.3h1.6v1.6h-1.6zm3.8 0h1.6v1.6h-1.6zm3.9 0h1.6v1.6h-1.6z"/><path class="st4" d="M1331.6 362.5h1.6v1.6h-1.6z"/><path class="st6" d="M1316.2 362.5h1.6v1.6h-1.6zm3.8 0h1.6v1.6h-1.6zm3.9 0h1.6v1.6h-1.6zm3.9 0h1.6v1.6h-1.6zm7.7 0h1.6v1.6h-1.6zm3.9 0h1.6v1.6h-1.6zm3.9 0h1.6v1.6h-1.6zm3.8 0h1.6v1.6h-1.6zm3.9 0h1.6v1.6h-1.6zm-19.4 5.6h1.6v1.6h-1.6zm-15.4 0h1.6v1.6h-1.6zm3.8 0h1.6v1.6h-1.6zm3.9 0h1.6v1.6h-1.6z"/><path class="st4" d="M1327.8 368.1h1.6v1.6h-1.6z"/><path class="st6" d="M1335.5 368.1h1.6v1.6h-1.6zm3.9 0h1.6v1.6h-1.6z"/><path class="st4" d="M1343.3 368.1h1.6v1.6h-1.6zm3.8 0h1.6v1.6h-1.6z"/><path class="st6" d="M1351 368.1h1.6v1.6h-1.6zm-19.4 10.6h1.6v1.6h-1.6zm-15.4 0h1.6v1.6h-1.6zm3.8 0h1.6v1.6h-1.6zm3.9 0h1.6v1.6h-1.6zm3.9 0h1.6v1.6h-1.6zm7.7 0h1.6v1.6h-1.6zm3.9 0h1.6v1.6h-1.6zm3.9 0h1.6v1.6h-1.6zm3.8 0h1.6v1.6h-1.6zm3.9 0h1.6v1.6h-1.6zm-19.4-5.6h1.6v1.6h-1.6zm-15.4 0h1.6v1.6h-1.6zm3.8 0h1.6v1.6h-1.6zm3.9 0h1.6v1.6h-1.6zm3.9 0h1.6v1.6h-1.6zm7.7 0h1.6v1.6h-1.6zm3.9 0h1.6v1.6h-1.6zm3.9 0h1.6v1.6h-1.6zm3.8 0h1.6v1.6h-1.6zm3.9 0h1.6v1.6h-1.6zm-19.4 10.6h1.6v1.6h-1.6zm-15.4 0h1.6v1.6h-1.6zm3.8 0h1.6v1.6h-1.6zm3.9 0h1.6v1.6h-1.6zm3.9 0h1.6v1.6h-1.6zm7.7 0h1.6v1.6h-1.6zm3.9 0h1.6v1.6h-1.6zm3.9 0h1.6v1.6h-1.6zm3.8 0h1.6v1.6h-1.6zm3.9 0h1.6v1.6h-1.6zm-19.4 5.6h1.6v1.6h-1.6zm-15.4 0h1.6v1.6h-1.6zm3.8 0h1.6v1.6h-1.6zm3.9 0h1.6v1.6h-1.6zm3.9 0h1.6v1.6h-1.6zm7.7 0h1.6v1.6h-1.6zm3.9 0h1.6v1.6h-1.6zm3.9 0h1.6v1.6h-1.6zm3.8 0h1.6v1.6h-1.6zm3.9 0h1.6v1.6h-1.6zm-19.4 5.2h1.6v1.6h-1.6zm-15.4 0h1.6v1.6h-1.6zm3.8 0h1.6v1.6h-1.6zm3.9 0h1.6v1.6h-1.6zm3.9 0h1.6v1.6h-1.6zm7.7 0h1.6v1.6h-1.6zm3.9 0h1.6v1.6h-1.6zm3.9 0h1.6v1.6h-1.6zm3.8 0h1.6v1.6h-1.6zm3.9 0h1.6v1.6h-1.6zm-19.4 5.7h1.6v1.6h-1.6zm-15.4 0h1.6v1.6h-1.6zm3.8 0h1.6v1.6h-1.6zm3.9 0h1.6v1.6h-1.6zm3.9 0h1.6v1.6h-1.6zm7.7 0h1.6v1.6h-1.6zm3.9 0h1.6v1.6h-1.6zm3.9 0h1.6v1.6h-1.6zm3.8 0h1.6v1.6h-1.6zm3.9 0h1.6v1.6h-1.6zm-19.4 10.6h1.6v1.6h-1.6zm-15.4 0h1.6v1.6h-1.6zm3.8 0h1.6v1.6h-1.6zm3.9 0h1.6v1.6h-1.6zm3.9 0h1.6v1.6h-1.6zm7.7 0h1.6v1.6h-1.6zm3.9 0h1.6v1.6h-1.6z"/><path class="st4" d="M1343.3 410.8h1.6v1.6h-1.6z"/><path class="st6" d="M1347.1 410.8h1.6v1.6h-1.6zm3.9 0h1.6v1.6h-1.6zm-19.4-5.6h1.6v1.6h-1.6zm-15.4 0h1.6v1.6h-1.6zm3.8 0h1.6v1.6h-1.6zm3.9 0h1.6v1.6h-1.6zm3.9 0h1.6v1.6h-1.6zm7.7 0h1.6v1.6h-1.6zm3.9 0h1.6v1.6h-1.6zm3.9 0h1.6v1.6h-1.6zm3.8 0h1.6v1.6h-1.6zm3.9 0h1.6v1.6h-1.6z"/><path class="st4" d="M1331.6 415.8h1.6v1.6h-1.6z"/><path class="st6" d="M1316.2 415.8h1.6v1.6h-1.6zm3.8 0h1.6v1.6h-1.6zm3.9 0h1.6v1.6h-1.6zm3.9 0h1.6v1.6h-1.6z"/><path class="st4" d="M1335.5 415.8h1.6v1.6h-1.6z"/><path class="st6" d="M1339.4 415.8h1.6v1.6h-1.6zm3.9 0h1.6v1.6h-1.6z"/><path class="st4" d="M1347.1 415.8h1.6v1.6h-1.6z"/><path class="st6" d="M1351 415.8h1.6v1.6h-1.6zm-19.4 5.6h1.6v1.6h-1.6zm-15.4 0h1.6v1.6h-1.6zm3.8 0h1.6v1.6h-1.6zm3.9 0h1.6v1.6h-1.6zm3.9 0h1.6v1.6h-1.6z"/><path class="st4" d="M1335.5 421.4h1.6v1.6h-1.6z"/><path class="st6" d="M1339.4 421.4h1.6v1.6h-1.6zm3.9 0h1.6v1.6h-1.6zm3.8 0h1.6v1.6h-1.6zm3.9 0h1.6v1.6h-1.6zm-19.4 5.2h1.6v1.6h-1.6zm-15.4 0h1.6v1.6h-1.6zm3.8 0h1.6v1.6h-1.6zm3.9 0h1.6v1.6h-1.6zm3.9 0h1.6v1.6h-1.6zm7.7 0h1.6v1.6h-1.6zm3.9 0h1.6v1.6h-1.6zm3.9 0h1.6v1.6h-1.6z"/><path class="st4" d="M1347.1 426.6h1.6v1.6h-1.6z"/><path class="st6" d="M1351 426.6h1.6v1.6h-1.6zm-19.4 5.7h1.6v1.6h-1.6zm-15.4 0h1.6v1.6h-1.6zm3.8 0h1.6v1.6h-1.6zm3.9 0h1.6v1.6h-1.6zm3.9 0h1.6v1.6h-1.6zm7.7 0h1.6v1.6h-1.6zm3.9 0h1.6v1.6h-1.6z"/><path class="st4" d="M1343.3 432.3h1.6v1.6h-1.6z"/><path class="st6" d="M1347.1 432.3h1.6v1.6h-1.6zm3.9 0h1.6v1.6h-1.6zm-320.9-239.5l-28.1-3.1v-3.4l-11.7-.9-4.4.4v-1.1l-4.2-.4-3.9.7-7.9-.5-5.6.2-2.6.8-2-1-5.3-.3c-2.7.3-5.3.4-8 .3v4.7h-1.5l6.5 101 .3 142.2-2.1 29.2 81-1.8-.5-267z"/><path class="st7" d="M941.1 184.6l6.7-.7v12.6l11.7-1.3v11.6l10.2-.9v252.2l-36.3 1.1 4.1-270.9z"/><path class="st12" d="M932.4 203l25.7-1.9v-2.4l-25.7 1.9zm0 4.9l25.7-1.9v-2.4l-25.7 1.9zm0 6l33.4-1.9v-2.4l-33.4 1.9zm0 4.5l33.4-1.9v-2.4l-33.4 1.9zm0 4.4l33.4-1.9v-2.4l-33.4 1.9zm0 4.5l33.4-1.9V223l-33.4 1.9zm0 4.4l33.4-1.9v-2.3l-33.4 1.9zm0 4.5l33.4-1.9v-2.4l-33.4 1.9zm0 4.4l33.4-1.9v-2.3l-33.4 1.9zm0 4.5l33.4-1.9v-2.4l-33.4 1.9zm0 4.5l33.4-2v-2.3l-33.4 1.9zm0 4.4l33.4-1.9v-2.4l-33.4 1.9zm0 4.5l33.4-1.9v-2.4l-33.4 1.9zm0 4.4l33.4-1.9v-2.4l-33.4 1.9zm0 4.5l33.4-1.9v-2.4l-33.4 1.9zm0 4.4l33.4-1.9v-2.3l-33.4 1.9zm0 4.5l33.4-1.9V272l-33.4 1.9zm0 4.4l33.4-1.9v-2.3l-33.4 1.9zm0 4.5l33.4-1.9v-2.4l-33.4 1.9zm0 4.5l33.4-2v-2.3l-33.4 1.9zm0 4.4l33.4-1.9v-2.4l-33.4 1.9zm0 4.5l33.4-1.9v-2.4l-33.4 1.9zm0 4.4l33.4-1.9v-2.4l-33.4 2zm0 4.5l33.4-1.9v-2.4l-33.4 1.9zm0 4.4l33.4-1.9v-2.3l-33.4 1.9zm0 4.5l33.4-1.9v-2.4l-33.4 1.9zm0 4.5l33.4-2v-2.3l-33.4 1.9zm0 4.4l33.4-1.9V321l-33.4 1.9zm0 4.5l33.4-1.9v-2.4l-33.4 1.9zm0 4.4l33.4-1.9v-2.4l-33.4 1.9zm0 4.5l33.4-1.9v-2.4l-33.4 1.9zm0 4.4l33.4-1.9v-2.4l-33.4 2zm0 4.5l33.4-1.9v-2.4l-33.4 1.9zm0 4.4l33.4-1.9v-2.3l-33.4 1.9zm0 4.5l33.4-1.9v-2.4l-33.4 1.9zm0 4.5l33.4-2v-2.3l-33.4 1.9zm0 4.4l33.4-1.9v-2.4l-33.4 1.9zm0 4.5l33.4-1.9v-2.4l-33.4 1.9zm0 4.4l33.4-1.9V370l-33.4 2zm0 4.5l33.4-1.9v-2.4l-33.4 1.9zm0 4.4l33.4-1.9V379l-33.4 1.9zm0 4.5l33.4-1.9v-2.4l-33.4 1.9zm0 4.4l33.4-1.9v-2.3l-33.4 1.9zm0 4.5l33.4-1.9v-2.4l-33.4 1.9zm0 4.5l33.4-1.9v-2.4l-33.4 1.9zm0 4.4l33.4-1.9v-2.4l-33.4 1.9zm0 4.5l33.4-1.9v-2.4l-33.4 1.9zm0 4.4l33.4-1.9v-2.4l-33.4 2zm0 4.5l33.4-1.9v-2.4l-33.4 1.9zm0 4.4l33.4-1.9v-2.3l-33.4 1.9zm0 4.5l33.4-1.9v-2.4l-33.4 1.9z"/><path class="st7" d="M1027 215.6l-42.5-3.6v-2.4l42.5 3.7zm-34-12v2.3l34 2.9v-2.3zm0-4.8v2.3l34 2.9v-2.3zm34 21.3l-42.5-3.6v-2.4l42.5 3.6zm0 4.4l-42.5-3.6v-2.4l42.5 3.7zm0 4.5l-42.5-3.6V223l42.5 3.6zm0 4.4l-42.5-3.6v-2.3l42.5 3.6zm0 4.5l-42.5-3.6v-2.4l42.5 3.6zm0 4.5l-42.5-3.7v-2.3l42.5 3.6z"/><path class="st12" d="M1027 246.8l-42.5-3.6v-2.4l42.5 3.6z"/><path class="st7" d="M1027 251.3l-42.5-3.7v-2.3l42.5 3.6zm0 4.4l-42.5-3.6v-2.4l42.5 3.7zm0 4.5l-42.5-3.6v-2.4l42.5 3.6zm0 4.4l-42.5-3.6v-2.4l42.5 3.7zm0 4.5l-42.5-3.6v-2.4l42.5 3.6zm0 4.5l-42.5-3.7v-2.3l42.5 3.6zm0 4.4l-42.5-3.6V272l42.5 3.6zm0 4.5l-42.5-3.7v-2.3l42.5 3.6z"/><path class="st12" d="M1027 286.9l-42.5-3.6v-2.4l42.5 3.6z"/><path class="st7" d="M1027 291.4l-42.5-3.7v-2.3l42.5 3.6zm0 4.4l-42.5-3.6v-2.4l42.5 3.7zm0 4.5l-42.5-3.6v-2.4l42.5 3.6zm0 4.4l-42.5-3.6v-2.4l42.5 3.7z"/><path class="st12" d="M1027 309.2l-42.5-3.6v-2.4l42.5 3.6z"/><path class="st7" d="M1027 313.7l-42.5-3.7v-2.3l42.5 3.6z"/><path class="st12" d="M1027 318.1l-42.5-3.6v-2.4l42.5 3.6z"/><path class="st7" d="M1027 322.6l-42.5-3.7v-2.3l42.5 3.6zm0 4.4l-42.5-3.6V321l42.5 3.7zm0 4.5l-42.5-3.6v-2.4l42.5 3.6zm0 4.4l-42.5-3.6v-2.4l42.5 3.7zm0 4.5l-42.5-3.6v-2.4l42.5 3.6zm0 4.5l-42.5-3.7v-2.4l42.5 3.7zm0 4.4l-42.5-3.6v-2.4l42.5 3.6z"/><path class="st12" d="M1027 353.8l-42.5-3.7v-2.3l42.5 3.6z"/><path class="st7" d="M1027 358.2l-42.5-3.6v-2.4l42.5 3.6zm0 4.5l-42.5-3.7v-2.3l42.5 3.6z"/><path class="st12" d="M1027 367.1l-42.5-3.6v-2.4l42.5 3.7z"/><path class="st7" d="M1027 371.6l-42.5-3.6v-2.4l42.5 3.6zm0 4.4l-42.5-3.6V370l42.5 3.7zm0 4.5l-42.5-3.6v-2.4l42.5 3.6zm0 4.5l-42.5-3.7V379l42.5 3.6zm0 4.4l-42.5-3.6v-2.4l42.5 3.6z"/><path class="st12" d="M1027 393.9l-42.5-3.7v-2.3l42.5 3.6z"/><path class="st7" d="M1027 398.3l-42.5-3.6v-2.4l42.5 3.7zm0 4.5l-42.5-3.6v-2.4l42.5 3.6zm0 4.4l-42.5-3.6v-2.4l42.5 3.7zm0 4.5l-42.5-3.6v-2.4l42.5 3.6zm0 4.4l-42.5-3.6v-2.4l42.5 3.7zm0 4.5l-42.5-3.6v-2.4l42.5 3.6zm0 4.5l-42.5-3.7v-2.3l42.5 3.6zm0 4.4l-42.5-3.6v-2.4l42.5 3.6zm-54.3-223.7v252.8h2.9V205.2zm8.5-.5v250.4l-1.6 1.7-.7-251.4zm-7 0v-10.2l-3 .4-.1 10.2s3.1-.3 3.1-.4zm-7 0v-10.2l-3.1.4v10.2s3.1-.3 3.1-.4zm-12-10.2v-10.3l-3 .4-.1 10.2c0 .1 3.1-.2 3.1-.3zm7 0v-10.3l-2.8.4-.2 10.2c0 .1 3-.2 3-.3zm9 0v-10.3l-2.9.4-.1 10.2c0 .1 3-.2 3-.3zm9 0v-10.3l-3 .4-.1 10.2c.1.1 3.1-.2 3.1-.3zm7 0v-10.3l-2.9.4-.1 10.2c0 .1 3-.2 3-.3zm8 0v-10.3l-2.5.4-.3 10.2c0 .1 2.8-.2 2.8-.3z"/><path class="st7" d="M981.2 205.3v-10.2l-2.8.4-.2 10.2s3-.3 3-.4zm7 0v-10.2l-2.7.4-.3 10.2c.1 0 3-.3 3-.4z"/><path class="st4" d="M885.5 78.2v-2.9s16.7-4.9 41 6.8c-6.7 1.5-5.9 3.3-5.9 3.3L886.2 81l-.7-2.8z"/><path class="st4" d="M848.9 202.7v-120c11.9-2.1 23.9-3.2 36-3.4 17.6 0 26.7.5 37.4 2.9s20.3 4.9 20.3 4.9v380.6l-93.8 1v-266z"/><path class="st5" d="M941.9 92.5c-.2-.1-20.4-6.4-41.3-7.6-22.3-1.3-51.3 2.8-51.5 2.8l-.2-1.4c.3 0 29.4-4.1 51.8-2.8 21.1 1.2 41.5 7.6 41.7 7.6l-.5 1.4z"/><path class="st5" d="M941.9 97c-.2-.1-20.4-6.4-41.3-7.6-22.3-1.3-51.3 2.8-51.5 2.8l-.2-1.4c.3 0 29.4-4.1 51.8-2.8 21.1 1.2 41.5 7.6 41.7 7.6l-.5 1.4z"/><path class="st5" d="M941.9 101.3c-.2-.1-20.4-6.4-41.3-7.6-22.3-1.3-51.3 2.8-51.5 2.8l-.2-1.4c.3 0 29.4-4.1 51.8-2.8 21.1 1.2 41.5 7.6 41.7 7.6l-.5 1.4z"/><path class="st5" d="M941.9 105.7c-.2-.1-20.4-6.3-41.3-7.6-22.3-1.3-51.3 2.8-51.5 2.8l-.2-1.4c.3 0 29.4-4.1 51.8-2.8 21.1 1.2 41.5 7.6 41.7 7.6l-.5 1.4z"/><path class="st5" d="M941.9 110.1c-.2-.1-20.4-6.4-41.3-7.6-22.3-1.3-51.3 2.8-51.5 2.8l-.2-1.4c.3 0 29.4-4.1 51.8-2.8 21.1 1.2 41.5 7.6 41.7 7.6l-.5 1.4z"/><path class="st5" d="M941.9 114.5c-.2-.1-20.4-6.4-41.3-7.6-22.3-1.3-51.3 2.8-51.5 2.8l-.2-1.4c.3 0 29.4-4.1 51.8-2.8 21.1 1.2 41.5 7.6 41.7 7.6l-.5 1.4z"/><path class="st5" d="M941.9 118.9c-.2-.1-20.4-6.4-41.3-7.6-22.3-1.3-51.3 2.8-51.5 2.8l-.2-1.4c.3 0 29.4-4.1 51.8-2.8 21.1 1.2 41.5 7.6 41.7 7.6l-.5 1.4z"/><path class="st5" d="M941.9 123.3c-.2-.1-20.4-6.4-41.3-7.6-22.3-1.3-51.3 2.8-51.5 2.8l-.2-1.4c.3 0 29.4-4.1 51.8-2.8 21.1 1.2 41.5 7.6 41.7 7.6l-.5 1.4z"/><path class="st5" d="M941.9 127.6c-.2-.1-20.4-6.4-41.3-7.6-22.3-1.3-51.3 2.8-51.5 2.8l-.2-1.4c.3 0 29.4-4.1 51.8-2.8 21.1 1.2 41.5 7.6 41.7 7.6l-.5 1.4z"/><path class="st5" d="M941.9 132c-.2-.1-20.4-6.4-41.3-7.6-22.3-1.3-51.3 2.8-51.5 2.8l-.2-1.4c.3 0 29.4-4.1 51.8-2.8 21.1 1.2 41.5 7.6 41.7 7.6l-.5 1.4z"/><path class="st5" d="M941.9 136.4c-.2-.1-20.4-6.4-41.3-7.6-22.3-1.3-51.3 2.8-51.5 2.8l-.2-1.4c.3 0 29.4-4.1 51.8-2.8 21.1 1.2 41.5 7.6 41.7 7.6l-.5 1.4z"/><path class="st5" d="M941.9 140.8c-.2-.1-20.4-6.4-41.3-7.6-22.3-1.3-51.3 2.8-51.5 2.8l-.2-1.4c.3 0 29.4-4.1 51.8-2.8 21.1 1.2 41.5 7.6 41.7 7.6l-.5 1.4z"/><path class="st5" d="M941.9 145.2c-.2-.1-20.4-6.4-41.3-7.6-22.3-1.3-51.3 2.8-51.5 2.8l-.2-1.4c.3 0 29.4-4.1 51.8-2.8 21.1 1.2 41.5 7.6 41.7 7.6l-.5 1.4z"/><path class="st5" d="M941.9 149.6c-.2-.1-20.4-6.4-41.3-7.6-22.3-1.3-51.3 2.8-51.5 2.8l-.2-1.4c.3 0 29.4-4.1 51.8-2.8 21.1 1.2 41.5 7.6 41.7 7.6l-.5 1.4z"/><path class="st5" d="M941.9 154c-.2-.1-20.4-6.3-41.3-7.6-22.3-1.3-51.3 2.8-51.5 2.8l-.2-1.4c.3 0 29.4-4.1 51.8-2.8 21.1 1.2 41.5 7.6 41.7 7.6l-.5 1.4z"/><path class="st5" d="M941.9 158.4c-.2-.1-20.4-6.4-41.3-7.6-22.3-1.3-51.3 2.8-51.5 2.8l-.2-1.4c.3 0 29.4-4.1 51.8-2.8 21.1 1.2 41.5 7.6 41.7 7.6l-.5 1.4z"/><path class="st5" d="M941.9 162.8c-.2-.1-20.4-6.4-41.3-7.6-22.3-1.3-51.3 2.8-51.5 2.8l-.2-1.4c.3 0 29.4-4.1 51.8-2.8 21.1 1.2 41.5 7.6 41.7 7.6l-.5 1.4z"/><path class="st5" d="M941.9 167.2c-.2-.1-20.4-6.3-41.3-7.6-22.3-1.3-51.3 2.8-51.5 2.8l-.2-1.4c.3 0 29.4-4.1 51.8-2.8 21.1 1.2 41.5 7.6 41.7 7.6l-.5 1.4z"/><path class="st5" d="M941.9 171.6c-.2-.1-20.4-6.4-41.3-7.6-22.3-1.3-51.3 2.8-51.5 2.8l-.2-1.4c.3 0 29.4-4.1 51.8-2.8 21.1 1.2 41.5 7.6 41.7 7.6l-.5 1.4z"/><path class="st5" d="M941.9 175.9c-.2-.1-20.4-6.4-41.3-7.6-22.3-1.3-51.3 2.8-51.5 2.8l-.2-1.4c.3 0 29.4-4.1 51.8-2.8 21.1 1.2 41.5 7.6 41.7 7.6l-.5 1.4z"/><path class="st5" d="M941.9 180.4c-.2-.1-20.4-6.4-41.3-7.6-22.3-1.3-51.3 2.8-51.5 2.8l-.2-1.4c.3 0 29.4-4.1 51.8-2.8 21.1 1.2 41.5 7.6 41.7 7.6l-.5 1.4z"/><path class="st5" d="M941.9 184.7c-.2-.1-20.4-6.4-41.3-7.6-22.3-1.3-51.3 2.8-51.5 2.8l-.2-1.4c.3 0 29.4-4.1 51.8-2.8 21.1 1.2 41.5 7.6 41.7 7.6l-.5 1.4z"/><path class="st5" d="M941.9 189.1c-.2-.1-20.4-6.4-41.3-7.6-22.3-1.3-51.3 2.8-51.5 2.8l-.2-1.4c.3 0 29.4-4.1 51.8-2.8 21.1 1.2 41.5 7.6 41.7 7.6l-.5 1.4z"/><path class="st5" d="M941.9 193.5c-.2-.1-20.4-6.4-41.3-7.6-22.3-1.3-51.3 2.8-51.5 2.8l-.2-1.4c.3 0 29.4-4.1 51.8-2.8 21.1 1.2 41.5 7.6 41.7 7.6l-.5 1.4z"/><path class="st5" d="M941.9 197.9c-.2-.1-20.4-6.4-41.3-7.6-22.3-1.3-51.3 2.8-51.5 2.8l-.2-1.4c.3 0 29.4-4.1 51.8-2.8 21.1 1.2 41.5 7.6 41.7 7.6l-.5 1.4z"/><path class="st5" d="M941.9 202.3c-.2-.1-20.4-6.3-41.3-7.6-22.3-1.3-51.3 2.8-51.5 2.8l-.2-1.4c.3 0 29.4-4.1 51.8-2.8 21.1 1.2 41.5 7.6 41.7 7.6l-.5 1.4z"/><path class="st5" d="M941.9 206.7c-.2-.1-20.4-6.4-41.3-7.6-22.3-1.3-51.3 2.8-51.5 2.8l-.2-1.4c.3 0 29.4-4.1 51.8-2.8 21.1 1.2 41.5 7.6 41.7 7.6l-.5 1.4z"/><path class="st5" d="M941.9 211.1c-.2-.1-20.4-6.4-41.3-7.6-22.3-1.3-51.3 2.8-51.5 2.8l-.2-1.4c.3 0 29.4-4.1 51.8-2.8 21.1 1.2 41.5 7.6 41.7 7.6l-.5 1.4z"/><path class="st5" d="M941.9 215.5c-.2-.1-20.4-6.3-41.3-7.6-22.3-1.3-51.3 2.8-51.5 2.8l-.2-1.4c.3 0 29.4-4.1 51.8-2.8 21.1 1.2 41.5 7.6 41.7 7.6l-.5 1.4z"/><path class="st5" d="M941.9 219.9c-.2-.1-20.4-6.4-41.3-7.6-22.3-1.3-51.3 2.8-51.5 2.8l-.2-1.4c.3 0 29.4-4.1 51.8-2.8 21.1 1.2 41.5 7.6 41.7 7.6l-.5 1.4z"/><path class="st5" d="M941.9 224.3c-.2-.1-20.4-6.4-41.3-7.6-22.3-1.3-51.3 2.8-51.5 2.8l-.2-1.4c.3 0 29.4-4.1 51.8-2.8 21.1 1.2 41.5 7.6 41.7 7.6l-.5 1.4z"/><path class="st5" d="M941.9 228.7c-.2-.1-20.4-6.4-41.3-7.6-22.3-1.3-51.3 2.8-51.5 2.8l-.2-1.4c.3 0 29.4-4.1 51.8-2.8 21.1 1.2 41.5 7.6 41.7 7.6l-.5 1.4z"/><path class="st5" d="M941.9 233.1c-.2-.1-20.4-6.4-41.3-7.6-22.3-1.3-51.3 2.8-51.5 2.8l-.2-1.4c.3 0 29.4-4.1 51.8-2.8 21.1 1.2 41.5 7.6 41.7 7.6l-.5 1.4z"/><path class="st5" d="M941.9 237.4c-.2-.1-20.4-6.4-41.3-7.6-22.3-1.3-51.3 2.8-51.5 2.8l-.2-1.4c.3 0 29.4-4.1 51.8-2.8 21.1 1.2 41.5 7.6 41.7 7.6l-.5 1.4z"/><path class="st5" d="M941.9 241.8c-.2-.1-20.4-6.4-41.3-7.6-22.3-1.3-51.3 2.8-51.5 2.8l-.2-1.4c.3 0 29.4-4.1 51.8-2.8 21.1 1.2 41.5 7.6 41.7 7.6l-.5 1.4z"/><path class="st5" d="M941.9 246.2c-.2-.1-20.4-6.4-41.3-7.6-22.3-1.3-51.3 2.8-51.5 2.8l-.2-1.4c.3 0 29.4-4.1 51.8-2.8 21.1 1.2 41.5 7.6 41.7 7.6l-.5 1.4z"/><path class="st5" d="M941.9 250.6c-.2-.1-20.4-6.3-41.3-7.6-22.3-1.3-51.3 2.8-51.5 2.8l-.2-1.4c.3 0 29.4-4.1 51.8-2.8 21.1 1.2 41.5 7.6 41.7 7.6l-.5 1.4z"/><path class="st5" d="M941.9 255c-.2-.1-20.4-6.4-41.3-7.6-22.3-1.3-51.3 2.8-51.5 2.8l-.2-1.4c.3 0 29.4-4.1 51.8-2.8 21.1 1.2 41.5 7.6 41.7 7.6l-.5 1.4z"/><path class="st5" d="M941.9 259.4c-.2-.1-20.4-6.4-41.3-7.6-22.3-1.3-51.3 2.8-51.5 2.8l-.2-1.4c.3 0 29.4-4.1 51.8-2.8 21.1 1.2 41.5 7.6 41.7 7.6l-.5 1.4z"/><path class="st5" d="M941.9 263.8c-.2-.1-20.4-6.4-41.3-7.6-22.3-1.3-51.3 2.8-51.5 2.8l-.2-1.4c.3 0 29.4-4.1 51.8-2.8 21.1 1.2 41.5 7.6 41.7 7.6l-.5 1.4z"/><path class="st5" d="M941.9 268.2c-.2-.1-20.4-6.4-41.3-7.6-22.3-1.3-51.3 2.8-51.5 2.8l-.2-1.4c.3 0 29.4-4.1 51.8-2.8 21.1 1.2 41.5 7.6 41.7 7.6l-.5 1.4z"/><path class="st5" d="M941.9 272.6c-.2-.1-20.4-6.4-41.3-7.6-22.3-1.3-51.3 2.8-51.5 2.8l-.2-1.4c.3 0 29.4-4.1 51.8-2.8 21.1 1.2 41.5 7.6 41.7 7.6l-.5 1.4z"/><path class="st5" d="M941.9 277c-.2-.1-20.4-6.3-41.3-7.6-22.3-1.3-51.3 2.8-51.5 2.8l-.2-1.4c.3 0 29.4-4.1 51.8-2.8 21.1 1.2 41.5 7.6 41.7 7.6l-.5 1.4z"/><path class="st5" d="M941.9 281.4c-.2-.1-20.4-6.4-41.3-7.6-22.3-1.3-51.3 2.8-51.5 2.8l-.2-1.4c.3 0 29.4-4.1 51.8-2.8 21.1 1.2 41.5 7.6 41.7 7.6l-.5 1.4z"/><path class="st5" d="M941.9 285.8c-.2-.1-20.4-6.4-41.3-7.6-22.3-1.3-51.3 2.8-51.5 2.8l-.2-1.4c.3 0 29.4-4.1 51.8-2.8 21.1 1.2 41.5 7.6 41.7 7.6l-.5 1.4z"/><path class="st5" d="M941.9 290.2c-.2-.1-20.4-6.4-41.3-7.6-22.3-1.3-51.3 2.8-51.5 2.8l-.2-1.4c.3 0 29.4-4.1 51.8-2.8 21.1 1.2 41.5 7.6 41.7 7.6l-.5 1.4z"/><path class="st5" d="M941.9 294.5c-.2-.1-20.4-6.4-41.3-7.6-22.3-1.3-51.3 2.8-51.5 2.8l-.2-1.4c.3 0 29.4-4.1 51.8-2.8 21.1 1.2 41.5 7.6 41.7 7.6l-.5 1.4z"/><path class="st5" d="M941.9 298.9c-.2-.1-20.4-6.4-41.3-7.6-22.3-1.3-51.3 2.8-51.5 2.8l-.2-1.4c.3 0 29.4-4.1 51.8-2.8 21.1 1.2 41.5 7.6 41.7 7.6l-.5 1.4z"/><path class="st5" d="M941.9 303.3c-.2-.1-20.4-6.4-41.3-7.6-22.3-1.3-51.3 2.8-51.5 2.8l-.2-1.4c.3 0 29.4-4.1 51.8-2.8 21.1 1.2 41.5 7.6 41.7 7.6l-.5 1.4z"/><path class="st5" d="M941.9 307.7c-.2-.1-20.4-6.4-41.3-7.6-22.3-1.3-51.3 2.8-51.5 2.8l-.2-1.4c.3 0 29.4-4.1 51.8-2.8 21.1 1.2 41.5 7.6 41.7 7.6l-.5 1.4z"/><path class="st5" d="M941.9 312.1c-.2-.1-20.4-6.3-41.3-7.6-22.3-1.3-51.3 2.8-51.5 2.8l-.2-1.4c.3 0 29.4-4.1 51.8-2.8 21.1 1.2 41.5 7.6 41.7 7.6l-.5 1.4z"/><path class="st5" d="M941.9 316.5c-.2-.1-20.4-6.4-41.3-7.6-22.3-1.3-51.3 2.8-51.5 2.8l-.2-1.4c.3 0 29.4-4.1 51.8-2.8 21.1 1.2 41.5 7.6 41.7 7.6l-.5 1.4z"/><path class="st5" d="M941.9 320.9c-.2-.1-20.4-6.4-41.3-7.6-22.3-1.3-51.3 2.8-51.5 2.8l-.2-1.4c.3 0 29.4-4.1 51.8-2.8 21.1 1.2 41.5 7.6 41.7 7.6l-.5 1.4z"/><path class="st5" d="M941.9 325.3c-.2-.1-20.4-6.4-41.3-7.6-22.3-1.3-51.3 2.8-51.5 2.8l-.2-1.4c.3 0 29.4-4.1 51.8-2.8 21.1 1.2 41.5 7.6 41.7 7.6l-.5 1.4z"/><path class="st5" d="M941.9 329.7c-.2-.1-20.4-6.4-41.3-7.6-22.3-1.3-51.3 2.8-51.5 2.8l-.2-1.4c.3 0 29.4-4.1 51.8-2.8 21.1 1.2 41.5 7.6 41.7 7.6l-.5 1.4z"/><path class="st5" d="M941.9 334.1c-.2-.1-20.4-6.4-41.3-7.6-22.3-1.3-51.3 2.8-51.5 2.8l-.2-1.4c.3 0 29.4-4.1 51.8-2.8 21.1 1.2 41.5 7.6 41.7 7.6l-.5 1.4z"/><path class="st5" d="M941.9 338.5c-.2-.1-20.4-6.4-41.3-7.6-22.3-1.3-51.3 2.8-51.5 2.8l-.2-1.4c.3 0 29.4-4.1 51.8-2.8 21.1 1.2 41.5 7.6 41.7 7.6l-.5 1.4z"/><path class="st5" d="M941.9 342.9c-.2-.1-20.4-6.4-41.3-7.6-22.3-1.3-51.3 2.8-51.5 2.8l-.2-1.4c.3 0 29.4-4.1 51.8-2.8 21.1 1.2 41.5 7.6 41.7 7.6l-.5 1.4z"/><path class="st5" d="M941.9 347.2c-.2-.1-20.4-6.4-41.3-7.6-22.3-1.3-51.3 2.8-51.5 2.8l-.2-1.4c.3 0 29.4-4.1 51.8-2.8 21.1 1.2 41.5 7.6 41.7 7.6l-.5 1.4z"/><path class="st5" d="M941.9 351.6c-.2-.1-20.4-6.4-41.3-7.6-22.3-1.3-51.3 2.8-51.5 2.8l-.2-1.4c.3 0 29.4-4.1 51.8-2.8 21.1 1.2 41.5 7.6 41.7 7.6l-.5 1.4z"/><path class="st5" d="M941.9 356c-.2-.1-20.4-6.4-41.3-7.6-22.3-1.3-51.3 2.8-51.5 2.8l-.2-1.4c.3 0 29.4-4.1 51.8-2.8 21.1 1.2 41.5 7.6 41.7 7.6l-.5 1.4z"/><path class="st5" d="M941.9 360.4c-.2-.1-20.4-6.4-41.3-7.6-22.3-1.3-51.3 2.8-51.5 2.8l-.2-1.4c.3 0 29.4-4.1 51.8-2.8 21.1 1.2 41.5 7.6 41.7 7.6l-.5 1.4z"/><path class="st5" d="M941.9 364.9c-.2-.1-20.4-6.4-41.3-7.6-22.3-1.3-51.3 2.8-51.5 2.8l-.2-1.4c.3 0 29.4-4.1 51.8-2.8 21.1 1.2 41.5 7.6 41.7 7.6l-.5 1.4z"/><path class="st5" d="M941.9 369.2c-.2-.1-20.4-6.4-41.3-7.6-22.3-1.3-51.3 2.8-51.5 2.8l-.2-1.4c.3 0 29.4-4.1 51.8-2.8 21.1 1.2 41.5 7.6 41.7 7.6l-.5 1.4z"/><path class="st5" d="M941.9 373.6c-.2-.1-20.4-6.3-41.3-7.6-22.3-1.3-51.3 2.8-51.5 2.8l-.2-1.4c.3 0 29.4-4.1 51.8-2.8 21.1 1.2 41.5 7.6 41.7 7.6l-.5 1.4z"/><path class="st5" d="M941.9 378c-.2-.1-20.4-6.4-41.3-7.6-22.3-1.3-51.3 2.8-51.5 2.8l-.2-1.4c.3 0 29.4-4.1 51.8-2.8 21.1 1.2 41.5 7.6 41.7 7.6l-.5 1.4z"/><path class="st5" d="M941.9 382.4c-.2-.1-20.4-6.4-41.3-7.6-22.3-1.3-51.3 2.8-51.5 2.8l-.2-1.4c.3 0 29.4-4.1 51.8-2.8 21.1 1.2 41.5 7.6 41.7 7.6l-.5 1.4z"/><path class="st5" d="M941.9 386.8c-.2-.1-20.4-6.3-41.3-7.6-22.3-1.3-51.3 2.8-51.5 2.8l-.2-1.4c.3 0 29.4-4.1 51.8-2.8 21.1 1.2 41.5 7.6 41.7 7.6l-.5 1.4z"/><path class="st5" d="M941.9 391.2c-.2-.1-20.4-6.4-41.3-7.6-22.3-1.3-51.3 2.8-51.5 2.8l-.2-1.4c.3 0 29.4-4.1 51.8-2.8 21.1 1.2 41.5 7.6 41.7 7.6l-.5 1.4z"/><path class="st5" d="M941.9 395.6c-.2-.1-20.4-6.4-41.3-7.6-22.3-1.3-51.3 2.8-51.5 2.8l-.2-1.4c.3 0 29.4-4.1 51.8-2.8 21.1 1.2 41.5 7.6 41.7 7.6l-.5 1.4z"/><path class="st5" d="M941.9 400c-.2-.1-20.4-6.4-41.3-7.6-22.3-1.3-51.3 2.8-51.5 2.8l-.2-1.5c.3 0 29.4-4.1 51.8-2.8 21.1 1.2 41.5 7.6 41.7 7.6l-.5 1.5z"/><path class="st5" d="M941.9 404.3c-.2-.1-20.4-6.4-41.3-7.6-22.3-1.3-51.3 2.8-51.5 2.8l-.2-1.4c.3 0 29.4-4.1 51.8-2.8 21.1 1.2 41.5 7.6 41.7 7.6l-.5 1.4z"/><path class="st5" d="M941.9 408.7c-.2-.1-20.4-6.4-41.3-7.6-22.3-1.3-51.3 2.8-51.5 2.8l-.2-1.4c.3 0 29.4-4.1 51.8-2.8 21.1 1.2 41.5 7.6 41.7 7.6l-.5 1.4z"/><path class="st5" d="M941.9 413.1c-.2-.1-20.4-6.4-41.3-7.6-22.3-1.3-51.3 2.8-51.5 2.8l-.2-1.4c.3 0 29.4-4.1 51.8-2.8 21.1 1.2 41.5 7.6 41.7 7.6l-.5 1.4z"/><path class="st5" d="M941.9 417.5c-.2-.1-20.4-6.4-41.3-7.6-22.3-1.3-51.3 2.8-51.5 2.8l-.2-1.4c.3 0 29.4-4.1 51.8-2.8 21.1 1.2 41.5 7.6 41.7 7.6l-.5 1.4z"/><path class="st5" d="M941.9 421.9c-.2-.1-20.4-6.4-41.3-7.6-22.3-1.3-51.3 2.8-51.5 2.8l-.2-1.4c.3 0 29.4-4.1 51.8-2.8 21.1 1.2 41.5 7.6 41.7 7.6l-.5 1.4z"/><path class="st5" d="M941.9 426.3c-.2-.1-20.4-6.4-41.3-7.6-22.3-1.3-51.3 2.8-51.5 2.8l-.2-1.4c.3 0 29.4-4.1 51.8-2.8 21.1 1.2 41.5 7.6 41.7 7.6l-.5 1.4z"/><path class="st5" d="M941.9 430.7c-.2-.1-20.4-6.4-41.3-7.6-22.3-1.3-51.3 2.8-51.5 2.8l-.2-1.4c.3 0 29.4-4.1 51.8-2.8 21.1 1.2 41.5 7.6 41.7 7.6l-.5 1.4z"/><path class="st5" d="M941.9 435.1c-.2-.1-20.4-6.3-41.3-7.6-22.3-1.3-51.3 2.8-51.5 2.8l-.2-1.4c.3 0 29.4-4.1 51.8-2.8 21.1 1.2 41.5 7.6 41.7 7.6l-.5 1.4z"/><path class="st5" d="M941.9 439.5c-.2-.1-20.4-6.4-41.3-7.6-22.3-1.3-51.3 2.8-51.5 2.8l-.2-1.4c.3 0 29.4-4.1 51.8-2.8 21.1 1.2 41.5 7.6 41.7 7.6l-.5 1.4z"/><path class="st5" d="M941.9 443.8c-.2-.1-20.4-6.4-41.3-7.6-22.3-1.3-51.3 2.8-51.5 2.8l-.2-1.4c.3 0 29.4-4.1 51.8-2.8 21.1 1.2 41.5 7.6 41.7 7.6l-.5 1.4z"/><path class="st5" d="M941.9 448.3c-.2-.1-20.4-6.3-41.3-7.6-22.3-1.3-51.3 2.8-51.5 2.8l-.2-1.4c.3 0 29.4-4.1 51.8-2.8 21.1 1.2 41.5 7.6 41.7 7.6l-.5 1.4z"/><path class="st5" d="M941.9 452.7c-.2-.1-20.4-6.4-41.3-7.6-22.3-1.3-51.3 2.8-51.5 2.8l-.2-1.4c.3 0 29.4-4.1 51.8-2.8 21.1 1.2 41.5 7.6 41.7 7.6l-.5 1.4z"/><path class="st5" d="M941.9 457c-.2-.1-20.4-6.4-41.3-7.6-22.3-1.3-51.3 2.8-51.5 2.8l-.2-1.4c.3 0 29.4-4.1 51.8-2.8 21.1 1.2 41.5 7.6 41.7 7.6l-.5 1.4z"/><path class="st5" d="M941.9 461.4c-.2-.1-20.4-6.4-41.3-7.6-22.3-1.3-51.3 2.8-51.5 2.8l-.2-1.4c.3 0 29.4-4.1 51.8-2.8 21.1 1.2 41.5 7.6 41.7 7.6l-.5 1.4z"/><path class="st5" d="M941.9 465.8c-.2-.1-20.4-6.4-41.3-7.6-22.3-1.3-51.3 2.8-51.5 2.8l-.2-1.4c.3 0 29.4-4.1 51.8-2.8 21.1 1.2 41.5 7.6 41.7 7.6l-.5 1.4z"/><path class="st5" d="M941.9 470.2c-.2-.1-20.4-6.3-41.3-7.6-22.3-1.3-51.3 2.8-51.5 2.8l-.2-1.4c.3 0 29.4-4.1 51.8-2.8 21.1 1.2 41.5 7.6 41.7 7.6l-.5 1.4z"/><path class="st5" d="M922.1 474.7h-11L911 80.2l11.1 2.1z"/><path class="st4" d="M829.8 106.8c.1-2.3-1.4-4.5-3.7-5.1V48.4h-1.5v53.3c-2.8.8-4.5 3.7-3.7 6.6.5 1.8 1.9 3.2 3.7 3.7v76.4l2.9-1.5-1.3-74.9c2.5-.4 3.6-3.3 3.6-5.2zm-43.5 83.6c.6-1 0-11.7 0-11.7l18.7-2V190l-18.7.4z"/><path class="st5" d="M804.2 176.7l32.2 5.1 1.6 12.4-33.8-4.2z"/><path class="st4" d="M763.9 192.7l45.4-4.2V462l-48.1-2z"/><path class="st5" d="M860.1 196.1l-51.9-7.6v272.2l51-3.3z"/><path class="st6" d="M860.5 206.1l-51.7-7.5v-3.1l51.7 7.6zm0 8.7l-51.7-7.2v-3.1l51.7 7.3zm0 8.7l-51.7-6.9v-3.1l51.7 7zm0 8.7l-51.7-6.6v-3.1l51.7 6.7zm0 8.7l-51.7-6.3v-3.2l51.7 6.5zm0 8.7l-51.7-6v-3.2l51.7 6.2zm0 8.7l-51.7-5.8v-3.1l51.7 5.8zm0 8.7l-51.7-5.5v-3.1l51.7 5.5zm0 8.7l-51.7-5.2v-3.1l51.7 5.2zm0 8.7l-51.7-4.9v-3.1l51.7 4.9zm0 8.7l-51.7-4.6v-3.2l51.7 4.7zm0 8.7l-51.7-4.3v-3.2l51.7 4.4zm0 8.6l-51.7-4v-3.1l51.7 4.1zm0 8.7l-51.7-3.7v-3.1l51.7 3.8zm0 8.7l-51.7-3.4v-3.1l51.7 3.5zm0 8.7l-51.7-3.1v-3.1l51.7 3.2zm0 8.7l-51.7-2.8v-3.1l51.7 2.9zm0 8.7l-51.7-2.5v-3.2l51.7 2.7zm0 8.7l-51.7-2.2v-3.2l51.7 2.4zm0 8.7l-51.7-2v-3.1l51.7 2.1zm0 8.7l-51.7-1.7v-3.1l51.7 1.8zm0 8.7l-51.7-1.4v-3.1l51.7 1.5zm0 8.7l-51.7-1.1v-3.1l51.7 1.2zm0 8.7l-51.7-.8v-3.1l51.7.9zm0 8.7l-51.7-.5v-3.2l51.7.7zm0 8.7l-51.7-.2v-3.2l51.7.4zm0 8.7h-51.7v-3.1l51.7.1zm0 8.7l-51.7.3v-3.1l51.7-.3zm0 8.7l-51.7.6v-3.1l51.7-.6zm0 8.7l-51.7.9v-3.1l51.7-.9z"/><path class="st5" d="M763.6 202.4l45.4-4.5v-3l-45.3 4.7zm0 8.2l45.4-4.3v-2.9l-45.4 4.4zm-.1 8.3l45.5-4.1v-2.9l-45.5 4.1zm-.1 8.3l45.6-3.8v-3l-45.6 3.9zm-.1 8.3l45.7-3.6v-3l-45.7 3.7zm-.1 8.4l45.8-3.4v-3l-45.8 3.5zm-.1 8.4l45.9-3.1v-3l-45.9 3.2zm-.1 8.4l46-2.9v-3l-46 3zm-.1 8.5l46.1-2.6v-3.1l-46.1 2.8zm-.1 8.5l46.2-2.4v-3l-46.2 2.5zm-.1 8.6l46.3-2.2V281l-46.3 2.3zm-.1 8.5l46.4-1.9v-3l-46.4 1.9zm-.1 8.7l46.5-1.7v-3.1l-46.5 1.7zm-.1 8.6l46.6-1.4v-3.1l-46.6 1.5zm-.1 8.7l46.7-1.1v-3.2l-46.7 1.3zm-.1 8.7l46.8-.9v-3.1l-46.8 1zm-.1 8.8l46.9-.6v-3.2l-46.9.7zm-.1 8.8l47-.4v-3.1l-47 .4zm-.1 8.8l47.1-.1v-3.2l-47.1.2zm-.1 8.9l47.2.2v-3.2l-47.2-.1zm-.1 8.9l47.3.4v-3.2l-47.3-.3zm-.1 8.9l47.4.8v-3.3l-47.4-.6zm-.1 9l47.5 1v-3.2l-47.5-.9zm-.1 9l47.6 1.3v-3.2l-47.6-1.2zm-.1 9.1l47.7 1.6V408l-47.7-1.5zm-.1 9.1l47.8 1.9v-3.3l-47.8-1.8zm-.1 9.2l48 2.1v-3.3l-48-2zm-.1 9.1l48.1 2.5v-3.4l-48.1-2.3zm-.1 9.2l48.2 2.8v-3.4l-48.2-2.6zm-.1 9.3l48.3 3v-3.3l-48.3-2.9z"/><path class="st4" d="M749.3 481V287.9s-38.4 3.7-39.1 3.7L708.1 481h41.2z"/><path class="st7" d="M778.6 481V291.1s-29.5-2.4-29.9-2.9l.5 192.8h29.4z"/><path class="st5" d="M745.4 481V288.4l-1 .1V481zm-3.6 0V288.7l-1 .1V481zm-3.7 0V289.1l-.9.1V481zm-3.6 0V289.4l-.9.1V481zm-3.6 0V289.8l-1 .1V481zm-3.6 0V290.1l-1 .1V481zm-3.6 0V290.5h-.9V481zm-3.6 0V290.8l-.9.1V481zm-3.5 0V291.1l-1 .1V481zm-3.6 0V291.5l-.9.1V481z"/><path class="st6" d="M752.4 481V289.2l-.7-.1V481zm2.6 0V289.5l-.7-.1V481zm2.6 0V289.9l-.7-.1V481zm2.6 0V290.2l-.7-.1V481zm2.6 0V290.6l-.6-.1V481zm2.6 0V290.9l-.6-.1V481zm2.6 0V291.3l-.7-.1V481zm2.6 0V291.6l-.7-.1V481zm2.6 0V291.9l-.7-.1V481zm2.5 0V292.3l-.6-.1V481z"/><path class="st2" d="M229.1 471.1c-.3-.9 1.6-156.2 1.6-156.2h38c.4 0 1 154.8 0 155.7s-39.4 5.5-39.4 5.5l-.2-5z"/><path class="st0" d="M268.8 314H286v154.5s-17.7 3.9-17.7 3.1.5-157.6.5-157.6z"/><path class="st2" d="M283.1 302.3v169.9l29.6-2.4-1.5-167.9z"/><path class="st6" d="M310.7 301.7l15 .3 16.5 20.5-.6 146-29.2.2z"/><path class="st2" d="M311.9 322.5l29.6.9-2.7-3.8-26.9-.8zm0 4.6l30.1.9v4.5l-30.1-.8zm0 8.2v4.5l29.7.9v-4.6zm0 8.1v4.6l29.2.8v-4.5zm0 8.2v4.5l29.9.8v-4.5zm0 8.1v4.5l29.4.9v-4.6zm0 8.1v4.6l29.4.8v-4.5zm0 8.2v4.5l29.2.8v-4.5zm0 8.1v4.5l28.5.9v-4.6zm0 8.1v4.6l29 .8v-4.5zm0 8.2v4.5l29.9.8v-4.5zm0 8.1v4.5l29.7.9v-4.6zm0 8.1v4.6l29.2.8v-4.5zm0 8.2v4.5l29 .8v-4.5zm0 8.1v4.5l29 .9v-4.6zm0 8.1v4.6l29 .8v-4.5zm0 8.2v4.5l28.5.8V450zm0 8.1v4.6l28.3.8v-4.6z"/><path class="st0" d="M268.1 332.3l-37.5-.7v-2.2l37.5.6zm0 8.4l-37.5-.7v-2.3l37.5.7zm0 8.3l-37.5-.7v-2.2l37.5.7zm0 8.4l-37.5-.7v-2.3l37.5.7zm0 8.3l-37.5-.6v-2.3l37.5.7zm0 8.4l-37.5-.7v-2.2l37.5.6zm0 8.4l-37.5-.7v-2.3l37.5.7zm0 8.3l-37.5-.7v-2.2l37.5.7zm0 8.4l-37.5-.7v-2.3l37.5.7zm0 8.3l-37.5-.6v-2.3l37.5.7zm0 8.4l-37.5-.7V413l37.5.6zm0 8.4l-37.5-.7v-2.3l37.5.7zm0 8.3l-37.5-.7v-2.2l37.5.7zm0 8.4l-37.5-.7V438l37.5.7zm0 8.3l-37.5-.6v-2.3l37.5.7zm0 8.4l-37.5-.7v-2.2l37.5.6zm0 8.4l-37.5-.7v-2.3l37.5.7zm0 8.3l-37.5-.7v-2.2l37.5.7zm17.3-154.9h24v2.3h-24zm0 8.1h24v2.3h-24zm0 8.2h24v2.3h-24zm0 8.1h24v2.3h-24zm0 8.1h24v2.3h-24zm0 8.2h24v2.3h-24zm0 8.1h24v2.3h-24zm0 8.1h24v2.3h-24zm0 8.2h24v2.3h-24zm0 8.1h24v2.3h-24zm0 8.1h24v2.3h-24zm0 8.2h24v2.3h-24zm0 8.1h24v2.3h-24zm0 8.1h24v2.3h-24zm0 8.2h24v2.3h-24zm0 8.1h24v2.3h-24zm0 8.1h24v2.3h-24zm0 8.2h24v2.3h-24zm0 8.1h24v2.3h-24zm0 8.1h24v2.3h-24z"/><path class="st2" d="M283 332.6l-13.8.4v-2.4l13.8-.5zm0 7.9l-13.8.5v-2.5l13.8-.5zm0 7.9l-13.8.5v-2.5l13.8-.5zm0 7.9l-13.8.5v-2.5l13.8-.5zm0 7.9l-13.8.5v-2.5l13.8-.5zm0 7.9l-13.8.5v-2.5l13.8-.5zm0 7.9l-13.8.5V378l13.8-.5zm0 7.9l-13.8.5v-2.5l13.8-.5zm0 7.9l-13.8.5v-2.5l13.8-.5zm0 7.9l-13.8.5v-2.5l13.8-.4zm0 7.9l-13.8.5v-2.5l13.8-.4zm0 8l-13.8.4v-2.4l13.8-.5zm0 7.9l-13.8.5v-2.5l13.8-.5zm0 7.9l-13.8.5v-2.5l13.8-.5zm0 7.9l-13.8.5v-2.5l13.8-.5zm0 7.9l-13.8.5v-2.5l13.8-.5zm0 7.9l-13.8.5v-2.5l13.8-.5zm0 7.9l-13.8.5V465l13.8-.5z"/><path class="st7" d="M101 215c-.3.8-.5 193.7-.5 193.7L37 402.9V215.4l6.6-1.3 57.4.9z"/><path class="st6" d="M101 215l12 1.5.3 186.4-13.1 1.1z"/><path fill="#9b3443" d="M44 213.8v191.3l-7.2-.1.9-189.6z"/><path class="st1" d="M112.9 233.6l-12.6-1.3-57.3-.5-5.4.5-.2-1.6 5.5-.5 57.5.5 12.7 1.3zm0 6.5l-12.6-1.4-57.3-.5-5.4.5-.2-1.6 5.5-.5 57.5.5 12.7 1.4zm0 6.4l-12.6-1.3-57.3-.6-5.4.6-.2-1.6 5.5-.6 57.5.6 12.7 1.3zm0 6.4l-12.6-1.3-57.3-.5-5.4.5-.2-1.6 5.5-.5 57.5.5 12.7 1.3zm0 6.5l-12.6-1.4-57.3-.5-5.4.5-.2-1.6 5.5-.5 57.5.5 12.7 1.4zm0 6.4l-12.6-1.4-57.3-.5-5.4.5-.2-1.6 5.5-.5 57.5.5 12.7 1.4zm0 6.4l-12.6-1.3-57.3-.6-5.4.6-.2-1.6 5.5-.6 57.5.6 12.7 1.3zm0 6.4l-12.6-1.3-57.3-.5-5.4.5-.2-1.6 5.5-.5 57.5.5 12.7 1.4zm0 6.5l-12.6-1.4-57.3-.5-5.4.5-.2-1.6 5.5-.5 57.5.5 12.7 1.4zm0 6.4l-12.6-1.3-57.3-.6-5.4.6-.2-1.6 5.5-.6 57.5.6 12.7 1.3zm0 6.4l-12.6-1.3-57.3-.5-5.4.5-.2-1.6 5.5-.5 57.5.5 12.7 1.3zm0 6.5l-12.6-1.4-57.3-.5-5.4.5-.2-1.6 5.5-.5 57.5.5 12.7 1.4zm0 6.4l-12.6-1.4-57.3-.5-5.4.5-.2-1.6 5.5-.5 57.5.5 12.7 1.4zm0 6.4l-12.6-1.3-57.3-.6-5.4.6-.2-1.6 5.5-.6 57.5.6 12.7 1.3zm0 6.5l-12.6-1.4-57.3-.5-5.4.5-.2-1.6 5.5-.5 57.5.5 12.7 1.4zm0 6.4l-12.6-1.4-57.3-.5-5.4.5-.2-1.6 5.5-.5 57.5.5 12.7 1.4zm0 6.4l-12.6-1.3-57.3-.6-5.4.6-.2-1.6 5.5-.6 57.5.6 12.7 1.3zm0 6.4l-12.6-1.3-57.3-.5-5.4.5-.2-1.6 5.5-.5 57.5.5 12.7 1.3zm0 6.5l-12.6-1.4-57.3-.5-5.4.5-.2-1.6 5.5-.5 57.5.5 12.7 1.4zm0 6.4l-12.6-1.4-57.3-.5-5.4.5-.2-1.5 5.5-.6 57.5.6 12.7 1.3zm0 6.4l-12.6-1.3-57.3-.6-5.4.6-.2-1.6 5.5-.6 57.5.6 12.7 1.3zm0 6.5l-12.6-1.4-57.3-.5-5.4.5-.2-1.6 5.5-.5 57.5.5 12.7 1.4zm0 6.4l-12.6-1.4-57.3-.5-5.4.5-.2-1.6 5.5-.5 57.5.5 12.7 1.4zm0 6.4l-12.6-1.3-57.3-.6-5.4.6-.2-1.6 5.5-.6 57.5.6 12.7 1.3zm0 6.4l-12.6-1.3-57.3-.5-5.4.5-.2-1.6 5.5-.5 57.5.5 12.7 1.3zm0 6.5l-12.6-1.4-57.3-.5-5.4.5-.2-1.6 5.5-.5 57.5.5 12.7 1.4zm0 6.4l-12.6-1.3-57.3-.6-5.4.6-.2-1.6 5.5-.6 57.5.6 12.7 1.3zm0 6.4l-12.6-1.3-57.3-.6-5.4.6-.2-1.6 5.5-.5 57.5.5 12.7 1.3z"/><path class="st0" d="M54 399.8v-17.9h25v-3h41.1l2.7-3h1.3v-3h37v5h8v-9h18v10h9v50H52.7c0-.1 3.3-29.1 1.3-29.1z"/><path class="st1" d="M42.3 472.2l-2.8-79.8H0v79.8z"/><path class="st2" d="M205.6 472.2l-1.1-79.8H89.4v79.8z"/><path class="st1" d="M89.7 472.2l-.3-79.8H55.7v79.8z"/><path class="st0" d="M40.2 472.2h16.1l-.7-79.8H39.5s1 54.1.7 79.8z"/><path class="st6" d="M64.8 407.6h6.6v3.1h-6.6zm10.8 0h6.6v3.1h-6.6zm-10.8-6.1h6.6v3.1h-6.6z"/><path class="st7" d="M75.6 401.5h6.6v3.1h-6.6z"/><path class="st6" d="M64.8 414.9h6.6v3.1h-6.6zm10.8 0h6.6v3.1h-6.6z"/><path class="st7" d="M64.8 422.1h6.6v3.1h-6.6z"/><path class="st6" d="M75.6 422.1h6.6v3.1h-6.6zm-10.8 7.2h6.6v3.1h-6.6z"/><path class="st7" d="M75.6 429.3h6.6v3.1h-6.6z"/><path class="st6" d="M137.2 407.6h6.6v3.1h-6.6zm10.8 0h6.6v3.1H148zm10.8 0h6.6v3.1h-6.6zm10.8 0h6.6v3.1h-6.6zm10.8 0h6.6v3.1h-6.6zm10.8 0h6.6v3.1h-6.6z"/><path class="st7" d="M137.2 401.5h6.6v3.1h-6.6zm10.8 0h6.6v3.1H148z"/><path class="st6" d="M158.8 401.5h6.6v3.1h-6.6zm10.8 0h6.6v3.1h-6.6zm10.8 0h6.6v3.1h-6.6z"/><path class="st7" d="M191.2 401.5h6.6v3.1h-6.6z"/><path class="st6" d="M137.2 414.9h6.6v3.1h-6.6zm10.8 0h6.6v3.1H148z"/><path class="st7" d="M158.8 414.9h6.6v3.1h-6.6zm10.8 0h6.6v3.1h-6.6z"/><path class="st6" d="M180.4 414.9h6.6v3.1h-6.6z"/><path class="st7" d="M191.2 414.9h6.6v3.1h-6.6z"/><path class="st6" d="M137.2 422.1h6.6v3.1h-6.6zm10.8 0h6.6v3.1H148zm10.8 0h6.6v3.1h-6.6zm10.8 0h6.6v3.1h-6.6z"/><path class="st7" d="M180.4 422.1h6.6v3.1h-6.6zm10.8 0h6.6v3.1h-6.6zm-54 7.2h6.6v3.1h-6.6z"/><path class="st6" d="M148 429.3h6.6v3.1H148zm10.8 0h6.6v3.1h-6.6zm10.8 0h6.6v3.1h-6.6zm10.8 0h6.6v3.1h-6.6zm10.8 0h6.6v3.1h-6.6zm-98.4-21.7h6.6v3.1h-6.6zm10.7 0h6.6v3.1h-6.6zm10.8 0h6.6v3.1h-6.6zm10.8 0h6.6v3.1h-6.6zm-32.3-6.1h6.6v3.1h-6.6zm10.7 0h6.6v3.1h-6.6zm10.8 0h6.6v3.1h-6.6z"/><path class="st7" d="M125.1 401.5h6.6v3.1h-6.6z"/><path class="st6" d="M92.8 414.9h6.6v3.1h-6.6zm10.7 0h6.6v3.1h-6.6z"/><path class="st7" d="M114.3 414.9h6.6v3.1h-6.6zm10.8 0h6.6v3.1h-6.6z"/><path class="st6" d="M92.8 422.1h6.6v3.1h-6.6zm10.7 0h6.6v3.1h-6.6z"/><path class="st7" d="M114.3 422.1h6.6v3.1h-6.6zm10.8 0h6.6v3.1h-6.6z"/><path class="st6" d="M92.8 429.3h6.6v3.1h-6.6z"/><path class="st7" d="M103.5 429.3h6.6v3.1h-6.6z"/><path class="st6" d="M114.3 429.3h6.6v3.1h-6.6z"/><path class="st7" d="M125.1 429.3h6.6v3.1h-6.6z"/><path class="st5" d="M0 457.8h1420V481H0z"/><path class="st0" d="M1133.2 298l-2.7-.2v-2.6l2.7.2zm6 .4l-2.7-.2v-2.6l2.7.2zm6 .4l-2.7-.2V296l2.7.2zm-35.9 10.6l-2.8-.2v-2.5l2.8.1zm6 .4l-2.8-.2v-2.5l2.8.2zm5.9.4l-2.7-.1v-2.6l2.7.2zm6 .4l-2.7-.1v-2.6l2.7.2zm6 .5l-2.7-.2v-2.6l2.7.2zm6 .4l-2.7-.2v-2.6l2.7.2zm6 .4l-2.7-.2v-2.6l2.7.2z"/><path class="st7" d="M1109.3 316l-2.8-.2v-2.6l2.8.2z"/><path class="st0" d="M1115.3 316.4l-2.8-.2v-2.6l2.8.2zm5.9.4l-2.7-.2V314l2.7.2zm6 .4l-2.7-.2v-2.6l2.7.2zm6 .4l-2.7-.2v-2.6l2.7.2z"/><path class="st7" d="M1139.2 318l-2.7-.2v-2.6l2.7.2zm6 .4l-2.7-.2v-2.5l2.7.1zm-35.9 4.1l-2.8-.1v-2.6l2.8.2zm6 .4l-2.8-.1v-2.6l2.8.2z"/><path class="st0" d="M1121.2 323.4l-2.7-.2v-2.6l2.7.2zm6 .4l-2.7-.2V321l2.7.2zm6 .4l-2.7-.2v-2.6l2.7.2zm6 .4l-2.7-.2v-2.6l2.7.2zm6 .4l-2.7-.2v-2.6l2.7.2zm-35.9 4.1l-2.8-.2v-2.6l2.8.2zm6 .4l-2.8-.2v-2.6l2.8.2zm5.9.4l-2.7-.2v-2.6l2.7.2zm6 .4l-2.7-.2v-2.6l2.7.2zm6 .4l-2.7-.2V328l2.7.1zm6 .4l-2.7-.2v-2.5l2.7.1zm6 .4l-2.7-.2v-2.5l2.7.2zm-35.9 4.1l-2.8-.1v-2.6l2.8.2zm6 .4l-2.8-.1v-2.6l2.8.2z"/><path class="st7" d="M1121.2 336.4l-2.7-.1v-2.6l2.7.2z"/><path class="st0" d="M1127.2 336.9l-2.7-.2v-2.6l2.7.2zm6 .4l-2.7-.2v-2.6l2.7.2zm6 .4l-2.7-.2v-2.6l2.7.2z"/><path class="st7" d="M1145.2 338.1l-2.7-.2v-2.6l2.7.2z"/><path class="st0" d="M1109.3 342.2l-2.8-.2v-2.6l2.8.2zm6 .4l-2.8-.2v-2.6l2.8.2zm5.9.4l-2.7-.2v-2.6l2.7.2zm6 .4l-2.7-.2v-2.6l2.7.2zm6 .4l-2.7-.2v-2.5l2.7.1zm6 .4l-2.7-.2v-2.5l2.7.1zm6 .4l-2.7-.2v-2.5l2.7.2zm-35.9 4.1l-2.8-.1V346l2.8.2zm6 .5l-2.8-.2v-2.6l2.8.2zm5.9.4l-2.7-.2v-2.6l2.7.2zm6 .4l-2.7-.2v-2.6l2.7.2z"/><path class="st7" d="M1133.2 350.4l-2.7-.2v-2.6l2.7.2z"/><path class="st0" d="M1139.2 350.8l-2.7-.2V348l2.7.2zm6 .4l-2.7-.2v-2.6l2.7.2zm-35.9 4.1l-2.8-.2v-2.6l2.8.2zm6 .4l-2.8-.2v-2.6l2.8.2zm5.9.4l-2.7-.2v-2.5l2.7.1zm6 .4l-2.7-.2v-2.5l2.7.1zm6 .4l-2.7-.2v-2.5l2.7.1zm6 .4l-2.7-.2v-2.5l2.7.1zm6 .4l-2.7-.2V355l2.7.2zm-35.9 4.1l-2.8-.1v-2.6l2.8.2zm6 .5l-2.8-.2v-2.6l2.8.2zm5.9.4l-2.7-.2v-2.6l2.7.2zm6 .4l-2.7-.2v-2.6l2.7.2zm6 .4l-2.7-.2v-2.6l2.7.2zm6 .4l-2.7-.2v-2.6l2.7.2zm6 .4l-2.7-.2v-2.6l2.7.2zm-35.9 4.1l-2.8-.2v-2.6l2.8.2zm6 .4l-2.8-.2V366l2.8.2zm5.9.4l-2.7-.2v-2.5l2.7.1zm6 .4l-2.7-.2v-2.5l2.7.1zm6 .4l-2.7-.2v-2.5l2.7.2zm6 .4l-2.7-.1v-2.6l2.7.2zm6 .4l-2.7-.1v-2.6l2.7.2zm-35.9 4.2l-2.8-.2v-2.6l2.8.2zm6 .4l-2.8-.2v-2.6l2.8.2zm5.9.4l-2.7-.2V373l2.7.2zm6 .4l-2.7-.2v-2.6l2.7.2zm6 .4l-2.7-.2v-2.6l2.7.2zm6 .4l-2.7-.2v-2.6l2.7.2zm6 .4l-2.7-.2v-2.6l2.7.2zm-35.9 4.1l-2.8-.2v-2.6l2.8.2zm6 .4l-2.8-.2v-2.5l2.8.1zm5.9.4l-2.7-.2v-2.5l2.7.1zm6 .4l-2.7-.2V380l2.7.1zm6 .4l-2.7-.2v-2.5l2.7.2zm6 .4l-2.7-.1v-2.6l2.7.2zm6 .4l-2.7-.1v-2.6l2.7.2zm-35.9 4.2l-2.8-.2v-2.6l2.8.2zm6 .4l-2.8-.2v-2.6l2.8.2z"/><path class="st7" d="M1121.2 388.9l-2.7-.2v-2.6l2.7.2z"/><path class="st0" d="M1127.2 389.3l-2.7-.2v-2.6l2.7.2zm6 .4l-2.7-.2v-2.6l2.7.2z"/><path class="st7" d="M1139.2 390.1l-2.7-.2v-2.6l2.7.2z"/><path class="st0" d="M1145.2 390.5l-2.7-.2v-2.6l2.7.2zm-35.9 4.1l-2.8-.2v-2.6l2.8.2zm6 .4l-2.8-.2v-2.5l2.8.1zm5.9.4l-2.7-.2v-2.5l2.7.1zm6 .4l-2.7-.1v-2.6l2.7.2zm6 .4l-2.7-.1v-2.6l2.7.2zm6 .4l-2.7-.1v-2.6l2.7.2zm6 .5l-2.7-.2v-2.6l2.7.2zm-35.9 4.1l-2.8-.2v-2.6l2.8.2zm6 .4l-2.8-.2v-2.6l2.8.2zm5.9.4l-2.7-.2v-2.6l2.7.2zm6 .4l-2.7-.2v-2.6l2.7.2zm6 .4l-2.7-.2V400l2.7.2zm6 .4l-2.7-.2v-2.6l2.7.2zm6 .4l-2.7-.2v-2.6l2.7.2zm-35.9 4.1l-2.8-.2V405l2.8.1z"/><path class="st7" d="M1115.3 408.1l-2.8-.2v-2.5l2.8.1z"/><path class="st0" d="M1121.2 408.5l-2.7-.2v-2.5l2.7.1z"/><path class="st7" d="M1127.2 408.9l-2.7-.1v-2.6l2.7.2zm6 .4l-2.7-.1v-2.6l2.7.2z"/><path class="st0" d="M1139.2 409.7l-2.7-.1V407l2.7.2zm6 .5l-2.7-.2v-2.6l2.7.2z"/><path class="st7" d="M1109.3 414.3l-2.8-.2v-2.6l2.8.2z"/><path class="st0" d="M1115.3 414.7l-2.8-.2v-2.6l2.8.2zm5.9.4l-2.7-.2v-2.6l2.7.2zm6 .4l-2.7-.2v-2.6l2.7.2zm6 .4l-2.7-.2v-2.6l2.7.2zm6 .4l-2.7-.2v-2.6l2.7.2zm6 .4l-2.7-.2v-2.6l2.7.2zm-35.9 4.1l-2.8-.2v-2.5l2.8.1zm6 .4l-2.8-.2v-2.5l2.8.2zm5.9.4l-2.7-.1v-2.6l2.7.2zm6 .4l-2.7-.1v-2.6l2.7.2zm6 .5l-2.7-.2v-2.6l2.7.2zm6 .4l-2.7-.2v-2.6l2.7.2zm6 .4l-2.7-.2v-2.6l2.7.2zm-35.9 4.1l-2.8-.2v-2.6l2.8.2zm6 .4l-2.8-.2V425l2.8.2zm5.9.4l-2.7-.2v-2.6l2.7.2zm6 .4l-2.7-.2v-2.6l2.7.2z"/><path class="st7" d="M1133.2 429l-2.7-.2v-2.6l2.7.2zm6 .4l-2.7-.2v-2.6l2.7.2z"/><path class="st0" d="M1145.2 429.8l-2.7-.2v-2.5l2.7.1z"/><path class="st7" d="M1109.3 433.9l-2.8-.2v-2.5l2.8.1z"/><path class="st0" d="M1115.3 434.3l-2.8-.2v-2.5l2.8.2z"/><path class="st7" d="M1121.2 434.7l-2.7-.1V432l2.7.2z"/><path class="st0" d="M1127.2 435.1l-2.7-.1v-2.6l2.7.2zm6 .5l-2.7-.2v-2.6l2.7.2zm6 .4l-2.7-.2v-2.6l2.7.2zm6 .4l-2.7-.2v-2.6l2.7.2z"/><path class="st7" d="M1109.3 440.5l-2.8-.2v-2.6l2.8.2z"/><path class="st0" d="M1115.3 440.9l-2.8-.2v-2.6l2.8.2zm5.9.4l-2.7-.2v-2.6l2.7.2zm6 .4l-2.7-.2v-2.6l2.7.2zm6 .4l-2.7-.2v-2.6l2.7.2zm6 .4l-2.7-.2v-2.5l2.7.1zm6 .4l-2.7-.2v-2.5l2.7.1zm-35.9 4.1l-2.8-.1v-2.6l2.8.2zm6 .4l-2.8-.1v-2.6l2.8.2zm5.9.4l-2.7-.1v-2.6l2.7.2zm6 .5l-2.7-.2v-2.6l2.7.2zm6 .4l-2.7-.2v-2.6l2.7.2zm6 .4l-2.7-.2v-2.6l2.7.2zm6 .4l-2.7-.2v-2.6l2.7.2zm-35.9 4.1l-2.8-.2v-2.6l2.8.2zm6 .4l-2.8-.2v-2.6l2.8.2zm5.9.4l-2.7-.2v-2.6l2.7.2zm6 .4l-2.7-.2V452l2.7.2zm6 .4l-2.7-.2v-2.5l2.7.1zm6 .4l-2.7-.2v-2.5l2.7.1zm6 .4l-2.7-.2v-2.5l2.7.2z"/></svg>