<?xml version="1.0" encoding="utf-8"?>
<!-- Generator: Adobe Illustrator 15.0.0, SVG Export Plug-In . SVG Version: 6.00 Build 0)  -->
<!DOCTYPE svg PUBLIC "-//W3C//DTD SVG 1.1//EN" "http://www.w3.org/Graphics/SVG/1.1/DTD/svg11.dtd">
<svg version="1.1" id="Layer_1" xmlns="http://www.w3.org/2000/svg" xmlns:xlink="http://www.w3.org/1999/xlink" x="0px" y="0px"
	 width="213px" height="242px" viewBox="0 0 213 242" enable-background="new 0 0 213 242" xml:space="preserve">
<path fill="#262525" d="M0.053,16.203v71.395H71.11V16.203H0.053z M34.258,76.612H15.705V28.806h18.938
	c8.16,0,13.934,1.963,17.321,5.889c3.387,3.926,5.081,9.584,5.081,16.975C57.045,68.298,49.449,76.612,34.258,76.612z"/>
<path fill="#262525" d="M33.719,41.354h-1.617v23.249h1.924c2.618,0,4.311-0.897,5.081-2.694c0.77-1.796,1.155-4.785,1.155-8.969
	c0-4.182-0.423-7.159-1.271-8.93C38.146,42.239,36.387,41.354,33.719,41.354z"/>
<path fill="#262525" d="M74.339,51.391c0-8.546,1.706-14.743,5.12-18.592c3.413-3.85,9.032-5.774,16.859-5.774
	c7.826,0,13.42,1.899,16.782,5.697c3.361,3.799,5.043,9.97,5.043,18.515c0,8.545-1.732,14.871-5.197,18.977
	c-3.463,4.106-9.058,6.158-16.781,6.158c-7.725,0-13.293-2.026-16.706-6.081S74.339,59.936,74.339,51.391z M100.591,42.229
	c-0.667-1.309-2.105-1.963-4.311-1.963c-2.207,0-3.618,0.642-4.234,1.924c-0.616,1.283-0.924,4.03-0.924,8.237v3.388
	c0,4.311,0.333,7.108,1,8.391c0.667,1.284,2.129,1.925,4.388,1.925c2.258,0,3.669-0.616,4.234-1.848
	c0.564-1.231,0.847-3.977,0.847-8.237v-3.541C101.592,46.297,101.257,43.538,100.591,42.229z"/>
<path fill="#262525" d="M161.408,75.602h-15.705l-9.7-18.861h-0.539v18.861h-14.626V27.795h16.243l9.084,19.477h0.461V27.795h14.781
	L161.408,75.602L161.408,75.602z"/>
<path fill="#262525" d="M211.753,40.805h-10.162v34.797h-16.397V40.805h-10.701l0.693-13.01h37.49L211.753,40.805z"/>
<path fill="#262525" d="M44.907,134.77c0,10.705-6.647,16.057-19.939,16.057H0V96.037h24.615c6.586,0,11.454,1.177,14.601,3.529
	c3.146,2.353,4.72,5.97,4.72,10.852c0,4.883-2.06,8.646-6.176,11.293v0.354C42.525,124.24,44.907,128.477,44.907,134.77z
	 M23.777,117.829c0.499-0.706,0.75-1.926,0.75-3.662c0-1.733-0.251-2.984-0.75-3.749c-0.5-0.764-1.31-1.147-2.426-1.147h-2.558
	v9.617h2.646C22.498,118.888,23.277,118.534,23.777,117.829z M24.527,138.871c0.529-0.676,0.794-2.104,0.794-4.279
	s-0.28-3.72-0.838-4.632c-0.56-0.911-1.604-1.367-3.132-1.367h-2.558v11.292h2.558C22.939,139.885,23.998,139.548,24.527,138.871z"
	/>
<path fill="#262525" d="M82.578,150.825H49.67V96.037h18.88v40.584h15.263L82.578,150.825z"/>
<path fill="#262525" d="M105.252,150.825H86.637V96.037h18.615V150.825z"/>
<path fill="#262525" d="M159.333,150.825h-17.998l-11.116-21.615h-0.617v21.615h-16.764V96.037h18.616l10.411,22.321h0.529V96.037
	h16.938V150.825z"/>
<path fill="#262525" d="M211.563,150.825H190.83l-5.559-18.175h-0.971v18.175h-17.91V96.037h17.91v21.703h0.971l6.97-21.703h20.204
	l-11.381,28.497L211.563,150.825z"/>
<path fill="#262525" d="M31.536,210.409c1.288,0,3.004-0.216,5.15-0.644v-6.438h-5.365V188.52h25.321v38.306H40.441l-1.609-3.435
	h-0.429c-3.72,3.006-8.119,4.508-13.197,4.508c-16.738,0-25.107-11.303-25.107-33.905c0-11.302,2.27-19.938,6.813-25.912
	c4.542-5.972,12.213-8.959,23.015-8.959c8.01,0,15.593,1.11,22.747,3.326l-3.541,20.172c-8.012-2.218-13.752-3.326-17.221-3.326
	c-3.47,0-5.758,1.146-6.867,3.433c-1.11,2.291-1.663,6.188-1.663,11.695c0,5.51,0.518,9.551,1.556,12.125
	C25.973,209.121,28.173,210.409,31.536,210.409z"/>
<path fill="#262525" d="M105.461,226.825H62.973v-66.63h43.991l-1.502,17.703H85.934v8.048h17.06v15.45h-17.06v9.119h21.03
	L105.461,226.825z"/>
<path fill="#262525" d="M152.242,226.825h-42.489v-66.63h43.991l-1.502,17.703h-19.528v8.048h17.06v15.45h-17.06v9.119h21.03
	L152.242,226.825z"/>
<path fill="#262525" d="M211.468,226.825h-25.214l-6.76-22.103h-1.18v22.103h-21.781v-66.63h21.781v26.395h1.18l8.477-26.395h24.57
	L198.7,194.852L211.468,226.825z"/>
<path fill="#262525" d="M163.398,31.136c0-1.211,0.384-2.116,1.15-2.714c0.766-0.598,1.971-0.897,3.611-0.897
	s2.813,0.345,3.52,1.035c0.704,0.69,1.057,1.848,1.057,3.473c0,1.626-0.498,3.029-1.494,4.209c-0.997,1.181-2.385,2.308-4.163,3.381
	l-4.002-0.598l3.174-4.278c-1.012-0.214-1.741-0.567-2.185-1.058C163.622,33.199,163.398,32.348,163.398,31.136z"/>
<line fill="none" stroke="#262525" stroke-width="5" stroke-miterlimit="10" x1="0.053" y1="239.5" x2="212.641" y2="239.5"/>
<line fill="none" stroke="#262525" stroke-width="5" stroke-miterlimit="10" x1="0.053" y1="2.5" x2="212.641" y2="2.5"/>
</svg>
