<?xml version="1.0" encoding="utf-8"?>
<!-- Generator: Adobe Illustrator 15.0.0, SVG Export Plug-In . SVG Version: 6.00 Build 0)  -->
<!DOCTYPE svg PUBLIC "-//W3C//DTD SVG 1.1//EN" "http://www.w3.org/Graphics/SVG/1.1/DTD/svg11.dtd">
<svg version="1.1" id="Layer_1" xmlns="http://www.w3.org/2000/svg" xmlns:xlink="http://www.w3.org/1999/xlink" x="0px" y="0px"
	 width="337.041px" height="361.217px" viewBox="-124.365 -60.113 337.041 361.217"
	 enable-background="new -124.365 -60.113 337.041 361.217" xml:space="preserve">
<path fill="#FFFDE8" d="M0.053,16.203v71.395H71.11V16.203H0.053z M34.258,76.612H15.705V28.806h18.938
	c8.16,0,13.934,1.963,17.321,5.889c3.387,3.926,5.081,9.584,5.081,16.975C57.045,68.298,49.449,76.612,34.258,76.612z"/>
<path fill="#FFFDE8" d="M33.719,41.354h-1.617v23.249h1.924c2.618,0,4.311-0.897,5.081-2.694c0.77-1.796,1.155-4.785,1.155-8.969
	c0-4.182-0.423-7.159-1.271-8.93C38.146,42.239,36.387,41.354,33.719,41.354z"/>
<path fill="#FFFDE8" d="M74.339,51.391c0-8.546,1.706-14.743,5.12-18.592c3.413-3.85,9.032-5.774,16.859-5.774
	c7.826,0,13.42,1.899,16.782,5.697c3.361,3.799,5.043,9.97,5.043,18.515c0,8.545-1.729,14.871-5.197,18.977
	c-3.463,4.106-9.055,6.158-16.778,6.158c-7.725,0-13.293-2.026-16.706-6.081S74.339,59.936,74.339,51.391z M100.591,42.229
	c-0.667-1.309-2.105-1.963-4.311-1.963c-2.207,0-3.618,0.642-4.234,1.924c-0.616,1.283-0.924,4.03-0.924,8.237v3.388
	c0,4.311,0.333,7.108,1,8.391c0.667,1.284,2.129,1.925,4.388,1.925c2.258,0,3.669-0.616,4.234-1.848
	c0.564-1.231,0.847-3.977,0.847-8.237v-3.541C101.592,46.297,101.257,43.538,100.591,42.229z"/>
<path fill="#FFFDE8" d="M161.408,75.602h-15.705l-9.7-18.861h-0.539v18.861h-14.626V27.795h16.243l9.084,19.477h0.461V27.795h14.781
	L161.408,75.602L161.408,75.602z"/>
<path fill="#FFFDE8" d="M211.753,40.805h-10.162v34.797h-16.397V40.805h-10.698l0.69-13.01h37.49L211.753,40.805z"/>
<path fill="#FFFDE8" d="M44.907,134.77c0,10.705-6.647,16.06-19.939,16.06H0v-54.79h24.615c6.586,0,11.454,1.177,14.601,3.529
	c3.146,2.353,4.72,5.97,4.72,10.852c0,4.883-2.06,8.646-6.176,11.293v0.354C42.525,124.24,44.907,128.477,44.907,134.77z
	 M23.777,117.829c0.499-0.706,0.75-1.926,0.75-3.662c0-1.733-0.251-2.984-0.75-3.749c-0.5-0.764-1.31-1.147-2.426-1.147h-2.558
	v9.617h2.646C22.498,118.888,23.277,118.534,23.777,117.829z M24.527,138.871c0.529-0.676,0.794-2.104,0.794-4.279
	c0-2.175-0.28-3.72-0.838-4.632c-0.56-0.911-1.604-1.367-3.132-1.367h-2.558v11.292h2.558
	C22.939,139.885,23.998,139.548,24.527,138.871z"/>
<path fill="#FFFDE8" d="M82.578,150.825H49.67V96.037h18.88v40.584h15.263L82.578,150.825z"/>
<path fill="#FFFDE8" d="M105.252,150.825H86.637V96.037h18.615V150.825z"/>
<path fill="#FFFDE8" d="M159.333,150.825h-17.998l-11.116-21.615h-0.617v21.615h-16.764V96.037h18.616l10.411,22.321h0.529V96.037
	h16.938L159.333,150.825L159.333,150.825z"/>
<path fill="#FFFDE8" d="M211.563,150.825H190.83l-5.559-18.175H184.3v18.175h-17.909V96.037H184.3v21.703h0.972l6.972-21.703h20.202
	l-11.381,28.497L211.563,150.825z"/>
<path fill="#FFFDE8" d="M31.536,210.409c1.288,0,3.004-0.216,5.15-0.644v-6.438h-5.365V188.52h25.321v38.309H40.441l-1.609-3.438
	h-0.429c-3.72,3.006-8.119,4.508-13.197,4.508c-16.738,0-25.107-11.303-25.107-33.902c0-11.305,2.27-19.938,6.813-25.912
	c4.542-5.975,12.213-8.959,23.015-8.959c8.01,0,15.593,1.107,22.747,3.326l-3.541,20.172c-8.012-2.221-13.752-3.326-17.221-3.326
	c-3.47,0-5.758,1.146-6.867,3.436c-1.11,2.291-1.663,6.188-1.663,11.692c0,5.513,0.518,9.554,1.556,12.125
	C25.973,209.121,28.173,210.409,31.536,210.409z"/>
<path fill="#FFFDE8" d="M105.461,226.825H62.973v-66.63h43.991l-1.502,17.703H85.934v8.048h17.06v15.45h-17.06v9.119h21.03
	L105.461,226.825z"/>
<path fill="#FFFDE8" d="M152.242,226.825h-42.489v-66.63h43.991l-1.502,17.703h-19.528v8.048h17.06v15.45h-17.06v9.119h21.03
	L152.242,226.825z"/>
<path fill="#FFFDE8" d="M211.468,226.825h-25.214l-6.76-22.103h-1.18v22.103h-21.781v-66.63h21.781v26.395h1.18l8.477-26.395h24.57
	L198.7,194.852L211.468,226.825z"/>
<path fill="#FFFDE8" d="M163.398,31.136c0-1.211,0.384-2.116,1.147-2.714c0.769-0.598,1.974-0.897,3.611-0.897
	s2.813,0.345,3.521,1.035c0.702,0.69,1.057,1.848,1.057,3.473c0,1.626-0.498,3.029-1.493,4.209
	c-0.997,1.181-2.386,2.308-4.163,3.381l-4.002-0.598l3.174-4.278c-1.014-0.214-1.741-0.567-2.186-1.058
	C163.622,33.199,163.398,32.348,163.398,31.136z"/>
<line fill="none" stroke="#FFFDE8" stroke-width="5" stroke-miterlimit="10" x1="0.053" y1="239.5" x2="212.641" y2="239.5"/>
<line fill="none" stroke="#FFFDE8" stroke-width="5" stroke-miterlimit="10" x1="0.053" y1="2.5" x2="212.641" y2="2.5"/>
<g>
	<path fill="#FCCEA4" d="M-83.781-10.585c-0.002-2.042-0.069-4.009-0.334-6.01c-0.051-0.388-0.152-0.691-0.277-0.948
		c-0.014-0.169-0.021-0.337-0.037-0.506c-0.043-0.464-0.172-0.795-0.328-1.069c0.047-0.621-0.116-1.307-0.576-1.603
		c-0.826-0.533-1.697-0.739-2.545-0.682c-0.073-0.009-0.148-0.011-0.223-0.016c-0.132-0.049-0.264-0.058-0.395-0.029
		c-1.107-0.002-2.188,0.366-3.053,1.482c-1.247,1.608-1.404,4.333-0.959,6.681c0.018,0.093,0.043,0.185,0.063,0.278
		c0.132,1.206,0.451,2.345,0.996,3.245c0.137,0.227,0.285,0.42,0.438,0.598c1.501,2.67,3.742,4.253,5.75,2.822
		c0.634-0.159,1.179-0.924,1.179-2.294c0-0.191-0.004-0.38-0.004-0.57C-83.907-9.58-83.781-10.028-83.781-10.585z"/>
	<path fill="#754007" d="M-85.479-11.842c-0.001-0.802-0.026-1.574-0.132-2.36c-0.02-0.152-0.059-0.271-0.107-0.372
		c-0.007-0.066-0.01-0.132-0.016-0.199c-0.016-0.182-0.066-0.313-0.129-0.42c0.02-0.243-0.045-0.513-0.225-0.629
		c-0.326-0.209-0.668-0.29-1-0.268c-0.029-0.004-0.059-0.004-0.088-0.007c-0.053-0.019-0.104-0.021-0.154-0.011
		c-0.436-0.001-0.859,0.144-1.199,0.582c-0.49,0.631-0.552,1.701-0.377,2.623c0.008,0.037,0.018,0.073,0.025,0.109
		c0.052,0.474,0.177,0.921,0.391,1.274c0.054,0.09,0.112,0.165,0.172,0.234c0.59,1.049,1.47,1.67,2.258,1.109
		c0.25-0.063,0.463-0.363,0.463-0.901c0-0.075-0.002-0.149-0.002-0.224C-85.529-11.448-85.479-11.623-85.479-11.842z"/>
	<path fill="#FCCEA4" d="M-40.587-8.274c0.283-1.75,0.613-3.426,1.117-5.104c0.097-0.325,0.227-0.571,0.367-0.773
		c0.036-0.143,0.065-0.286,0.104-0.428c0.101-0.392,0.256-0.658,0.428-0.872c0.046-0.538,0.28-1.103,0.716-1.293
		c0.78-0.343,1.555-0.397,2.272-0.232c0.067,0.003,0.129,0.012,0.194,0.017c0.119-0.023,0.233-0.013,0.342,0.03
		c0.949,0.152,1.822,0.616,2.408,1.692c0.849,1.55,0.604,3.906-0.103,5.857c-0.024,0.077-0.063,0.152-0.091,0.229
		c-0.279,1.015-0.711,1.946-1.301,2.642c-0.148,0.176-0.305,0.321-0.459,0.451c-1.654,2.08-3.795,3.126-5.316,1.623
		c-0.521-0.224-0.881-0.955-0.691-2.129c0.026-0.164,0.055-0.325,0.082-0.488C-40.618-7.397-40.666-7.797-40.587-8.274z"/>
	<path fill="#754007" d="M-38.019-9.528c0.121-0.744,0.26-1.458,0.475-2.171c0.043-0.138,0.096-0.243,0.158-0.329
		c0.015-0.061,0.025-0.122,0.043-0.183c0.043-0.167,0.109-0.279,0.183-0.37c0.019-0.229,0.121-0.469,0.304-0.551
		c0.334-0.145,0.662-0.168,0.967-0.098c0.028,0,0.055,0.005,0.084,0.007c0.051-0.009,0.099-0.005,0.146,0.013
		c0.403,0.064,0.774,0.261,1.022,0.72c0.36,0.659,0.258,1.661-0.043,2.491c-0.011,0.032-0.025,0.064-0.039,0.098
		c-0.119,0.431-0.302,0.828-0.554,1.123c-0.063,0.075-0.129,0.136-0.194,0.191c-0.705,0.885-1.613,1.331-2.262,0.691
		c-0.221-0.095-0.373-0.406-0.294-0.905c0.011-0.071,0.022-0.139,0.035-0.209C-38.032-9.155-38.052-9.325-38.019-9.528z"/>
	<path fill="#FFBE73" d="M-37.427-8.545c2.351-3.559,1.576-15.863,1.199-18.936c-2.021-16.56-13.398-17.562-19.822-18.457
		c-11.918-1.66-27.229,1.27-29.429,13.041c-2.778,14.859-0.433,28.065,3.701,44.207c3.377,13.186,11.073,13.639,17.966,15.023
		c7.093,1.424,19.884,1.79,21.802-3.795C-38.47,12.235-43.052-0.023-37.427-8.545z"/>
	<path fill="#FFC579" d="M-23.398,160.854c-0.519-2.033-0.021-6.02-1.535-7.459c-0.351-0.334-0.75-0.584-1.183-0.775
		c-0.022-0.031-0.056-0.059-0.069-0.098c-1.373-3.82-0.59-17.59,0.033-26.938c0.281-4.197-2.021-10.162-3.08-14.242
		c-0.714-2.75,0.693-8.012-2.941-8.43c-4.41-0.51-6.94,4.82-7.639,7.975c-1.305,5.891-0.676,6.023,0.131,14.191
		c0.642,6.504,9.115,21.996,5.119,28.275c-0.001,0.002-1.875,2.303-2.169,2.688c-0.479,0.631-0.72,2.041-0.756,3.66
		c-0.032,1.498,1.481,1.5,1.771,2.902c0.312,1.516-0.021,4.621,0.599,4.93c2.108,1.049,2.049-0.408,3.803-0.564
		c3.449-0.307,4.712,0.396,6.892-2.168C-23.082,163.227-23.144,161.848-23.398,160.854z"/>
	<path fill="#FFFFFF" d="M-25.787,116.16c-0.555-2.654-2.348-8.236-2.65-11.615c-1.128-12.583-0.937-25.099-1.558-37.733
		c-0.216-4.39-0.755-8.752-1.045-13.135c-0.228-3.448-0.409-6.887-1.978-10.033c-0.172-0.342-0.543-0.296-0.756-0.085
		c-0.171-0.029-0.345,0.037-0.438,0.252c-1.09,2.55-0.956,5.37-1.605,8.038c-0.943,3.878-2.215,7.667-3.13,11.555
		c-1.752,7.435-2.323,14.97-2.547,22.585c-0.235,8.091-0.036,16.192,0.221,24.281c0.112,3.543,0.448,7.146,0.296,10.689
		c-0.1,2.281-0.572,4.826,0.575,6.914c0.778,1.412,2.767,1.365,4.108,1.143c2.896-0.479,5.826-0.939,8.604-1.92
		c1.004-0.354,3.729-1.051,3.848-2.201C-23.488,121.441-24.65,121.611-25.787,116.16z"/>
	<path fill="#D7DFF1" d="M-23.486,118.203c0,0-0.044,4.002-0.063,5.561c-0.012,1.074,0.086,3.234-0.047,4.297
		c-0.086,0.688-1.615,1.404-9.828,1.861c-7.555,0.42-7.866,1.301-9.896,0.08c-3.152-1.895-4.768-9.9-2.052-11.879
		c2.082-1.518,8.872-0.24,11.829-0.322C-31.026,117.733-25.358,116.805-23.486,118.203z"/>
	<path fill="#9FB1D5" d="M-32.876,100.103c-0.807,0.016-1.689,0.123-2.473,0.309c-0.692,0.166-1.733,0.622-1.972,1.364
		c-0.231,0.725,0.927,1.111,1.09,0.398c0.103-0.449,1.029-0.756,1.413-0.986c0.618-0.371,1.244-0.721,1.952-0.891
		C-32.765,100.272-32.757,100.101-32.876,100.103z M-31.651,97.434c-2.571,0.227-4.671-0.418-7.176-0.943
		c-0.162-0.035-0.306,0.082-0.142,0.153c1.871,0.811,5.594,2.058,7.746,1.554C-30.576,98.047-30.902,97.369-31.651,97.434z
		 M-33.78,94.754c-1.864-0.384-3.212-1.285-4.87-2.186c-0.105-0.059-0.232-0.007-0.132,0.079c1.149,0.969,3.517,2.638,5.144,2.738
		C-33.15,95.415-33.236,94.866-33.78,94.754z"/>
	<path fill="#9FB1D5" d="M-55.154,32.979c-0.582-1.352-3.015-1.822-4.227-2.138c-2.479-0.647-5.006-1.293-7.551-1.584
		c-2.678-0.306-6.062-1.255-8.521,0.14c-2.255-0.068-0.102,4.365,1.397,4.926c2.831,1.06,6.164,0.869,9.136,1.004
		c2.939,0.134,5.912,0.403,8.836-0.078C-54.896,35.054-54.767,33.877-55.154,32.979z"/>
	<path fill="#FFBE73" d="M-38.042,40.701c-5.57-1.765-9.205-1.903-15.421-4.473c-5.25-2.375-4.721-10.456-4.224-17.666
		c-2.169-3.149-14.507-0.258-14.507-0.258s1.735,13.256-5.908,16.312c-0.203,0.082-0.363,0.202-0.537,0.257
		c-3.972,1.261-8.613,1.02-13.482,1.643c-12.453,1.593-9.078,1.858-6.605,21.505c0.408,3.243,4.703,19.247,6.883,33.597
		c1.555,10.239,1.078,31.636,1.076,34.987c-0.006,9.625,3.91,21.346,5.946,22.938c1.176,0.922,12.37-0.912,22.829-0.289
		c7.654,0.455,14.877,4.059,17.674,1.871c6.619-5.178,6.267-11.689,6.694-20.865c0.303-6.502,1.637-37.593,3.063-56.28
		c0.563-7.364,1.18-13.035,1.18-14.162C-33.382,43.866-30.595,43.062-38.042,40.701z"/>
	<path fill="#36230A" d="M-38.708,9.585c-0.098-2.379-0.385-4.695-0.98-6.999c-0.009-0.037-0.041-0.051-0.058-0.083
		c0.001-0.811-0.007-1.621-0.048-2.437c-0.035-0.742-1.036-0.764-1.18-0.1c-0.203,0.126-0.393,0.241-0.572,0.448
		c-0.313,0.364-0.631,0.724-0.94,1.088c-0.099,0.115-0.204,0.225-0.308,0.337c-0.24-0.252-0.614-0.354-1.004-0.138
		c-0.471,0.259-0.795,0.578-1.096,0.947c-0.811-0.264-1.947,0.095-2.68,0.518c-0.025,0.016-0.053,0.032-0.08,0.048
		c-0.063-0.148-0.146-0.287-0.247-0.389c-0.769-0.774-5.218,2.381-5.267,2.414c-0.835-0.836-5.271-0.521-5.924-0.097
		c-0.686-0.604-5.078-3.539-5.597-3.803c-0.269-0.137-0.642,0.027-0.628,0.36c0.001,0.024,0.01,0.039,0.01,0.061
		c-0.475-0.315-0.964-0.614-1.417-0.906c-0.864-0.561-2.264-1.326-3.247-0.699c-0.088,0.057-0.146,0.134-0.209,0.208
		c-0.786-0.336-1.505-0.843-2.254-1.253c-0.528-0.29-1.979-0.7-2.295-0.015c-0.039-0.023-0.076-0.042-0.115-0.066
		c-0.448-0.268-0.828-0.644-1.223-0.98c-0.807-0.688-1.906-1.591-3.031-1.23c-0.271,0.086-0.438,0.276-0.541,0.493
		c-0.451-0.194-0.919-0.345-1.333-0.476c-1.274-0.404-2.407-0.828-3.497-1.636c-0.107-0.079-0.213-0.103-0.318-0.105
		c-0.2-0.263-0.691-0.2-0.701,0.221c-0.029,1.172,0.186,2.301,0.478,3.433c0.018,1.025,0.19,2.079,0.323,2.996
		c0.238,1.644,0.143,4.506,1.51,5.613c0.086,0.069,0.184,0.117,0.285,0.146l0.018,0.2c0.105,1.161,0.096,2.689,0.518,3.908
		c0.004,0.155,0.007,0.315,0.008,0.468c0.017,2.15-0.168,5.463,1.549,7.009c0.283,0.255,0.65,0.277,0.954,0.142
		c0.12,0.49,0.231,0.956,0.317,1.38c0.198,0.982,1.108,1.224,1.858,0.963c0.239,0.656,0.562,1.248,1.027,1.673
		c0.161,0.149,0.353,0.176,0.534,0.152c0.056,0.142,0.105,0.295,0.163,0.432c0.256,0.605,0.776,0.706,1.245,0.534
		c0.324,0.459,0.866,0.719,1.461,0.556c0.076-0.021,0.151-0.053,0.224-0.089c0.03,0.117,0.058,0.24,0.089,0.353
		c0.283,1.028,1.301,1.238,2.056,0.902c0.39,0.761,1.104,1.27,2.021,1.017c0.367-0.101,0.699-0.357,0.938-0.686
		c0.018,0.056,0.033,0.114,0.053,0.171c0.37,1.067,1.549,0.956,2.011,0.292c0.298,0.336,0.725,0.519,1.217,0.383
		c0.111-0.031,0.212-0.08,0.306-0.139c0.314,0.625,0.912,1.04,1.654,0.835c0.378-0.104,0.717-0.403,0.906-0.769
		c0.034,0.061,0.061,0.128,0.099,0.186c0.477,0.733,1.269,0.623,1.72,0.179c0.006,0.014,0.01,0.028,0.015,0.041
		c0.196,0.452,0.82,0.629,1.258,0.511c0.036-0.01,0.056-0.033,0.089-0.045c0.017,0.042,0.023,0.083,0.041,0.125
		c0.258,0.685,0.896,1.147,1.652,0.938c0.319-0.087,0.561-0.273,0.726-0.509c0.364,0.249,0.875,0.231,1.281,0.03
		c0.613,0.923,2.187,0.626,2.609-0.316c0.498,0.505,1.49,0.541,1.997,0.018c0.571,0.635,1.82,0.599,2.319-0.099
		c0.619,0.094,1.308-0.165,1.58-0.771c0.236,0.113,0.484,0.193,0.73,0.193c0.911,0,1.506-0.663,1.659-1.487
		c0.746,0.069,1.548-0.295,1.794-1.154c0.132-0.465,0.15-0.98,0.15-1.483c0.666,0.011,1.336-0.35,1.492-1.096
		c0.168-0.807,0.108-1.625,0.016-2.442c0.186-0.133,0.324-0.335,0.369-0.626c0.185-1.232-0.012-2.535-0.147-3.816
		c0.341-0.148,0.556-0.496,0.587-0.891c0.026-0.314-0.014-0.615-0.074-0.91c0.426-0.245,0.726-0.728,0.617-1.426
		c-0.082-0.529-0.107-1.104-0.173-1.662c0.013-0.007,0.021-0.01,0.033-0.017C-38.958,10.451-38.69,10.016-38.708,9.585z"/>
	<path fill="#754007" d="M-47.45,4.917c-1.121,0.081-2.173,0.498-3.248,0.803c-1.604,0.453-3.127,0.535-4.771,0.631
		c-0.118,0.007-0.133,0.16-0.025,0.201c2.32,0.895,6.023-0.201,8.146-1.263C-47.175,5.201-47.253,4.903-47.45,4.917z"/>
	<path fill="#754007" d="M-47.855,7.524c-2.744,0.43-5.18,2.492-8.117,1.395c-0.064-0.023-0.109,0.083-0.047,0.11
		c2.457,1.05,6.231,0.45,8.283-1.303C-47.634,7.639-47.747,7.508-47.855,7.524z"/>
	<path fill="#754007" d="M-41.765,3.589c-0.742,0.182-1.435,0.763-2.115,1.114c-0.898,0.463-1.815,0.867-2.682,1.399
		c-0.162,0.101-0.019,0.34,0.152,0.256c0.908-0.449,1.857-0.81,2.787-1.214c0.695-0.303,1.633-0.668,1.992-1.378
		C-41.581,3.672-41.659,3.563-41.765,3.589z"/>
	<path fill="#754007" d="M-42.464,5.676c-1.198,0.616-2.651,1.014-3.733,1.82c-0.142,0.104-0.063,0.376,0.13,0.306
		c1.271-0.47,2.752-1,3.755-1.929C-42.204,5.772-42.343,5.614-42.464,5.676z"/>
	<path fill="#754007" d="M-43.515,2.963c-0.809,0.049-1.488,0.694-2.029,1.238c-0.107,0.11,0.037,0.313,0.17,0.219
		c0.613-0.444,1.404-0.704,1.966-1.203C-43.317,3.132-43.388,2.956-43.515,2.963z"/>
	<path fill="#754007" d="M-40.474,0.974c-0.541,0.319-1.078,0.896-1.268,1.5c-0.05,0.16,0.156,0.267,0.271,0.158
		c0.441-0.424,0.984-0.91,1.219-1.485C-40.197,1.018-40.368,0.912-40.474,0.974z"/>
	<path fill="#754007" d="M-58.216,6.342c-0.441-0.008-0.82,0.18-1.271,0.197c-0.613,0.024-1.188-0.236-1.717-0.518
		c-1.063-0.568-1.741-1.459-2.44-2.397c-0.104-0.135-0.365-0.062-0.297,0.125c0.408,1.134,1.516,2.051,2.502,2.674
		c0.816,0.516,2.619,1.185,3.354,0.236C-57.99,6.535-58.039,6.344-58.216,6.342z"/>
	<path fill="#754007" d="M-57.698,8.63c-0.834-0.487-1.826-0.369-2.768-0.425c-1.775-0.105-2.857-1.131-4.153-2.179
		c-0.066-0.054-0.175,0.014-0.125,0.096c1.4,2.289,4.461,2.98,6.974,2.777C-57.634,8.887-57.568,8.706-57.698,8.63z"/>
	<path fill="#754007" d="M-65.046,3.111c-0.189-0.162-0.407-0.162-0.646-0.229c-0.395-0.113-0.758-0.346-1.1-0.573
		c-0.644-0.428-1.109-0.982-1.643-1.526c-0.119-0.124-0.293,0.031-0.227,0.174c0.333,0.696,1.055,1.26,1.668,1.699
		c0.408,0.293,1.42,0.975,1.926,0.623C-65.015,3.241-64.99,3.158-65.046,3.111z"/>
	<path fill="#754007" d="M-66.166,6.782c-0.455-0.347-0.993-0.573-1.464-0.902c-0.621-0.433-1.154-0.991-1.682-1.529
		c-0.939-0.96-1.758-2.119-2.393-3.303c-0.07-0.134-0.261-0.016-0.199,0.117c0.644,1.384,1.516,2.603,2.513,3.752
		c0.726,0.836,1.974,2.09,3.156,2.116C-66.087,7.036-66.07,6.857-66.166,6.782z"/>
	<path fill="#754007" d="M-72.843,2.178c-0.681-0.512-1.344-1.091-1.807-1.813c-0.1-0.158-0.328-0.021-0.248,0.145
		c0.352,0.724,0.848,1.29,1.457,1.807c0.469,0.395,1.096,1.073,1.711,1.155c0.086,0.012,0.164-0.098,0.135-0.176
		C-71.788,2.788-72.425,2.494-72.843,2.178z"/>
	<path fill="#754007" d="M-76.003,0.524c-0.289-0.391-0.693-0.639-1.074-0.937c-0.443-0.349-0.865-0.774-1.174-1.247
		c-0.133-0.204-0.416-0.028-0.32,0.188c0.403,0.917,1.418,1.967,2.43,2.18C-76.047,0.728-75.931,0.62-76.003,0.524z"/>
	<path fill="#754007" d="M-79.375-0.825c-0.595-0.646-1.363-1.114-2.085-1.606c-0.781-0.534-1.578-1.103-2.498-1.369
		c-0.075-0.022-0.148,0.085-0.08,0.14c0.658,0.525,1.382,0.967,2.07,1.453c0.797,0.561,1.561,1.233,2.488,1.561
		C-79.372-0.609-79.308-0.751-79.375-0.825z"/>
	<path fill="#754007" d="M-83.231-0.697c-0.03-0.084-0.167-0.077-0.165,0.022c0.037,1.169,0.328,2.303,0.522,3.454
		c0.255,1.501,0.095,2.923,0.188,4.417c0.014,0.21,0.313,0.264,0.373,0.051C-81.648,4.911-82.435,1.528-83.231-0.697z"/>
	<path fill="#754007" d="M-79.42,14.89c-0.03-1.374-0.034-2.763-0.165-4.131c-0.02-0.209-0.307-0.209-0.324,0
		c-0.127,1.369-0.086,2.756-0.082,4.131c0.002,1.207-0.105,2.456,0.135,3.642c0.036,0.182,0.33,0.183,0.367,0
		C-79.255,17.342-79.395,16.098-79.42,14.89z"/>
	<path fill="#754007" d="M-80.847,9.432c0.074-1.724,0.649-3.299,0.867-4.984c0.029-0.222-0.297-0.274-0.397-0.108
		c-1.644,2.715-1.47,7.19-0.808,10.18c0.046,0.208,0.346,0.148,0.355-0.049C-80.742,12.794-80.921,11.115-80.847,9.432z"/>
	<path fill="#754007" d="M-79.218,0.888c-0.683-0.432-1.244,0.424-1.49,0.951c-0.094,0.198,0.16,0.341,0.287,0.168
		c0.178-0.236,0.383-0.46,0.634-0.619c0.167-0.105,0.391-0.118,0.569-0.212C-79.103,1.116-79.118,0.952-79.218,0.888z"/>
	<path fill="#754007" d="M-77.684,3.743c0.037-0.156-0.168-0.241-0.255-0.107c-1.434,2.232-1.236,5.921-0.104,8.252
		c0.079,0.163,0.329,0.078,0.329-0.089c0-1.187-0.305-2.348-0.428-3.525C-78.304,6.726-78.035,5.243-77.684,3.743z"/>
	<path fill="#754007" d="M-75.491,22.092c-1.356-1.91-1.846-3.75-2.27-6.023c-0.025-0.127-0.241-0.131-0.26,0
		c-0.324,2.134,0.451,4.968,2.256,6.296C-75.605,22.483-75.378,22.252-75.491,22.092z"/>
	<path fill="#754007" d="M-74.968,17.71c-0.676-1.442-1.16-2.505-1.271-4.144c-0.096-1.427-0.086-2.863-0.148-4.292
		c-0.002-0.024-0.035-0.024-0.037,0c-0.152,2.288-1.395,7.248,1.178,8.715C-75.059,18.097-74.884,17.888-74.968,17.71z"/>
	<path fill="#754007" d="M-74.042,11.574c-0.123-0.575-0.093-1.19-0.286-1.747c-0.052-0.146-0.244-0.145-0.296,0
		c-0.322,0.914-0.451,2.813,0.548,3.363c0.16,0.088,0.351-0.023,0.356-0.204C-73.706,12.497-73.941,12.047-74.042,11.574z"/>
	<path fill="#754007" d="M-70.62,24.425c-0.538-0.683-1.161-1.254-1.654-1.984c-0.533-0.791-0.939-1.689-1.273-2.58
		c-0.044-0.119-0.227-0.106-0.227,0.031c-0.014,1.041,0.387,2.015,0.871,2.917c0.416,0.773,1.152,1.816,2.086,1.958
		C-70.61,24.798-70.49,24.591-70.62,24.425z"/>
	<path fill="#754007" d="M-71.986,16.958c-0.316-0.785-0.433-1.659-0.796-2.417c-0.062-0.129-0.252-0.084-0.288,0.038
		c-0.445,1.488,0.744,3.74,1.625,4.887c0.123,0.16,0.391,0.074,0.34-0.144C-71.3,18.487-71.665,17.751-71.986,16.958z"/>
	<path fill="#754007" d="M-41.427,7.427c-0.136-0.061-0.324,0.073-0.224,0.222c0.492,0.735,0.548,1.663,1.035,2.378
		c0.077,0.112,0.271,0.11,0.306-0.039C-40.112,9.12-40.583,7.806-41.427,7.427z"/>
	<path fill="#754007" d="M-41.878,11.339c-0.11-0.153-0.381-0.069-0.322,0.136c0.563,1.917,0.119,3.997,0.738,5.867
		c0.059,0.173,0.291,0.171,0.349,0C-40.489,15.507-40.716,12.921-41.878,11.339z"/>
	<path fill="#754007" d="M-44.867,9.694c-0.079-0.062-0.204,0.041-0.171,0.131c0.635,1.706,0.282,3.415,0.653,5.147
		c0.043,0.202,0.355,0.198,0.402,0C-43.613,13.383-43.404,10.821-44.867,9.694z"/>
	<path fill="#754007" d="M-43.351,17.936c-0.023-0.102-0.187-0.08-0.183,0.025c0.044,1.271-0.168,2.516-0.397,3.763
		c-0.205,1.122-0.729,2.293-0.588,3.439c0.033,0.262,0.324,0.347,0.485,0.13c0.708-0.954,0.784-2.303,0.933-3.457
		C-42.933,20.512-43.05,19.228-43.351,17.936z"/>
	<path fill="#754007" d="M-46.865,13.647c-0.085-0.178-0.326-0.044-0.297,0.125c0.361,2.099,0.054,4.027,0.063,6.119
		c0.002,0.231,0.338,0.34,0.45,0.121C-45.66,18.095-45.957,15.535-46.865,13.647z"/>
	<path fill="#754007" d="M-48.634,20.295c-0.032-0.15-0.274-0.153-0.306,0c-0.262,1.294-0.159,2.616-0.601,3.875
		c-0.305,0.866-1.074,1.882-0.471,2.734c0.078,0.109,0.231,0.147,0.334,0.042c0.662-0.675,0.853-2.057,1.14-2.956
		C-48.171,22.837-48.38,21.452-48.634,20.295z"/>
	<path fill="#754007" d="M-51.522,16.357c-0.045-0.154-0.282-0.165-0.321,0c-0.207,0.854-0.279,1.74-0.47,2.6
		c-0.178,0.796-0.487,1.521-0.483,2.345c0,0.118,0.169,0.212,0.255,0.105C-51.61,20.214-51.095,17.829-51.522,16.357z"/>
	<path fill="#754007" d="M-52.04,23.269c-0.324,0.882-0.918,1.684-1.502,2.413c-0.457,0.573-1.136,1.132-1.42,1.813
		c-0.051,0.122,0.095,0.236,0.205,0.206c0.813-0.227,1.46-1.148,1.937-1.797c0.568-0.775,0.95-1.637,1.055-2.597
		C-51.747,23.14-51.989,23.133-52.04,23.269z"/>
	<path fill="#754007" d="M-70.003,14.946c-0.045-0.186-0.358-0.149-0.339,0.045c0.206,2.008,0.772,4.039,2.004,5.669
		c0.136,0.18,0.409,0.078,0.365-0.153C-68.345,18.562-69.546,16.878-70.003,14.946z"/>
	<path fill="#754007" d="M-67.197,25.371c-0.371-0.574-0.703-1.176-1.082-1.749c-0.24-0.363-0.494-1.188-0.902-1.375
		c-0.095-0.043-0.211-0.029-0.266,0.07c-0.248,0.441,0.283,1.139,0.493,1.504c0.409,0.703,0.862,1.242,1.48,1.764
		C-67.329,25.707-67.08,25.55-67.197,25.371z"/>
	<path fill="#754007" d="M-63.882,24.6c-0.421-0.689-1.018-1.201-1.388-1.953c-0.435-0.883-0.679-1.86-0.972-2.795
		c-0.057-0.183-0.332-0.107-0.285,0.079c0.331,1.353,0.561,4.722,2.383,5.011C-63.955,24.971-63.765,24.792-63.882,24.6z"/>
	<path fill="#754007" d="M-54.984,20.88c-0.672,1.614-2.084,2.918-2.578,4.588c-0.072,0.241,0.236,0.408,0.41,0.24
		c1.25-1.213,1.969-3.11,2.534-4.728C-54.535,20.745-54.893,20.66-54.984,20.88z"/>
	<path fill="#754007" d="M-58.765,21.051c-0.719,1.605-1.943,2.938-2.549,4.576c-0.074,0.203,0.21,0.345,0.35,0.204
		c1.23-1.247,2.045-2.954,2.574-4.623C-58.322,20.99-58.669,20.838-58.765,21.051z"/>
	<path fill="#754007" d="M-62.377,20.276c-0.062-0.244-0.473-0.198-0.446,0.061c0.117,1.208,0.082,2.411,0.302,3.604
		c0.026,0.147,0.269,0.147,0.294,0C-62.001,22.708-62.07,21.495-62.377,20.276z"/>
	<path fill="#FFFFFF" d="M-70.403-19.154c-6.919,0-6.919,4,0,4C-63.483-15.154-63.483-19.154-70.403-19.154z"/>
	<path fill="#335880" d="M-72.198-18.76c-2.579,0-2.579,4.001,0,4.001C-69.616-14.759-69.616-18.76-72.198-18.76z"/>
	<path fill="#45321D" d="M-70.095-17.267c9.707,0.261,2.261-2.358-0.292-1.978C-72.941-18.866-81.605-17.578-70.095-17.267z"/>
	<path fill="#FFFFFF" d="M-46.468-17.634c-6.732,0-6.732,4,0,4C-39.735-13.634-39.735-17.634-46.468-17.634z"/>
	<path fill="#335880" d="M-48.068-17.427c-2.58,0-2.58,4.001,0,4.001S-45.488-17.427-48.068-17.427z"/>
	<path fill="#45321D" d="M-45.978-16.022c9.704,0.262,2.26-2.359-0.294-1.978C-48.824-17.622-57.49-16.333-45.978-16.022z"/>
	<path fill="#36230A" d="M-88.524-37.965c0.15-1.155,0.378-2.5,0.818-3.711c0.141-0.821,0.319-1.619,0.518-2.37
		c0.592-2.261,2.034-6.635,4.596-7.693c0.067-0.038,0.131-0.077,0.198-0.111c0.65-0.815,1.431-1.512,2.099-1.945
		c1.363-0.892,3.521-1.049,5.191-0.404c0.421-1.076,0.597-2.314,1.204-3.247c0.076-0.121,0.294-0.158,0.357,0
		c0.317,0.72,0.342,1.681,0.314,2.614c1.454-0.93,3.01-1.637,4.65-2.024c1.09-0.257,2.214-0.378,3.352-0.417
		c1.313-0.285,2.608-0.456,3.565-0.654c2.867-0.594,7.442-3.656,10.056-1.321c0.048,0.041,0.064,0.14,0.024,0.189
		c-0.93,1.228-2.169,2.194-3.522,2.979c0.259,0.051,0.53,0.102,0.78,0.152c2.337-0.465,4.771-0.556,7.116-0.425
		c2.876,0.162,6.481,0.238,8.954,1.889c2.104,0.611,3.896,1.971,4.791,4.116c0.082,0.197-0.119,0.373-0.295,0.388
		c-0.953,0.071-1.6-0.192-2.532-0.416c-0.918-0.223-1.761-0.391-2.614-0.497c2.081,1.532,3.932,3.563,4.975,4.935
		c2.362,3.099,6.08,9.433,3.813,13.365c-0.226,0.397-0.759,0.353-0.997,0c-0.852-1.26-1.534-2.563-2.188-3.872
		c0.662,3.304,0.498,6.598-0.885,10.043c-0.097,0.237-0.402,0.245-0.49,0c-0.938-2.573-1.299-5.293-1.873-7.978
		c0.555,5.002,0.076,10.179-1.836,14.766c-0.149,0.363-0.746,0.474-0.854,0c-0.585-2.668-0.75-5.396-0.922-8.132
		c-0.119,0.555-0.263,1.096-0.457,1.625c-0.151,0.407-0.743,0.455-0.875,0c-0.89-3.208-1.757-6.423-2.833-9.572
		c-0.225-0.314-0.441-0.625-0.674-0.916c-1.379-1.696-3.061-3.216-4.729-4.661c0.137,0.656,0.324,2.438-0.621,2.107
		c-0.903-0.316-1.353-1.339-1.999-1.985c-1.262-1.265-2.687-2.32-4.182-3.291c-0.299-0.097-0.598-0.19-0.899-0.293
		c-1.11-0.38-2.198-0.825-3.287-1.273c-1.452-0.08-2.926-0.158-4.396-0.188c0.664,0.332,1.264,0.698,1.753,1.092
		c0.057,0.043,0.032,0.133-0.02,0.165c-0.079,0.048-0.159,0.08-0.235,0.124l0.004,0.003c0.096,0.057,0.033,0.202-0.071,0.174
		c-0.066-0.017-0.131-0.025-0.203-0.037c-0.461,0.217-0.933,0.365-1.415,0.464c1.447,0.006,2.747,0.025,4.241,0.636
		c0.102,0.041,0.147,0.143,0.136,0.236c0.405,0.083,0.298,0.617-0.013,0.745c-3.548,1.439-7.575,1.135-11.319,0.737
		c-1.439-0.153-3.092-0.191-4.663-0.439c-0.127,0.063-0.255,0.128-0.374,0.189c-0.15,0.078-0.317,0.183-0.488,0.295
		c-1.503,1.858-2.691,4.008-3.621,6.243c-0.176,1.422-0.542,2.867-0.728,4.201c-0.422,3.056-0.128,6.269-0.8,9.256
		c-0.079,0.356-0.567,0.311-0.672,0c-0.996-3.037-1.213-6.489-1.601-9.673c-0.053-0.412-0.081-0.842-0.088-1.28
		c-0.295,1.879-0.586,3.76-1.058,5.614c-0.132,0.506-0.882,0.497-1.018,0C-88.304-30.935-88.996-34.356-88.524-37.965z"/>
	<path fill="#8E5F0C" d="M-83.511-49.952c0.088-0.142,0.33,0.006,0.251,0.152c-1.046,1.861-1.799,3.819-2.305,5.897
		c-0.451,1.853-0.26,3.663-0.388,5.537c-0.015,0.23-0.378,0.261-0.445,0.051C-87.59-42.04-85.507-46.879-83.511-49.952z
		 M-84.799-34.852c0.028,0.217,0.29,0.258,0.374,0.054c0.702-1.791,0.755-3.819,1.354-5.666c0.609-1.863,1.4-3.603,2.419-5.275
		c0.046-0.083-0.073-0.152-0.128-0.078C-82.827-42.923-85.239-38.522-84.799-34.852z M-77.702-46.728
		c1.699,2.633,4.689,3.201,7.579,3.619c0.159,0.023,0.219-0.186,0.066-0.245c-1.935-0.731-4.403-1.021-5.897-2.58
		c-0.62-0.648-1.526-1.595-1.193-2.6c0.263-0.791,1.145-0.773,1.705-1.249c0.115-0.099,0.098-0.348-0.055-0.409
		c-0.812-0.349-1.948,0.061-2.422,0.844C-78.434-48.497-78.227-47.538-77.702-46.728z M-69.944-54.828
		c3.629-0.144,7.734-1.037,11.125-2.313c0.199-0.076,0.119-0.391-0.091-0.323c-3.589,1.134-7.728,0.693-11.147,2.205
		C-70.274-55.163-70.159-54.819-69.944-54.828z M-68.446-52.131c9.737,0.431,18.396-5.616,28.132-1.538
		c0.043,0.018,0.075-0.059,0.035-0.078c-9.123-4.121-18.861,0.178-28.186,1.453C-68.565-52.282-68.537-52.136-68.446-52.131z
		 M-62.606-50.721c10.089-0.168,19.449-1.886,27.662,5.572c0.034,0.041,0.095-0.023,0.06-0.059
		c-7.504-7.015-18.012-8.253-27.762-5.802C-62.81-50.967-62.773-50.716-62.606-50.721z M-49.39-47.393
		c2.465,1.387,4.98,2.313,7.058,4.349c2.428,2.382,3.887,5.218,4.104,8.643c0.012,0.214,0.338,0.22,0.338,0
		c-0.009-6.201-5.224-12.167-11.336-13.373C-49.457-47.823-49.613-47.511-49.39-47.393z"/>
	<path fill="#FFBE73" d="M-74.706,6.532c3.607,4.938,5.5,10.893,10.861,11.486c2.564,0.284,5.81,1.237,8.277,0
		c3.016-1.511,4.916-3.384,7.125-6.314c0.186-0.245-6.458,2.437-12.553,1.282C-68.054,11.65-74.741,6.485-74.706,6.532z"/>
	<path fill="#45321D" d="M-46.546,10.02c0,0-5.668,8.142-15.015,6.593C-70.91,15.065-75.375,5.325-76.289,3.839
		c-0.918-1.486-0.348-2.054,0.956-0.891c5.745,5.126,19.101,9.071,27.12,6.727C-44.664,8.642-46.546,10.02-46.546,10.02z"/>
	<path fill="#FFFFFF" d="M-50.546,10.535c-1.843,0.383-4.782,0.174-4.782,0.174c-5.635-0.36-12.041-2.327-16.645-4.957
		C-72.06,6.036-71.771,7.09-71.965,7.3c-0.253,0.269-1.294,0.129-1.616,0.217c2.271,3.127,6.34,6.855,12.143,7.816
		c0.512,0.085,1.014,0.142,1.5,0.173c5.077,0.323,8.921-1.943,10.128-2.752c-0.1-0.141-1.128-0.519-1.184-0.682
		C-51.05,11.91-50.534,10.709-50.546,10.535z"/>
	<path fill="#36230A" d="M-37.105-21.504c-1.859-0.29-4.52-0.503-6.393-0.697c-1.105-0.115-4.887-0.049-7.043-1.994
		c-1.421-1.283-2.632,1.515-0.918,2.79c1.134,0.842,2.346,1.411,3.777,1.387c0.658-0.011,8.398-0.511,10.618-0.742
		C-36.614-20.805-36.71-21.443-37.105-21.504z"/>
	<path fill="#8E5F0C" d="M-37.136-21.442c-2.373,0.303-5.013-0.179-7.373-0.461c-2.516-0.299-4.472-0.72-6.543-2.269
		c-0.042-0.032-0.113,0.022-0.081,0.07c0.753,1.151,2.367,2.131,3.732,2.359c3.441,0.574,6.85,0.517,10.295,0.814
		C-36.736-20.895-36.751-21.49-37.136-21.442z"/>
	<path fill="#36230A" d="M-64.964-26.03c-4.189-1.825-12.534-2.598-15.219,1.788c-1.109,1.813-0.009,1.696,1.488,0.204
		c3.131-3.118,9.045-0.614,12.583,0.638c0.582,0.207,2.226-0.061,2.69-0.876C-63.003-25.008-63.959-25.593-64.964-26.03z"/>
	<path fill="#8E5F0C" d="M-64.056-25.411c-4.483-1.77-13.903-3.645-16.27,1.784c-0.026,0.062,0.074,0.09,0.109,0.042
		c3.379-4.436,11.085-3.428,15.664-1.056C-63.99-24.349-63.488-25.186-64.056-25.411z"/>
	<path fill="#FFFFFF" d="M22.741,291.854c1.316,2.775-2.561,4.172-3.978,4.873c0,0-3.112,2.041-11.104,2.041
		c-12.371,0-40.494,0-40.494,0c-0.579,0-1.049-0.367-1.049-0.82l-0.141-2.969c0-0.451,0.609-0.822,1.188-0.822
		c0,0,28.007,0.305,40.334,0c3.718-0.094,6.635-0.645,6.635-0.645C14.331,293.857,22.741,291.854,22.741,291.854z"/>
	<path fill="#FF6A00" d="M-34.616,293.145c0,0-0.444-1.359-0.728-3.211c-0.355-2.34-0.685-5.514,0.102-8.174
		c1.624-5.5-2.553-16.748-1.916-20.199c0.635-3.447-2.303-3.299,5.2-6.109c7.497-2.811,11.715-3.344,12.341,1.342
		c0.389,2.91-1.189,13.477,4.266,21.359c3.879,5.607,13.039,8.947,24.153,10.646c6.198-1.02,13.925,1.492,13.938,3.055
		c-0.826,0.689-3.64,2.775-7.898,3.457c-2.16,0.348-4.348-1.154-7.344-1.154C-12.106,294.156-34.616,293.145-34.616,293.145z"/>
	<path fill="#590600" d="M-19.679,256.635c-1.259-5.092-4.781-3.994-12.278-1.186c-7.503,2.813-4.972,1.58-5.605,5.029
		c-0.636,3.449,5.744,16.682,2.321,21.281c-0.643,0.861-0.25,1.762-0.453,2.719c-0.42,1.979,0.051,4.002,0.359,5.619
		c0.338,1.768,1.281,5.443,1.281,5.443s21.521,0.313,41.125,0.313c2.654,0,5.771-0.256,7.771-0.543
		c-0.013-0.041-1.489-5.572-6.04-6.512c-11.163-1.707-20.766-5.371-24.639-11.008C-21.24,269.924-18.978,259.477-19.679,256.635z"/>
	<polygon fill="#FF6A00" points="-34.613,263.283 -33.116,264.809 -30.664,264.707 -32.054,266.295 -31.175,268.092 -33.53,267.545 
		-35.442,268.754 -35.505,266.83 -37.564,265.783 -35.249,265.139 	"/>
	<path fill="#FFFFFF" d="M1.753,291.021c0.196-0.596-0.263-1.203-1.024-1.359c-0.764-0.152-1.537,0.205-1.738,0.803
		c-0.195,0.596,0.264,1.207,1.022,1.359C0.776,291.979,1.555,291.619,1.753,291.021z"/>
	<path fill="#590600" d="M1.139,290.9c0.105-0.332-0.145-0.672-0.57-0.76c-0.422-0.086-0.854,0.115-0.965,0.445
		c-0.109,0.332,0.145,0.672,0.567,0.758C0.595,291.43,1.028,291.232,1.139,290.9z"/>
	<path fill="#FFFFFF" d="M2.227,287.598c0.113-0.332-0.144-0.67-0.566-0.758l0,0c-0.422-0.084-0.854,0.113-0.965,0.447l-0.893,2.699
		c-0.109,0.33,0.145,0.67,0.568,0.756l0,0c0.424,0.086,0.854-0.113,0.964-0.445L2.227,287.598z"/>
	<path fill="#FFFFFF" d="M-4.464,289.496c0.396-0.535,0.162-1.219-0.518-1.529c-0.681-0.311-1.555-0.127-1.949,0.404
		c-0.394,0.533-0.164,1.219,0.516,1.529C-5.735,290.211-4.863,290.029-4.464,289.496z"/>
	<path fill="#590600" d="M-5.013,289.246c0.219-0.297,0.09-0.678-0.287-0.85c-0.379-0.172-0.864-0.07-1.084,0.225
		c-0.221,0.297-0.09,0.678,0.287,0.85C-5.716,289.643-5.235,289.541-5.013,289.246z"/>
	<path fill="#FFFFFF" d="M-2.829,286.297c0.222-0.297,0.092-0.678-0.286-0.85l0,0c-0.379-0.172-0.861-0.072-1.084,0.225
		l-1.786,2.412c-0.22,0.297-0.093,0.676,0.285,0.85l0,0c0.38,0.174,0.864,0.07,1.082-0.225L-2.829,286.297z"/>
	<path fill="#FFFFFF" d="M-10.429,286.793c0.57-0.426,0.594-1.133,0.049-1.58c-0.541-0.447-1.444-0.463-2.016-0.039
		c-0.568,0.426-0.591,1.135-0.049,1.58C-11.904,287.201-10.998,287.217-10.429,286.793z"/>
	<path fill="#590600" d="M-10.866,286.434c0.315-0.234,0.329-0.631,0.026-0.877c-0.301-0.248-0.803-0.258-1.118-0.02
		c-0.316,0.236-0.329,0.629-0.026,0.877C-11.683,286.66-11.183,286.67-10.866,286.434z"/>
	<path fill="#FFFFFF" d="M-7.712,284.084c0.313-0.238,0.326-0.631,0.023-0.879l0,0c-0.302-0.25-0.803-0.26-1.119-0.021l-2.576,1.926
		c-0.315,0.234-0.328,0.627-0.027,0.877l0,0c0.302,0.246,0.803,0.258,1.119,0.02L-7.712,284.084z"/>
	<path fill="#590600" d="M-13.552,281.174c0.375-0.178,0.494-0.559,0.268-0.852c-0.227-0.295-0.713-0.389-1.086-0.211
		c-0.375,0.176-0.497,0.557-0.27,0.854C-14.413,281.258-13.927,281.35-13.552,281.174z"/>
	<path fill="#FFFFFF" d="M-16.908,276.344c0.725-0.24,1.063-0.895,0.754-1.465c-0.307-0.566-1.145-0.832-1.867-0.592
		s-1.062,0.896-0.756,1.465C-18.47,276.32-17.634,276.584-16.908,276.344z"/>
	<path fill="#590600" d="M-17.156,275.887c0.4-0.133,0.591-0.498,0.419-0.813s-0.635-0.463-1.037-0.328
		c-0.403,0.133-0.59,0.498-0.422,0.813C-18.023,275.873-17.558,276.021-17.156,275.887z"/>
	<path fill="#FFFFFF" d="M-19.642,271.168c0.762-0.148,1.229-0.756,1.035-1.354c-0.188-0.6-0.962-0.963-1.729-0.814
		c-0.762,0.148-1.227,0.756-1.035,1.354C-21.181,270.951-20.408,271.318-19.642,271.168z"/>
	<path fill="#590600" d="M-19.796,270.686c0.426-0.078,0.686-0.42,0.576-0.752c-0.106-0.334-0.533-0.533-0.959-0.453
		c-0.424,0.086-0.682,0.424-0.576,0.756C-20.65,270.566-20.22,270.77-19.796,270.686z"/>
	<path fill="#FFFFFF" d="M-21.16,265.426c0.779-0.074,1.336-0.631,1.24-1.244c-0.094-0.609-0.805-1.049-1.586-0.975
		c-0.78,0.076-1.338,0.633-1.243,1.244C-22.654,265.066-21.943,265.5-21.16,265.426z"/>
	<path fill="#590600" d="M-21.238,264.934c0.434-0.041,0.742-0.352,0.689-0.689c-0.055-0.342-0.447-0.584-0.883-0.543
		c-0.433,0.043-0.742,0.352-0.688,0.691C-22.068,264.732-21.671,264.975-21.238,264.934z"/>
	<path fill="#D7DFF1" d="M-38.042,40.701c-5.57-1.765-9.205-1.903-15.421-4.473c-1.034-0.468-1.838-1.165-2.469-2.026l-3.599,6.185
		v-0.45h-7.396v0.104l-7.831-8.018c-0.843,1.113-1.933,2.027-3.345,2.592c-0.203,0.082-0.363,0.202-0.537,0.257
		c-3.972,1.261-8.613,1.02-13.482,1.643c-12.453,1.593-9.078,1.858-6.605,21.505c0.408,3.243,4.703,19.247,6.883,33.597
		c1.555,10.239,1.078,31.635,1.076,34.986c-0.006,9.625,3.91,21.348,5.946,22.939c1.176,0.922,12.37-0.912,22.829-0.289
		c5.612,0.334,10.984,2.352,14.559,2.547c1.018-0.207,2.021-0.412,3.012-0.613c0.033-0.023,0.072-0.037,0.104-0.063
		c6.619-5.178,6.268-11.689,6.693-20.865c0.313-6.691,1.668-37.844,3.063-56.281c0.495-6.536,1.181-13.119,1.181-14.162
		C-33.382,43.866-30.595,43.062-38.042,40.701z"/>
	<path fill="#9FB1D5" d="M-64.758,45.158c-0.071-0.526-0.135-1.053-0.193-1.579C-64.88,44.106-64.817,44.633-64.758,45.158z"/>
	<path fill="#2E6666" d="M-37.456,127.402c-7.699,0.607-16.267,3.52-25.041,2.918c-10.189-0.701-19.777-2.211-28.267-4.309
		c-0.274,25.617,5.106,43.883,8.07,68.955c0.979,8.285,1.843,15.721,2.427,21.428c0.951,9.301,2.403,28.078,3.636,44.721
		c0.386,5.197-0.394,15.178-0.357,16.363c0.064,2.148,1.056,2.41,1.188,4.25c0.077,1.064-0.881,2.516-0.813,3.455
		c0.064,0.908,1.611,1.48,1.126,2.094c-0.506,0.641-3.25,2.826-1,4.861c1.964,1.775,12.758-0.25,12.758-0.25
		s10.358,0.691,11.964-1.314c0.996-1.246-1.034-3.906-2.465-4.309c-0.763-0.213,1.269-0.633,1.118-1.537
		c-0.161-0.977-1.382-3.334-1.563-4.438c-0.943-5.768-2.608-12.842-3.748-20.678c-2.321-15.963-4.499-33.756-4.297-43.33
		c0.132-6.227-0.968-12.086-1.396-21.564c-0.578-12.75-0.894-26.34-0.948-34.99c-0.012-1.977,1.369-4.666,4.152-6.25
		c2.05-1.168,4.158,6.795,4.902,8.916c4.876,13.908,11.383,43.189,13.618,58c1.998,13.236,5.151,46.209,6.69,62.83
		c0.122,1.318-1.138,2.947-1.036,4.043c0.124,1.359,1.455,1.994,1.402,2.83c-0.102,1.57,0.421,1.809,1.209,2.471
		c2.046,1.719,6.119-1.201,8.347-2.508c2.371-1.389,5.983-8.896,11.54-7.193c1.143,0.352,2.027-0.998,1.252-3.014
		c-0.264-0.682-2.234-0.854-2.406-1.85c-0.145-0.836,0.323-1.916,0.156-2.846c-0.24-1.342-1.127-2.584-1.408-4.096
		c-3.18-17.094-8.712-44.088-10.853-57.668C-30.796,192.48-37.933,158.428-37.456,127.402z"/>
	<path fill="#2E6666" d="M-37.456,127.402c-7.699,0.607-16.267,3.52-25.041,2.918c-10.189-0.701-19.777-2.211-28.267-4.309
		c-0.274,25.617,5.106,43.883,8.07,68.955c0.979,8.285,1.843,15.721,2.427,21.428c0.951,9.301,2.403,28.078,3.636,44.721
		c0.386,5.197-0.394,15.178-0.357,16.363c0.064,2.148,1.056,2.41,1.188,4.25c0.077,1.064-0.881,2.516-0.813,3.455
		c0.064,0.908,1.611,1.48,1.126,2.094c-0.506,0.641-3.25,2.826-1,4.861c1.964,1.775,12.758-0.25,12.758-0.25
		s10.358,0.691,11.964-1.314c0.996-1.246-1.034-3.906-2.465-4.309c-0.763-0.213,1.269-0.633,1.118-1.537
		c-0.161-0.977-1.382-3.334-1.563-4.438c-0.943-5.768-2.608-12.842-3.748-20.678c-2.321-15.963-4.499-33.756-4.297-43.33
		c0.132-6.227-0.968-12.086-1.396-21.564c-0.578-12.75-0.894-26.34-0.948-34.99c-0.012-1.977,1.369-4.666,4.152-6.25
		c2.05-1.168,4.158,6.795,4.902,8.916c4.876,13.908,11.383,43.189,13.618,58c1.998,13.236,5.151,46.209,6.69,62.83
		c0.122,1.318-1.138,2.947-1.036,4.043c0.124,1.359,1.455,1.994,1.402,2.83c-0.102,1.57,0.421,1.809,1.209,2.471
		c2.046,1.719,6.119-1.201,8.347-2.508c2.371-1.389,5.983-8.896,11.54-7.193c1.143,0.352,2.027-0.998,1.252-3.014
		c-0.264-0.682-2.234-0.854-2.406-1.85c-0.145-0.836,0.323-1.916,0.156-2.846c-0.24-1.342-1.127-2.584-1.408-4.096
		c-3.18-17.094-8.712-44.088-10.853-57.668C-30.796,192.48-37.933,158.428-37.456,127.402z"/>
	<path fill="#335880" d="M-37.456,127.402c-7.699,0.607-16.267,3.52-25.041,2.918c-10.189-0.701-19.777-2.211-28.267-4.309
		c-0.274,25.617,5.106,43.883,8.07,68.955c0.979,8.285,1.843,15.721,2.427,21.428c0.951,9.301,2.403,28.078,3.636,44.721
		c0.386,5.197-0.394,15.178-0.357,16.363c0.064,2.148,1.056,2.41,1.188,4.25c0.077,1.064-0.881,2.516-0.813,3.455
		c0.064,0.908,1.611,1.48,1.126,2.094c-0.506,0.641-3.25,2.826-1,4.861c1.964,1.775,12.758-0.25,12.758-0.25
		s10.358,0.691,11.964-1.314c0.996-1.246-1.034-3.906-2.465-4.309c-0.763-0.213,1.269-0.633,1.118-1.537
		c-0.161-0.977-1.382-3.334-1.563-4.438c-0.943-5.768-2.608-12.842-3.748-20.678c-2.321-15.963-4.499-33.756-4.297-43.33
		c0.132-6.227-0.968-12.086-1.396-21.564c-0.578-12.75-0.894-26.34-0.948-34.99c-0.012-1.977,1.369-4.666,4.152-6.25
		c2.05-1.168,4.158,6.795,4.902,8.916c4.876,13.908,11.383,43.189,13.618,58c1.998,13.236,5.151,46.209,6.69,62.83
		c0.122,1.318-1.138,2.947-1.036,4.043c0.124,1.359,1.455,1.994,1.402,2.83c-0.102,1.57,0.421,1.809,1.209,2.471
		c2.046,1.719,6.119-1.201,8.347-2.508c2.371-1.389,5.983-8.896,11.54-7.193c1.143,0.352,2.828-1.389,1.252-3.014
		c-0.674-0.693-2.234-0.854-2.406-1.85c-0.145-0.836,0.323-1.916,0.156-2.846c-0.24-1.342-1.127-2.584-1.408-4.096
		c-3.18-17.094-8.712-44.088-10.853-57.668C-30.796,192.48-37.933,158.428-37.456,127.402z"/>
	<path opacity="0.5" fill="#253C54" enable-background="new    " d="M-14.106,282.906c1.144,0.352,2.694-1.332,1.117-3.053
		c-0.494-0.537-2.235-0.854-2.407-1.85c-0.144-0.836,0.176-1.758,0.008-2.688c-0.24-1.342-0.978-2.742-1.259-4.254
		c-3.18-17.094-8.577-44.049-10.718-57.629c-0.625-3.967-1.389-8.408-2.213-13.209c1.02,5.961,2.184,17.543-1.9,16.043
		c-2.563-0.941-5.783-11.574-7.043-13.912c-3.1-5.754-9.648-28.678-11.207-35.254c-3.514-14.834-13.414-32.465-6.449-5.586
		c0.115,0.361,0.218,0.682,0.301,0.918c4.876,13.908,11.383,43.189,13.617,58c1.998,13.236,5.01,46.25,6.549,62.873
		c0.121,1.316-1.116,2.959-1.016,4.055c0.123,1.359,1.577,1.939,1.524,2.775c-0.101,1.57,0.046,1.596,0.835,2.258
		c2.045,1.717,6.494-0.99,8.721-2.295C-23.275,288.711-19.661,281.201-14.106,282.906z"/>
	<path opacity="0.5" fill="#253C54" enable-background="new    " d="M-54.232,286.266c-0.763-0.213,1.269-0.633,1.118-1.537
		c-0.161-0.977-1.382-3.334-1.563-4.438c-0.943-5.768-2.608-12.842-3.748-20.678c-2.321-15.963-4.499-33.756-4.297-43.33
		c0.132-6.227-0.968-12.086-1.396-21.564c-0.542-11.949-0.853-24.637-0.935-33.305c-1.041,2.486-1.479,5.516-1.69,7.377
		c-0.71,6.238-0.079,12.506,0.38,18.74c0.428,5.824,0.566,11.65,1.076,17.467c-0.018,0.434-0.033,0.867-0.061,1.303
		c-0.238,3.865-0.839,9.551-4.639,11.668c-2.496,1.393-4.471-2.131-5.382-3.879c-3.14-6.02-4.351-13.227-5.539-19.846
		c-0.56-3.119-1.204-6.193-1.894-9.289c-0.762-3.422-1.531-6.994-2.864-10.295c1.062,6.432,2.116,13.082,2.971,20.307
		c0.979,8.285,1.843,15.723,2.427,21.428c0.951,9.301,2.403,28.078,3.636,44.721c0.386,5.199-0.394,15.178-0.357,16.365
		c0.064,2.146,1.056,2.408,1.188,4.25c0.077,1.063-0.881,2.514-0.813,3.453c0.064,0.908,1.611,1.48,1.126,2.094
		c-0.506,0.641-3.25,2.828-1,4.861c1.964,1.775,12.758-0.25,12.758-0.25s10.358,0.691,11.964-1.314
		C-50.772,289.326-52.801,286.666-54.232,286.266z"/>
	<path fill="#253C54" d="M-65.01,277.785c0.13,0.002,0.159-0.24,0.026-0.279c-3.287-0.896-8.764-1.59-11.674,1.67
		c0.303,0.771,0.711,1.307,0.83,2.363C-73.888,277.58-67.94,277.76-65.01,277.785z"/>
	<path fill="#253C54" d="M-58.124,278.801c1.523,1.086,3.482,2.406,4.516,4.443c-0.416-1.039-0.952-2.25-1.067-2.953
		c-0.084-0.514-0.18-1.051-0.274-1.584c-0.552-0.348-1.109-0.643-1.643-0.889c-2.283-1.053-4.604-2.043-6.976-2.654
		c-0.241-0.063-0.368,0.422-0.135,0.557C-61.857,276.771-59.906,277.531-58.124,278.801z"/>
	<path fill="#253C54" d="M-25.749,279.988c-0.14,0.066-0.056,0.258,0.088,0.219c3.226-0.869,9.729-2.74,12.744-0.113
		c-0.026-0.08-0.039-0.156-0.071-0.238c-0.264-0.682-2.234-0.854-2.406-1.85c-0.039-0.229-0.031-0.477-0.006-0.734
		C-18.952,277.09-23.089,278.678-25.749,279.988z"/>
	<path fill="#253C54" d="M-31.272,279.723c1.901-1.301,4.046-2.191,6.044-3.316c0.25-0.145,0.059-0.535-0.209-0.451
		c-2.635,0.828-5.178,1.963-7.671,3.145c-0.933,0.443-1.918,1-2.823,1.668c0.08,0.852,0.156,1.68,0.229,2.457
		C-35.692,283.342-32.761,280.74-31.272,279.723z"/>
	<path fill="#253C54" d="M-24.769,283.281c-2.636,0.826-5.179,1.963-7.672,3.145c-1.221,0.58-2.531,1.354-3.631,2.322
		c0.377,0.49,0.766,0.893,0.734,1.352c-0.036,0.586,0.326,1.066,0.326,1.471c0.926-1.949,2.722-3.369,4.405-4.52
		c1.901-1.301,4.046-2.193,6.043-3.32C-24.31,283.586-24.501,283.197-24.769,283.281z"/>
	<path fill="#FFC579" d="M-79.091,136.549c-2.102-1.861-4.291-4.738-7.332-5.385c-0.473-0.102-0.945-0.105-1.414-0.043
		c-0.037-0.016-0.073-0.029-0.109-0.047c-5.589-2.512-7.998-15.73-12.354-24.023c-1.957-3.725-6.727-8.666-9.765-11.589
		c-2.046-1.972-5.613-5.084-8.931-3.54c-4.025,1.872-3.396,7.738-2.34,10.791c1.969,5.704,3.73,4.755,7.532,12.03
		c2.083,3.986,18.148,18.505,19.069,23.286c0,0.002,0,0.002,0,0.004c-0.185,0.547-0.313,1.076-0.361,1.557
		c-0.232,2.307,2.416,6.07,3.273,7.768c1.196,2.371,2.394,3.502,4.227,4.357c1.923-1.359,3.837-2.557,5.251-3.607
		c2.779-2.064,4.751-4.822,7.298-7.02C-76.126,139.322-77.548,137.916-79.091,136.549z"/>
	<path fill="#FFFFFF" d="M-100.394,38.52c-3.332,3.532-9.998,24.184-12.088,29.892c-2.09,5.708-7.621,16.07-8.915,18.941
		c-3.717,8.25-4.592,11.375,1.187,18.917c7.166,9.352,6.29,9.523,6.781,10.477c0.49,0.955,16-6.354,15.057-8.189
		c-0.609-1.184-3.607-5.672-5.703-8.984c-0.322-0.509,0.582-2.692,0.314-3.129c-0.691-1.127-2.363-0.26-2.406-0.521
		c-0.068-0.422,2.463-0.855,2.69-1.652c0.198-0.698-1.362-0.984-0.989-1.89c0.43-1.047,1.118,0.347,1.459-0.962
		c1.906-7.335,7.012-16.942,8.083-18.535c3.201-4.762,2.159-14.366,0.792-21.482C-97.036,36.292-100.394,38.52-100.394,38.52z"/>
	<path fill="#D7DFF1" d="M-96.659,110.28c-0.437-1.258-1.43-2.586-2.348-3.455c-0.668-1.381-1.168-2.85-2.139-4.051
		c-0.076-0.31-0.332-0.612-0.61-0.824c-0.007-0.208-0.12-0.414-0.378-0.502c-1.243-0.428-2.67,0.391-3.775,0.909
		c-2.592,1.215-5.029,2.837-7.395,4.435c-1.095,0.738-3.59,1.807-4.561,3.182c-0.354,0.322-0.536,0.695-0.574,1.098
		c-0.071,0.072-0.108,0.182-0.051,0.279c0.018,0.029,0.037,0.055,0.055,0.084c0.057,0.715,0.439,1.473,0.867,2.117
		c1.153,1.736,2.674,3.137,3.974,4.752c0.115,0.451,0.222,0.912,0.366,1.379c0.299,0.975,1.059,1.856,2.17,1.645
		c1.777-0.34,3.268-1.53,4.719-2.544c0.193-0.135,0.398-0.26,0.605-0.385c0.127-0.076,0.255-0.148,0.382-0.223
		c1.128-0.637,2.377-1.205,3.424-1.963c0.314-0.172,0.624-0.354,0.942-0.52c0.7-0.365,2.234-1.01,3.318-1.846
		c0.113,0.016,0.234,0.004,0.363-0.07C-95.782,112.917-95.965,111.526-96.659,110.28z"/>
	<path fill="#9FB1D5" d="M-108.482,113.36c-0.664,0.604-1.404,1.131-2.016,1.793c-0.627,0.678-1.491,1.551-1.488,2.537
		c0,0.211-0.154,0.455-0.375,0.492c-0.045,0.008-0.092,0.02-0.137,0.02c-0.364-0.008-0.538-0.318-0.492-0.648
		c0.139-1.008,0.975-1.877,1.738-2.479c0.848-0.668,1.718-1.322,2.65-1.867C-108.505,113.151-108.399,113.283-108.482,113.36z
		 M-99.702,106.631c-2.995-2.08-6.832,1.389-8.711,3.547c-0.061,0.07,0.029,0.154,0.1,0.1c1.766-1.373,5.523-4.412,7.773-2.561
		C-99.765,108.356-98.881,107.201-99.702,106.631z M-113.765,109.948c-0.752,0.293-1.545,0.697-2.216,1.143
		c-0.593,0.393-1.413,1.18-1.38,1.957c0.031,0.762,1.253,0.727,1.16,0c-0.059-0.457,0.706-1.064,0.986-1.412
		c0.453-0.563,0.92-1.107,1.525-1.51C-113.603,110.067-113.656,109.905-113.765,109.948z M-105.12,91.423
		c-1.742-1.437-4.599-1.881-6.569-0.53c-0.019,0.012-0.019,0.045,0.007,0.05c0.809,0.152,1.65-0.081,2.469-0.105
		c1.324-0.04,2.367,0.471,3.232,1.447C-105.454,92.88-104.517,91.92-105.12,91.423z M-107.039,95.4
		c-0.929-0.703-2.7-0.379-3.812-0.386c-1.46-0.009-2.971,0.176-4.223,0.974c-0.08,0.051-0.029,0.188,0.066,0.157
		c1.66-0.541,3.283-0.465,4.975-0.086c0.932,0.208,2.119,0.686,2.993,0.165C-106.704,96.024-106.762,95.61-107.039,95.4z
		 M-116.636,96.816c-1.872,0.447-3.383,2.075-4.559,3.499c-0.806,0.978,1.041,1.786,1.201,0.497c0.223-1.8,2.122-2.876,3.422-3.846
		C-116.499,96.912-116.54,96.793-116.636,96.816z M-104.89,98.774c-1.896,0.167-3.445-0.309-5.293-0.696
		c-0.119-0.026-0.225,0.06-0.104,0.113c1.38,0.598,4.125,1.518,5.713,1.146C-104.097,99.226-104.337,98.725-104.89,98.774z"/>
	<path fill="#FFFFFF" d="M-50.864,295.666c0-1.174-6.52-2.125-14.563-2.125s-14.563,0.951-14.563,2.125c0,0.295,0,1.666,0,2.125
		c0,1.828,6.52,3.313,14.563,3.313s14.563-1.482,14.563-3.313C-50.864,297.332-50.864,295.961-50.864,295.666z"/>
	<path fill="#590600" d="M-79.714,295.416c-0.003,0.012,0.005,0.02,0.004,0.029c-0.096,0.154-0.069,0.393,0.145,0.436
		c4.013,0.814,8.268,1.336,12.366,1.031c4.448,0.281,16.255-0.691,16.336-1.246c0.538-3.701,0-9.271-14.563-8.271
		C-75.923,288.115-79.001,292.354-79.714,295.416z"/>
	<path fill="#FF6A00" d="M-61.301,289.049c-8.53-1.105-14.288,1.885-16.476,7.17c0.029,0.045,0.312,0.055,0.374,0.066
		c3.713,0.811,7.415,1.02,11.207,0.715c2.798,0.191,8.728-0.285,12.271-0.729C-54.547,291.807-56.382,289.686-61.301,289.049z"/>
	<path fill="#335880" d="M-87.437,163.906c-1.183-5.178-3.645-12.346-4.415-14.178c-0.77-1.834-0.769-2,1.077-3
		c1.848-1,11.39-5.834,13.391-11.5c0.574-1.627,2.154,0.332,2.77,1C-73.999,136.895-77.02,159.246-87.437,163.906z"/>
	<path fill="#335880" d="M-46.91,134.598c0.924-1.035,1.385-0.369,2.462,2.131c1.078,2.5,5.851,8.715,7.543,9.523
		c1.692,0.811,1.616,2.811,1,3.643c-0.614,0.834-0.386,8.064-0.08,10.689c-4.151-1.355-12.687-15.527-12.618-22.689
		C-47.833,136.063-46.91,134.598-46.91,134.598z"/>
	<path fill="#4C7095" d="M-74.585,136.305c-0.01-0.027-0.018-0.063-0.029-0.076c-0.615-0.668-2.195-2.627-2.77-1
		c-2.001,5.666-11.543,10.5-13.391,11.5c-1.846,1-1.847,1.166-1.077,3c0.063,0.152,0.144,0.355,0.229,0.576
		C-85.886,148.113-78.324,141.914-74.585,136.305z"/>
	<path fill="#4C7095" d="M-36.906,146.252c-1.691-0.811-6.465-7.023-7.543-9.523c-1.077-2.5-1.538-3.166-2.462-2.131
		c0,0-0.209,0.334-0.507,0.875c2.218,5.166,7.002,11.598,11.387,14.68c0.031-0.08,0.063-0.141,0.092-0.191
		c0.135-0.668,0.275-1.162,0.408-1.344c0.01-0.014,0.016-0.031,0.023-0.043C-35.488,147.715-35.855,146.754-36.906,146.252z"/>
	<path fill="#4C7095" d="M-58.55,133.957c0,0.98-0.789,13.803-1.466,15.295c-2.48,0-3.102-2.002-3.24-3.777
		c-0.167-2.143,0.761-9.74,0.985-11.926C-62.045,131.367-58.55,133.957-58.55,133.957z"/>
	<path fill="#335880" d="M-60.322,148.16c-0.726-0.213-1.353-0.875-1.5-2.764c-0.131-1.684,0.484-7.23,0.816-10.209
		c0.067-0.613,0.125-1.129,0.164-1.5c0.459,0.066,1.166,0.436,1.714,0.787C-59.228,136.928-59.841,145.518-60.322,148.16z"/>
	<path fill="#6B0700" d="M-34.613,72.888c0.359-6.718-1.167-31.597-5.016-33.285c-1.911-0.838-3.604-1.174-5.273-1.387
		c-2.004-0.254-6.409-1.515-6.476-0.776c0,10.75-7.956,25.122-9.067,25.122c0,0-9.584-8.946-15.645-19
		c-1.365-2.265-3.141-5.886-4.322-8.313c-0.385-0.92-3.068,0.282-5.594,0.222c-2.353-0.056-4.797-0.168-7.084,0.132
		c-1.508,0.198,1.234,8.063,1.762,12.265c1.889,15.027,1.601,22.546-3.406,28.32c1.023,4.912,2.051,10.276,2.813,15.429
		c1.515,10.239-0.478,25.26-0.479,28.612c-0.005,9.625,9.551,9.074,11.535,10.666c1.145,0.924,31.064,7,40.027,0.975
		c6.806-4.576,3.418-6.131,3.834-15.308C-36.72,110.324-35.406,87.699-34.613,72.888z"/>
	<path fill="#954E00" d="M-37.3,49.167c-1.768-3.261-3.127-8.163-6.972-9.522c-0.137-0.048-0.327,0.028-0.391,0.159
		c-1.554,3.206-4.595,6.128-5.149,9.748c-0.052,0.071-0.061,0.162-0.039,0.25c-0.002,0.018-0.007,0.035-0.009,0.052
		c-0.017,0.139,0.08,0.215,0.19,0.231c1.908,2.151,3.074,4.669,4.535,7.124c1.348,2.264,1.84,4.908,3.24,7.131
		c0.043,0.069,0.096,0.117,0.153,0.152c0.132,0.325,0.649,0.397,0.778-0.027c0.74-2.434,1.361-4.909,2.06-7.356
		c0.713-2.502,1.661-5.14,1.745-7.755C-37.153,49.241-37.22,49.185-37.3,49.167z"/>
	<path fill="#954E00" d="M-73.782,53.212c-0.002-0.003-0.004-0.006-0.006-0.01c0.135-0.333-0.084-0.63-0.354-0.714
		c-2.65-5.4-5.876-10.647-9.094-15.709c-0.072-0.115-0.292-0.082-0.276,0.075c0.002,0.02,0.009,0.039,0.011,0.059
		c-0.027,0.02-0.059,0.029-0.078,0.065c-1.274,2.278-2.299,4.67-3.746,6.86c-0.991,1.501-2.139,3.105-2.647,4.851
		c-0.019,0.063-0.017,0.117-0.016,0.172c-0.051,0.054-0.078,0.131-0.034,0.211c1.965,3.541,4.277,6.876,6.227,10.44
		c0.477,0.874,2.401,5.093,3.887,4.503c0.191-0.076,0.262-0.248,0.178-0.436c-0.063-0.141-0.152-0.276-0.252-0.41
		c1.99-2.94,4.168-5.985,5.799-9.167C-73.878,53.935-73.603,53.588-73.782,53.212z"/>
	<path fill="#954E00" d="M-50.341,82.632c-0.407-0.781-0.926-1.522-1.299-2.329c-0.666-1.439-1.207-2.937-1.855-4.385
		c-1.504-3.363-3.964-6.404-6.013-9.449c-0.158-0.235-0.604-0.09-0.486,0.205c0.018,0.042,0.039,0.082,0.057,0.124
		c-0.041,0.014-0.08,0.034-0.107,0.074c-1.711,2.532-3.563,4.979-5.057,7.648c-1.449,2.591-2.771,5.44-5.101,7.369
		c-0.376,0.311-0.033,0.787,0.36,0.79c0.33,1.388,1.255,2.528,1.957,3.796c1.221,2.206,2.293,4.638,3.132,7.015
		c0.604,1.715,1.302,6.97,3.458,7.447c0.134,0.029,0.23-0.049,0.258-0.16c0.073-0.013,0.142-0.053,0.188-0.144
		c1.408-2.757,3.563-4.954,5.08-7.63c1.854-3.271,3.875-6.44,5.832-9.65C-49.718,82.99-50.017,82.661-50.341,82.632z"/>
	<path fill="#954E00" d="M-74.029,115.417c-1.855-3.42-3.078-7.182-4.145-10.912c-0.42-1.469-0.99-5.307-2.539-6.459
		c0.033-0.083,0.076-0.163,0.108-0.245c0.099-0.256-0.274-0.452-0.45-0.262c-0.072,0.077-0.133,0.166-0.203,0.245
		c-0.105,0.009-0.179,0.104-0.174,0.209c-1.445,1.682-2.594,3.691-3.861,5.5c-1.558,2.225-3.15,4.42-4.777,6.594
		c-0.105,0.143-0.119,0.283-0.078,0.402c-0.025,0.059-0.039,0.123-0.025,0.199c1.061,5.482,3.027,10.881,5.176,16.022
		c0.152,0.365,0.623,0.389,0.768,0c0.981-2.635,3.697-4.988,5.954-6.594c1.698-1.208,3.507-2.156,4.557-4.031
		C-73.546,115.776-73.766,115.489-74.029,115.417z"/>
	<path fill="#954E00" d="M-37.304,115.735c-0.281-1.334-2.568-12.678-4.639-14.275c0.008-0.018,0.016-0.035,0.021-0.053
		c0.072-0.188-0.205-0.337-0.334-0.193c-0.018,0.02-0.031,0.043-0.049,0.063c-0.069-0.014-0.139-0.014-0.207-0.002
		c-0.043,0.008-0.069,0.062-0.058,0.102c0.019,0.055,0.038,0.108,0.058,0.163c-1.756,2.157-2.537,5.265-3.629,7.761
		c-1.463,3.35-3.738,6.381-5.89,9.313c-0.337,0.457,0.362,0.916,0.743,0.57c1.775,1.449,2.915,3.214,4.07,5.226
		c0.812,1.408,1.213,3.873,2.478,4.918c0.229,0.189,0.489,0.119,0.612-0.064c0.005,0.271,0.045,0.535,0.142,0.783
		c0.082,0.211,0.438,0.271,0.49,0c0.433-2.258,1.778-4.18,2.854-6.174c0.912-1.688,2.189-4.029,2.403-6.08
		c0.203-0.492,0.392-0.992,0.529-1.494C-37.464,116.258-37.243,116.026-37.304,115.735z"/>
	<path fill="#694F4C" d="M-35.876,80.772c-0.004-2.409-0.807-4.828-1.568-7.08c-0.861-2.552-1.896-5.264-3.309-7.59
		c0.002-0.008,0.005-0.016,0.006-0.023c0.042-0.233-0.105-0.4-0.28-0.455c-0.003-0.004-0.005-0.01-0.008-0.014
		c-0.14-0.217-0.511-0.082-0.429,0.181c0.004,0.011,0.009,0.021,0.013,0.032c-0.009,0.02-0.021,0.033-0.026,0.055
		c-0.811,3.183-2.02,6.238-3.494,9.173c-1.418,2.821-3.388,5.334-4.377,8.362c-0.057,0.169,0.098,0.29,0.246,0.298
		c-0.006,0.025-0.009,0.052,0.004,0.083c1.307,3.094,2.588,6.254,3.68,9.431c0.779,2.268,1.242,5.223,2.912,7.054
		c0.013,0.019,0.025,0.034,0.041,0.05c0.021,0.022,0.037,0.049,0.059,0.071c0.251,0.26,0.568,0.098,0.665-0.165
		c0.47-0.557,0.629-1.411,0.834-2.082c0.54-1.771,1.119-3.521,1.778-5.253c1.453-3.821,2.502-7.733,3.49-11.7
		C-35.593,81.007-35.718,80.841-35.876,80.772z"/>
	<path fill="#694F4C" d="M-52.785,117.635c-1.309-2.639-2.175-5.432-3.4-8.104c-1.342-2.924-3.528-5.369-4.587-8.432
		c-0.107-0.313-0.559-0.514-0.808-0.213c-2.893,3.482-5.749,7.076-8.376,10.764c-0.635,0.893-2.562,2.783-2.764,4.135
		c-0.014-0.021-0.025-0.045-0.039-0.066c-0.154-0.248-0.588-0.088-0.486,0.205c1.874,5.373,5.061,10.48,7.838,15.423
		c0.165,0.295,0.526,0.289,0.762,0.102c1.205-0.977,2.037-2.283,3.127-3.373c1.138-1.141,2.577-2.008,3.753-3.123
		c1.905-1.811,3.823-3.733,5.213-5.981c0.089-0.074,0.151-0.174,0.175-0.289c0.064-0.109,0.135-0.215,0.196-0.326
		C-51.935,117.912-52.417,117.512-52.785,117.635z"/>
	<path fill="#694F4C" d="M-73.919,74.551c-1.879-3.347-4.152-6.469-6.447-9.541c-0.221-0.295-0.666-0.277-0.787,0.103
		c-1.043,3.239-2.975,6.112-4.595,9.082c-1.009,1.851-2.644,3.439-2.689,5.658c-0.002,0.104,0.067,0.162,0.147,0.181
		c0.637,2.39,1.902,4.56,3.109,6.702c1.734,3.075,2.787,6.278,3.918,9.603c0.133,0.392,0.668,0.397,0.799,0
		c0.859-2.612,2.801-4.442,4.414-6.586c1.852-2.463,2.857-5.438,4.773-7.858c0.281,0.084,0.662-0.146,0.592-0.534
		C-71.12,78.906-72.72,76.685-73.919,74.551z"/>
	<path fill="#470500" d="M-36.888,90.257c-1.379-3.286-2.848-6.545-4.357-9.781c0.51-1.239,1.031-2.472,1.59-3.687
		c1.07-2.33,2.146-4.594,2.538-7.152c0.024-0.158-0.185-0.22-0.24-0.066c-1.257,3.423-2.739,6.803-4.231,10.169
		c-0.881-1.876-1.771-3.746-2.678-5.605c-1.546-3.169-3.334-6.215-5.14-9.251c0.077-0.155,0.158-0.307,0.233-0.463
		c1.748-3.591,3.351-7.254,5.088-10.851c0.371-0.766,0.758-1.541,1.145-2.322c1.674,2.853,3.189,5.932,5.122,8.602
		c0.146,0.202,0.543,0.086,0.437-0.184c-1.143-2.886-3.023-5.551-4.607-8.213c-0.193-0.324-0.378-0.656-0.566-0.983
		c1.264-2.571,2.488-5.219,3.168-7.929c0.062-0.246-0.303-0.418-0.422-0.177c-1.154,2.325-2.263,4.681-3.357,7.045
		c-1.293-2.29-2.547-4.62-3.998-6.793c-0.135-0.202-0.516-0.076-0.414,0.174c1.049,2.601,2.583,5.028,4.033,7.438
		c-2.117,4.59-4.187,9.212-6.36,13.764c-0.004,0.009-0.009,0.018-0.015,0.026c-1.207-2.028-2.413-4.056-3.551-6.119
		c-0.087-0.157-0.352-0.05-0.293,0.124c0.827,2.455,2.038,4.745,3.348,6.988c-2.809,5.688-6.167,10.989-9.698,16.22
		c-0.68-1.321-1.355-2.644-2.049-3.958c-2.336-4.428-4.65-8.789-7.201-13.025c0.889-1.51,1.681-3.062,2.275-4.692
		c0.113-0.308-0.354-0.481-0.514-0.217c-0.788,1.301-1.589,2.588-2.398,3.868c-1.467-2.387-3.012-4.735-4.693-7.027
		c-1.641-2.237-3.317-4.452-5-6.661c0.723-1.24,1.407-2.502,2.004-3.814c0.104-0.228-0.195-0.409-0.338-0.197
		c-0.742,1.11-1.449,2.242-2.148,3.38c-0.556-0.729-1.109-1.46-1.667-2.188c-2.033-2.654-4.166-5.33-6.897-7.296
		c-0.222-0.16-0.464,0.183-0.283,0.368c3.014,3.096,5.74,6.462,8.357,9.914c-0.817,1.344-1.624,2.695-2.453,4.031
		c-1.443,2.328-3.385,4.552-3.904,7.31c-0.059,0.313,0.406,0.564,0.55,0.232c1.671-3.875,4.124-7.321,6.296-10.93
		c1.754,2.333,3.464,4.7,5.178,7.048c1.592,2.181,3.05,4.426,4.438,6.708c-2.309,3.622-4.68,7.189-7.053,10.799
		c-0.741,1.128-1.424,2.296-2.082,3.479c-2.025-4.223-4.242-8.337-6.867-12.178c-0.245-0.358-0.808-0.042-0.588,0.343
		c2.454,4.287,4.674,8.653,6.779,13.07c-0.578,1.075-1.142,2.156-1.7,3.235c-1.372,2.65-3.132,5.362-4.06,8.197
		c-0.086,0.26,0.295,0.502,0.477,0.277c1.686-2.101,2.723-4.817,3.941-7.211c0.595-1.169,1.203-2.33,1.824-3.483
		c2.602,5.516,5.033,11.11,7.488,16.75c0.105,0.245,0.219,0.487,0.326,0.731c-1.857,2.585-3.685,5.19-5.421,7.848
		c-1.404,2.15-2.746,4.305-4.182,6.402c-1.476-5.207-3.413-10.279-5.083-15.425c-0.092-0.285-0.501-0.168-0.443,0.122
		c1.079,5.509,3.303,10.756,4.854,16.141c0.01,0.033,0.018,0.066,0.027,0.1c-0.713,1.004-1.447,1.994-2.242,2.953
		c-2.268,2.734-5.096,5.356-6.541,8.651c-0.222,0.504,0.516,0.947,0.748,0.439c1.564-3.438,4.599-6.214,6.986-9.093
		c0.475-0.572,0.92-1.164,1.361-1.758c1.025,4.16,1.65,9.189,4.313,12.472c0.195,0.238,0.6-0.02,0.51-0.297
		c-0.731-2.258-1.787-4.373-2.457-6.668c-0.62-2.128-1.122-4.288-1.694-6.427c1.463-2.063,2.792-4.215,4.14-6.363
		c1.746-2.783,3.615-5.499,5.531-8.188c2.117,4.758,4.383,9.436,6.75,14.079c0.686,1.346,1.367,2.705,2.059,4.066
		c-1.349,1.627-2.66,3.277-3.923,4.979c-1.524,2.053-3.51,3.537-5.033,5.533c-0.266,0.348,0.337,0.813,0.607,0.469
		c1.394-1.777,3.243-3.072,4.636-4.891c1.359-1.774,2.738-3.521,4.145-5.247c1.873,3.663,3.824,7.313,6.099,10.69
		c0.289,0.43,0.938,0.059,0.695-0.404c-1.979-3.775-3.997-7.515-5.99-11.263c0.331-0.398,0.648-0.805,0.986-1.199
		c3.763-4.387,6.841-9.119,9.696-14.136c2.308,5.021,4.567,10.04,7.058,14.954c-0.199,0.309-0.383,0.627-0.588,0.932
		c-1.41,2.092-2.884,4.138-4.229,6.271c-1.087,1.723-2.879,3.475-3.396,5.451c-0.062,0.236,0.242,0.43,0.418,0.242
		c1.225-1.297,2.231-2.957,3.165-4.477c1.491-2.422,3.111-4.747,4.717-7.094c0.112-0.164,0.225-0.334,0.336-0.502
		c1.162,2.264,2.369,4.504,3.664,6.708c0.24,0.41,0.851,0.047,0.635-0.371c-1.245-2.417-2.461-4.845-3.668-7.278
		c2.289-3.502,4.437-7.459,5.277-11.488c0.049-0.236-0.269-0.314-0.354-0.098c-1.479,3.703-3.255,7.314-5.354,10.715
		c-2.437-4.932-4.82-9.885-7.203-14.838c2.689-4.823,5.027-9.824,7.072-14.953c0.569-1.428,1.131-2.863,1.707-4.292l0.012,0.023
		c1.322,2.894,2.34,6.322,4.129,8.951C-37.335,90.856-36.72,90.657-36.888,90.257z M-71.603,96.89
		c-2.521-5.775-4.904-11.737-7.621-17.515c0.757-1.367,1.539-2.72,2.367-4.049c2.125-3.411,4.773-6.686,6.942-10.177
		c2.605,4.382,4.95,8.906,7.349,13.451c0.617,1.171,1.232,2.343,1.848,3.516c-0.725,1.065-1.451,2.13-2.185,3.195
		c-2.767,4.02-5.687,7.949-8.55,11.913C-71.501,97.111-71.554,97.002-71.603,96.89z M-51.715,101.133
		c-2.941,5.266-6.194,10.164-10.112,14.752c-0.084,0.098-0.162,0.197-0.244,0.295c-3.148-5.93-6.225-11.889-8.974-18.054
		c2.965-4.132,6.02-8.212,8.89-12.379c0.636-0.922,1.266-1.844,1.893-2.767c3.055,5.825,6.052,11.679,8.821,17.646
		C-51.534,100.794-51.621,100.965-51.715,101.133z M-44.134,85.545c-2.063,4.841-4.328,9.594-6.841,14.216
		c-2.846-5.911-5.706-11.815-8.693-17.663c3.537-5.247,6.884-10.554,9.759-16.222c1.379,2.307,2.832,4.578,4.064,6.937
		c1.359,2.604,2.576,5.292,3.795,7.966C-42.755,82.368-43.457,83.957-44.134,85.545z"/>
	<path fill="#983831" d="M-49.13,37.74c-1.794,3.932-2.699,8.364-4.322,12.402c-1.681,4.182-3.427,9.551-6.608,12.888
		c-4.457-3.239-7.711-7.794-11.197-11.989c-4.092-4.922-6.434-10.55-9.675-15.966c-0.19-0.318-0.603-0.09-0.558,0.235
		c0.837,5.888,5.262,11.357,8.811,15.92c3.588,4.614,7.308,9.513,12.086,12.955c0.283,0.205,0.555,0.109,0.727-0.094
		c0.157,0.032,0.33,0.004,0.486-0.131c3.251-2.823,4.783-7.72,6.418-11.573c1.857-4.377,4.319-9.671,4.409-14.492
		C-48.548,37.604-48.999,37.453-49.13,37.74z"/>
	<path fill="#983831" d="M-92.683,36.178c-0.064-0.214-0.346-0.154-0.368,0.05c-0.36,3.372,1.087,6.805,1.801,10.06
		c0.796,3.63,1.132,7.383,1.368,11.088c0.205,3.219,0.137,6.462-0.324,9.657c-0.216,1.493-0.604,2.949-1.08,4.378
		c-0.205,0.612-1.369,3.845-2.246,4.595c-0.268-0.044-0.559,0.076-0.639,0.402c-0.014,0.057-0.027,0.114-0.041,0.171
		c-0.094,0.383,0.18,0.751,0.578,0.759c1.658,0.032,3.086-4.319,3.563-5.593c1.258-3.354,1.525-7.085,1.506-10.634
		C-88.611,52.621-90.259,44.287-92.683,36.178z"/>
	<path fill="#9FB1D5" d="M-71.286,48.282c-3.597-2.511-11.339-14.144-12.707-14.667c2.412-2.793,7.598-4.695,9.44-4.65
		c-1.843,3.63,9.435,10.017,9.435,10.017s-0.025,0.025-0.035,0.037c0.054,0.003,0.106,0.042,0.11,0.12
		c0.124,2.775,0.823,5.556,1.173,8.313c0.281,2.207,0.469,4.425,0.686,6.64c0.203,2.073,0.395,4.151,0.638,6.221
		c-0.343-0.398-0.712-0.729-1.116-1.037c-0.119-1.727-0.215-3.455-0.318-5.184c-0.014-0.22-0.035-0.439-0.049-0.66
		c-0.407-2.268-0.6-4.588-1.018-6.857c-0.383-2.078-0.007-1.416-1.6-0.797C-67.284,46.023-71.5,47.203-71.286,48.282z
		 M-60.837,39.018c0,0-0.937,3.313,0.691,4.871c1.803,1.727,6.215,1.821,6.824,4.236c3.459-4.089,7.314-12.077,7.314-12.077
		s-7.433-4.334-9.822-3.766C-54.932,36.333-60.837,39.018-60.837,39.018z M-60.662,48.69c-0.308,0.051-0.521,0.219-0.642,0.44
		c-0.48,0.059-0.592,0.863-0.261,1.327c0.565,0.793,1.558,0.612,1.892-0.289C-59.39,49.407-59.917,48.565-60.662,48.69z
		 M-59.562,59.526c-0.633-0.43-1.197,0.265-1.336,0.877c-0.072,0.327,0.094,0.646,0.391,0.744c0.051,0.016,0.096,0.018,0.143,0.028
		c0.187,0.128,0.424,0.18,0.633,0.211c0.199,0.03,0.395-0.016,0.502-0.221C-58.929,60.592-59.028,59.889-59.562,59.526z"/>
	<path fill="#FFFFFF" d="M-65.118,38.981c0,0-5.637,2.756-7.41,6.387c-2.705-2.555-10.097-11.269-11.465-11.753
		c2.412-2.586,7.058-5.02,9.44-4.653C-76.396,32.324-65.118,38.981-65.118,38.981z M-60.837,39.018c0,0,7.516,3.347,8.185,6.758
		c4.051-4.218,6.646-9.728,6.646-9.728s-7.433-4.292-9.822-3.77C-54.932,36.003-60.837,39.018-60.837,39.018z"/>
	<path fill="#FFBE73" d="M-72.936,136.635c-0.409,0.039-0.849-0.078-1.265-0.09c-0.008,0.002-0.846-0.066-2.153-0.32
		c-1.186-0.229-4.865-1.725-6.19-2.939c-0.074-0.041-0.141,0.342-0.193,0.871c0.211,0.271,0.4,0.559,0.588,0.906
		c0.313,0.588,0.383,1.078,0.41,1.605c0.188,0.309,0.367,0.625,0.549,0.938c2.418,1.113,5.8,2.885,7.557,2.094
		c0.397-0.178,0.756-0.762,0.988-1.529C-72.517,137.74-72.738,136.615-72.936,136.635z"/>
	<path fill="#253C54" d="M-53.325,285.313c-3.25-1.121-7.409-0.943-10.216-0.574c-0.155,0.02-0.136,0.227,0.014,0.234
		c2.991,0.189,8.744,0.455,11.352,3.004c-0.562-0.814-1.375-1.52-2.056-1.711C-54.807,286.107-53.795,285.826-53.325,285.313z"/>
	<path fill="#253C54" d="M-75.869,287.693c1.306-1.063,3.021-1.779,4.424-2.4c2.106-0.932,4.377-1.42,6.546-2.162
		c0.273-0.096,0.157-0.516-0.121-0.48c-2.742,0.332-5.449,0.986-8.116,1.693c-1.082,0.289-2.251,0.699-3.335,1.256
		c0.379,0.678,1.39,1.164,0.983,1.678C-75.568,287.377-75.706,287.52-75.869,287.693z"/>
	<path fill="#335880" d="M-59.468,44.697c0,0,0.573,2.673,0,3.247c-0.56,0.561-3.169,0-3.169,0s-2.543,0.546-3.089,0
		c-0.589-0.588,0-3.327,0-3.327s-0.616-2.868,0-3.485c0.573-0.574,3.247,0,3.247,0s2.479-0.532,3.011,0
		C-58.838,41.761-59.468,44.697-59.468,44.697z M-50.276,39.231c-0.532-0.533-7.586,1.326-8.16,1.9
		c-0.615,0.617-0.588,6.225,0,6.813c0.547,0.546,7.6,2.462,8.16,1.901C-49.701,49.271-49.647,39.86-50.276,39.231z M-74.912,49.845
		c0.561,0.561,7.613-1.355,8.16-1.901c0.588-0.588,0.615-6.195,0-6.813c-0.574-0.574-7.627-2.434-8.16-1.9
		C-75.541,39.86-75.486,49.271-74.912,49.845z"/>
	<path fill="#6998CB" d="M-61.683,42.581c0,0.871,0.706,1.578,1.579,1.578c0.281,0,0.541-0.08,0.77-0.209
		c0.141-0.905,0.289-2.364-0.123-2.806c-0.198-0.09-0.416-0.142-0.646-0.142C-60.977,41.003-61.683,41.71-61.683,42.581z"/>
	<circle fill="#6998CB" cx="-53.979" cy="42.581" r="1.579"/>
	<path fill="#6998CB" d="M-50.916,39.66c0.273,0,0.527-0.077,0.754-0.199c-0.035-0.109-0.073-0.19-0.113-0.23
		c-0.148-0.147-0.805-0.107-1.677,0.033C-51.675,39.507-51.315,39.66-50.916,39.66z"/>
	<path fill="#6998CB" d="M-55.463,47.456c0-0.871-0.707-1.578-1.578-1.578c-0.873,0-1.579,0.707-1.579,1.578
		c0,0.038,0.009,0.073,0.011,0.11c0.052,0.175,0.109,0.311,0.174,0.376c0.182,0.181,1.082,0.512,2.218,0.854
		C-55.767,48.518-55.463,48.024-55.463,47.456z"/>
	<path fill="#6998CB" d="M-74.258,39.144c-0.332-0.016-0.573,0.006-0.654,0.086c-0.056,0.056-0.104,0.203-0.15,0.386
		C-74.746,39.544-74.469,39.376-74.258,39.144z"/>
	<path fill="#6998CB" d="M-64.651,42.581c0-0.681-0.434-1.256-1.039-1.478c-0.011,0.01-0.026,0.017-0.036,0.026
		c-0.452,0.453-0.241,2.115-0.097,2.97C-65.149,43.919-64.651,43.31-64.651,42.581z"/>
	<path fill="#6998CB" d="M-58.526,42.581c0-0.256-0.066-0.494-0.175-0.707c-0.084,0.443-0.139,1.032-0.165,1.675
		C-58.657,43.28-58.526,42.947-58.526,42.581z"/>
	<path fill="#6998CB" d="M-67.713,47.456c0-0.871-0.707-1.578-1.578-1.578c-0.873,0-1.579,0.707-1.579,1.578
		c0,0.75,0.524,1.376,1.228,1.536c0.543-0.153,1.056-0.308,1.495-0.454C-67.88,48.255-67.713,47.876-67.713,47.456z"/>
	<path fill="#6998CB" d="M-61.727,48.097c0.087-0.196,0.139-0.413,0.139-0.642c0-0.871-0.707-1.578-1.578-1.578
		c-0.873,0-1.579,0.707-1.579,1.578c0,0.264,0.071,0.508,0.185,0.727c0.891-0.02,1.924-0.24,1.924-0.24
		S-62.242,48.026-61.727,48.097z"/>
	<path fill="#6998CB" d="M-67.808,42.581c0,0.846,0.667,1.53,1.503,1.57c-0.021-1.412-0.166-2.739-0.447-3.021
		c-0.007-0.006-0.024-0.015-0.033-0.021C-67.381,41.334-67.808,41.906-67.808,42.581z"/>
	<path fill="#6998CB" d="M-49.856,46.296c-0.28-0.257-0.649-0.418-1.061-0.418c-0.873,0-1.579,0.707-1.579,1.578
		c0,0.871,0.706,1.578,1.579,1.578c0.336,0,0.646-0.106,0.901-0.285C-49.94,48.107-49.884,47.245-49.856,46.296z"/>
	<path fill="#6998CB" d="M-73.838,47.456c0-0.846-0.668-1.531-1.506-1.57c0.031,1.251,0.102,2.383,0.207,3.12
		C-74.399,48.873-73.838,48.231-73.838,47.456z"/>
	<circle fill="#6998CB" cx="-72.354" cy="42.581" r="1.579"/>
	<path fill="#B4481C" d="M-53.112-2.384c-1.43-4.278-2.075-6.54-3.406-10.943c-1.117-3.7-1.546-8.715-2.294-6.563
		c-0.568,1.637-2.541,11.786-3.371,16.574c-0.219,1.26-0.317,1.258-0.332,1.522c-0.063,1.269,0.489,1.906,1.652,2.963
		c1.732,1.573,3.799,1.598,5.766,0.812C-53.041,1.159-52.176,0.413-53.112-2.384z"/>
	<path fill="#FCCEA4" d="M-53.535-3.674c-1.352-3.968-1.766-6.081-3.024-10.165c-1.056-3.432-1.461-8.083-2.167-6.088
		c-0.679,1.918-3.724,16.469-3.784,17.646c-0.06,1.175,0.41,0.87,1.496,1.199c0.502,0.152,5.483,0.745,6.483,1.008
		C-52.003,0.593-52.653-1.08-53.535-3.674z"/>
</g>
</svg>
