<svg xmlns="http://www.w3.org/2000/svg" width="356.8" height="360.01" viewBox="0 0 356.8 360.01"><title>dbg-logo-v4-square</title><path d="M272.1,18.9a5.52,5.52,0,0,1,1.9-4.5,9.84,9.84,0,0,1,6-1.5,8.39,8.39,0,0,1,5.9,1.7,8.08,8.08,0,0,1,1.8,5.8,9.89,9.89,0,0,1-2.5,7,28.88,28.88,0,0,1-6.9,5.6l-6.6-1,5.3-7.1a6.42,6.42,0,0,1-3.7-1.8A6,6,0,0,1,272.1,18.9Z" fill="#262525"/><path d="M58.6,330.4a49.89,49.89,0,0,0,8.7-1.1V318.4H58.2V293.3h42.9v64.9H73.7L71,352.4h-.7A34.19,34.19,0,0,1,47.9,360Q5.3,360,5.3,302.5c0-19.2,3.9-33.8,11.6-43.9s20.7-15.2,39-15.2a125.64,125.64,0,0,1,38.5,5.7l-6,34.2c-13.5-3.7-23.3-5.6-29.2-5.6s-9.8,1.9-11.7,5.8-2.8,10.5-2.8,19.8.9,16.2,2.7,20.6S52.9,330.4,58.6,330.4Z"/><path d="M355,358.2H312.3l-11.5-37.5h-2v37.5H261.9V245.3h36.9V290h2l14.4-44.7h41.6L333.3,304Z"/><path d="M246.4,285.7c-11.5-3.9-18.7-5.9-21.6-5.9-4.2,0-6.4,2.1-6.4,6.4s1.8,6.4,5.4,6.4h13.9v22.3h-14c-4.9,0-7.3,2.3-7.3,6.9s2.1,6.9,6.2,6.9c3.1,0,10.4-1.8,21.8-5.3l7,24.5a124.41,124.41,0,0,1-17,5.3,73.3,73.3,0,0,1-15.5,1.4c-12.2,0-21.5-2.7-27.9-8s-9.6-12.9-9.6-22.6c0-11.2,4.4-18.8,13.1-22.6v-.6a22.3,22.3,0,0,1-8.9-8.3,24.11,24.11,0,0,1-2.7-12.1c0-8.8,3.1-15.7,9.2-20.5s15.1-7.3,26.9-7.3a79.63,79.63,0,0,1,34.6,8.1Z"/><path d="M175.7,285.7c-11.5-3.9-18.7-5.9-21.6-5.9-4.2,0-6.4,2.1-6.4,6.4s1.8,6.4,5.4,6.4H167v22.3H152.9c-4.9,0-7.3,2.3-7.3,6.9s2.1,6.9,6.2,6.9c3.1,0,10.4-1.8,21.8-5.3l7,24.5a124.41,124.41,0,0,1-17,5.3,73.3,73.3,0,0,1-15.5,1.4c-12.2,0-21.5-2.7-27.9-8s-9.6-12.9-9.5-22.6c0-11.2,4.4-18.8,13.1-22.6v-.6a22.3,22.3,0,0,1-8.9-8.3,24.11,24.11,0,0,1-2.7-12.1c0-8.8,3.1-15.7,9.2-20.5s15.1-7.3,26.9-7.3a79,79,0,0,1,34.7,8.1Z"/><path d="M56.2,41.9H53.5V80.6h3.2c4.3,0,7.2-1.5,8.5-4.5s1.9-8,1.9-15S66.4,49.2,65,46.2,60.7,41.9,56.2,41.9Z" fill="#007d9f"/><path d="M.2,0V118.8H118.4V0ZM57.1,100.5H26.2V21H57.7c13.6,0,23.2,3.3,28.8,9.8S95,46.7,95,59.1C95,86.7,82.3,100.6,57.1,100.5Z" fill="#007d9f"/><path d="M123.8,58.6c0-14.2,2.8-24.5,8.5-30.9S147.4,18,160.4,18s22.3,3.2,27.9,9.5,8.4,16.6,8.3,30.8-2.9,24.8-8.6,31.6-15.1,10.3-27.9,10.2S138,96.7,132.3,90,123.8,72.8,123.8,58.6Zm43.7-15.3q-1.65-3.3-7.2-3.3c-3.7,0-6,1.1-7,3.2s-1.5,6.7-1.5,13.7v5.6c0,7.2.6,11.8,1.7,14s3.5,3.2,7.3,3.2,6.1-1,7.1-3.1,1.4-6.7,1.4-13.7V57.1Q169.15,46.6,167.5,43.3Z" fill="#262525"/><path d="M268.7,98.9H242.5L226.4,67.5h-.9V98.9H201.2V19.3h27l15.1,32.4h.8V19.3h24.6Z" fill="#262525"/><path d="M352.5,40.9H335.6V98.8H308.3V40.9H290.5l1.2-21.6h62.4Z" fill="#262525"/><path d="M74.8,197.3c0,17.8-11.1,26.7-33.2,26.7H0V132.8H41c11,0,19.1,2,24.3,5.9s7.9,10,7.9,18.1a20.92,20.92,0,0,1-10.3,18.8v.6C70.9,179.8,74.8,186.9,74.8,197.3ZM39.7,169.1A11.85,11.85,0,0,0,41,163a11.23,11.23,0,0,0-1.3-6.2,4.45,4.45,0,0,0-4-1.9H31.4v16h4.4A4.1,4.1,0,0,0,39.7,169.1Zm1.2,35c.9-1.1,1.3-3.5,1.3-7.1a15.71,15.71,0,0,0-1.4-7.7,5.83,5.83,0,0,0-5.2-2.3H31.4v18.8h4.3c2.6,0,4.4-.5,5.2-1.7Z" fill="#262525"/><path d="M137.6,224.1H82.8V132.9h31.4v67.6h25.4Z" fill="#262525"/><path d="M175.3,224.1h-31V132.9h31Z" fill="#262525"/><path d="M265.3,224.1h-30l-18.5-36h-1v36H187.9V132.9h31L236.2,170h.9V132.9h28.2Z" fill="#262525"/><path d="M352.2,224.1H317.7l-9.3-30.2h-1.7v30.2H277V132.9h29.8V169h1.7l11.7-36.1h33.6l-19,47.4Z" fill="#262525"/><path d="M53.6,325.4a49.89,49.89,0,0,0,8.7-1.1V313.4H53.2V288.3H96.1v64.9H68.7L66,347.4h-.7A34.19,34.19,0,0,1,42.9,355Q.3,355,.3,297.6c0-19.1,3.9-33.8,11.6-43.9s20.7-15.2,39-15.2a128.47,128.47,0,0,1,38.5,5.6l-6,34.2c-13.5-3.7-23.3-5.6-29.2-5.6s-9.8,1.9-11.7,5.8-2.8,10.5-2.8,19.8.9,16.2,2.7,20.5S47.9,325.4,53.6,325.4Z" fill="#007d9f"/><path d="M350,353.2H307.3l-11.5-37.5h-2v37.5H256.9V240.3h36.9V285h2l14.4-44.7h41.6L328.3,299Z" fill="#007d9f"/><path d="M241.4,280.7c-11.5-3.9-18.7-5.9-21.6-5.9-4.2,0-6.4,2.1-6.4,6.4s1.8,6.4,5.4,6.4h13.9v22.3h-14c-4.9,0-7.3,2.3-7.3,6.9s2.1,6.9,6.2,6.9c3.1,0,10.4-1.8,21.8-5.3l7,24.5a124.41,124.41,0,0,1-17,5.3,73.3,73.3,0,0,1-15.5,1.4c-12.2,0-21.5-2.7-27.9-8s-9.6-12.9-9.6-22.6c0-11.2,4.4-18.8,13.1-22.6v-.6a22.3,22.3,0,0,1-8.9-8.3,24.11,24.11,0,0,1-2.7-12.1c0-8.8,3.1-15.7,9.2-20.6s15.1-7.3,26.9-7.3a78.22,78.22,0,0,1,34.6,8.1Z" fill="#007d9f"/><path d="M170.7,280.7c-11.5-3.9-18.7-5.9-21.6-5.9-4.2,0-6.4,2.1-6.4,6.4s1.8,6.4,5.4,6.4H162v22.3H147.9c-4.9,0-7.3,2.3-7.3,6.9s2.1,6.9,6.2,6.9c3.1,0,10.4-1.8,21.8-5.3l7,24.5a124.41,124.41,0,0,1-17,5.3,73.3,73.3,0,0,1-15.5,1.4c-12.2,0-21.5-2.7-27.9-8s-9.6-12.9-9.5-22.6c0-11.2,4.4-18.8,13.1-22.6v-.6a22.3,22.3,0,0,1-8.9-8.3,24.11,24.11,0,0,1-2.7-12.1c0-8.8,3-15.7,9.1-20.6s15.1-7.3,26.9-7.3a78.22,78.22,0,0,1,34.6,8.1Z" fill="#007d9f"/></svg>