<?xml version="1.0" encoding="utf-8"?>
<!-- Generator: Adobe Illustrator 15.0.0, SVG Export Plug-In  -->
<!DOCTYPE svg PUBLIC "-//W3C//DTD SVG 1.1//EN" "http://www.w3.org/Graphics/SVG/1.1/DTD/svg11.dtd" [
	<!ENTITY ns_flows "http://ns.adobe.com/Flows/1.0/">
]>
<svg version="1.1"
	 xmlns="http://www.w3.org/2000/svg" xmlns:xlink="http://www.w3.org/1999/xlink" xmlns:a="http://ns.adobe.com/AdobeSVGViewerExtensions/3.0/"
	 x="0px" y="0px" width="162px" height="367px" viewBox="0 0 162 367" enable-background="new 0 0 162 367" xml:space="preserve">
<defs>
</defs>
<ellipse fill="#999999" cx="58.731" cy="358.505" rx="35.229" ry="8.114"/>
<ellipse fill="#999999" cx="121.815" cy="358.187" rx="40.064" ry="8.114"/>
<path fill="#FCCEA4" d="M40.584,49.529c-0.002-2.042-0.069-4.009-0.334-6.01c-0.051-0.388-0.152-0.691-0.277-0.948
	c-0.014-0.169-0.021-0.337-0.037-0.506c-0.043-0.464-0.172-0.795-0.328-1.069c0.047-0.621-0.116-1.307-0.576-1.603
	c-0.826-0.533-1.697-0.739-2.545-0.682c-0.073-0.009-0.148-0.011-0.223-0.016c-0.132-0.049-0.264-0.058-0.395-0.029
	c-1.107-0.002-2.188,0.366-3.053,1.482c-1.247,1.608-1.404,4.333-0.959,6.681c0.018,0.093,0.043,0.185,0.063,0.278
	c0.132,1.206,0.451,2.345,0.996,3.245c0.137,0.227,0.285,0.42,0.438,0.598c1.501,2.67,3.742,4.253,5.75,2.822
	c0.634-0.159,1.179-0.924,1.179-2.294c0-0.191-0.004-0.38-0.004-0.57C40.458,50.534,40.584,50.086,40.584,49.529z"/>
<path fill="#754007" d="M38.886,48.272c-0.001-0.802-0.026-1.574-0.132-2.36c-0.02-0.152-0.059-0.271-0.107-0.372
	c-0.007-0.066-0.01-0.132-0.016-0.199c-0.016-0.182-0.066-0.313-0.129-0.42c0.02-0.243-0.045-0.513-0.225-0.629
	c-0.326-0.209-0.668-0.29-1-0.268c-0.029-0.004-0.059-0.004-0.088-0.007c-0.053-0.019-0.104-0.021-0.154-0.011
	c-0.436-0.001-0.859,0.144-1.199,0.582c-0.49,0.631-0.552,1.701-0.377,2.623c0.008,0.037,0.018,0.073,0.025,0.109
	c0.052,0.474,0.177,0.921,0.391,1.274c0.054,0.09,0.112,0.165,0.172,0.234c0.59,1.049,1.47,1.67,2.258,1.109
	c0.25-0.063,0.463-0.363,0.463-0.901c0-0.075-0.002-0.149-0.002-0.224C38.836,48.666,38.886,48.491,38.886,48.272z"/>
<path fill="#FCCEA4" d="M83.777,51.84c0.284-1.75,0.613-3.426,1.117-5.104c0.097-0.325,0.227-0.571,0.368-0.773
	c0.036-0.143,0.065-0.286,0.104-0.428c0.101-0.392,0.256-0.658,0.428-0.872c0.046-0.538,0.28-1.103,0.716-1.293
	c0.78-0.343,1.555-0.397,2.272-0.232c0.067,0.003,0.129,0.012,0.195,0.017c0.118-0.023,0.233-0.013,0.341,0.03
	c0.95,0.152,1.822,0.616,2.409,1.692c0.848,1.55,0.604,3.906-0.103,5.857c-0.025,0.077-0.063,0.152-0.091,0.229
	c-0.279,1.015-0.711,1.946-1.301,2.642c-0.148,0.176-0.304,0.321-0.458,0.451c-1.655,2.08-3.796,3.126-5.317,1.623
	c-0.521-0.224-0.881-0.955-0.691-2.129c0.026-0.164,0.055-0.325,0.081-0.488C83.747,52.717,83.699,52.317,83.777,51.84z"/>
<path fill="#754007" d="M86.346,50.586c0.121-0.744,0.259-1.458,0.475-2.171c0.042-0.138,0.095-0.243,0.157-0.329
	c0.015-0.061,0.026-0.122,0.043-0.183c0.043-0.167,0.11-0.279,0.183-0.37c0.019-0.229,0.121-0.469,0.304-0.551
	c0.334-0.145,0.662-0.168,0.967-0.098c0.028,0,0.055,0.005,0.083,0.007c0.052-0.009,0.099-0.005,0.146,0.013
	c0.403,0.064,0.775,0.261,1.023,0.72c0.36,0.659,0.257,1.661-0.043,2.491c-0.011,0.032-0.026,0.064-0.039,0.098
	c-0.119,0.431-0.302,0.828-0.554,1.123c-0.063,0.075-0.129,0.136-0.194,0.191c-0.705,0.885-1.614,1.331-2.262,0.691
	c-0.221-0.095-0.374-0.406-0.294-0.905c0.011-0.071,0.023-0.139,0.035-0.209C86.333,50.959,86.312,50.789,86.346,50.586z"/>
<path fill="#FFBE73" d="M86.938,51.569c2.35-3.559,1.576-15.863,1.199-18.936c-2.022-16.56-13.398-17.562-19.822-18.457
	c-11.918-1.66-27.229,1.27-29.429,13.041c-2.778,14.859-0.433,28.065,3.701,44.207C45.964,84.61,53.66,85.063,60.553,86.447
	c7.093,1.424,19.885,1.79,21.803-3.795C85.894,72.349,81.313,60.091,86.938,51.569z"/>
<path fill="#FFC579" d="M100.967,220.968c-0.519-2.035-0.021-6.021-1.535-7.459c-0.351-0.334-0.751-0.584-1.183-0.777
	c-0.022-0.031-0.056-0.057-0.069-0.096c-1.373-3.822-0.59-17.59,0.033-26.938c0.281-4.197-2.021-10.162-3.08-14.242
	c-0.714-2.75,0.693-8.012-2.942-8.43c-4.41-0.51-6.94,4.82-7.638,7.975c-1.305,5.891-0.676,6.023,0.13,14.191
	c0.642,6.504,9.116,21.996,5.12,28.275c-0.001,0.002-1.875,2.303-2.169,2.688c-0.479,0.631-0.72,2.041-0.756,3.66
	c-0.033,1.498,1.482,1.5,1.771,2.902c0.311,1.516-0.021,4.621,0.598,4.93c2.109,1.049,2.049-0.408,3.803-0.564
	c3.449-0.307,4.711,0.395,6.892-2.168C101.283,223.341,101.221,221.962,100.967,220.968z"/>
<path fill="#FFFFFF" d="M98.578,176.274c-0.554-2.654-2.348-8.236-2.65-11.615c-1.128-12.583-0.937-25.099-1.558-37.733
	c-0.216-4.39-0.755-8.752-1.045-13.135c-0.228-3.448-0.409-6.887-1.978-10.033c-0.171-0.342-0.542-0.296-0.755-0.085
	c-0.171-0.029-0.345,0.037-0.437,0.252c-1.091,2.55-0.957,5.37-1.606,8.038c-0.943,3.878-2.215,7.667-3.13,11.555
	c-1.752,7.435-2.324,14.97-2.547,22.585c-0.236,8.091-0.036,16.192,0.221,24.281c0.112,3.543,0.448,7.146,0.295,10.689
	c-0.099,2.281-0.571,4.826,0.576,6.914c0.778,1.412,2.767,1.365,4.108,1.143c2.896-0.48,5.827-0.941,8.604-1.92
	c1.004-0.354,3.729-1.051,3.847-2.201C100.877,181.554,99.715,181.724,98.578,176.274z"/>
<path fill="#D7DFF1" d="M100.879,178.317c0,0-0.044,4.002-0.062,5.561c-0.013,1.074,0.085,3.234-0.048,4.297
	c-0.086,0.686-1.614,1.404-9.827,1.861c-7.556,0.42-7.867,1.301-9.897,0.08c-3.152-1.895-4.768-9.9-2.052-11.879
	c2.082-1.518,8.872-0.24,11.829-0.322C93.339,177.847,99.007,176.919,100.879,178.317z"/>
<path fill="#9FB1D5" d="M91.489,160.217c-0.807,0.016-1.69,0.123-2.474,0.309c-0.692,0.166-1.733,0.622-1.971,1.364
	c-0.232,0.725,0.927,1.111,1.09,0.398c0.103-0.449,1.029-0.756,1.413-0.986c0.618-0.371,1.244-0.721,1.952-0.891
	C91.6,160.386,91.607,160.215,91.489,160.217z M92.714,157.548c-2.571,0.227-4.671-0.418-7.176-0.943
	c-0.162-0.035-0.305,0.082-0.141,0.153c1.871,0.811,5.593,2.058,7.745,1.554C93.789,158.161,93.463,157.483,92.714,157.548z
	 M90.585,154.868c-1.864-0.384-3.212-1.285-4.87-2.186c-0.106-0.059-0.232-0.007-0.132,0.079c1.15,0.969,3.516,2.638,5.144,2.738
	C91.215,155.529,91.129,154.98,90.585,154.868z"/>
<path fill="#9FB1D5" d="M69.211,93.093c-0.582-1.352-3.015-1.822-4.227-2.138c-2.479-0.647-5.006-1.293-7.551-1.584
	c-2.678-0.306-6.062-1.255-8.521,0.14c-2.255-0.068-0.102,4.365,1.397,4.926c2.831,1.06,6.164,0.869,9.136,1.004
	c2.939,0.134,5.912,0.403,8.836-0.078C69.469,95.168,69.598,93.991,69.211,93.093z"/>
<path fill="#FFBE73" d="M86.322,100.815c-5.57-1.765-9.205-1.903-15.421-4.473c-5.25-2.375-4.721-10.456-4.224-17.666
	c-2.169-3.149-14.507-0.258-14.507-0.258s1.735,13.256-5.908,16.312c-0.203,0.082-0.363,0.202-0.537,0.257
	c-3.972,1.261-8.613,1.02-13.482,1.643c-12.453,1.593-9.078,1.858-6.605,21.505c0.408,3.243,4.703,19.247,6.883,33.597
	c1.555,10.239,1.078,31.635,1.076,34.987c-0.006,9.625,3.91,21.346,5.946,22.938c1.176,0.922,12.37-0.912,22.829-0.289
	c7.654,0.455,14.877,4.059,17.674,1.871c6.619-5.178,6.267-11.689,6.694-20.865c0.303-6.502,1.637-37.594,3.063-56.28
	c0.562-7.364,1.18-13.035,1.18-14.162C90.983,103.98,93.769,103.176,86.322,100.815z"/>
<path fill="#36230A" d="M85.656,69.699c-0.098-2.379-0.384-4.695-0.98-6.999c-0.009-0.037-0.041-0.051-0.058-0.083
	c0.001-0.811-0.007-1.621-0.047-2.437c-0.036-0.742-1.037-0.764-1.181-0.1c-0.203,0.126-0.392,0.241-0.571,0.448
	c-0.313,0.364-0.631,0.724-0.941,1.088c-0.099,0.115-0.204,0.225-0.307,0.337c-0.241-0.252-0.615-0.354-1.005-0.138
	c-0.471,0.259-0.795,0.578-1.096,0.947c-0.81-0.264-1.946,0.095-2.679,0.518c-0.026,0.016-0.053,0.032-0.08,0.048
	c-0.063-0.148-0.146-0.287-0.247-0.389c-0.769-0.774-5.218,2.381-5.267,2.414c-0.835-0.836-5.271-0.521-5.924-0.097
	c-0.686-0.604-5.078-3.539-5.597-3.803c-0.269-0.137-0.642,0.027-0.628,0.36c0.001,0.024,0.01,0.039,0.01,0.061
	c-0.475-0.315-0.964-0.614-1.417-0.906c-0.864-0.561-2.264-1.326-3.247-0.699c-0.088,0.057-0.146,0.134-0.209,0.208
	c-0.786-0.336-1.505-0.843-2.254-1.253c-0.528-0.29-1.979-0.7-2.295-0.015c-0.039-0.023-0.076-0.042-0.115-0.066
	c-0.448-0.268-0.828-0.644-1.223-0.98c-0.807-0.688-1.906-1.591-3.031-1.23c-0.271,0.086-0.438,0.276-0.541,0.493
	c-0.451-0.194-0.919-0.345-1.333-0.476c-1.274-0.404-2.407-0.828-3.497-1.636c-0.107-0.079-0.213-0.103-0.318-0.105
	c-0.2-0.263-0.691-0.2-0.701,0.221c-0.029,1.172,0.186,2.301,0.478,3.433c0.018,1.025,0.19,2.079,0.323,2.996
	c0.238,1.644,0.143,4.506,1.51,5.613c0.086,0.069,0.184,0.117,0.285,0.146l0.018,0.2c0.105,1.161,0.096,2.689,0.518,3.908
	c0.004,0.155,0.007,0.315,0.008,0.468c0.017,2.15-0.168,5.463,1.549,7.009c0.283,0.255,0.65,0.277,0.954,0.142
	c0.12,0.49,0.231,0.956,0.317,1.38c0.198,0.982,1.108,1.224,1.858,0.963c0.239,0.656,0.562,1.248,1.027,1.673
	c0.161,0.149,0.353,0.176,0.534,0.152c0.056,0.142,0.105,0.295,0.163,0.432c0.256,0.605,0.776,0.706,1.245,0.534
	c0.324,0.459,0.866,0.719,1.461,0.556c0.076-0.021,0.151-0.053,0.224-0.089c0.03,0.117,0.058,0.24,0.089,0.353
	c0.283,1.028,1.301,1.238,2.056,0.902c0.39,0.761,1.104,1.27,2.021,1.017c0.367-0.101,0.699-0.357,0.938-0.686
	c0.018,0.056,0.033,0.114,0.053,0.171c0.37,1.067,1.549,0.956,2.011,0.292c0.298,0.336,0.725,0.519,1.217,0.383
	c0.111-0.031,0.212-0.08,0.306-0.139c0.314,0.625,0.912,1.04,1.654,0.835c0.378-0.104,0.717-0.403,0.906-0.769
	c0.034,0.061,0.061,0.128,0.099,0.186c0.477,0.733,1.269,0.623,1.72,0.179c0.006,0.014,0.01,0.028,0.015,0.041
	c0.196,0.452,0.82,0.629,1.258,0.511c0.036-0.01,0.056-0.033,0.089-0.045c0.017,0.042,0.023,0.083,0.041,0.125
	c0.258,0.685,0.896,1.147,1.652,0.938c0.319-0.087,0.561-0.273,0.726-0.509c0.364,0.249,0.875,0.231,1.281,0.03
	c0.613,0.923,2.187,0.626,2.609-0.316c0.498,0.505,1.49,0.541,1.997,0.018c0.571,0.635,1.82,0.599,2.319-0.099
	c0.619,0.094,1.308-0.165,1.58-0.771c0.237,0.113,0.485,0.193,0.731,0.193c0.911,0,1.506-0.663,1.659-1.487
	c0.746,0.069,1.548-0.295,1.794-1.154c0.132-0.465,0.15-0.98,0.15-1.483c0.666,0.011,1.336-0.35,1.493-1.096
	c0.168-0.807,0.108-1.625,0.015-2.442c0.186-0.133,0.324-0.335,0.369-0.626c0.185-1.232-0.011-2.535-0.147-3.816
	c0.341-0.148,0.555-0.496,0.587-0.891c0.026-0.314-0.014-0.615-0.075-0.91c0.427-0.245,0.726-0.728,0.617-1.426
	c-0.082-0.529-0.107-1.104-0.172-1.662c0.012-0.007,0.021-0.01,0.033-0.017C85.406,70.565,85.675,70.13,85.656,69.699z"/>
<path fill="#754007" d="M76.915,65.031c-1.121,0.081-2.173,0.498-3.248,0.803c-1.604,0.453-3.127,0.535-4.771,0.631
	c-0.118,0.007-0.133,0.16-0.025,0.201c2.32,0.895,6.023-0.201,8.146-1.263C77.189,65.315,77.111,65.017,76.915,65.031z"/>
<path fill="#754007" d="M76.51,67.638c-2.745,0.43-5.18,2.492-8.117,1.395c-0.064-0.023-0.109,0.083-0.047,0.11
	c2.457,1.05,6.231,0.45,8.283-1.303C76.731,67.753,76.618,67.622,76.51,67.638z"/>
<path fill="#754007" d="M82.599,63.703c-0.741,0.182-1.434,0.763-2.115,1.114c-0.898,0.463-1.815,0.867-2.681,1.399
	c-0.162,0.101-0.019,0.34,0.152,0.256c0.908-0.449,1.858-0.81,2.787-1.214c0.695-0.303,1.633-0.668,1.993-1.378
	C82.784,63.786,82.706,63.677,82.599,63.703z"/>
<path fill="#754007" d="M81.9,65.79c-1.198,0.616-2.651,1.014-3.733,1.82c-0.141,0.104-0.063,0.376,0.13,0.306
	c1.271-0.47,2.752-1,3.755-1.929C82.161,65.886,82.022,65.728,81.9,65.79z"/>
<path fill="#754007" d="M80.849,63.077c-0.808,0.049-1.488,0.694-2.028,1.238c-0.108,0.11,0.036,0.313,0.169,0.219
	c0.613-0.444,1.405-0.704,1.966-1.203C81.048,63.246,80.977,63.07,80.849,63.077z"/>
<path fill="#754007" d="M83.89,61.088c-0.54,0.319-1.077,0.896-1.267,1.5c-0.05,0.16,0.157,0.267,0.271,0.158
	c0.442-0.424,0.985-0.91,1.22-1.485C84.168,61.132,83.997,61.026,83.89,61.088z"/>
<path fill="#754007" d="M66.149,66.456c-0.441-0.008-0.82,0.18-1.271,0.197c-0.613,0.024-1.188-0.236-1.717-0.518
	c-1.063-0.568-1.741-1.459-2.44-2.397c-0.104-0.135-0.365-0.062-0.297,0.125c0.408,1.134,1.516,2.051,2.502,2.674
	c0.816,0.516,2.619,1.185,3.354,0.236C66.375,66.649,66.326,66.458,66.149,66.456z"/>
<path fill="#754007" d="M66.667,68.744c-0.834-0.487-1.826-0.369-2.768-0.425c-1.775-0.105-2.857-1.131-4.153-2.179
	c-0.066-0.054-0.175,0.014-0.125,0.096c1.4,2.289,4.461,2.98,6.974,2.777C66.731,69.001,66.797,68.82,66.667,68.744z"/>
<path fill="#754007" d="M59.319,63.225c-0.189-0.162-0.407-0.162-0.646-0.229c-0.395-0.113-0.758-0.346-1.1-0.573
	c-0.644-0.428-1.109-0.982-1.643-1.526c-0.119-0.124-0.293,0.031-0.227,0.174c0.333,0.696,1.055,1.26,1.668,1.699
	c0.408,0.293,1.42,0.975,1.926,0.623C59.35,63.355,59.375,63.272,59.319,63.225z"/>
<path fill="#754007" d="M58.199,66.896c-0.455-0.347-0.993-0.573-1.464-0.902c-0.621-0.433-1.154-0.991-1.682-1.529
	c-0.939-0.96-1.758-2.119-2.393-3.303c-0.07-0.134-0.261-0.016-0.199,0.117c0.644,1.384,1.516,2.603,2.513,3.752
	c0.726,0.836,1.974,2.09,3.156,2.116C58.278,67.15,58.295,66.971,58.199,66.896z"/>
<path fill="#754007" d="M51.522,62.292c-0.681-0.512-1.344-1.091-1.807-1.813c-0.1-0.158-0.328-0.021-0.248,0.145
	c0.352,0.724,0.848,1.29,1.457,1.807c0.469,0.395,1.096,1.073,1.711,1.155c0.086,0.012,0.164-0.098,0.135-0.176
	C52.577,62.902,51.94,62.608,51.522,62.292z"/>
<path fill="#754007" d="M48.362,60.638c-0.289-0.391-0.693-0.639-1.074-0.937c-0.443-0.349-0.865-0.774-1.174-1.247
	c-0.133-0.204-0.416-0.028-0.32,0.188c0.403,0.917,1.418,1.967,2.43,2.18C48.318,60.842,48.434,60.734,48.362,60.638z"/>
<path fill="#754007" d="M44.99,59.289c-0.595-0.646-1.363-1.114-2.085-1.606c-0.781-0.534-1.578-1.103-2.498-1.369
	c-0.075-0.022-0.148,0.085-0.08,0.14c0.658,0.525,1.382,0.967,2.07,1.453c0.797,0.561,1.561,1.233,2.488,1.561
	C44.993,59.505,45.057,59.363,44.99,59.289z"/>
<path fill="#754007" d="M41.134,59.417c-0.03-0.084-0.167-0.077-0.165,0.022c0.037,1.169,0.328,2.303,0.522,3.454
	c0.255,1.501,0.095,2.923,0.188,4.417c0.014,0.21,0.313,0.264,0.373,0.051C42.717,65.025,41.93,61.642,41.134,59.417z"/>
<path fill="#754007" d="M44.945,75.004c-0.03-1.374-0.034-2.763-0.165-4.131c-0.02-0.209-0.307-0.209-0.324,0
	c-0.127,1.369-0.086,2.756-0.082,4.131c0.002,1.207-0.105,2.456,0.135,3.642c0.036,0.182,0.33,0.183,0.367,0
	C45.11,77.456,44.97,76.212,44.945,75.004z"/>
<path fill="#754007" d="M43.518,69.546c0.074-1.724,0.649-3.299,0.867-4.984c0.029-0.222-0.297-0.274-0.397-0.108
	c-1.644,2.715-1.47,7.19-0.808,10.18c0.046,0.208,0.346,0.148,0.355-0.049C43.623,72.908,43.444,71.229,43.518,69.546z"/>
<path fill="#754007" d="M45.147,61.002c-0.683-0.432-1.244,0.424-1.49,0.951c-0.094,0.198,0.16,0.341,0.287,0.168
	c0.178-0.236,0.383-0.46,0.634-0.619c0.167-0.105,0.391-0.118,0.569-0.212C45.262,61.23,45.247,61.066,45.147,61.002z"/>
<path fill="#754007" d="M46.681,63.857c0.037-0.156-0.168-0.241-0.255-0.107c-1.434,2.232-1.236,5.921-0.104,8.252
	c0.079,0.163,0.329,0.078,0.329-0.089c0-1.187-0.305-2.348-0.428-3.525C46.061,66.84,46.33,65.357,46.681,63.857z"/>
<path fill="#754007" d="M48.874,82.206c-1.356-1.91-1.846-3.75-2.27-6.023c-0.025-0.127-0.241-0.131-0.26,0
	c-0.324,2.134,0.451,4.968,2.256,6.296C48.76,82.597,48.987,82.366,48.874,82.206z"/>
<path fill="#754007" d="M49.397,77.824c-0.676-1.442-1.16-2.505-1.271-4.144c-0.096-1.427-0.086-2.863-0.148-4.292
	c-0.002-0.024-0.035-0.024-0.037,0c-0.152,2.288-1.395,7.248,1.178,8.715C49.306,78.211,49.481,78.002,49.397,77.824z"/>
<path fill="#754007" d="M50.323,71.688c-0.123-0.575-0.093-1.19-0.286-1.747c-0.052-0.146-0.244-0.145-0.296,0
	c-0.322,0.914-0.451,2.813,0.548,3.363c0.16,0.088,0.351-0.023,0.356-0.204C50.659,72.611,50.424,72.161,50.323,71.688z"/>
<path fill="#754007" d="M53.745,84.539c-0.538-0.683-1.161-1.254-1.654-1.984c-0.533-0.791-0.939-1.689-1.273-2.58
	c-0.044-0.119-0.227-0.106-0.227,0.031c-0.014,1.041,0.387,2.015,0.871,2.917c0.416,0.773,1.152,1.816,2.086,1.958
	C53.755,84.912,53.875,84.705,53.745,84.539z"/>
<path fill="#754007" d="M52.379,77.072c-0.316-0.785-0.433-1.659-0.796-2.417c-0.062-0.129-0.252-0.084-0.288,0.038
	c-0.445,1.488,0.744,3.74,1.625,4.887c0.123,0.16,0.391,0.074,0.34-0.144C53.065,78.601,52.7,77.865,52.379,77.072z"/>
<path fill="#754007" d="M82.937,67.541c-0.135-0.061-0.323,0.073-0.223,0.222c0.492,0.735,0.547,1.663,1.035,2.378
	c0.077,0.112,0.271,0.11,0.305-0.039C84.253,69.234,83.781,67.92,82.937,67.541z"/>
<path fill="#754007" d="M82.487,71.453c-0.111-0.153-0.382-0.069-0.323,0.136c0.562,1.917,0.119,3.997,0.739,5.867
	c0.058,0.173,0.29,0.171,0.348,0C83.876,75.621,83.648,73.035,82.487,71.453z"/>
<path fill="#754007" d="M79.498,69.808c-0.079-0.062-0.204,0.041-0.171,0.131c0.635,1.706,0.283,3.415,0.653,5.147
	c0.043,0.202,0.356,0.198,0.403,0C80.752,73.497,80.961,70.935,79.498,69.808z"/>
<path fill="#754007" d="M81.014,78.05c-0.024-0.102-0.187-0.08-0.183,0.025c0.044,1.271-0.168,2.516-0.397,3.763
	c-0.206,1.122-0.729,2.293-0.588,3.439c0.033,0.262,0.324,0.347,0.485,0.13c0.708-0.954,0.784-2.303,0.932-3.457
	C81.431,80.626,81.315,79.342,81.014,78.05z"/>
<path fill="#754007" d="M77.5,73.761c-0.085-0.178-0.326-0.044-0.297,0.125c0.362,2.099,0.054,4.027,0.063,6.119
	c0.001,0.231,0.337,0.34,0.45,0.121C78.705,78.209,78.408,75.649,77.5,73.761z"/>
<path fill="#754007" d="M75.73,80.409c-0.032-0.15-0.274-0.153-0.305,0c-0.262,1.294-0.16,2.616-0.601,3.875
	c-0.304,0.866-1.074,1.882-0.471,2.734c0.078,0.109,0.232,0.147,0.335,0.042c0.661-0.675,0.852-2.057,1.139-2.956
	C76.194,82.951,75.984,81.566,75.73,80.409z"/>
<path fill="#754007" d="M72.843,76.471c-0.045-0.154-0.282-0.165-0.321,0c-0.207,0.854-0.279,1.74-0.47,2.6
	c-0.178,0.796-0.487,1.521-0.483,2.345c0,0.118,0.169,0.212,0.255,0.105C72.755,80.328,73.27,77.943,72.843,76.471z"/>
<path fill="#754007" d="M72.325,83.383c-0.324,0.882-0.918,1.684-1.502,2.413c-0.457,0.573-1.136,1.132-1.42,1.813
	c-0.051,0.122,0.095,0.236,0.205,0.206c0.813-0.227,1.46-1.148,1.937-1.797c0.568-0.775,0.95-1.637,1.055-2.597
	C72.618,83.254,72.376,83.247,72.325,83.383z"/>
<path fill="#754007" d="M54.362,75.06c-0.045-0.186-0.358-0.149-0.339,0.045c0.206,2.008,0.772,4.039,2.004,5.669
	c0.136,0.18,0.409,0.078,0.365-0.153C56.02,78.676,54.819,76.992,54.362,75.06z"/>
<path fill="#754007" d="M57.168,85.485c-0.371-0.574-0.703-1.176-1.082-1.749c-0.24-0.363-0.494-1.188-0.902-1.375
	c-0.095-0.043-0.211-0.029-0.266,0.07c-0.248,0.441,0.283,1.139,0.493,1.504c0.409,0.703,0.862,1.242,1.48,1.764
	C57.036,85.821,57.285,85.664,57.168,85.485z"/>
<path fill="#754007" d="M60.483,84.714c-0.421-0.689-1.018-1.201-1.388-1.953c-0.435-0.883-0.679-1.86-0.972-2.795
	c-0.057-0.183-0.332-0.107-0.285,0.079c0.331,1.353,0.561,4.722,2.383,5.011C60.41,85.085,60.6,84.905,60.483,84.714z"/>
<path fill="#754007" d="M69.381,80.994c-0.672,1.614-2.084,2.918-2.578,4.588c-0.072,0.241,0.236,0.408,0.41,0.24
	c1.25-1.213,1.969-3.11,2.534-4.727C69.83,80.859,69.472,80.774,69.381,80.994z"/>
<path fill="#754007" d="M65.6,81.165c-0.719,1.605-1.943,2.938-2.549,4.576c-0.074,0.203,0.21,0.345,0.35,0.204
	c1.23-1.247,2.045-2.954,2.574-4.623C66.043,81.104,65.696,80.952,65.6,81.165z"/>
<path fill="#754007" d="M61.988,80.39c-0.062-0.244-0.473-0.198-0.446,0.061c0.117,1.208,0.082,2.411,0.302,3.604
	c0.026,0.147,0.269,0.147,0.294,0C62.364,82.822,62.295,81.609,61.988,80.39z"/>
<path fill="#FFFFFF" d="M53.962,40.96c-6.919,0-6.919,4,0,4C60.882,44.96,60.882,40.96,53.962,40.96z"/>
<path fill="#335880" d="M52.167,41.354c-2.579,0-2.579,4.001,0,4.001C54.749,45.355,54.749,41.354,52.167,41.354z"/>
<path fill="#45321D" d="M54.27,42.847c9.707,0.261,2.261-2.358-0.292-1.978C51.424,41.248,42.76,42.536,54.27,42.847z"/>
<path fill="#FFFFFF" d="M77.897,42.48c-6.733,0-6.733,4,0,4S84.63,42.48,77.897,42.48z"/>
<path fill="#335880" d="M76.297,42.687c-2.58,0-2.58,4.001,0,4.001S78.877,42.687,76.297,42.687z"/>
<path fill="#45321D" d="M78.387,44.092c9.704,0.262,2.259-2.359-0.294-1.978C75.541,42.492,66.875,43.781,78.387,44.092z"/>
<path fill="#36230A" d="M35.841,22.149c0.15-1.155,0.378-2.5,0.818-3.711c0.141-0.821,0.319-1.619,0.518-2.37
	c0.592-2.261,2.034-6.635,4.596-7.693c0.067-0.038,0.131-0.077,0.198-0.111c0.65-0.815,1.431-1.512,2.099-1.945
	c1.363-0.892,3.521-1.049,5.191-0.404c0.421-1.076,0.597-2.314,1.204-3.247c0.076-0.121,0.294-0.158,0.357,0
	c0.317,0.72,0.342,1.681,0.314,2.614c1.454-0.93,3.01-1.637,4.65-2.024c1.09-0.257,2.214-0.378,3.352-0.417
	c1.313-0.285,2.608-0.456,3.565-0.654c2.867-0.594,7.442-3.656,10.056-1.321c0.048,0.041,0.064,0.14,0.024,0.189
	c-0.93,1.228-2.169,2.194-3.522,2.979c0.259,0.051,0.53,0.102,0.78,0.152c2.337-0.465,4.771-0.556,7.116-0.425
	c2.876,0.162,6.482,0.238,8.955,1.889c2.103,0.611,3.896,1.971,4.79,4.116c0.083,0.197-0.119,0.373-0.295,0.388
	c-0.952,0.071-1.599-0.192-2.532-0.416c-0.918-0.223-1.761-0.391-2.614-0.497c2.081,1.532,3.931,3.563,4.975,4.935
	c2.362,3.099,6.079,9.433,3.813,13.365c-0.226,0.397-0.759,0.353-0.997,0c-0.851-1.26-1.534-2.563-2.187-3.872
	c0.661,3.304,0.497,6.598-0.885,10.043c-0.097,0.237-0.402,0.245-0.49,0c-0.938-2.573-1.3-5.293-1.873-7.978
	c0.554,5.002,0.076,10.179-1.837,14.766c-0.149,0.363-0.746,0.474-0.854,0c-0.585-2.668-0.75-5.396-0.922-8.132
	c-0.119,0.555-0.262,1.096-0.457,1.625c-0.151,0.407-0.743,0.455-0.875,0c-0.89-3.208-1.757-6.423-2.833-9.572
	c-0.224-0.314-0.442-0.625-0.674-0.916c-1.379-1.696-3.06-3.216-4.729-4.661c0.138,0.656,0.325,2.437-0.621,2.107
	c-0.902-0.316-1.352-1.339-1.998-1.985c-1.262-1.265-2.687-2.32-4.182-3.291c-0.299-0.097-0.598-0.19-0.899-0.293
	c-1.11-0.38-2.198-0.825-3.287-1.273c-1.452-0.08-2.926-0.158-4.396-0.188c0.664,0.332,1.264,0.698,1.753,1.092
	c0.057,0.043,0.032,0.133-0.02,0.165c-0.079,0.048-0.159,0.08-0.235,0.124l0.004,0.003c0.096,0.057,0.033,0.202-0.071,0.174
	c-0.066-0.017-0.131-0.025-0.203-0.037c-0.461,0.217-0.933,0.365-1.415,0.464c1.447,0.006,2.747,0.025,4.241,0.636
	c0.102,0.041,0.147,0.143,0.136,0.236c0.405,0.083,0.298,0.617-0.013,0.745c-3.548,1.439-7.575,1.135-11.319,0.737
	c-1.439-0.153-3.092-0.191-4.663-0.439c-0.127,0.063-0.255,0.128-0.374,0.189c-0.15,0.078-0.317,0.183-0.488,0.295
	c-1.503,1.858-2.691,4.008-3.621,6.243c-0.176,1.422-0.542,2.867-0.728,4.201c-0.422,3.056-0.128,6.269-0.8,9.256
	c-0.079,0.356-0.567,0.311-0.672,0c-0.996-3.037-1.213-6.489-1.601-9.673c-0.053-0.412-0.081-0.842-0.088-1.28
	c-0.295,1.879-0.586,3.76-1.058,5.614c-0.132,0.506-0.882,0.497-1.018,0C36.061,29.179,35.369,25.758,35.841,22.149z"/>
<path fill="#8E5F0C" d="M40.854,10.162c0.088-0.142,0.33,0.006,0.251,0.152c-1.046,1.861-1.799,3.819-2.305,5.897
	c-0.451,1.853-0.26,3.663-0.388,5.537c-0.015,0.23-0.378,0.261-0.445,0.051C36.775,18.074,38.858,13.235,40.854,10.162z
	 M39.566,25.262c0.028,0.217,0.29,0.258,0.374,0.054c0.702-1.791,0.755-3.819,1.354-5.666c0.609-1.863,1.4-3.603,2.419-5.275
	c0.046-0.083-0.073-0.152-0.128-0.078C41.538,17.191,39.126,21.592,39.566,25.262z M46.663,13.386
	c1.699,2.633,4.689,3.201,7.579,3.619c0.159,0.023,0.219-0.186,0.066-0.245c-1.935-0.731-4.403-1.021-5.897-2.58
	c-0.62-0.648-1.526-1.595-1.193-2.6c0.263-0.791,1.145-0.773,1.705-1.249c0.115-0.099,0.098-0.348-0.055-0.409
	c-0.812-0.349-1.948,0.061-2.422,0.844C45.931,11.617,46.138,12.576,46.663,13.386z M54.421,5.286
	c3.629-0.144,7.734-1.037,11.125-2.313c0.199-0.076,0.119-0.391-0.091-0.323c-3.589,1.134-7.728,0.693-11.147,2.205
	C54.091,4.951,54.206,5.295,54.421,5.286z M55.919,7.983c9.737,0.431,18.396-5.616,28.132-1.538
	c0.043,0.018,0.075-0.059,0.035-0.078C74.963,2.246,65.225,6.545,55.9,7.82C55.8,7.832,55.828,7.978,55.919,7.983z M61.759,9.393
	c10.089-0.168,19.449-1.886,27.662,5.572c0.034,0.041,0.095-0.023,0.059-0.059c-7.504-7.015-18.011-8.253-27.761-5.802
	C61.555,9.147,61.592,9.398,61.759,9.393z M74.975,12.721c2.465,1.387,4.98,2.313,7.057,4.349c2.428,2.382,3.887,5.218,4.105,8.643
	c0.012,0.214,0.338,0.22,0.338,0c-0.009-6.201-5.224-12.167-11.336-13.373C74.908,12.291,74.752,12.603,74.975,12.721z"/>
<path fill="#FFBE73" d="M49.659,66.646c3.607,4.938,5.5,10.893,10.861,11.486c2.564,0.284,5.81,1.237,8.277,0
	c3.016-1.511,4.916-3.384,7.125-6.314c0.185-0.245-6.458,2.437-12.553,1.282C56.311,71.764,49.624,66.599,49.659,66.646z"/>
<path fill="#45321D" d="M77.818,70.134c0,0-5.668,8.142-15.015,6.593c-9.348-1.548-13.813-11.288-14.727-12.774
	c-0.918-1.486-0.348-2.054,0.956-0.891c5.745,5.126,19.101,9.071,27.121,6.727C79.701,68.756,77.818,70.134,77.818,70.134z"/>
<path fill="#FFFFFF" d="M73.818,70.649c-1.843,0.383-4.782,0.174-4.782,0.174c-5.635-0.36-12.041-2.327-16.645-4.957
	c-0.086,0.284,0.203,1.338,0.009,1.548c-0.253,0.269-1.294,0.129-1.616,0.217c2.271,3.127,6.34,6.855,12.143,7.816
	c0.512,0.085,1.014,0.142,1.5,0.173c5.077,0.323,8.921-1.943,10.127-2.752c-0.099-0.141-1.127-0.519-1.183-0.682
	C73.315,72.024,73.831,70.823,73.818,70.649z"/>
<path fill="#36230A" d="M87.26,38.61c-1.859-0.29-4.52-0.503-6.393-0.697c-1.105-0.115-4.886-0.049-7.043-1.994
	c-1.421-1.283-2.632,1.515-0.918,2.79c1.134,0.842,2.346,1.411,3.778,1.387c0.658-0.011,8.398-0.511,10.618-0.742
	C87.751,39.309,87.654,38.671,87.26,38.61z"/>
<path fill="#8E5F0C" d="M87.228,38.672c-2.372,0.303-5.012-0.179-7.373-0.461c-2.515-0.299-4.471-0.72-6.543-2.269
	c-0.042-0.032-0.113,0.022-0.081,0.07c0.753,1.151,2.366,2.131,3.732,2.359c3.441,0.574,6.85,0.517,10.295,0.814
	C87.629,39.219,87.613,38.624,87.228,38.672z"/>
<path fill="#36230A" d="M59.401,34.084c-4.189-1.825-12.534-2.598-15.219,1.788c-1.109,1.813-0.009,1.696,1.488,0.204
	c3.131-3.118,9.045-0.614,12.583,0.638c0.582,0.207,2.226-0.061,2.69-0.876C61.362,35.106,60.406,34.521,59.401,34.084z"/>
<path fill="#8E5F0C" d="M60.309,34.703c-4.483-1.77-13.903-3.645-16.27,1.784c-0.026,0.062,0.074,0.09,0.109,0.042
	c3.379-4.436,11.085-3.428,15.664-1.056C60.375,35.765,60.877,34.928,60.309,34.703z"/>
<path fill="#FFFFFF" d="M147.105,351.968c1.317,2.775-2.56,4.17-3.977,4.873c0,0-3.113,2.041-11.104,2.041
	c-12.371,0-40.495,0-40.495,0c-0.579,0-1.049-0.369-1.049-0.822l-0.14-2.967c0-0.453,0.609-0.824,1.188-0.824
	c0,0,28.006,0.305,40.333,0c3.718-0.092,6.635-0.643,6.635-0.643C138.695,353.97,147.105,351.968,147.105,351.968z"/>
<path fill="#FF6A00" d="M89.749,353.259c0,0-0.445-1.361-0.727-3.211c-0.356-2.34-0.685-5.514,0.101-8.174
	c1.624-5.5-2.552-16.748-1.916-20.199c0.635-3.449-2.302-3.299,5.2-6.111c7.498-2.809,11.715-3.344,12.341,1.342
	c0.389,2.91-1.189,13.477,4.265,21.359c3.88,5.609,13.04,8.949,24.154,10.648c6.198-1.02,13.925,1.492,13.938,3.055
	c-0.826,0.688-3.639,2.775-7.898,3.457c-2.16,0.346-4.348-1.156-7.344-1.156C112.259,354.269,89.749,353.259,89.749,353.259z"/>
<path fill="#590600" d="M104.685,316.749c-1.258-5.092-4.78-3.994-12.278-1.186c-7.502,2.813-4.971,1.58-5.605,5.029
	c-0.636,3.449,5.744,16.682,2.321,21.281c-0.643,0.861-0.25,1.762-0.453,2.719c-0.42,1.979,0.051,4.002,0.359,5.619
	c0.338,1.768,1.281,5.443,1.281,5.443s21.521,0.313,41.125,0.313c2.655,0,5.771-0.256,7.771-0.543
	c-0.012-0.041-1.489-5.572-6.04-6.512c-11.163-1.707-20.765-5.371-24.638-11.008C103.125,330.038,105.387,319.591,104.685,316.749z"
	/>
<polygon fill="#FF6A00" points="89.752,323.397 91.249,324.923 93.701,324.821 92.311,326.409 93.19,328.206 90.835,327.659 
	88.923,328.868 88.86,326.944 86.801,325.896 89.116,325.253 "/>
<path fill="#FFFFFF" d="M126.118,351.136c0.196-0.596-0.262-1.205-1.024-1.361c-0.764-0.152-1.538,0.205-1.738,0.803
	c-0.196,0.596,0.263,1.207,1.022,1.359C125.141,352.093,125.92,351.733,126.118,351.136z"/>
<path fill="#590600" d="M125.504,351.013c0.106-0.332-0.145-0.67-0.571-0.758c-0.421-0.086-0.854,0.115-0.964,0.445
	c-0.11,0.332,0.145,0.672,0.567,0.758C124.96,351.544,125.392,351.345,125.504,351.013z"/>
<path fill="#FFFFFF" d="M126.592,347.712c0.113-0.332-0.144-0.67-0.567-0.758l0,0c-0.421-0.084-0.854,0.113-0.965,0.447
	l-0.892,2.699c-0.109,0.33,0.145,0.67,0.568,0.756l0,0c0.424,0.086,0.854-0.113,0.964-0.445L126.592,347.712z"/>
<path fill="#FFFFFF" d="M119.9,349.61c0.396-0.535,0.163-1.219-0.517-1.529c-0.681-0.311-1.555-0.127-1.949,0.404
	c-0.394,0.533-0.164,1.219,0.515,1.529C118.63,350.325,119.502,350.142,119.9,349.61z"/>
<path fill="#590600" d="M119.351,349.36c0.219-0.297,0.091-0.678-0.287-0.85c-0.379-0.172-0.864-0.07-1.084,0.225
	c-0.22,0.297-0.089,0.678,0.288,0.85C118.648,349.757,119.13,349.655,119.351,349.36z"/>
<path fill="#FFFFFF" d="M121.536,346.411c0.222-0.297,0.092-0.678-0.286-0.85l0,0c-0.379-0.172-0.861-0.072-1.084,0.225
	l-1.786,2.412c-0.22,0.297-0.093,0.676,0.285,0.85l0,0c0.38,0.172,0.865,0.07,1.082-0.225L121.536,346.411z"/>
<path fill="#FFFFFF" d="M113.936,346.907c0.57-0.426,0.593-1.133,0.049-1.58c-0.542-0.447-1.445-0.463-2.016-0.039
	c-0.568,0.426-0.591,1.135-0.049,1.58C112.461,347.315,113.367,347.331,113.936,346.907z"/>
<path fill="#590600" d="M113.499,346.548c0.316-0.236,0.329-0.631,0.027-0.877c-0.302-0.248-0.803-0.258-1.119-0.021
	s-0.329,0.629-0.026,0.877C112.681,346.774,113.182,346.784,113.499,346.548z"/>
<path fill="#FFFFFF" d="M116.652,344.198c0.313-0.238,0.326-0.631,0.024-0.879l0,0c-0.302-0.25-0.803-0.26-1.119-0.021l-2.577,1.924
	c-0.315,0.236-0.328,0.627-0.027,0.877l0,0c0.302,0.246,0.803,0.258,1.119,0.021L116.652,344.198z"/>
<path fill="#590600" d="M110.813,341.288c0.374-0.178,0.494-0.559,0.267-0.852c-0.227-0.295-0.713-0.389-1.086-0.211
	c-0.375,0.176-0.497,0.557-0.27,0.854C109.952,341.372,110.438,341.464,110.813,341.288z"/>
<path fill="#FFFFFF" d="M107.457,336.458c0.725-0.24,1.063-0.896,0.754-1.465c-0.306-0.566-1.144-0.832-1.867-0.592
	s-1.062,0.896-0.756,1.465C105.894,336.433,106.73,336.698,107.457,336.458z"/>
<path fill="#590600" d="M107.209,336.001c0.401-0.133,0.591-0.498,0.419-0.814c-0.172-0.314-0.635-0.463-1.037-0.328
	c-0.403,0.133-0.59,0.498-0.422,0.813C106.342,335.987,106.806,336.136,107.209,336.001z"/>
<path fill="#FFFFFF" d="M104.722,331.282c0.763-0.148,1.229-0.756,1.036-1.354c-0.188-0.6-0.962-0.963-1.728-0.814
	c-0.762,0.148-1.228,0.756-1.036,1.354C103.184,331.065,103.957,331.431,104.722,331.282z"/>
<path fill="#590600" d="M104.569,330.8c0.425-0.08,0.685-0.42,0.575-0.752c-0.106-0.334-0.533-0.535-0.958-0.453
	c-0.425,0.084-0.682,0.422-0.577,0.754C103.715,330.679,104.144,330.884,104.569,330.8z"/>
<path fill="#FFFFFF" d="M103.205,325.54c0.78-0.074,1.336-0.631,1.24-1.244c-0.094-0.611-0.805-1.049-1.586-0.975
	c-0.78,0.076-1.338,0.633-1.243,1.244C101.711,325.179,102.422,325.614,103.205,325.54z"/>
<path fill="#590600" d="M103.127,325.048c0.434-0.041,0.742-0.352,0.69-0.691c-0.055-0.342-0.448-0.584-0.883-0.543
	c-0.433,0.043-0.742,0.352-0.689,0.693C102.297,324.845,102.693,325.089,103.127,325.048z"/>
<path fill="#D7DFF1" d="M86.322,100.815c-5.57-1.765-9.205-1.903-15.421-4.473c-1.034-0.468-1.838-1.165-2.469-2.026l-3.599,6.185
	v-0.45h-7.396v0.104l-7.831-8.018c-0.843,1.113-1.933,2.027-3.345,2.592c-0.203,0.082-0.363,0.202-0.537,0.257
	c-3.972,1.261-8.613,1.02-13.482,1.643c-12.453,1.593-9.078,1.858-6.605,21.505c0.408,3.243,4.703,19.247,6.883,33.597
	c1.555,10.239,1.078,31.635,1.076,34.987c-0.006,9.625,3.91,21.346,5.946,22.938c1.176,0.922,12.37-0.912,22.829-0.289
	c5.612,0.334,10.984,2.352,14.559,2.547c1.018-0.207,2.021-0.412,3.011-0.613c0.033-0.023,0.073-0.037,0.104-0.063
	c6.619-5.178,6.267-11.689,6.694-20.865c0.313-6.691,1.667-37.843,3.063-56.28c0.495-6.536,1.18-13.119,1.18-14.162
	C90.983,103.98,93.769,103.176,86.322,100.815z"/>
<path fill="#9FB1D5" d="M59.607,105.272c-0.071-0.526-0.135-1.053-0.193-1.579C59.485,104.22,59.548,104.747,59.607,105.272z"/>
<path fill="#2E6666" d="M86.909,187.515c-7.699,0.609-16.267,3.521-25.041,2.918c-10.189-0.701-19.777-2.211-28.267-4.307
	c-0.274,25.617,5.106,43.883,8.07,68.955c0.979,8.285,1.843,15.721,2.427,21.428c0.951,9.299,2.403,28.078,3.636,44.719
	c0.386,5.199-0.394,15.178-0.357,16.365c0.064,2.148,1.056,2.41,1.188,4.25c0.077,1.064-0.881,2.514-0.813,3.455
	c0.064,0.908,1.611,1.479,1.126,2.092c-0.506,0.641-3.25,2.828-1,4.863c1.964,1.775,12.758-0.25,12.758-0.25
	s10.358,0.691,11.964-1.316c0.995-1.246-1.034-3.906-2.465-4.307c-0.763-0.213,1.269-0.633,1.118-1.537
	c-0.161-0.977-1.382-3.334-1.563-4.438c-0.943-5.768-2.608-12.842-3.748-20.678c-2.321-15.963-4.499-33.756-4.297-43.33
	c0.132-6.227-0.968-12.086-1.396-21.564c-0.578-12.75-0.894-26.34-0.948-34.99c-0.012-1.977,1.369-4.666,4.152-6.25
	c2.05-1.168,4.158,6.795,4.902,8.916c4.876,13.908,11.383,43.189,13.617,58c1.998,13.236,5.152,46.209,6.691,62.83
	c0.122,1.318-1.137,2.947-1.036,4.043c0.124,1.359,1.455,1.994,1.402,2.83c-0.101,1.57,0.421,1.807,1.21,2.469
	c2.045,1.719,6.119-1.201,8.346-2.506c2.371-1.389,5.984-8.898,11.54-7.195c1.143,0.352,2.028-0.998,1.252-3.012
	c-0.263-0.682-2.235-0.854-2.407-1.85c-0.144-0.836,0.324-1.916,0.157-2.846c-0.24-1.342-1.127-2.584-1.408-4.096
	c-3.18-17.094-8.712-44.088-10.853-57.668C93.569,252.595,86.431,218.542,86.909,187.515z"/>
<path fill="#2E6666" d="M86.909,187.515c-7.699,0.609-16.267,3.521-25.041,2.918c-10.189-0.701-19.777-2.211-28.267-4.307
	c-0.274,25.617,5.106,43.883,8.07,68.955c0.979,8.285,1.843,15.721,2.427,21.428c0.951,9.299,2.403,28.078,3.636,44.719
	c0.386,5.199-0.394,15.178-0.357,16.365c0.064,2.148,1.056,2.41,1.188,4.25c0.077,1.064-0.881,2.514-0.813,3.455
	c0.064,0.908,1.611,1.479,1.126,2.092c-0.506,0.641-3.25,2.828-1,4.863c1.964,1.775,12.758-0.25,12.758-0.25
	s10.358,0.691,11.964-1.316c0.995-1.246-1.034-3.906-2.465-4.307c-0.763-0.213,1.269-0.633,1.118-1.537
	c-0.161-0.977-1.382-3.334-1.563-4.438c-0.943-5.768-2.608-12.842-3.748-20.678c-2.321-15.963-4.499-33.756-4.297-43.33
	c0.132-6.227-0.968-12.086-1.396-21.564c-0.578-12.75-0.894-26.34-0.948-34.99c-0.012-1.977,1.369-4.666,4.152-6.25
	c2.05-1.168,4.158,6.795,4.902,8.916c4.876,13.908,11.383,43.189,13.617,58c1.998,13.236,5.152,46.209,6.691,62.83
	c0.122,1.318-1.137,2.947-1.036,4.043c0.124,1.359,1.455,1.994,1.402,2.83c-0.101,1.57,0.421,1.807,1.21,2.469
	c2.045,1.719,6.119-1.201,8.346-2.506c2.371-1.389,5.984-8.898,11.54-7.195c1.143,0.352,2.028-0.998,1.252-3.012
	c-0.263-0.682-2.235-0.854-2.407-1.85c-0.144-0.836,0.324-1.916,0.157-2.846c-0.24-1.342-1.127-2.584-1.408-4.096
	c-3.18-17.094-8.712-44.088-10.853-57.668C93.569,252.595,86.431,218.542,86.909,187.515z"/>
<path fill="#335880" d="M86.909,187.515c-7.699,0.609-16.267,3.521-25.041,2.918c-10.189-0.701-19.777-2.211-28.267-4.307
	c-0.274,25.617,5.106,43.883,8.07,68.955c0.979,8.285,1.843,15.721,2.427,21.428c0.951,9.299,2.403,28.078,3.636,44.719
	c0.386,5.199-0.394,15.178-0.357,16.365c0.064,2.148,1.056,2.41,1.188,4.25c0.077,1.064-0.881,2.514-0.813,3.455
	c0.064,0.908,1.611,1.479,1.126,2.092c-0.506,0.641-3.25,2.828-1,4.863c1.964,1.775,12.758-0.25,12.758-0.25
	s10.358,0.691,11.964-1.316c0.995-1.246-1.034-3.906-2.465-4.307c-0.763-0.213,1.269-0.633,1.118-1.537
	c-0.161-0.977-1.382-3.334-1.563-4.438c-0.943-5.768-2.608-12.842-3.748-20.678c-2.321-15.963-4.499-33.756-4.297-43.33
	c0.132-6.227-0.968-12.086-1.396-21.564c-0.578-12.75-0.894-26.34-0.948-34.99c-0.012-1.977,1.369-4.666,4.152-6.25
	c2.05-1.168,4.158,6.795,4.902,8.916c4.876,13.908,11.383,43.189,13.617,58c1.998,13.236,5.152,46.209,6.691,62.83
	c0.122,1.318-1.137,2.947-1.036,4.043c0.124,1.359,1.455,1.994,1.402,2.83c-0.101,1.57,0.421,1.807,1.21,2.469
	c2.045,1.719,6.119-1.201,8.346-2.506c2.371-1.389,5.984-8.898,11.54-7.195c1.143,0.352,2.828-1.387,1.252-3.012
	c-0.674-0.695-2.235-0.854-2.407-1.85c-0.144-0.836,0.324-1.916,0.157-2.846c-0.24-1.342-1.127-2.584-1.408-4.096
	c-3.18-17.094-8.712-44.088-10.853-57.668C93.569,252.595,86.431,218.542,86.909,187.515z"/>
<path opacity="0.5" fill="#253C54" d="M110.259,343.019c1.143,0.352,2.694-1.332,1.117-3.051c-0.494-0.539-2.235-0.854-2.407-1.85
	c-0.144-0.836,0.175-1.758,0.008-2.688c-0.24-1.342-0.978-2.742-1.259-4.254c-3.18-17.094-8.577-44.049-10.718-57.629
	c-0.625-3.967-1.389-8.408-2.213-13.209c1.019,5.961,2.183,17.543-1.901,16.043c-2.562-0.941-5.783-11.574-7.042-13.912
	c-3.1-5.754-9.649-28.678-11.207-35.254c-3.514-14.834-13.414-32.465-6.449-5.586c0.115,0.361,0.218,0.682,0.301,0.918
	c4.876,13.908,11.383,43.189,13.617,58c1.998,13.236,5.009,46.25,6.548,62.873c0.122,1.316-1.116,2.959-1.016,4.055
	c0.124,1.359,1.578,1.939,1.525,2.775c-0.101,1.57,0.046,1.596,0.835,2.258c2.045,1.717,6.494-0.99,8.721-2.295
	C101.09,348.825,104.704,341.315,110.259,343.019z"/>
<path opacity="0.5" fill="#253C54" d="M70.133,346.38c-0.763-0.213,1.269-0.633,1.118-1.537c-0.161-0.977-1.382-3.334-1.563-4.438
	c-0.943-5.768-2.608-12.842-3.748-20.678c-2.321-15.963-4.499-33.756-4.297-43.33c0.132-6.227-0.968-12.086-1.396-21.564
	c-0.542-11.949-0.853-24.637-0.935-33.305c-1.041,2.486-1.479,5.516-1.69,7.377c-0.71,6.238-0.079,12.506,0.38,18.74
	c0.428,5.824,0.566,11.65,1.076,17.467c-0.018,0.434-0.033,0.867-0.061,1.303c-0.238,3.865-0.839,9.551-4.639,11.668
	c-2.496,1.391-4.471-2.131-5.382-3.879c-3.14-6.02-4.351-13.227-5.539-19.846c-0.56-3.119-1.204-6.193-1.894-9.289
	c-0.762-3.422-1.531-6.994-2.864-10.295c1.062,6.432,2.116,13.082,2.971,20.307c0.979,8.285,1.843,15.721,2.427,21.428
	c0.951,9.299,2.403,28.078,3.636,44.719c0.386,5.199-0.394,15.178-0.357,16.365c0.064,2.148,1.056,2.41,1.188,4.25
	c0.077,1.064-0.881,2.514-0.813,3.455c0.064,0.908,1.611,1.479,1.126,2.092c-0.506,0.641-3.25,2.828-1,4.863
	c1.964,1.775,12.758-0.25,12.758-0.25s10.358,0.691,11.964-1.316C73.593,349.44,71.564,346.78,70.133,346.38z"/>
<path fill="#253C54" d="M59.355,337.899c0.13,0.002,0.159-0.24,0.026-0.279c-3.287-0.898-8.764-1.59-11.674,1.67
	c0.303,0.771,0.711,1.305,0.83,2.363C50.477,337.694,56.425,337.874,59.355,337.899z"/>
<path fill="#253C54" d="M66.241,338.915c1.523,1.086,3.482,2.406,4.516,4.443c-0.416-1.039-0.952-2.25-1.067-2.953
	c-0.084-0.514-0.18-1.051-0.274-1.584c-0.552-0.348-1.109-0.643-1.643-0.889c-2.283-1.053-4.604-2.043-6.976-2.654
	c-0.241-0.063-0.368,0.422-0.135,0.557C62.508,336.886,64.459,337.644,66.241,338.915z"/>
<path fill="#253C54" d="M98.616,340.101c-0.14,0.068-0.056,0.258,0.088,0.219c3.225-0.869,9.73-2.74,12.744-0.113
	c-0.026-0.08-0.039-0.156-0.071-0.238c-0.263-0.682-2.235-0.854-2.407-1.85c-0.039-0.229-0.031-0.477-0.005-0.734
	C105.413,337.204,101.276,338.792,98.616,340.101z"/>
<path fill="#253C54" d="M93.093,339.837c1.901-1.301,4.046-2.193,6.043-3.318c0.251-0.143,0.06-0.535-0.208-0.451
	c-2.635,0.828-5.178,1.963-7.671,3.146c-0.933,0.443-1.918,1-2.823,1.668c0.079,0.85,0.156,1.678,0.229,2.457
	C88.673,343.456,91.604,340.854,93.093,339.837z"/>
<path fill="#253C54" d="M99.595,343.394c-2.635,0.826-5.178,1.963-7.671,3.145c-1.221,0.58-2.532,1.354-3.631,2.322
	c0.377,0.49,0.765,0.893,0.735,1.352c-0.037,0.586,0.326,1.066,0.326,1.471c0.926-1.949,2.721-3.369,4.405-4.52
	c1.901-1.301,4.046-2.193,6.043-3.32C100.054,343.7,99.863,343.31,99.595,343.394z"/>
<path fill="#FFC579" d="M45.274,196.663c-2.102-1.861-4.291-4.738-7.332-5.385c-0.473-0.102-0.945-0.105-1.414-0.043
	c-0.037-0.016-0.073-0.029-0.109-0.047c-5.589-2.512-7.998-15.73-12.354-24.023c-1.957-3.725-6.727-8.666-9.765-11.589
	c-2.046-1.972-5.613-5.084-8.931-3.54c-4.025,1.872-3.396,7.738-2.34,10.791c1.969,5.704,3.73,4.755,7.532,12.03
	c2.083,3.986,18.148,18.504,19.069,23.285c0,0.002,0,0.002,0,0.004c-0.185,0.547-0.313,1.076-0.361,1.557
	c-0.232,2.307,2.416,6.07,3.273,7.768c1.196,2.371,2.394,3.502,4.227,4.357c1.923-1.359,3.837-2.557,5.251-3.607
	c2.779-2.064,4.751-4.822,7.298-7.02C48.239,199.435,46.817,198.03,45.274,196.663z"/>
<path fill="#FFFFFF" d="M23.971,98.634c-3.332,3.532-9.998,24.184-12.088,29.892c-2.09,5.708-7.621,16.07-8.915,18.941
	c-3.717,8.25-4.592,11.375,1.187,18.917c7.166,9.352,6.29,9.523,6.781,10.477c0.49,0.955,16-6.354,15.057-8.189
	c-0.609-1.184-3.607-5.672-5.703-8.984c-0.322-0.509,0.582-2.692,0.314-3.129c-0.691-1.127-2.363-0.26-2.406-0.521
	c-0.068-0.422,2.463-0.855,2.69-1.652c0.198-0.698-1.362-0.984-0.989-1.89c0.43-1.047,1.118,0.347,1.459-0.962
	c1.906-7.335,7.012-16.942,8.083-18.535c3.201-4.762,2.159-14.366,0.792-21.482C27.329,96.406,23.971,98.634,23.971,98.634z"/>
<path fill="#D7DFF1" d="M27.706,170.394c-0.437-1.258-1.43-2.586-2.348-3.455c-0.668-1.381-1.168-2.85-2.139-4.051
	c-0.076-0.31-0.332-0.612-0.61-0.824c-0.007-0.208-0.12-0.414-0.378-0.502c-1.243-0.428-2.67,0.391-3.775,0.909
	c-2.592,1.215-5.029,2.837-7.395,4.435c-1.095,0.738-3.59,1.807-4.561,3.182c-0.354,0.322-0.536,0.695-0.574,1.098
	c-0.071,0.072-0.108,0.182-0.051,0.279c0.018,0.029,0.037,0.055,0.055,0.084c0.057,0.715,0.439,1.473,0.867,2.117
	c1.153,1.736,2.674,3.137,3.974,4.752c0.115,0.451,0.222,0.912,0.366,1.379c0.299,0.975,1.059,1.855,2.17,1.645
	c1.777-0.34,3.268-1.531,4.719-2.545c0.193-0.135,0.398-0.26,0.605-0.385c0.127-0.076,0.255-0.148,0.382-0.223
	c1.128-0.637,2.377-1.205,3.424-1.963c0.314-0.172,0.624-0.354,0.942-0.52c0.7-0.365,2.234-1.01,3.318-1.846
	c0.113,0.016,0.234,0.004,0.363-0.07C28.583,173.03,28.4,171.64,27.706,170.394z"/>
<path fill="#9FB1D5" d="M15.883,173.474c-0.664,0.604-1.404,1.131-2.016,1.793c-0.627,0.678-1.491,1.551-1.488,2.537
	c0,0.211-0.154,0.455-0.375,0.492c-0.045,0.008-0.092,0.02-0.137,0.02c-0.364-0.008-0.538-0.318-0.492-0.648
	c0.139-1.008,0.975-1.877,1.738-2.479c0.848-0.668,1.718-1.322,2.65-1.867C15.86,173.265,15.966,173.397,15.883,173.474z
	 M24.663,166.745c-2.995-2.08-6.832,1.389-8.711,3.547c-0.061,0.07,0.029,0.154,0.1,0.1c1.766-1.373,5.523-4.412,7.773-2.561
	C24.6,168.47,25.484,167.315,24.663,166.745z M10.6,170.062c-0.752,0.293-1.545,0.697-2.216,1.143
	c-0.593,0.393-1.413,1.18-1.38,1.957c0.031,0.762,1.253,0.727,1.16,0c-0.059-0.457,0.706-1.064,0.986-1.412
	c0.453-0.563,0.92-1.107,1.525-1.51C10.762,170.181,10.709,170.019,10.6,170.062z M19.245,151.537
	c-1.742-1.437-4.599-1.881-6.569-0.53c-0.019,0.012-0.019,0.045,0.007,0.05c0.809,0.152,1.65-0.081,2.469-0.105
	c1.324-0.04,2.367,0.471,3.232,1.447C18.911,152.994,19.848,152.034,19.245,151.537z M17.326,155.514
	c-0.929-0.703-2.7-0.379-3.812-0.386c-1.46-0.009-2.971,0.176-4.223,0.974c-0.08,0.051-0.029,0.188,0.066,0.157
	c1.66-0.541,3.283-0.465,4.975-0.086c0.932,0.208,2.119,0.686,2.993,0.165C17.661,156.138,17.603,155.724,17.326,155.514z
	 M7.729,156.93c-1.872,0.447-3.383,2.075-4.559,3.499c-0.806,0.977,1.041,1.786,1.201,0.497c0.223-1.8,2.122-2.876,3.422-3.846
	C7.866,157.026,7.825,156.907,7.729,156.93z M19.475,158.888c-1.896,0.167-3.445-0.309-5.293-0.696
	c-0.119-0.026-0.225,0.06-0.104,0.113c1.38,0.598,4.125,1.518,5.713,1.146C20.268,159.34,20.028,158.839,19.475,158.888z"/>
<path fill="#FFFFFF" d="M73.501,355.78c0-1.174-6.52-2.125-14.563-2.125s-14.563,0.951-14.563,2.125c0,0.295,0,1.666,0,2.125
	c0,1.828,6.52,3.313,14.563,3.313s14.563-1.484,14.563-3.313C73.501,357.446,73.501,356.075,73.501,355.78z"/>
<path fill="#590600" d="M44.651,355.53c-0.003,0.012,0.005,0.02,0.004,0.029c-0.096,0.154-0.069,0.393,0.145,0.436
	c4.013,0.813,8.268,1.336,12.366,1.031c4.448,0.281,16.255-0.691,16.336-1.246c0.538-3.701,0-9.271-14.563-8.271
	C48.442,348.229,45.364,352.468,44.651,355.53z"/>
<path fill="#FF6A00" d="M63.064,349.163c-8.53-1.107-14.288,1.885-16.476,7.17c0.029,0.045,0.312,0.053,0.374,0.066
	c3.713,0.811,7.415,1.02,11.207,0.715c2.798,0.191,8.728-0.285,12.271-0.729C69.818,351.921,67.983,349.8,63.064,349.163z"/>
<path fill="#335880" d="M36.928,224.019c-1.183-5.176-3.645-12.344-4.415-14.176c-0.77-1.834-0.769-2,1.077-3
	c1.848-1,11.39-5.834,13.391-11.5c0.574-1.627,2.154,0.332,2.77,1C50.366,197.009,47.345,219.36,36.928,224.019z"/>
<path fill="#335880" d="M77.455,194.712c0.924-1.035,1.385-0.369,2.462,2.131c1.078,2.5,5.851,8.713,7.543,9.523
	c1.693,0.811,1.616,2.811,1,3.643c-0.615,0.834-0.386,8.063-0.08,10.688c-4.152-1.354-12.686-15.527-12.618-22.688
	C76.532,196.177,77.455,194.712,77.455,194.712z"/>
<path fill="#4C7095" d="M49.78,196.419c-0.01-0.029-0.018-0.064-0.029-0.076c-0.615-0.668-2.195-2.627-2.77-1
	c-2.001,5.666-11.543,10.5-13.391,11.5c-1.846,1-1.847,1.166-1.077,3c0.063,0.152,0.144,0.354,0.229,0.576
	C38.479,208.226,46.041,202.028,49.78,196.419z"/>
<path fill="#4C7095" d="M87.459,206.366c-1.692-0.811-6.465-7.023-7.543-9.523c-1.077-2.5-1.538-3.166-2.462-2.131
	c0,0-0.209,0.334-0.507,0.875c2.218,5.166,7.002,11.596,11.387,14.678c0.031-0.08,0.062-0.139,0.092-0.191
	c0.135-0.668,0.275-1.162,0.408-1.344c0.01-0.012,0.016-0.031,0.024-0.043C88.877,207.829,88.51,206.868,87.459,206.366z"/>
<path fill="#4C7095" d="M65.815,194.071c0,0.98-0.789,13.803-1.466,15.295c-2.48,0-3.102-2.002-3.24-3.777
	c-0.167-2.143,0.761-9.742,0.985-11.926C62.32,191.481,65.815,194.071,65.815,194.071z"/>
<path fill="#335880" d="M64.043,208.274c-0.726-0.213-1.353-0.875-1.5-2.764c-0.131-1.684,0.484-7.23,0.816-10.209
	c0.067-0.613,0.125-1.129,0.164-1.5c0.459,0.066,1.166,0.436,1.714,0.787C65.137,197.042,64.524,205.632,64.043,208.274z"/>
<path fill="#6B0700" d="M89.752,133.002c0.359-6.718-1.167-31.597-5.016-33.285c-1.911-0.838-3.604-1.174-5.273-1.387
	c-2.004-0.254-6.409-1.515-6.476-0.776c0,10.75-7.956,25.122-9.067,25.122c0,0-9.584-8.946-15.645-19
	c-1.365-2.265-3.141-5.886-4.322-8.313c-0.385-0.92-3.068,0.282-5.594,0.222c-2.353-0.056-4.797-0.168-7.084,0.132
	c-1.508,0.198,1.234,8.063,1.762,12.265c1.889,15.027,1.601,22.546-3.406,28.32c1.023,4.912,2.051,10.276,2.813,15.429
	c1.515,10.239-0.478,25.26-0.479,28.612c-0.005,9.625,9.551,9.074,11.535,10.666c1.145,0.922,31.064,7,40.028,0.973
	c6.805-4.576,3.418-6.131,3.833-15.307C87.645,170.438,88.959,147.813,89.752,133.002z"/>
<path fill="#954E00" d="M87.064,109.281c-1.767-3.261-3.126-8.163-6.971-9.522c-0.137-0.048-0.327,0.028-0.391,0.159
	c-1.554,3.206-4.595,6.128-5.149,9.748c-0.052,0.071-0.061,0.162-0.04,0.25c-0.002,0.018-0.006,0.035-0.008,0.052
	c-0.016,0.139,0.08,0.215,0.191,0.231c1.908,2.151,3.074,4.669,4.535,7.124c1.347,2.264,1.839,4.908,3.24,7.131
	c0.043,0.069,0.096,0.117,0.153,0.152c0.132,0.325,0.65,0.397,0.779-0.027c0.739-2.434,1.361-4.909,2.059-7.356
	c0.713-2.502,1.661-5.14,1.745-7.755C87.212,109.355,87.144,109.299,87.064,109.281z"/>
<path fill="#954E00" d="M50.583,113.326c-0.002-0.003-0.004-0.006-0.006-0.01c0.135-0.333-0.084-0.63-0.354-0.714
	c-2.65-5.4-5.876-10.647-9.094-15.709c-0.072-0.115-0.292-0.082-0.276,0.075c0.002,0.02,0.009,0.039,0.011,0.059
	c-0.027,0.02-0.059,0.029-0.078,0.065c-1.274,2.278-2.299,4.67-3.746,6.86c-0.991,1.501-2.139,3.105-2.647,4.851
	c-0.019,0.063-0.017,0.117-0.016,0.172c-0.051,0.054-0.078,0.131-0.034,0.211c1.965,3.541,4.277,6.876,6.227,10.44
	c0.477,0.874,2.401,5.093,3.887,4.503c0.191-0.076,0.262-0.248,0.178-0.436c-0.063-0.141-0.152-0.276-0.252-0.41
	c1.99-2.94,4.168-5.985,5.799-9.167C50.487,114.049,50.762,113.702,50.583,113.326z"/>
<path fill="#954E00" d="M74.024,142.746c-0.408-0.781-0.927-1.522-1.3-2.329c-0.666-1.439-1.207-2.937-1.855-4.385
	c-1.504-3.363-3.964-6.404-6.013-9.449c-0.158-0.235-0.604-0.09-0.486,0.205c0.018,0.042,0.039,0.082,0.057,0.124
	c-0.041,0.014-0.08,0.034-0.107,0.074c-1.711,2.532-3.563,4.979-5.057,7.648c-1.449,2.591-2.771,5.44-5.101,7.369
	c-0.376,0.311-0.033,0.787,0.36,0.79c0.33,1.388,1.255,2.528,1.957,3.796c1.221,2.206,2.293,4.638,3.132,7.015
	c0.604,1.715,1.302,6.97,3.458,7.447c0.134,0.029,0.23-0.049,0.258-0.16c0.073-0.013,0.142-0.053,0.188-0.144
	c1.408-2.757,3.563-4.954,5.08-7.63c1.854-3.271,3.875-6.44,5.832-9.65C74.647,143.104,74.348,142.775,74.024,142.746z"/>
<path fill="#954E00" d="M50.336,175.53c-1.855-3.42-3.078-7.182-4.145-10.912c-0.42-1.469-0.99-5.307-2.539-6.459
	c0.033-0.083,0.076-0.163,0.108-0.245c0.099-0.256-0.274-0.452-0.45-0.262c-0.072,0.077-0.133,0.166-0.203,0.245
	c-0.105,0.009-0.179,0.104-0.174,0.209c-1.445,1.682-2.594,3.691-3.861,5.5c-1.558,2.225-3.15,4.42-4.777,6.594
	c-0.105,0.143-0.119,0.283-0.078,0.402c-0.025,0.059-0.039,0.123-0.025,0.199c1.061,5.482,3.027,10.881,5.176,16.021
	c0.152,0.365,0.623,0.389,0.768,0c0.981-2.635,3.697-4.988,5.954-6.594c1.698-1.207,3.507-2.156,4.557-4.031
	C50.819,175.89,50.599,175.603,50.336,175.53z"/>
<path fill="#954E00" d="M87.06,175.849c-0.281-1.334-2.568-12.678-4.638-14.275c0.007-0.018,0.015-0.035,0.021-0.053
	c0.072-0.188-0.204-0.337-0.333-0.193c-0.018,0.02-0.032,0.043-0.05,0.063c-0.069-0.014-0.138-0.014-0.206-0.002
	c-0.043,0.008-0.07,0.062-0.058,0.102c0.018,0.055,0.038,0.108,0.057,0.163c-1.755,2.157-2.537,5.265-3.628,7.761
	c-1.463,3.35-3.738,6.381-5.89,9.313c-0.337,0.457,0.362,0.916,0.743,0.57c1.775,1.449,2.915,3.213,4.071,5.225
	c0.811,1.408,1.213,3.873,2.477,4.918c0.229,0.191,0.489,0.119,0.612-0.063c0.005,0.271,0.045,0.535,0.142,0.783
	c0.082,0.211,0.438,0.271,0.49,0c0.433-2.258,1.778-4.18,2.855-6.174c0.911-1.688,2.189-4.029,2.403-6.08
	c0.203-0.492,0.391-0.992,0.529-1.494C86.9,176.372,87.122,176.14,87.06,175.849z"/>
<path fill="#694F4C" d="M88.489,140.886c-0.005-2.409-0.808-4.828-1.569-7.08c-0.862-2.552-1.896-5.264-3.308-7.59
	c0.001-0.008,0.004-0.016,0.005-0.023c0.042-0.233-0.105-0.4-0.28-0.455c-0.003-0.004-0.005-0.01-0.008-0.014
	c-0.14-0.217-0.511-0.082-0.428,0.181c0.003,0.011,0.008,0.021,0.012,0.032c-0.009,0.02-0.021,0.033-0.026,0.055
	c-0.811,3.183-2.02,6.238-3.494,9.173c-1.419,2.821-3.388,5.334-4.378,8.362c-0.056,0.169,0.098,0.29,0.246,0.298
	c-0.005,0.025-0.008,0.052,0.005,0.083c1.306,3.094,2.587,6.254,3.679,9.431c0.779,2.268,1.242,5.223,2.913,7.054
	c0.012,0.019,0.025,0.034,0.041,0.05c0.021,0.022,0.036,0.049,0.058,0.071c0.251,0.26,0.569,0.098,0.665-0.165
	c0.47-0.557,0.629-1.411,0.834-2.082c0.54-1.771,1.119-3.521,1.778-5.253c1.453-3.821,2.502-7.733,3.49-11.7
	C88.771,141.121,88.646,140.955,88.489,140.886z"/>
<path fill="#694F4C" d="M71.58,177.749c-1.309-2.639-2.175-5.432-3.4-8.104c-1.342-2.924-3.528-5.369-4.587-8.432
	c-0.107-0.313-0.559-0.514-0.808-0.213c-2.893,3.482-5.749,7.076-8.376,10.764c-0.635,0.893-2.562,2.783-2.764,4.135
	c-0.014-0.021-0.025-0.045-0.039-0.066c-0.154-0.248-0.588-0.088-0.486,0.205c1.874,5.373,5.061,10.479,7.838,15.424
	c0.165,0.295,0.526,0.289,0.762,0.1c1.205-0.975,2.037-2.283,3.127-3.373c1.138-1.139,2.577-2.008,3.753-3.123
	c1.905-1.809,3.823-3.732,5.213-5.98c0.089-0.074,0.151-0.174,0.175-0.289c0.064-0.109,0.135-0.215,0.196-0.326
	C72.43,178.026,71.948,177.626,71.58,177.749z"/>
<path fill="#694F4C" d="M50.446,134.665c-1.879-3.347-4.152-6.469-6.447-9.541c-0.221-0.295-0.666-0.277-0.787,0.103
	c-1.043,3.239-2.975,6.112-4.595,9.082c-1.009,1.851-2.644,3.439-2.689,5.658c-0.002,0.104,0.067,0.162,0.147,0.181
	c0.637,2.39,1.902,4.56,3.109,6.702c1.734,3.075,2.787,6.278,3.918,9.603c0.133,0.392,0.668,0.397,0.799,0
	c0.859-2.612,2.801-4.442,4.414-6.586c1.852-2.463,2.857-5.438,4.773-7.858c0.281,0.084,0.662-0.146,0.592-0.534
	C53.245,139.02,51.645,136.799,50.446,134.665z"/>
<path fill="#470500" d="M87.477,150.371c-1.38-3.286-2.848-6.545-4.358-9.781c0.51-1.239,1.031-2.472,1.59-3.687
	c1.071-2.33,2.147-4.594,2.538-7.152c0.024-0.158-0.185-0.22-0.24-0.066c-1.257,3.423-2.74,6.803-4.232,10.169
	c-0.881-1.876-1.771-3.746-2.678-5.605c-1.545-3.169-3.333-6.215-5.139-9.251c0.077-0.155,0.158-0.307,0.234-0.463
	c1.748-3.591,3.35-7.254,5.088-10.851c0.37-0.766,0.757-1.541,1.144-2.322c1.674,2.853,3.189,5.932,5.122,8.602
	c0.146,0.202,0.543,0.086,0.436-0.184c-1.142-2.886-3.023-5.551-4.607-8.213c-0.193-0.324-0.378-0.656-0.567-0.983
	c1.264-2.571,2.489-5.219,3.168-7.929c0.062-0.246-0.302-0.418-0.422-0.177c-1.154,2.325-2.262,4.681-3.357,7.045
	c-1.293-2.29-2.547-4.62-3.998-6.793c-0.134-0.202-0.515-0.076-0.414,0.174c1.049,2.601,2.583,5.028,4.034,7.438
	c-2.118,4.59-4.187,9.212-6.361,13.764c-0.004,0.009-0.009,0.018-0.014,0.026c-1.207-2.028-2.413-4.056-3.552-6.119
	c-0.087-0.157-0.352-0.05-0.293,0.124c0.827,2.455,2.038,4.745,3.349,6.988c-2.81,5.688-6.168,10.989-9.699,16.22
	c-0.68-1.321-1.355-2.644-2.049-3.958c-2.336-4.428-4.65-8.789-7.201-13.025c0.889-1.51,1.681-3.061,2.275-4.692
	c0.113-0.308-0.354-0.481-0.514-0.217c-0.788,1.301-1.589,2.588-2.398,3.868c-1.467-2.387-3.012-4.735-4.693-7.027
	c-1.641-2.237-3.317-4.452-5-6.661c0.723-1.24,1.407-2.502,2.004-3.814c0.104-0.228-0.195-0.409-0.338-0.197
	c-0.742,1.11-1.449,2.242-2.148,3.38c-0.556-0.729-1.109-1.46-1.667-2.188c-2.033-2.654-4.166-5.33-6.897-7.296
	c-0.222-0.16-0.464,0.183-0.283,0.368c3.014,3.096,5.74,6.462,8.357,9.914c-0.817,1.344-1.624,2.695-2.453,4.031
	c-1.443,2.328-3.385,4.552-3.904,7.31c-0.059,0.313,0.406,0.564,0.55,0.232c1.671-3.875,4.124-7.321,6.296-10.93
	c1.754,2.333,3.464,4.7,5.178,7.048c1.592,2.181,3.05,4.426,4.438,6.708c-2.309,3.622-4.68,7.189-7.053,10.799
	c-0.741,1.128-1.424,2.296-2.082,3.479c-2.025-4.223-4.242-8.337-6.867-12.178c-0.245-0.358-0.808-0.042-0.588,0.343
	c2.454,4.287,4.674,8.653,6.779,13.07c-0.578,1.075-1.142,2.156-1.7,3.235c-1.372,2.65-3.132,5.362-4.06,8.197
	c-0.086,0.26,0.295,0.502,0.477,0.277c1.686-2.101,2.723-4.817,3.941-7.211c0.595-1.169,1.203-2.33,1.824-3.483
	c2.602,5.516,5.033,11.11,7.488,16.75c0.105,0.245,0.219,0.487,0.326,0.731c-1.857,2.585-3.685,5.19-5.421,7.848
	c-1.404,2.15-2.746,4.305-4.182,6.402c-1.476-5.207-3.413-10.279-5.083-15.425c-0.092-0.285-0.501-0.168-0.443,0.122
	c1.079,5.509,3.303,10.756,4.854,16.141c0.01,0.033,0.018,0.066,0.027,0.1c-0.713,1.004-1.447,1.994-2.242,2.953
	c-2.268,2.734-5.096,5.357-6.541,8.652c-0.222,0.504,0.516,0.947,0.748,0.438c1.564-3.436,4.599-6.213,6.986-9.092
	c0.475-0.572,0.92-1.164,1.361-1.758c1.025,4.16,1.65,9.188,4.313,12.471c0.195,0.24,0.6-0.018,0.51-0.297
	c-0.731-2.256-1.787-4.373-2.457-6.668c-0.62-2.127-1.122-4.287-1.694-6.426c1.463-2.063,2.792-4.215,4.14-6.363
	c1.746-2.783,3.615-5.499,5.531-8.188c2.117,4.758,4.383,9.436,6.75,14.079c0.686,1.346,1.367,2.705,2.059,4.066
	c-1.349,1.627-2.66,3.277-3.923,4.979c-1.524,2.053-3.51,3.537-5.033,5.533c-0.266,0.348,0.337,0.813,0.607,0.469
	c1.394-1.777,3.243-3.072,4.636-4.891c1.359-1.773,2.738-3.52,4.145-5.246c1.873,3.662,3.824,7.313,6.099,10.691
	c0.289,0.428,0.938,0.057,0.695-0.406c-1.979-3.775-3.997-7.514-5.99-11.262c0.331-0.398,0.648-0.805,0.986-1.199
	c3.763-4.387,6.841-9.119,9.696-14.136c2.307,5.021,4.567,10.04,7.057,14.954c-0.199,0.309-0.382,0.627-0.587,0.932
	c-1.411,2.092-2.884,4.137-4.23,6.271c-1.087,1.723-2.879,3.475-3.396,5.451c-0.062,0.236,0.242,0.43,0.418,0.242
	c1.225-1.297,2.231-2.957,3.165-4.477c1.491-2.422,3.111-4.746,4.717-7.094c0.112-0.164,0.224-0.334,0.336-0.502
	c1.161,2.264,2.368,4.504,3.663,6.707c0.241,0.41,0.851,0.047,0.635-0.371c-1.245-2.416-2.461-4.844-3.668-7.277
	c2.289-3.502,4.437-7.459,5.277-11.488c0.05-0.236-0.268-0.314-0.354-0.098c-1.479,3.703-3.255,7.314-5.354,10.715
	c-2.437-4.932-4.82-9.885-7.203-14.838c2.689-4.823,5.027-9.824,7.072-14.953c0.569-1.428,1.131-2.863,1.707-4.292l0.011,0.023
	c1.323,2.894,2.34,6.322,4.13,8.951C87.03,150.97,87.645,150.771,87.477,150.371z M52.762,157.004
	c-2.521-5.775-4.904-11.737-7.621-17.515c0.757-1.367,1.539-2.72,2.367-4.049c2.125-3.411,4.773-6.686,6.942-10.177
	c2.605,4.382,4.95,8.906,7.349,13.451c0.617,1.171,1.232,2.343,1.848,3.516c-0.725,1.065-1.451,2.13-2.185,3.195
	c-2.767,4.02-5.687,7.949-8.55,11.913C52.864,157.225,52.811,157.116,52.762,157.004z M72.65,161.247
	c-2.941,5.266-6.194,10.164-10.112,14.752c-0.084,0.098-0.162,0.197-0.244,0.295c-3.148-5.93-6.225-11.889-8.974-18.054
	c2.965-4.132,6.02-8.212,8.89-12.379c0.636-0.922,1.266-1.844,1.893-2.767c3.055,5.825,6.052,11.679,8.821,17.646
	C72.831,160.908,72.744,161.079,72.65,161.247z M80.231,145.659c-2.063,4.841-4.328,9.594-6.842,14.216
	c-2.846-5.911-5.706-11.815-8.693-17.663c3.537-5.247,6.884-10.554,9.759-16.222c1.379,2.307,2.832,4.578,4.064,6.937
	c1.36,2.604,2.576,5.292,3.796,7.966C81.61,142.482,80.908,144.071,80.231,145.659z"/>
<path fill="#983831" d="M75.235,97.854c-1.795,3.932-2.7,8.364-4.323,12.402c-1.681,4.182-3.427,9.551-6.608,12.888
	c-4.457-3.239-7.711-7.794-11.197-11.989c-4.092-4.922-6.434-10.55-9.675-15.966c-0.19-0.318-0.603-0.09-0.558,0.235
	c0.837,5.888,5.262,11.357,8.811,15.92c3.588,4.614,7.308,9.513,12.086,12.955c0.283,0.205,0.555,0.109,0.727-0.094
	c0.157,0.032,0.33,0.004,0.486-0.131c3.251-2.823,4.783-7.72,6.418-11.573c1.857-4.377,4.318-9.671,4.409-14.492
	C75.816,97.718,75.366,97.567,75.235,97.854z"/>
<path fill="#983831" d="M31.682,96.292c-0.064-0.214-0.346-0.154-0.368,0.05c-0.36,3.372,1.087,6.805,1.801,10.06
	c0.796,3.63,1.132,7.383,1.368,11.088c0.205,3.219,0.137,6.462-0.324,9.657c-0.216,1.493-0.604,2.949-1.08,4.378
	c-0.205,0.612-1.369,3.845-2.246,4.595c-0.268-0.044-0.559,0.076-0.639,0.402c-0.014,0.057-0.027,0.114-0.041,0.171
	c-0.094,0.383,0.18,0.751,0.578,0.759c1.658,0.032,3.086-4.319,3.563-5.593c1.258-3.354,1.525-7.085,1.506-10.634
	C35.754,112.735,34.106,104.401,31.682,96.292z"/>
<path fill="#9FB1D5" d="M53.079,108.396c-3.597-2.511-11.339-14.144-12.707-14.667c2.412-2.793,7.598-4.695,9.44-4.65
	c-1.843,3.63,9.435,10.017,9.435,10.017s-0.025,0.025-0.035,0.037c0.054,0.003,0.106,0.042,0.11,0.12
	c0.124,2.775,0.823,5.556,1.173,8.313c0.281,2.207,0.469,4.425,0.686,6.64c0.203,2.073,0.395,4.151,0.638,6.221
	c-0.343-0.398-0.712-0.73-1.116-1.037c-0.119-1.727-0.215-3.455-0.318-5.184c-0.014-0.22-0.035-0.439-0.049-0.66
	c-0.407-2.268-0.6-4.588-1.018-6.857c-0.383-2.078-0.007-1.416-1.6-0.797C57.081,106.137,52.865,107.317,53.079,108.396z
	 M63.528,99.132c0,0-0.937,3.313,0.691,4.871c1.803,1.727,6.215,1.821,6.824,4.236c3.459-4.089,7.314-12.077,7.314-12.077
	s-7.432-4.334-9.822-3.766C69.433,96.447,63.528,99.132,63.528,99.132z M63.703,108.804c-0.308,0.051-0.521,0.219-0.642,0.44
	c-0.48,0.059-0.592,0.863-0.261,1.327c0.565,0.793,1.558,0.612,1.892-0.289C64.975,109.521,64.448,108.679,63.703,108.804z
	 M64.803,119.64c-0.633-0.43-1.197,0.265-1.336,0.877c-0.072,0.327,0.094,0.646,0.391,0.744c0.051,0.016,0.096,0.018,0.143,0.028
	c0.187,0.128,0.424,0.18,0.633,0.211c0.199,0.03,0.395-0.016,0.502-0.221C65.436,120.706,65.337,120.003,64.803,119.64z"/>
<path fill="#FFFFFF" d="M59.247,99.095c0,0-5.637,2.756-7.41,6.387c-2.705-2.555-10.097-11.269-11.465-11.753
	c2.412-2.586,7.058-5.02,9.44-4.653C47.969,92.438,59.247,99.095,59.247,99.095z M63.528,99.132c0,0,7.516,3.347,8.185,6.758
	c4.05-4.218,6.646-9.728,6.646-9.728s-7.432-4.292-9.822-3.77C69.433,96.117,63.528,99.132,63.528,99.132z"/>
<path fill="#FFBE73" d="M51.429,196.749c-0.409,0.039-0.849-0.078-1.265-0.09c-0.008,0.002-0.846-0.066-2.153-0.32
	c-1.186-0.23-4.865-1.725-6.19-2.941c-0.074-0.041-0.141,0.342-0.193,0.871c0.211,0.273,0.4,0.559,0.588,0.908
	c0.313,0.586,0.383,1.078,0.41,1.604c0.188,0.309,0.367,0.625,0.549,0.938c2.418,1.113,5.8,2.885,7.557,2.094
	c0.397-0.178,0.756-0.762,0.988-1.529C51.848,197.854,51.627,196.728,51.429,196.749z"/>
<path fill="#253C54" d="M71.04,345.427c-3.25-1.123-7.409-0.945-10.216-0.576c-0.155,0.021-0.136,0.227,0.014,0.236
	c2.991,0.188,8.744,0.455,11.352,3.004c-0.562-0.816-1.375-1.52-2.056-1.711C69.558,346.22,70.57,345.94,71.04,345.427z"/>
<path fill="#253C54" d="M48.496,347.806c1.306-1.061,3.021-1.779,4.424-2.4c2.106-0.932,4.377-1.42,6.546-2.162
	c0.273-0.096,0.157-0.516-0.121-0.48c-2.742,0.332-5.449,0.986-8.116,1.693c-1.082,0.289-2.251,0.699-3.335,1.256
	c0.379,0.678,1.39,1.164,0.983,1.678C48.797,347.491,48.659,347.634,48.496,347.806z"/>
<path fill="#335880" d="M64.897,104.811c0,0,0.573,2.673,0,3.247c-0.56,0.561-3.169,0-3.169,0s-2.543,0.546-3.089,0
	c-0.589-0.588,0-3.327,0-3.327s-0.616-2.868,0-3.485c0.573-0.574,3.247,0,3.247,0s2.479-0.532,3.011,0
	C65.527,101.875,64.897,104.811,64.897,104.811z M74.089,99.345c-0.533-0.533-7.586,1.326-8.16,1.9
	c-0.615,0.617-0.588,6.225,0,6.813c0.547,0.546,7.6,2.462,8.16,1.901C74.664,109.385,74.718,99.974,74.089,99.345z M49.453,109.959
	c0.561,0.561,7.613-1.355,8.16-1.901c0.588-0.588,0.615-6.195,0-6.813c-0.574-0.574-7.627-2.434-8.16-1.9
	C48.824,99.974,48.879,109.385,49.453,109.959z"/>
<path fill="#6998CB" d="M62.682,102.695c0,0.871,0.706,1.578,1.579,1.578c0.281,0,0.541-0.08,0.77-0.209
	c0.141-0.905,0.289-2.364-0.123-2.806c-0.198-0.09-0.416-0.142-0.646-0.142C63.388,101.117,62.682,101.824,62.682,102.695z"/>
<circle fill="#6998CB" cx="70.386" cy="102.695" r="1.579"/>
<path fill="#6998CB" d="M73.449,99.774c0.274,0,0.528-0.077,0.754-0.199c-0.035-0.109-0.073-0.19-0.113-0.23
	c-0.148-0.148-0.805-0.107-1.677,0.033C72.69,99.621,73.05,99.774,73.449,99.774z"/>
<path fill="#6998CB" d="M68.902,107.57c0-0.871-0.707-1.578-1.578-1.578c-0.873,0-1.579,0.707-1.579,1.578
	c0,0.038,0.009,0.073,0.011,0.11c0.052,0.175,0.109,0.311,0.174,0.376c0.182,0.181,1.082,0.512,2.218,0.854
	C68.598,108.632,68.902,108.138,68.902,107.57z"/>
<path fill="#6998CB" d="M50.107,99.258c-0.332-0.016-0.573,0.006-0.654,0.086c-0.056,0.056-0.104,0.203-0.15,0.386
	C49.619,99.658,49.896,99.49,50.107,99.258z"/>
<path fill="#6998CB" d="M59.714,102.695c0-0.681-0.434-1.256-1.039-1.478c-0.011,0.01-0.026,0.017-0.036,0.026
	c-0.452,0.453-0.241,2.115-0.097,2.97C59.216,104.033,59.714,103.424,59.714,102.695z"/>
<path fill="#6998CB" d="M65.839,102.695c0-0.256-0.066-0.494-0.175-0.707c-0.084,0.443-0.139,1.032-0.165,1.675
	C65.708,103.394,65.839,103.061,65.839,102.695z"/>
<path fill="#6998CB" d="M56.652,107.57c0-0.871-0.707-1.578-1.578-1.578c-0.873,0-1.579,0.707-1.579,1.578
	c0,0.75,0.524,1.376,1.228,1.536c0.543-0.153,1.056-0.308,1.495-0.454C56.485,108.369,56.652,107.99,56.652,107.57z"/>
<path fill="#6998CB" d="M62.638,108.211c0.087-0.196,0.139-0.413,0.139-0.642c0-0.871-0.707-1.578-1.578-1.578
	c-0.873,0-1.579,0.707-1.579,1.578c0,0.264,0.071,0.508,0.185,0.727c0.891-0.02,1.924-0.24,1.924-0.24S62.123,108.14,62.638,108.211
	z"/>
<path fill="#6998CB" d="M56.557,102.695c0,0.846,0.667,1.53,1.503,1.57c-0.021-1.412-0.166-2.739-0.447-3.021
	c-0.007-0.006-0.024-0.015-0.033-0.021C56.984,101.448,56.557,102.02,56.557,102.695z"/>
<path fill="#6998CB" d="M74.509,106.41c-0.28-0.257-0.65-0.418-1.061-0.418c-0.873,0-1.579,0.707-1.579,1.578
	s0.706,1.578,1.579,1.578c0.336,0,0.646-0.106,0.901-0.285C74.425,108.221,74.48,107.359,74.509,106.41z"/>
<path fill="#6998CB" d="M50.527,107.57c0-0.846-0.668-1.531-1.506-1.57c0.031,1.251,0.102,2.383,0.207,3.12
	C49.966,108.987,50.527,108.345,50.527,107.57z"/>
<circle fill="#6998CB" cx="52.011" cy="102.695" r="1.579"/>
<path fill="#B4481C" d="M71.253,57.73c-1.43-4.278-2.075-6.54-3.406-10.943c-1.117-3.7-1.546-8.715-2.294-6.563
	c-0.568,1.637-2.541,11.786-3.371,16.574c-0.219,1.26-0.317,1.258-0.332,1.522c-0.063,1.269,0.489,1.906,1.652,2.963
	c1.732,1.573,3.799,1.598,5.766,0.812C71.324,61.273,72.189,60.527,71.253,57.73z"/>
<path fill="#FCCEA4" d="M70.83,56.44c-1.352-3.968-1.766-6.081-3.024-10.165c-1.056-3.432-1.461-8.083-2.167-6.088
	c-0.679,1.918-3.724,16.469-3.784,17.646c-0.06,1.175,0.41,0.87,1.496,1.199c0.502,0.152,5.483,0.745,6.483,1.008
	C72.362,60.707,71.712,59.034,70.83,56.44z"/>
</svg>
