<?xml version="1.0" encoding="utf-8"?>
<!-- Generator: Adobe Illustrator 15.0.0, SVG Export Plug-In . SVG Version: 6.00 Build 0)  -->
<!DOCTYPE svg PUBLIC "-//W3C//DTD SVG 1.1//EN" "http://www.w3.org/Graphics/SVG/1.1/DTD/svg11.dtd">
<svg version="1.1" id="Layer_1" xmlns="http://www.w3.org/2000/svg" xmlns:xlink="http://www.w3.org/1999/xlink" x="0px" y="0px"
	 width="255.122px" height="51.609px" viewBox="-22.617 0.801 255.122 51.609"
	 enable-background="new -22.617 0.801 255.122 51.609" xml:space="preserve">
<g id="svg-bubble" xmlns:dc="http://purl.org/dc/elements/1.1/" xmlns:cc="http://creativecommons.org/ns#" xmlns:rdf="http://www.w3.org/1999/02/22-rdf-syntax-ns#" xmlns:svg="http://www.w3.org/2000/svg" xmlns:sodipodi="http://sodipodi.sourceforge.net/DTD/sodipodi-0.dtd" xmlns:inkscape="http://www.inkscape.org/namespaces/inkscape" sodipodi:docname="Comic FX f1 - Copy - Copy (2).svg" inkscape:version="0.92.1 r15371">
	
		<sodipodi:namedview  id="base" inkscape:window-y="-8" inkscape:pageopacity="0.0" inkscape:window-height="705" inkscape:window-width="1368" inkscape:current-layer="layer1" inkscape:window-x="-8" inkscape:pageshadow="2" inkscape:document-units="mm" inkscape:cx="-452.96414" inkscape:cy="120.44387" pagecolor="#ffffff" showgrid="false" bordercolor="#666666" borderopacity="1.0" inkscape:zoom="0.60728983" inkscape:window-maximized="1">
		</sodipodi:namedview>
	
		<path id="path5290" sodipodi:nodetypes="sscscccsscsscs" inkscape:connector-curvature="0" fill="#FFFFFF" stroke="#000000" stroke-width="2" stroke-linecap="round" stroke-linejoin="round" d="
		M16.788,1.801c-8.554,0-15.487,3.704-15.487,8.268v12.914l-22.918-2.75l22.918,16v6.91c0,4.572,6.935,8.268,15.487,8.268h23.229
		h175.998c8.552,0,15.703-4.091,15.484-8.268V30.74V10.069c0-4.564-6.934-8.268-15.484-8.268H40.018H16.788z"/>
</g>
<g>
	<path d="M12.443,34.994c0,0.397-0.131,0.695-0.393,0.895s-0.549,0.298-0.863,0.298s-0.602-0.099-0.863-0.298
		c-0.262-0.199-0.392-0.497-0.392-0.895c0-3.347,0.042-6.679,0.125-9.996c0.083-3.316,0.282-6.638,0.596-9.964
		c0.042-0.355,0.173-0.638,0.393-0.848c0.219-0.209,0.46-0.33,0.722-0.361c0.261-0.031,0.522,0.021,0.785,0.157
		c0.261,0.137,0.455,0.372,0.581,0.707c0.418,1.192,0.805,2.391,1.161,3.593c0.355,1.204,0.706,2.412,1.051,3.625
		s0.701,2.422,1.067,3.625c0.366,1.203,0.769,2.391,1.208,3.562c1.088-2.741,2.076-5.492,2.966-8.254
		c0.889-2.762,1.605-5.597,2.15-8.505c0.063-0.314,0.209-0.544,0.439-0.69c0.23-0.146,0.486-0.22,0.769-0.22
		c0.282,0,0.538,0.074,0.769,0.22c0.23,0.146,0.377,0.376,0.439,0.69c0.167,0.941,0.225,1.867,0.173,2.777
		c-0.053,0.91-0.079,1.836-0.079,2.778c0,1.004,0.057,1.988,0.172,2.95c0.115,0.962,0.214,1.935,0.298,2.918
		c0.167,1.967,0.293,3.934,0.376,5.9c0.083,1.967,0.157,3.934,0.22,5.9c0,0.418-0.125,0.727-0.376,0.926
		c-0.251,0.198-0.534,0.298-0.847,0.298c-0.314,0-0.607-0.1-0.879-0.298c-0.272-0.199-0.408-0.508-0.408-0.926
		c-0.042-1.967-0.11-3.934-0.204-5.9c-0.094-1.966-0.225-3.934-0.393-5.9c-0.042-0.355-0.079-0.722-0.11-1.099
		c-0.031-0.376-0.068-0.742-0.11-1.098c-0.607,1.904-1.261,3.777-1.961,5.618c-0.701,1.841-1.428,3.683-2.181,5.523
		c-0.105,0.251-0.256,0.466-0.455,0.644c-0.199,0.178-0.445,0.267-0.738,0.267c-0.209,0-0.418-0.058-0.627-0.173
		c-0.209-0.114-0.366-0.267-0.471-0.455c-0.837-1.841-1.549-3.713-2.134-5.617c-0.586-1.904-1.161-3.829-1.726-5.775
		c-0.105,2.239-0.173,4.472-0.204,6.701C12.458,30.521,12.443,32.755,12.443,34.994z"/>
	<path d="M41.065,21.499c0.292,0.168,0.491,0.419,0.596,0.753c0.104,0.335,0.052,0.649-0.157,0.941
		c-0.523,0.753-0.916,1.58-1.177,2.479c-0.262,0.9-0.56,1.778-0.895,2.636c-0.356,0.921-0.748,1.81-1.177,2.667
		c-0.429,0.858-0.884,1.726-1.365,2.605c-0.042,0.105-0.089,0.193-0.141,0.267c-0.053,0.074-0.1,0.162-0.141,0.267
		c0.083,0.335,0.036,0.634-0.142,0.895c-0.178,0.262-0.413,0.445-0.706,0.55c-0.858,1.464-1.721,2.913-2.589,4.347
		c-0.868,1.433-1.731,2.882-2.589,4.347c-0.209,0.355-0.476,0.554-0.8,0.596c-0.325,0.042-0.623-0.016-0.895-0.172
		c-0.272-0.157-0.471-0.388-0.596-0.69c-0.125-0.304-0.084-0.634,0.125-0.989c0.878-1.506,1.768-2.997,2.667-4.472
		c0.899-1.476,1.789-2.966,2.668-4.473c-0.942-1.694-1.842-3.405-2.699-5.131c-0.858-1.726-1.737-3.447-2.636-5.163
		c-0.188-0.355-0.215-0.685-0.079-0.989c0.136-0.303,0.334-0.533,0.596-0.69c0.262-0.157,0.554-0.214,0.879-0.172
		c0.324,0.042,0.581,0.241,0.769,0.596c0.774,1.506,1.538,3.008,2.291,4.504c0.753,1.496,1.527,2.987,2.322,4.472
		c0.774-1.423,1.464-2.919,2.071-4.488c0.314-0.857,0.612-1.731,0.895-2.621c0.283-0.889,0.685-1.699,1.208-2.432
		c0.188-0.292,0.439-0.486,0.753-0.581C40.437,21.263,40.751,21.311,41.065,21.499z"/>
	<path d="M53.43,32.609c0-0.899,0.063-1.81,0.188-2.73c0.146-1.109,0.293-2.213,0.439-3.311c0.146-1.099,0.209-2.213,0.188-3.343
		c0-0.397,0.126-0.701,0.377-0.91c0.251-0.208,0.533-0.313,0.847-0.313s0.606,0.105,0.879,0.313c0.271,0.209,0.408,0.513,0.408,0.91
		c0.816-0.063,1.59-0.094,2.323-0.094c0.836,0.021,1.548,0.262,2.134,0.722c0.586,0.46,1.025,1.078,1.318,1.852
		c0.251,0.711,0.397,1.444,0.439,2.197c0.042,0.753,0.073,1.507,0.094,2.26c0.021,1.067,0.052,2.129,0.094,3.186
		c0.042,1.057,0.063,2.118,0.063,3.186c0,0.418-0.131,0.727-0.392,0.926c-0.262,0.198-0.544,0.298-0.848,0.298
		s-0.586-0.1-0.847-0.298c-0.262-0.199-0.393-0.508-0.393-0.926c0-1.004-0.016-1.987-0.047-2.95c-0.031-0.962-0.068-1.945-0.11-2.95
		c-0.042-0.543-0.058-1.103-0.047-1.679c0.01-0.575-0.037-1.104-0.142-1.585c-0.063-0.293-0.125-0.549-0.188-0.769
		c-0.063-0.22-0.178-0.434-0.345-0.644c-0.042-0.083-0.131-0.157-0.267-0.22c-0.136-0.063-0.256-0.094-0.361-0.094
		c-0.314,0-0.607,0.021-0.879,0.063c-0.272,0.042-0.554,0.105-0.847,0.188c-0.125,0.042-0.251,0.084-0.376,0.125
		c-0.125,0.042-0.241,0.094-0.345,0.157c-0.209,0.753-0.361,1.47-0.455,2.15c-0.094,0.68-0.184,1.365-0.267,2.056
		c-0.063,0.502-0.099,1.01-0.11,1.522s-0.031,1.02-0.063,1.521c-0.031,0.503-0.094,1.005-0.188,1.507s-0.256,0.983-0.486,1.443
		c-0.188,0.355-0.439,0.56-0.753,0.612c-0.313,0.052-0.602,0-0.863-0.157c-0.262-0.156-0.46-0.392-0.596-0.706
		c-0.137-0.313-0.121-0.648,0.047-1.004c0.188-0.377,0.293-0.785,0.314-1.225C53.388,33.457,53.409,33.028,53.43,32.609z"/>
	<path d="M68.526,34.774c-0.711-0.313-1.271-0.747-1.679-1.302c-0.408-0.555-0.69-1.167-0.847-1.836
		c-0.157-0.67-0.204-1.366-0.141-2.087c0.063-0.722,0.209-1.417,0.439-2.087c0.188-0.523,0.402-1.067,0.643-1.632
		c0.24-0.565,0.528-1.087,0.863-1.569c0.334-0.481,0.732-0.894,1.192-1.239c0.46-0.345,1.004-0.57,1.632-0.675
		c0.648-0.104,1.302-0.142,1.961-0.11c0.659,0.031,1.313,0.1,1.961,0.204c0.293,0.042,0.575,0.109,0.847,0.204
		s0.544,0.194,0.816,0.298c0.021-0.314,0.162-0.575,0.423-0.785c0.262-0.209,0.539-0.314,0.832-0.314
		c0.355,0,0.643,0.121,0.863,0.361c0.22,0.241,0.35,0.529,0.393,0.863c0.104,0.962,0.151,1.925,0.141,2.887
		c-0.011,0.963-0.042,1.925-0.094,2.888c-0.053,0.962-0.094,1.925-0.125,2.887c-0.031,0.963-0.026,1.925,0.016,2.888
		c0.021,0.397-0.1,0.695-0.361,0.895c-0.262,0.198-0.549,0.298-0.863,0.298s-0.602-0.1-0.863-0.298
		c-0.262-0.199-0.403-0.497-0.424-0.895c-1.192,0.502-2.459,0.79-3.797,0.862C71.016,35.554,69.74,35.319,68.526,34.774z
		 M68.746,27.964c-0.125,0.376-0.241,0.806-0.345,1.287c-0.105,0.481-0.136,0.941-0.094,1.381s0.178,0.843,0.408,1.208
		c0.23,0.367,0.606,0.623,1.13,0.77c1.067,0.335,2.139,0.429,3.217,0.282c1.077-0.146,2.087-0.522,3.028-1.13
		c0.083-1.025,0.152-2.019,0.204-2.981c0.052-0.962,0.068-1.935,0.047-2.919c-0.356-0.23-0.717-0.434-1.083-0.612
		c-0.366-0.177-0.769-0.298-1.208-0.361c-0.439-0.063-0.905-0.11-1.397-0.141c-0.492-0.032-0.968-0.026-1.428,0.016
		c-0.042,0-0.152,0.026-0.33,0.079c-0.178,0.052-0.278,0.089-0.298,0.11c-0.209,0.104-0.397,0.272-0.565,0.502
		c-0.272,0.376-0.513,0.78-0.722,1.208C69.101,27.09,68.913,27.524,68.746,27.964z"/>
	<path d="M84.563,36.03c-0.293,0.104-0.612,0.073-0.957-0.095c-0.345-0.167-0.539-0.418-0.581-0.753
		c-0.293-1.841-0.477-3.666-0.549-5.477c-0.074-1.81-0.11-3.635-0.11-5.477c0-0.314,0.083-0.565,0.251-0.753
		c0.167-0.188,0.366-0.314,0.596-0.377c0.23-0.063,0.471-0.073,0.722-0.031c0.251,0.042,0.46,0.146,0.627,0.314
		c0.481-0.397,0.994-0.743,1.538-1.036c0.544-0.293,1.093-0.487,1.648-0.581c0.554-0.094,1.104-0.063,1.647,0.094
		c0.544,0.157,1.057,0.487,1.539,0.989c0.397,0.419,0.742,0.863,1.035,1.334s0.555,0.968,0.785,1.491
		c0.313-0.795,0.753-1.527,1.318-2.197c0.564-0.669,1.286-1.119,2.165-1.35c0.648-0.167,1.161-0.13,1.538,0.11
		c0.377,0.241,0.732,0.612,1.067,1.114c0.355,0.523,0.685,1.057,0.988,1.601c0.303,0.544,0.591,1.098,0.863,1.663
		c0.271,0.565,0.533,1.13,0.784,1.695s0.502,1.12,0.753,1.664c0.293,0.607,0.55,1.208,0.77,1.804c0.22,0.597,0.36,1.229,0.424,1.898
		c0.041,0.356-0.079,0.654-0.361,0.895c-0.282,0.241-0.58,0.361-0.895,0.361c-0.355,0-0.644-0.12-0.863-0.361
		c-0.22-0.24-0.351-0.538-0.392-0.895c-0.043-0.502-0.173-0.988-0.393-1.459s-0.435-0.937-0.644-1.396
		c-0.23-0.481-0.455-0.973-0.675-1.475s-0.444-0.994-0.675-1.475c-0.23-0.481-0.476-0.962-0.737-1.444
		c-0.262-0.481-0.539-0.952-0.832-1.412c-0.042-0.063-0.084-0.125-0.125-0.188c-0.042-0.063-0.084-0.125-0.126-0.188
		c-0.419,0.23-0.722,0.45-0.91,0.659s-0.366,0.492-0.533,0.847c-0.146,0.314-0.267,0.644-0.361,0.989
		c-0.094,0.345-0.172,0.696-0.235,1.051c-0.125,0.67-0.22,1.371-0.282,2.103c-0.042,0.544-0.037,1.067,0.016,1.57
		c0.052,0.502,0.026,1.024-0.078,1.568c-0.063,0.335-0.257,0.586-0.581,0.754c-0.324,0.167-0.644,0.209-0.957,0.125
		c-0.293-0.083-0.508-0.235-0.644-0.455s-0.225-0.476-0.267-0.769c-0.084-0.67-0.178-1.36-0.282-2.071
		c-0.105-0.711-0.241-1.417-0.408-2.119c-0.168-0.701-0.382-1.381-0.644-2.04c-0.262-0.659-0.602-1.271-1.02-1.836
		c-0.294-0.376-0.592-0.627-0.895-0.753c-0.304-0.125-0.675-0.073-1.114,0.157c-0.481,0.251-0.952,0.555-1.413,0.91
		c-0.46,0.356-0.868,0.753-1.224,1.192c0.021,1.339,0.067,2.673,0.141,4.001c0.073,1.329,0.214,2.652,0.424,3.97
		c0.042,0.356-0.005,0.675-0.142,0.957S84.919,35.924,84.563,36.03z"/>
	<path d="M105.968,23.444c0.397-0.543,0.874-1.025,1.429-1.443c0.554-0.418,1.146-0.748,1.772-0.989
		c0.628-0.24,1.276-0.366,1.946-0.376c0.669-0.01,1.339,0.121,2.009,0.392c0.647,0.251,1.234,0.591,1.757,1.02
		c0.523,0.429,0.931,0.979,1.225,1.648c0.229,0.502,0.365,1.046,0.407,1.632c0.042,0.586-0.115,1.12-0.471,1.601
		c-0.313,0.439-0.695,0.774-1.146,1.004c-0.45,0.23-0.931,0.397-1.443,0.502c-0.513,0.105-1.035,0.157-1.569,0.157
		c-0.533,0-1.041-0.01-1.521-0.031c-0.545-0.021-1.083-0.063-1.617-0.125c-0.533-0.063-1.072-0.125-1.616-0.188
		c0.168,0.942,0.503,1.779,1.005,2.511c0.502,0.733,1.182,1.287,2.04,1.664c0.229,0.084,0.408,0.146,0.533,0.188
		c0.063,0.021,0.12,0.036,0.173,0.047c0.052,0.011,0.109,0.016,0.173,0.016c0.167,0.021,0.308,0.037,0.423,0.047
		c0.115,0.011,0.225,0.006,0.33-0.016c0.146-0.021,0.245-0.036,0.298-0.047c0.052-0.011,0.11-0.026,0.173-0.047
		c0.229-0.063,0.434-0.136,0.612-0.22c0.177-0.084,0.392-0.22,0.643-0.408c0.126-0.104,0.293-0.262,0.503-0.471
		c0.209-0.209,0.387-0.397,0.533-0.565c0.209-0.293,0.466-0.491,0.769-0.596c0.304-0.104,0.612-0.063,0.926,0.125
		c0.272,0.167,0.466,0.424,0.581,0.769c0.114,0.345,0.067,0.664-0.142,0.957c-0.606,0.816-1.323,1.512-2.149,2.087
		c-0.827,0.576-1.773,0.885-2.841,0.926c-0.857,0.042-1.684-0.109-2.479-0.455c-0.796-0.345-1.496-0.811-2.104-1.396
		c-0.753-0.732-1.35-1.579-1.788-2.542c-0.439-0.962-0.681-1.946-0.723-2.95c-0.188-0.146-0.329-0.33-0.423-0.549
		c-0.095-0.22-0.126-0.444-0.095-0.675c0.031-0.23,0.11-0.444,0.235-0.643c0.126-0.199,0.314-0.33,0.565-0.393
		C105.131,24.836,105.487,24.114,105.968,23.444z M113.5,24.198c-0.23-0.293-0.586-0.554-1.066-0.785
		c-0.398-0.167-0.863-0.251-1.396-0.251c-0.534,0-0.989,0.094-1.365,0.282c-0.482,0.23-0.91,0.549-1.287,0.958
		c-0.377,0.408-0.681,0.863-0.91,1.365c0.502,0.063,1.004,0.125,1.507,0.188c0.502,0.063,1.004,0.105,1.506,0.125
		c0.271,0,0.544,0,0.816,0c0.271,0,0.544-0.01,0.815-0.031c0.084,0,0.162-0.005,0.235-0.016c0.073-0.01,0.151-0.016,0.235-0.016
		c0.188-0.042,0.33-0.068,0.424-0.079c0.095-0.01,0.193-0.036,0.298-0.079c0.084-0.021,0.188-0.052,0.314-0.094
		c0.104-0.042,0.167-0.073,0.188-0.094c0.021-0.021,0.052-0.042,0.094-0.063l0.095-0.376c-0.043-0.083-0.068-0.162-0.079-0.235
		c-0.011-0.073-0.037-0.141-0.078-0.204c-0.021-0.063-0.068-0.157-0.142-0.282S113.564,24.282,113.5,24.198z"/>
	<path d="M129.129,35.308c0.168-1.005,0.361-1.993,0.581-2.966c0.22-0.974,0.382-1.962,0.486-2.966
		c0.084-0.983,0.1-1.951,0.047-2.903c-0.052-0.952,0.005-1.919,0.173-2.903c0.042-0.334,0.235-0.585,0.581-0.753
		c0.345-0.167,0.664-0.209,0.957-0.125c0.355,0.105,0.601,0.303,0.737,0.596c0.136,0.293,0.183,0.607,0.142,0.941
		c-0.084,0.481-0.121,0.973-0.11,1.475c0.011,0.502,0.026,1.004,0.047,1.506c0,0.963-0.063,1.925-0.188,2.888
		c-0.126,1.004-0.288,1.988-0.487,2.95c-0.198,0.962-0.382,1.936-0.549,2.919c-0.063,0.334-0.262,0.585-0.597,0.753
		c-0.335,0.167-0.648,0.209-0.941,0.125c-0.355-0.104-0.606-0.303-0.753-0.596C129.109,35.956,129.067,35.642,129.129,35.308z
		 M130.636,20.871c-0.146-0.042-0.293-0.11-0.439-0.204s-0.251-0.214-0.313-0.361c-0.063-0.167-0.115-0.314-0.157-0.439
		s-0.063-0.271-0.063-0.439c0-0.188,0.031-0.376,0.094-0.565c0.084-0.376,0.251-0.648,0.502-0.816
		c0.084-0.125,0.199-0.22,0.346-0.282c0.229-0.146,0.491-0.225,0.784-0.235s0.555,0.068,0.785,0.235
		c0.104,0.083,0.209,0.172,0.313,0.267s0.188,0.215,0.251,0.361c0.042,0.105,0.089,0.22,0.142,0.345
		c0.052,0.125,0.067,0.251,0.047,0.376c-0.021,0.147-0.042,0.283-0.063,0.408c-0.021,0.125-0.074,0.241-0.157,0.345
		c-0.104,0.146-0.188,0.251-0.251,0.314c-0.063,0.063-0.168,0.146-0.313,0.251c-0.084,0.084-0.21,0.146-0.377,0.188
		C131.326,20.871,130.949,20.955,130.636,20.871z"/>
	<path d="M137.478,28.654c-0.544-0.397-0.931-0.895-1.161-1.491s-0.24-1.229-0.031-1.899c0.209-0.606,0.534-1.15,0.973-1.632
		c0.439-0.481,0.942-0.868,1.507-1.161c0.628-0.334,1.297-0.596,2.009-0.785c0.711-0.188,1.433-0.293,2.165-0.314
		c0.732-0.021,1.46,0.047,2.182,0.204s1.407,0.403,2.056,0.737c0.355,0.188,0.554,0.439,0.596,0.753s-0.016,0.607-0.172,0.879
		c-0.157,0.272-0.393,0.471-0.706,0.596c-0.314,0.125-0.649,0.094-1.005-0.094c-0.502-0.271-1.066-0.45-1.694-0.534
		c-0.628-0.083-1.261-0.088-1.898-0.016c-0.639,0.074-1.24,0.235-1.805,0.487c-0.565,0.251-1.036,0.576-1.413,0.973
		c-0.104,0.105-0.172,0.178-0.203,0.22c-0.032,0.042-0.079,0.136-0.142,0.282l-0.063,0.346c0.063,0.188,0.114,0.303,0.156,0.345
		c0.419,0.272,0.853,0.444,1.303,0.518c0.449,0.074,0.904,0.121,1.365,0.141c0.648,0.042,1.313,0.079,1.993,0.11
		c0.68,0.032,1.339,0.121,1.977,0.267c0.639,0.146,1.229,0.387,1.773,0.722c0.544,0.335,1.005,0.827,1.381,1.475
		c0.419,0.732,0.612,1.491,0.581,2.275c-0.031,0.785-0.341,1.491-0.926,2.119c-0.586,0.627-1.267,1.062-2.04,1.302
		c-0.774,0.24-1.56,0.413-2.354,0.519c-0.711,0.083-1.448,0.104-2.212,0.063c-0.765-0.042-1.496-0.162-2.197-0.361
		c-0.701-0.198-1.354-0.502-1.961-0.91c-0.607-0.407-1.109-0.946-1.507-1.616c-0.188-0.334-0.22-0.653-0.094-0.957
		c0.125-0.303,0.318-0.533,0.58-0.69s0.555-0.214,0.879-0.173c0.324,0.042,0.591,0.23,0.8,0.565
		c0.293,0.481,0.701,0.847,1.225,1.099c0.522,0.251,1.093,0.423,1.71,0.518c0.617,0.094,1.24,0.115,1.867,0.063
		c0.628-0.052,1.193-0.13,1.695-0.235c0.271-0.063,0.549-0.151,0.832-0.267c0.282-0.115,0.522-0.256,0.722-0.424
		c0.198-0.167,0.34-0.361,0.424-0.58c0.083-0.22,0.072-0.466-0.032-0.738c-0.209-0.522-0.56-0.899-1.051-1.129
		c-0.492-0.23-1.01-0.366-1.554-0.408c-0.544-0.042-1.099-0.063-1.663-0.063c-0.565,0-1.13-0.026-1.695-0.079
		c-0.564-0.052-1.119-0.151-1.663-0.298C138.441,29.23,137.938,28.989,137.478,28.654z"/>
	<path d="M165.629,36.783c-0.67-0.209-1.297-0.508-1.883-0.895s-1.136-0.82-1.647-1.303c-0.514-0.48-0.989-0.998-1.429-1.553
		c-0.438-0.555-0.836-1.125-1.192-1.711c-0.209-0.334-0.251-0.653-0.125-0.957c0.125-0.303,0.324-0.534,0.596-0.69
		c0.272-0.157,0.57-0.214,0.895-0.173c0.324,0.042,0.591,0.23,0.801,0.565c0.271,0.439,0.58,0.89,0.926,1.35
		c0.345,0.46,0.731,0.899,1.161,1.317c0.429,0.419,0.884,0.78,1.365,1.083c0.48,0.304,0.983,0.518,1.506,0.644
		c0.23,0.042,0.46,0.063,0.69,0.063s0.472-0.052,0.723-0.156c0.209-0.063,0.376-0.157,0.502-0.283
		c0.376-0.48,0.622-0.931,0.737-1.35c0.115-0.418,0.193-0.826,0.235-1.224c0.126-1.15,0.157-2.301,0.095-3.452
		c-0.063-1.15-0.157-2.301-0.283-3.453c-0.146-1.297-0.24-2.594-0.282-3.892c-0.042-1.297-0.188-2.583-0.439-3.86
		c-1.004,0.042-1.988,0.047-2.95,0.016c-0.963-0.032-1.945-0.13-2.95-0.298c-0.335-0.063-0.586-0.261-0.753-0.596
		c-0.168-0.334-0.209-0.648-0.126-0.941c0.104-0.355,0.304-0.607,0.597-0.753c0.293-0.146,0.617-0.188,0.973-0.125
		c1.109,0.188,2.218,0.277,3.327,0.267c1.108-0.01,2.223-0.036,3.343-0.078c1.118-0.042,2.232-0.063,3.342-0.063
		s2.218,0.094,3.327,0.283c0.355,0.063,0.616,0.262,0.784,0.596c0.167,0.335,0.199,0.648,0.095,0.941
		c-0.105,0.356-0.299,0.607-0.581,0.753s-0.602,0.188-0.957,0.125c-0.816-0.146-1.638-0.23-2.464-0.251
		c-0.827-0.021-1.658-0.01-2.495,0.032c0.167,0.941,0.277,1.878,0.33,2.809c0.052,0.932,0.109,1.868,0.172,2.809
		c0.042,0.544,0.089,1.072,0.142,1.585c0.052,0.513,0.109,1.041,0.173,1.585c0.104,1.255,0.183,2.542,0.235,3.86
		c0.052,1.318-0.1,2.595-0.455,3.829c-0.146,0.564-0.366,1.108-0.659,1.632c-0.293,0.522-0.681,0.962-1.161,1.317
		c-0.607,0.419-1.287,0.68-2.04,0.785C167.073,37.076,166.34,37.013,165.629,36.783z"/>
	<path d="M183.958,21.153c0.669-0.083,1.37-0.11,2.103-0.078c0.732,0.031,1.433,0.157,2.103,0.376s1.276,0.549,1.82,0.989
		c0.544,0.439,0.962,1.015,1.256,1.726c0.209,0.502,0.318,1.009,0.329,1.522s-0.063,1.004-0.22,1.475s-0.388,0.921-0.69,1.35
		c-0.304,0.429-0.654,0.821-1.052,1.177c-0.857,0.774-1.799,1.434-2.824,1.978s-2.103,0.962-3.232,1.255
		c-0.481,0.126-0.979,0.235-1.491,0.33c-0.513,0.094-1.03,0.141-1.553,0.141c-0.523,0-1.036-0.058-1.538-0.173
		c-0.502-0.114-0.973-0.308-1.412-0.58c-0.314-0.188-0.503-0.439-0.565-0.753c-0.125-0.355-0.262-0.69-0.408-1.005
		c-0.146-0.313-0.287-0.638-0.423-0.973c-0.137-0.334-0.247-0.669-0.33-1.004c-0.084-0.334-0.125-0.68-0.125-1.036
		c0-0.711,0.151-1.386,0.455-2.024c0.303-0.638,0.716-1.197,1.239-1.679c0.879-0.837,1.894-1.507,3.044-2.009
		S182.766,21.321,183.958,21.153z M187.504,23.853c-0.564-0.209-1.172-0.314-1.82-0.314c-0.69-0.021-1.381,0.047-2.071,0.204
		s-1.35,0.372-1.977,0.644c-0.587,0.23-1.188,0.549-1.805,0.957c-0.618,0.408-1.073,0.905-1.365,1.491
		c-0.168,0.314-0.246,0.633-0.235,0.957c0.01,0.325,0.063,0.649,0.156,0.973c0.095,0.325,0.22,0.649,0.377,0.973
		c0.157,0.325,0.298,0.644,0.424,0.958c0.334,0.084,0.544,0.125,0.628,0.125c0.041,0.021,0.094,0.031,0.156,0.031
		c0.063,0,0.115,0,0.157,0c0.418,0.042,0.795,0.031,1.13-0.031c0.229,0,0.522-0.042,0.879-0.125
		c0.544-0.104,1.066-0.246,1.569-0.424c0.502-0.177,0.962-0.371,1.381-0.581c0.48-0.23,0.951-0.481,1.412-0.753
		c0.46-0.271,0.848-0.554,1.161-0.847c0.209-0.188,0.408-0.387,0.597-0.596c0.104-0.104,0.177-0.188,0.22-0.251
		c0.104-0.146,0.188-0.256,0.251-0.33c0.063-0.073,0.114-0.162,0.156-0.267c0.084-0.146,0.126-0.261,0.126-0.345
		c0.021-0.042,0.036-0.094,0.047-0.157s0.026-0.115,0.047-0.157v-0.345c-0.021-0.083-0.031-0.146-0.031-0.188
		c0-0.042-0.011-0.083-0.031-0.125c-0.063-0.146-0.121-0.256-0.173-0.33c-0.052-0.073-0.109-0.151-0.173-0.235
		c0.021,0.021-0.005-0.01-0.078-0.094c-0.073-0.083-0.12-0.136-0.141-0.157l-0.252-0.251c-0.104-0.063-0.22-0.136-0.345-0.219
		C187.755,23.958,187.63,23.895,187.504,23.853z"/>
	<path d="M193.938,34.994c-0.293-0.104-0.539-0.309-0.737-0.611c-0.199-0.304-0.235-0.612-0.109-0.926
		c0.355-0.983,0.596-1.978,0.722-2.982c0.125-1.004,0.209-2.029,0.251-3.076c0.021-0.314,0.031-0.622,0.031-0.926
		c0-0.303,0.01-0.612,0.031-0.926c-0.063-0.251-0.042-0.492,0.063-0.722c0.042-0.606,0.084-1.218,0.126-1.836
		c0.042-0.617,0.104-1.229,0.188-1.836c0.104-0.92,0.214-1.836,0.329-2.746s0.193-1.836,0.235-2.777
		c0.042-0.858,0.089-1.71,0.142-2.558c0.052-0.847,0.267-1.658,0.644-2.432c0.188-0.355,0.439-0.56,0.753-0.612s0.606,0,0.879,0.157
		c0.271,0.157,0.476,0.393,0.611,0.706c0.137,0.314,0.11,0.649-0.078,1.004c-0.168,0.356-0.282,0.722-0.345,1.099
		c-0.063,0.376-0.1,0.764-0.11,1.161s-0.016,0.795-0.016,1.192c0,0.398-0.011,0.785-0.031,1.162
		c-0.105,0.941-0.209,1.878-0.313,2.809c-0.105,0.931-0.21,1.868-0.314,2.809c0.879-0.439,1.852-0.68,2.919-0.722
		c0.837-0.021,1.689,0.121,2.558,0.424c0.868,0.304,1.574,0.79,2.118,1.459c0.314,0.397,0.565,0.832,0.754,1.302
		s0.34,0.963,0.455,1.475c0.114,0.513,0.193,1.025,0.235,1.538c0.041,0.513,0.083,1.01,0.125,1.491
		c0.063,0.983,0.089,1.961,0.079,2.934c-0.011,0.974-0.037,1.962-0.079,2.966c0,0.397-0.136,0.695-0.407,0.895
		c-0.272,0.199-0.565,0.298-0.879,0.298c-0.314,0-0.597-0.099-0.848-0.298s-0.366-0.497-0.346-0.895
		c0.021-0.836,0.042-1.674,0.063-2.511c0.021-0.836,0.01-1.673-0.031-2.51c-0.043-0.418-0.074-0.848-0.095-1.287
		s-0.073-0.878-0.157-1.318c-0.042-0.209-0.078-0.413-0.109-0.612c-0.031-0.198-0.078-0.402-0.142-0.612
		c-0.021-0.167-0.073-0.345-0.156-0.534c-0.063-0.188-0.105-0.292-0.126-0.313c-0.042-0.063-0.073-0.121-0.094-0.173
		c-0.021-0.052-0.053-0.11-0.095-0.172c-0.188-0.209-0.304-0.324-0.345-0.346c-0.084-0.063-0.157-0.109-0.22-0.141
		c-0.063-0.031-0.126-0.067-0.188-0.11c-0.23-0.125-0.492-0.23-0.784-0.313c-0.294-0.083-0.576-0.126-0.848-0.126
		c-0.712-0.042-1.376,0.084-1.993,0.377s-1.166,0.743-1.647,1.35c-0.042,1.443-0.115,2.872-0.22,4.284s-0.408,2.809-0.91,4.189
		c-0.104,0.314-0.298,0.565-0.581,0.754C194.613,35.057,194.293,35.099,193.938,34.994z"/>
	<path d="M209.191,32.609c0-0.899,0.063-1.81,0.188-2.73c0.146-1.109,0.293-2.213,0.439-3.311c0.146-1.099,0.209-2.213,0.188-3.343
		c0-0.397,0.125-0.701,0.376-0.91c0.251-0.208,0.534-0.313,0.848-0.313s0.606,0.105,0.879,0.313c0.271,0.209,0.408,0.513,0.408,0.91
		c0.815-0.063,1.59-0.094,2.322-0.094c0.837,0.021,1.548,0.262,2.134,0.722c0.586,0.46,1.025,1.078,1.318,1.852
		c0.251,0.711,0.397,1.444,0.439,2.197c0.042,0.753,0.073,1.507,0.094,2.26c0.021,1.067,0.053,2.129,0.095,3.186
		c0.041,1.057,0.063,2.118,0.063,3.186c0,0.418-0.131,0.727-0.393,0.926c-0.262,0.198-0.544,0.298-0.847,0.298
		c-0.304,0-0.586-0.1-0.848-0.298c-0.262-0.199-0.393-0.508-0.393-0.926c0-1.004-0.016-1.987-0.047-2.95
		c-0.031-0.962-0.068-1.945-0.11-2.95c-0.042-0.543-0.058-1.103-0.047-1.679c0.011-0.575-0.036-1.104-0.141-1.585
		c-0.063-0.293-0.126-0.549-0.188-0.769s-0.178-0.434-0.346-0.644c-0.042-0.083-0.131-0.157-0.267-0.22
		c-0.136-0.063-0.256-0.094-0.36-0.094c-0.314,0-0.607,0.021-0.879,0.063c-0.272,0.042-0.555,0.105-0.848,0.188
		c-0.126,0.042-0.251,0.084-0.377,0.125c-0.125,0.042-0.24,0.094-0.345,0.157c-0.21,0.753-0.361,1.47-0.455,2.15
		c-0.095,0.68-0.184,1.365-0.267,2.056c-0.063,0.502-0.1,1.01-0.11,1.522s-0.031,1.02-0.063,1.521
		c-0.031,0.503-0.094,1.005-0.188,1.507c-0.094,0.502-0.257,0.983-0.486,1.443c-0.188,0.355-0.439,0.56-0.753,0.612
		c-0.314,0.052-0.602,0-0.863-0.157c-0.262-0.156-0.461-0.392-0.597-0.706c-0.136-0.313-0.12-0.648,0.047-1.004
		c0.188-0.377,0.293-0.785,0.314-1.225C209.149,33.457,209.17,33.028,209.191,32.609z"/>
	<path d="M223.722,33.424c0.271,0.168,0.48,0.419,0.627,0.754s0.168,0.648,0.063,0.941c-0.126,0.355-0.335,0.617-0.628,0.784
		c-0.23,0.251-0.523,0.371-0.879,0.361c-0.356-0.011-0.648-0.131-0.879-0.361c-0.313-0.251-0.513-0.46-0.596-0.628
		c-0.168-0.292-0.215-0.585-0.142-0.878s0.235-0.544,0.486-0.754c0.042-0.041,0.094-0.089,0.157-0.141
		c0.063-0.053,0.125-0.1,0.188-0.142c0.188-0.083,0.298-0.125,0.329-0.125s0.151-0.021,0.361-0.063c0.167,0,0.292,0.021,0.376,0.063
		C223.397,33.279,223.574,33.341,223.722,33.424z"/>
</g>
</svg>
