<?xml version="1.0" encoding="utf-8"?>
<!-- Generator: Adobe Illustrator 15.0.0, SVG Export Plug-In . SVG Version: 6.00 Build 0)  -->
<!DOCTYPE svg PUBLIC "-//W3C//DTD SVG 1.1//EN" "http://www.w3.org/Graphics/SVG/1.1/DTD/svg11.dtd">
<svg version="1.1" xmlns="http://www.w3.org/2000/svg" xmlns:xlink="http://www.w3.org/1999/xlink" x="0px" y="0px"
	 width="180.016px" height="65.964px" viewBox="0.301 0.801 180.016 65.964" enable-background="new 0.301 0.801 180.016 65.964"
	 xml:space="preserve">
<g id="svg-bubble" xmlns:dc="http://purl.org/dc/elements/1.1/" xmlns:cc="http://creativecommons.org/ns#" xmlns:rdf="http://www.w3.org/1999/02/22-rdf-syntax-ns#" xmlns:svg="http://www.w3.org/2000/svg" xmlns:sodipodi="http://sodipodi.sourceforge.net/DTD/sodipodi-0.dtd" xmlns:inkscape="http://www.inkscape.org/namespaces/inkscape" sodipodi:docname="Comic FX f1 - Copy - Copy (2).svg" inkscape:version="0.92.1 r15371">
	
		<sodipodi:namedview  id="base" inkscape:window-y="-8" inkscape:pageopacity="0.0" inkscape:window-height="705" inkscape:window-width="1368" inkscape:current-layer="layer1" inkscape:window-x="-8" inkscape:pageshadow="2" inkscape:document-units="mm" inkscape:cx="-452.96414" inkscape:cy="120.44387" pagecolor="#ffffff" showgrid="false" bordercolor="#666666" borderopacity="1.0" inkscape:zoom="0.60728983" inkscape:window-maximized="1">
		</sodipodi:namedview>
	
		<path id="path5290" sodipodi:nodetypes="sscscccsscsscs" inkscape:connector-curvature="0" fill="#FFFFFF" stroke="#000000" stroke-width="2" stroke-linecap="round" stroke-linejoin="round" d="
		M16.788,1.801c-8.553,0-15.487,3.704-15.487,8.268V30.74v12.402c0,4.572,6.935,8.268,15.487,8.268L8.744,65.765L40.018,51.41
		h123.809c8.552,0,15.704-4.091,15.485-8.268V30.74V10.069c0-4.564-6.934-8.268-15.485-8.268H40.018H16.788z"/>
</g>
<g id="svg-text">
	<g>
		<path d="M12.922,27.015c0.023-1.993,0.006-3.969-0.053-5.927c-0.058-1.958-0.322-3.91-0.792-5.856
			c-0.118-0.445-0.058-0.814,0.176-1.108c0.234-0.293,0.521-0.486,0.862-0.581c0.339-0.093,0.674-0.07,1.002,0.07
			c0.328,0.141,0.55,0.435,0.668,0.88c0.493,1.993,0.762,4.004,0.809,6.032s0.059,4.075,0.035,6.138
			c0.727,0.071,1.454,0.146,2.181,0.229c0.727,0.083,1.454,0.141,2.181,0.176c0.727,0.035,1.448,0.035,2.163,0
			s1.425-0.146,2.128-0.334c0.187-0.071,0.387-0.082,0.598-0.035c0.071-1.055,0.164-2.093,0.281-3.113
			c0.117-1.021,0.188-2.058,0.211-3.113c0.046-1.125,0.023-2.239-0.071-3.342c-0.093-1.102-0.199-2.216-0.316-3.341
			c-0.047-0.375,0.083-0.704,0.387-0.985c0.304-0.281,0.645-0.422,1.02-0.422c0.398,0,0.715,0.141,0.95,0.422
			c0.234,0.282,0.375,0.61,0.422,0.985c0.117,1.125,0.228,2.239,0.334,3.341c0.105,1.103,0.135,2.216,0.088,3.342
			c-0.047,1.125-0.135,2.222-0.264,3.289c-0.129,1.067-0.217,2.164-0.264,3.289c-0.118,1.829-0.2,3.665-0.247,5.505
			c-0.047,1.841-0.012,3.676,0.106,5.505c0.023,0.469-0.106,0.814-0.387,1.036c-0.281,0.224-0.598,0.336-0.95,0.336
			c-0.352,0-0.681-0.112-0.985-0.336c-0.305-0.222-0.47-0.567-0.493-1.036c-0.094-1.408-0.135-2.827-0.123-4.257
			c0.011-1.431,0.053-2.86,0.123-4.292c-0.75,0.188-1.501,0.299-2.251,0.334c-0.751,0.035-1.501,0.035-2.251,0
			c-0.751-0.036-1.507-0.094-2.269-0.176c-0.762-0.082-1.519-0.158-2.269-0.228c0.023,1.313,0.087,2.614,0.193,3.904
			c0.105,1.289,0.322,2.579,0.651,3.868c0.117,0.447,0.064,0.816-0.158,1.108c-0.224,0.294-0.505,0.487-0.845,0.581
			c-0.34,0.093-0.681,0.07-1.02-0.071c-0.34-0.14-0.557-0.434-0.651-0.879c-0.399-1.5-0.645-3.007-0.738-4.52
			c-0.094-1.513-0.153-3.043-0.176-4.591c-0.188-0.258-0.281-0.563-0.281-0.914C12.641,27.578,12.735,27.273,12.922,27.015z"/>
		<path d="M32.655,25.362c0.446-0.61,0.979-1.149,1.601-1.618c0.622-0.469,1.284-0.838,1.988-1.108
			c0.703-0.269,1.43-0.41,2.181-0.422c0.75-0.011,1.5,0.135,2.251,0.439c0.727,0.282,1.383,0.663,1.97,1.143
			c0.585,0.481,1.042,1.097,1.372,1.847c0.258,0.563,0.41,1.172,0.457,1.829c0.047,0.657-0.129,1.254-0.528,1.794
			c-0.351,0.493-0.779,0.868-1.284,1.125c-0.504,0.259-1.043,0.446-1.618,0.563c-0.575,0.117-1.161,0.176-1.759,0.176
			c-0.598,0-1.167-0.012-1.706-0.035c-0.61-0.023-1.213-0.071-1.812-0.141c-0.598-0.071-1.202-0.141-1.812-0.212
			c0.187,1.056,0.563,1.994,1.125,2.814c0.563,0.821,1.325,1.441,2.287,1.864c0.258,0.093,0.457,0.164,0.598,0.21
			c0.071,0.024,0.135,0.042,0.194,0.054c0.058,0.013,0.123,0.018,0.193,0.018c0.188,0.023,0.346,0.041,0.476,0.053
			c0.128,0.012,0.251,0.006,0.369-0.018c0.164-0.022,0.275-0.04,0.334-0.053c0.058-0.012,0.123-0.029,0.193-0.054
			c0.258-0.069,0.486-0.151,0.686-0.246c0.199-0.093,0.44-0.245,0.721-0.456c0.141-0.117,0.328-0.294,0.563-0.528
			c0.234-0.234,0.433-0.445,0.598-0.633c0.234-0.328,0.521-0.551,0.862-0.668c0.339-0.117,0.686-0.07,1.038,0.141
			c0.304,0.188,0.521,0.475,0.651,0.861c0.128,0.387,0.075,0.745-0.158,1.073c-0.681,0.914-1.483,1.694-2.41,2.34
			c-0.927,0.645-1.988,0.99-3.183,1.036c-0.962,0.047-1.888-0.122-2.779-0.51c-0.891-0.387-1.677-0.908-2.356-1.564
			c-0.844-0.821-1.512-1.771-2.005-2.85c-0.492-1.078-0.762-2.181-0.809-3.307c-0.211-0.164-0.369-0.37-0.475-0.615
			c-0.106-0.246-0.141-0.498-0.106-0.756c0.035-0.258,0.124-0.498,0.264-0.721c0.141-0.223,0.352-0.369,0.633-0.439
			C31.717,26.921,32.115,26.112,32.655,25.362z M41.097,26.206c-0.258-0.328-0.656-0.621-1.195-0.88
			c-0.446-0.187-0.967-0.281-1.565-0.281s-1.108,0.106-1.53,0.317c-0.54,0.258-1.02,0.615-1.442,1.073
			c-0.422,0.457-0.762,0.967-1.02,1.53c0.563,0.07,1.125,0.141,1.688,0.211c0.563,0.07,1.125,0.118,1.689,0.141
			c0.304,0,0.609,0,0.914,0c0.305,0,0.61-0.012,0.915-0.035c0.094,0,0.181-0.005,0.264-0.018c0.083-0.012,0.17-0.018,0.264-0.018
			c0.21-0.046,0.369-0.076,0.475-0.088s0.217-0.041,0.334-0.088c0.093-0.023,0.21-0.059,0.351-0.105
			c0.117-0.046,0.188-0.082,0.211-0.105c0.023-0.023,0.058-0.047,0.105-0.07l0.106-0.422c-0.048-0.093-0.077-0.181-0.088-0.264
			c-0.012-0.082-0.041-0.159-0.088-0.229c-0.023-0.071-0.076-0.176-0.158-0.316C41.243,26.417,41.168,26.3,41.097,26.206z"/>
		<path d="M49.574,11.397c0.422,0,0.75,0.141,0.985,0.422c0.234,0.281,0.375,0.61,0.422,0.985c0.234,2.229,0.364,4.456,0.387,6.684
			c0.023,2.228-0.006,4.456-0.088,6.683c-0.082,2.228-0.205,4.455-0.369,6.684c-0.165,2.227-0.329,4.444-0.492,6.647
			c-0.047,0.398-0.194,0.732-0.44,1.002s-0.569,0.405-0.967,0.405c-0.352,0-0.681-0.136-0.985-0.405
			c-0.305-0.27-0.446-0.604-0.422-1.002c0.164-2.203,0.334-4.421,0.51-6.647c0.176-2.229,0.305-4.456,0.387-6.684
			c0.082-2.228,0.111-4.455,0.087-6.683s-0.153-4.455-0.386-6.684c-0.048-0.375,0.082-0.704,0.386-0.985
			C48.894,11.538,49.222,11.397,49.574,11.397z"/>
		<path d="M57.137,11.397c0.422,0,0.75,0.141,0.984,0.422c0.234,0.281,0.375,0.61,0.422,0.985c0.234,2.229,0.363,4.456,0.387,6.684
			c0.023,2.228-0.006,4.456-0.088,6.683c-0.082,2.228-0.206,4.455-0.37,6.684c-0.164,2.227-0.329,4.444-0.492,6.647
			c-0.047,0.398-0.194,0.732-0.439,1.002c-0.246,0.27-0.569,0.405-0.967,0.405c-0.352,0-0.68-0.136-0.985-0.405
			c-0.305-0.27-0.445-0.604-0.422-1.002c0.164-2.203,0.334-4.421,0.51-6.647c0.176-2.229,0.304-4.456,0.387-6.684
			c0.082-2.228,0.111-4.455,0.088-6.683c-0.024-2.228-0.153-4.455-0.387-6.684c-0.047-0.375,0.082-0.704,0.387-0.985
			C56.457,11.538,56.785,11.397,57.137,11.397z"/>
		<path d="M71.101,22.794c0.75-0.093,1.535-0.123,2.356-0.088c0.821,0.035,1.606,0.176,2.356,0.422
			c0.75,0.247,1.431,0.616,2.04,1.108c0.61,0.493,1.079,1.138,1.408,1.935c0.233,0.563,0.357,1.132,0.369,1.706
			c0.012,0.575-0.07,1.125-0.246,1.653c-0.176,0.528-0.435,1.033-0.774,1.512c-0.341,0.481-0.734,0.921-1.179,1.319
			c-0.962,0.868-2.017,1.606-3.166,2.216c-1.149,0.61-2.356,1.079-3.623,1.407c-0.54,0.141-1.097,0.264-1.671,0.369
			c-0.575,0.106-1.155,0.159-1.741,0.159s-1.161-0.065-1.723-0.194c-0.563-0.128-1.09-0.346-1.583-0.651
			c-0.352-0.21-0.563-0.491-0.633-0.844c-0.141-0.398-0.293-0.773-0.457-1.125c-0.165-0.352-0.323-0.715-0.475-1.091
			c-0.153-0.375-0.276-0.75-0.369-1.125c-0.094-0.375-0.141-0.762-0.141-1.161c0-0.797,0.169-1.553,0.51-2.269
			c0.34-0.715,0.803-1.341,1.39-1.881c0.985-0.938,2.122-1.688,3.412-2.251C68.451,23.357,69.764,22.982,71.101,22.794z
			 M75.076,25.819c-0.633-0.234-1.314-0.352-2.04-0.352c-0.774-0.023-1.548,0.053-2.322,0.229s-1.512,0.417-2.216,0.721
			c-0.657,0.258-1.331,0.616-2.022,1.073c-0.692,0.458-1.202,1.015-1.531,1.671c-0.188,0.351-0.276,0.709-0.263,1.073
			c0.012,0.364,0.07,0.727,0.176,1.09s0.247,0.727,0.422,1.091c0.176,0.363,0.334,0.721,0.475,1.072
			c0.375,0.094,0.61,0.141,0.704,0.141c0.046,0.023,0.105,0.035,0.176,0.035c0.07,0,0.128,0,0.176,0
			c0.469,0.047,0.891,0.035,1.266-0.035c0.258,0,0.586-0.047,0.985-0.141c0.609-0.117,1.195-0.275,1.759-0.475
			c0.563-0.199,1.078-0.416,1.547-0.651c0.539-0.258,1.067-0.539,1.583-0.844c0.515-0.305,0.95-0.621,1.301-0.95
			c0.234-0.211,0.458-0.433,0.668-0.668c0.117-0.117,0.199-0.211,0.246-0.281c0.117-0.164,0.211-0.287,0.281-0.37
			c0.07-0.082,0.129-0.181,0.176-0.299c0.094-0.164,0.141-0.293,0.141-0.387c0.023-0.046,0.041-0.105,0.053-0.176
			c0.011-0.07,0.029-0.128,0.053-0.176v-0.387c-0.024-0.094-0.035-0.164-0.035-0.211c0-0.046-0.012-0.093-0.035-0.141
			c-0.071-0.164-0.135-0.287-0.194-0.369c-0.059-0.082-0.123-0.17-0.193-0.264c0.023,0.023-0.006-0.012-0.088-0.105
			c-0.083-0.094-0.135-0.152-0.158-0.176l-0.281-0.282c-0.118-0.07-0.247-0.152-0.387-0.246S75.217,25.866,75.076,25.819z"/>
		<path d="M103.602,26.734c0.446,0,0.78,0.141,1.003,0.422s0.334,0.598,0.334,0.95c0,0.352-0.111,0.674-0.334,0.967
			c-0.223,0.293-0.557,0.439-1.003,0.439c-0.563,0.023-1.119,0.018-1.67-0.018c-0.552-0.035-1.098-0.075-1.636-0.123
			c0.022,1.853-0.007,3.706-0.088,5.558c-0.083,1.852-0.275,3.693-0.581,5.521c-0.047,0.398-0.258,0.692-0.633,0.881
			c-0.376,0.187-0.739,0.222-1.091,0.104c-0.398-0.118-0.674-0.334-0.826-0.65c-0.152-0.317-0.194-0.674-0.123-1.072
			c0.281-1.782,0.439-3.565,0.475-5.348c0.036-1.781,0.029-3.575-0.018-5.382c-0.892-0.141-1.794-0.287-2.709-0.439
			c-0.914-0.152-1.817-0.287-2.708-0.404c-0.398-0.047-0.686-0.264-0.861-0.651s-0.217-0.744-0.123-1.073
			c0.117-0.398,0.339-0.673,0.668-0.827c0.328-0.152,0.68-0.205,1.055-0.158c0.774,0.118,1.549,0.241,2.322,0.37
			c0.774,0.129,1.56,0.252,2.356,0.369c-0.023-0.117-0.035-0.293-0.035-0.527c0-2.111-0.006-4.198-0.018-6.261
			c-0.012-2.063,0.088-4.151,0.299-6.261c0.047-0.375,0.193-0.703,0.44-0.985c0.246-0.282,0.568-0.422,0.967-0.422
			c0.353,0,0.686,0.141,1.002,0.422s0.451,0.61,0.405,0.985c-0.235,2.251-0.347,4.485-0.335,6.701
			c0.013,2.216,0.042,4.462,0.089,6.736c0.563,0.047,1.125,0.087,1.688,0.123C102.477,26.716,103.039,26.734,103.602,26.734z"/>
		<path d="M107.437,38.306c-0.328-0.117-0.604-0.345-0.826-0.686c-0.224-0.339-0.264-0.687-0.124-1.038
			c0.398-1.102,0.669-2.216,0.81-3.341c0.141-1.126,0.234-2.274,0.281-3.448c0.022-0.351,0.035-0.697,0.035-1.037
			s0.012-0.686,0.036-1.038c-0.071-0.282-0.049-0.551,0.07-0.809c0.046-0.68,0.093-1.366,0.14-2.058
			c0.047-0.691,0.117-1.377,0.211-2.058c0.117-1.032,0.24-2.058,0.369-3.078s0.217-2.058,0.264-3.113
			c0.048-0.961,0.1-1.917,0.159-2.867c0.058-0.95,0.299-1.858,0.722-2.726c0.21-0.398,0.491-0.626,0.844-0.686
			c0.352-0.058,0.68,0,0.984,0.176c0.305,0.176,0.533,0.439,0.687,0.791c0.152,0.352,0.122,0.728-0.088,1.126
			c-0.188,0.399-0.317,0.809-0.388,1.231c-0.069,0.422-0.111,0.856-0.122,1.301c-0.013,0.445-0.018,0.892-0.018,1.336
			c0,0.446-0.013,0.88-0.036,1.302c-0.117,1.055-0.234,2.105-0.352,3.148c-0.117,1.043-0.234,2.093-0.352,3.148
			c0.985-0.493,2.076-0.762,3.271-0.809c0.937-0.023,1.893,0.135,2.866,0.475c0.973,0.34,1.765,0.885,2.374,1.635
			c0.352,0.446,0.633,0.933,0.845,1.46c0.211,0.528,0.381,1.079,0.51,1.653c0.129,0.575,0.217,1.149,0.264,1.724
			c0.047,0.575,0.094,1.132,0.142,1.671c0.07,1.103,0.1,2.198,0.087,3.288c-0.012,1.091-0.041,2.198-0.087,3.324
			c0,0.446-0.153,0.779-0.458,1.003c-0.306,0.222-0.633,0.334-0.985,0.334c-0.352,0-0.668-0.112-0.949-0.334
			c-0.281-0.224-0.41-0.557-0.388-1.003c0.024-0.938,0.048-1.875,0.071-2.813s0.012-1.876-0.035-2.814
			c-0.048-0.469-0.083-0.949-0.105-1.441c-0.023-0.493-0.082-0.985-0.176-1.478c-0.048-0.234-0.088-0.463-0.123-0.686
			c-0.035-0.223-0.088-0.451-0.159-0.686c-0.022-0.187-0.082-0.387-0.175-0.598c-0.07-0.211-0.118-0.329-0.142-0.352
			c-0.047-0.07-0.082-0.134-0.105-0.193s-0.059-0.124-0.104-0.194c-0.212-0.234-0.341-0.364-0.388-0.387
			c-0.094-0.07-0.176-0.123-0.246-0.158s-0.141-0.076-0.212-0.123c-0.258-0.141-0.55-0.258-0.879-0.352
			c-0.328-0.094-0.645-0.141-0.949-0.141c-0.798-0.047-1.542,0.094-2.233,0.422c-0.692,0.329-1.308,0.833-1.847,1.513
			c-0.047,1.618-0.129,3.218-0.246,4.801c-0.118,1.583-0.458,3.148-1.021,4.696c-0.117,0.352-0.334,0.633-0.65,0.844
			C108.194,38.377,107.836,38.424,107.437,38.306z"/>
		<path d="M125.34,25.362c0.444-0.61,0.979-1.149,1.601-1.618c0.621-0.469,1.283-0.838,1.987-1.108
			c0.703-0.269,1.43-0.41,2.181-0.422c0.75-0.011,1.5,0.135,2.251,0.439c0.727,0.282,1.384,0.663,1.97,1.143
			c0.587,0.481,1.043,1.097,1.371,1.847c0.259,0.563,0.411,1.172,0.458,1.829c0.047,0.657-0.129,1.254-0.527,1.794
			c-0.352,0.493-0.78,0.868-1.284,1.125c-0.504,0.259-1.044,0.446-1.617,0.563c-0.576,0.117-1.162,0.176-1.76,0.176
			s-1.167-0.012-1.705-0.035c-0.61-0.023-1.215-0.071-1.813-0.141c-0.598-0.071-1.202-0.141-1.812-0.212
			c0.188,1.056,0.563,1.994,1.127,2.814c0.563,0.821,1.323,1.441,2.285,1.864c0.258,0.093,0.458,0.164,0.598,0.21
			c0.07,0.024,0.135,0.042,0.194,0.054c0.058,0.013,0.122,0.018,0.193,0.018c0.188,0.023,0.345,0.041,0.475,0.053
			c0.129,0.012,0.251,0.006,0.37-0.018c0.163-0.022,0.274-0.04,0.334-0.053c0.058-0.012,0.122-0.029,0.193-0.054
			c0.257-0.069,0.486-0.151,0.686-0.246c0.199-0.093,0.439-0.245,0.721-0.456c0.141-0.117,0.329-0.294,0.563-0.528
			s0.434-0.445,0.598-0.633c0.234-0.328,0.522-0.551,0.861-0.668c0.341-0.117,0.687-0.07,1.038,0.141
			c0.305,0.188,0.521,0.475,0.65,0.861c0.129,0.387,0.076,0.745-0.158,1.073c-0.681,0.914-1.483,1.694-2.409,2.34
			c-0.927,0.645-1.987,0.99-3.184,1.036c-0.961,0.047-1.888-0.122-2.778-0.51c-0.892-0.387-1.678-0.908-2.357-1.564
			c-0.844-0.821-1.512-1.771-2.005-2.85c-0.492-1.078-0.762-2.181-0.809-3.307c-0.212-0.164-0.369-0.37-0.476-0.615
			c-0.104-0.246-0.14-0.498-0.104-0.756c0.035-0.258,0.122-0.498,0.264-0.721c0.14-0.223,0.352-0.369,0.633-0.439
			C124.402,26.921,124.8,26.112,125.34,25.362z M133.782,26.206c-0.259-0.328-0.657-0.621-1.197-0.88
			c-0.445-0.187-0.967-0.281-1.564-0.281c-0.599,0-1.108,0.106-1.53,0.317c-0.54,0.258-1.021,0.615-1.441,1.073
			c-0.423,0.457-0.764,0.967-1.021,1.53c0.563,0.07,1.125,0.141,1.688,0.211c0.563,0.07,1.126,0.118,1.688,0.141
			c0.305,0,0.61,0,0.915,0s0.609-0.012,0.914-0.035c0.094,0,0.183-0.005,0.265-0.018c0.082-0.012,0.169-0.018,0.264-0.018
			c0.211-0.046,0.369-0.076,0.475-0.088s0.216-0.041,0.334-0.088c0.094-0.023,0.212-0.059,0.352-0.105
			c0.117-0.046,0.188-0.082,0.211-0.105s0.059-0.047,0.105-0.07l0.106-0.422c-0.047-0.093-0.077-0.181-0.089-0.264
			c-0.012-0.082-0.04-0.159-0.088-0.229c-0.022-0.071-0.076-0.176-0.157-0.316C133.928,26.417,133.852,26.3,133.782,26.206z"/>
		<path d="M140.571,24.693c0.023-0.445,0.188-0.779,0.492-1.002c0.305-0.222,0.634-0.334,0.985-0.334
			c0.351,0,0.662,0.112,0.932,0.334c0.269,0.223,0.393,0.558,0.37,1.002c0,0.141-0.007,0.288-0.018,0.44
			c-0.013,0.153-0.018,0.299-0.018,0.439c0.75-0.375,1.541-0.697,2.373-0.967c0.832-0.27,1.665-0.439,2.498-0.51
			c0.832-0.07,1.642-0.005,2.428,0.194c0.785,0.199,1.506,0.58,2.162,1.143c0.328,0.305,0.475,0.633,0.44,0.985
			c-0.035,0.352-0.177,0.651-0.422,0.897c-0.246,0.247-0.559,0.399-0.933,0.457c-0.376,0.059-0.739-0.052-1.091-0.334
			c-0.258-0.211-0.545-0.363-0.861-0.457s-0.657-0.135-1.021-0.123c-0.363,0.012-0.727,0.053-1.09,0.123
			c-0.364,0.07-0.71,0.153-1.038,0.246c-1.243,0.399-2.403,0.927-3.481,1.583c0.046,1.149,0.117,2.298,0.21,3.447
			c0.094,0.962,0.177,1.952,0.246,2.973c0.071,1.02,0.27,1.986,0.598,2.902c0.142,0.421,0.112,0.779-0.087,1.072
			s-0.47,0.486-0.81,0.58s-0.691,0.07-1.055-0.069c-0.364-0.142-0.616-0.423-0.756-0.846c-0.188-0.538-0.317-1.09-0.388-1.653
			c-0.07-0.563-0.14-1.125-0.211-1.688c-0.047-0.54-0.1-1.085-0.158-1.636s-0.111-1.096-0.158-1.636
			c-0.117-1.267-0.194-2.526-0.229-3.781C140.448,27.22,140.477,25.96,140.571,24.693z"/>
		<path d="M155.872,25.362c0.445-0.61,0.979-1.149,1.601-1.618c0.621-0.469,1.283-0.838,1.987-1.108
			c0.703-0.269,1.43-0.41,2.181-0.422c0.75-0.011,1.5,0.135,2.251,0.439c0.728,0.282,1.384,0.663,1.97,1.143
			c0.587,0.481,1.043,1.097,1.372,1.847c0.258,0.563,0.41,1.172,0.457,1.829c0.047,0.657-0.129,1.254-0.527,1.794
			c-0.352,0.493-0.779,0.868-1.284,1.125c-0.504,0.259-1.043,0.446-1.617,0.563c-0.576,0.117-1.161,0.176-1.76,0.176
			c-0.598,0-1.167-0.012-1.705-0.035c-0.61-0.023-1.214-0.071-1.812-0.141c-0.599-0.071-1.202-0.141-1.813-0.212
			c0.188,1.056,0.564,1.994,1.127,2.814c0.563,0.821,1.323,1.441,2.286,1.864c0.257,0.093,0.457,0.164,0.598,0.21
			c0.069,0.024,0.135,0.042,0.193,0.054c0.058,0.013,0.123,0.018,0.193,0.018c0.188,0.023,0.346,0.041,0.475,0.053
			s0.252,0.006,0.37-0.018c0.163-0.022,0.274-0.04,0.334-0.053c0.058-0.012,0.122-0.029,0.193-0.054
			c0.258-0.069,0.486-0.151,0.686-0.246c0.199-0.093,0.44-0.245,0.722-0.456c0.14-0.117,0.328-0.294,0.563-0.528
			s0.434-0.445,0.598-0.633c0.234-0.328,0.522-0.551,0.861-0.668c0.341-0.117,0.687-0.07,1.038,0.141
			c0.305,0.188,0.521,0.475,0.65,0.861s0.076,0.745-0.157,1.073c-0.682,0.914-1.483,1.694-2.41,2.34
			c-0.926,0.645-1.987,0.99-3.184,1.036c-0.961,0.047-1.888-0.122-2.778-0.51c-0.892-0.387-1.678-0.908-2.357-1.564
			c-0.844-0.821-1.512-1.771-2.004-2.85c-0.493-1.078-0.763-2.181-0.81-3.307c-0.211-0.164-0.369-0.37-0.475-0.615
			c-0.105-0.246-0.141-0.498-0.105-0.756c0.035-0.258,0.122-0.498,0.264-0.721c0.141-0.223,0.352-0.369,0.633-0.439
			C154.935,26.921,155.333,26.112,155.872,25.362z M164.315,26.206c-0.259-0.328-0.657-0.621-1.196-0.88
			c-0.446-0.187-0.967-0.281-1.564-0.281c-0.6,0-1.109,0.106-1.531,0.317c-0.539,0.258-1.021,0.615-1.441,1.073
			c-0.423,0.457-0.763,0.967-1.021,1.53c0.563,0.07,1.125,0.141,1.688,0.211c0.563,0.07,1.125,0.118,1.688,0.141
			c0.305,0,0.61,0,0.916,0c0.304,0,0.608-0.012,0.914-0.035c0.093,0,0.182-0.005,0.264-0.018c0.082-0.012,0.17-0.018,0.264-0.018
			c0.211-0.046,0.369-0.076,0.476-0.088c0.104-0.012,0.215-0.041,0.334-0.088c0.093-0.023,0.211-0.059,0.351-0.105
			c0.117-0.046,0.188-0.082,0.212-0.105c0.022-0.023,0.058-0.047,0.104-0.07l0.106-0.422c-0.047-0.093-0.076-0.181-0.089-0.264
			c-0.012-0.082-0.04-0.159-0.087-0.229c-0.023-0.071-0.077-0.176-0.158-0.316C164.46,26.417,164.385,26.3,164.315,26.206z"/>
		<path d="M172.51,36.548c0.305,0.188,0.539,0.469,0.703,0.844s0.188,0.727,0.071,1.056c-0.142,0.398-0.376,0.69-0.704,0.879
			c-0.259,0.281-0.587,0.416-0.985,0.405c-0.398-0.013-0.727-0.147-0.984-0.405c-0.352-0.281-0.574-0.516-0.669-0.703
			c-0.188-0.328-0.241-0.657-0.157-0.985c0.082-0.328,0.264-0.609,0.545-0.844c0.046-0.047,0.105-0.1,0.175-0.159
			c0.071-0.058,0.142-0.11,0.212-0.157c0.211-0.095,0.334-0.142,0.37-0.142c0.035,0,0.169-0.022,0.403-0.07
			c0.188,0,0.329,0.024,0.423,0.07C172.146,36.383,172.346,36.454,172.51,36.548z"/>
	</g>
</g>
</svg>
